<?xml version="1.0" encoding="utf-8" standalone="no"?>
<!DOCTYPE svg PUBLIC "-//W3C//DTD SVG 1.1//EN"
  "http://www.w3.org/Graphics/SVG/1.1/DTD/svg11.dtd">
<svg xmlns:xlink="http://www.w3.org/1999/xlink" width="277.960094pt" height="208.631986pt" viewBox="0 0 277.960094 208.631986" xmlns="http://www.w3.org/2000/svg" version="1.1">
 <metadata>
  <rdf:RDF xmlns:dc="http://purl.org/dc/elements/1.1/" xmlns:cc="http://creativecommons.org/ns#" xmlns:rdf="http://www.w3.org/1999/02/22-rdf-syntax-ns#">
   <cc:Work>
    <dc:type rdf:resource="http://purl.org/dc/dcmitype/StillImage"/>
    <dc:date>2023-12-11T10:05:03.568287</dc:date>
    <dc:format>image/svg+xml</dc:format>
    <dc:creator>
     <cc:Agent>
      <dc:title>Matplotlib v3.5.3, https://matplotlib.org/</dc:title>
     </cc:Agent>
    </dc:creator>
   </cc:Work>
  </rdf:RDF>
 </metadata>
 <defs>
  <style type="text/css">*{stroke-linejoin: round; stroke-linecap: butt}</style>
 </defs>
 <g id="figure_1">
  <g id="patch_1">
   <path d="M 0 208.631986 
L 277.960094 208.631986 
L 277.960094 -0 
L 0 -0 
L 0 208.631986 
z
" style="fill: none"/>
  </g>
  <g id="axes_1">
   <g id="patch_2">
    <path d="M 31.508125 181.814173 
L 218.240408 181.814173 
L 218.240408 7.2 
L 31.508125 7.2 
L 31.508125 181.814173 
z
" style="fill: none"/>
   </g>
   <g id="line2d_1">
    <path d="M 66.830179 181.814173 
L 140.424892 7.2 
" clip-path="url(#pc2a3c2efed)" style="fill: none; stroke-dasharray: 1.85,0.8; stroke-dashoffset: 0; stroke: #000000; stroke-width: 0.5"/>
   </g>
   <g id="line2d_2">
    <path d="M 91.081208 181.814173 
L 164.675922 7.2 
" clip-path="url(#pc2a3c2efed)" style="fill: none; stroke-dasharray: 1.85,0.8; stroke-dashoffset: 0; stroke: #808080; stroke-width: 0.5"/>
   </g>
   <g id="line2d_3">
    <path d="M 42.579149 181.814173 
L 116.173862 7.2 
" clip-path="url(#pc2a3c2efed)" style="fill: none; stroke-dasharray: 1.85,0.8; stroke-dashoffset: 0; stroke: #808080; stroke-width: 0.5"/>
   </g>
   <g id="matplotlib.axis_1">
    <g id="xtick_1">
     <g id="line2d_4">
      <defs>
       <path id="mc52e388904" d="M 0 0 
L 0 2.5 
" style="stroke: #000000; stroke-width: 0.5"/>
      </defs>
      <g>
       <use xlink:href="#mc52e388904" x="46.177746" y="181.814173" style="stroke: #000000; stroke-width: 0.5"/>
      </g>
     </g>
     <g id="text_1">
      <text style="font: 6px 'sans-serif'; text-anchor: middle" x="46.177746" y="190.608861" transform="rotate(-0, 46.177746, 190.608861)">−20</text>
     </g>
    </g>
    <g id="xtick_2">
     <g id="line2d_5">
      <g>
       <use xlink:href="#mc52e388904" x="70.428775" y="181.814173" style="stroke: #000000; stroke-width: 0.5"/>
      </g>
     </g>
     <g id="text_2">
      <text style="font: 6px 'sans-serif'; text-anchor: middle" x="70.428775" y="190.608861" transform="rotate(-0, 70.428775, 190.608861)">−10</text>
     </g>
    </g>
    <g id="xtick_3">
     <g id="line2d_6">
      <g>
       <use xlink:href="#mc52e388904" x="94.679805" y="181.814173" style="stroke: #000000; stroke-width: 0.5"/>
      </g>
     </g>
     <g id="text_3">
      <text style="font: 6px 'sans-serif'; text-anchor: middle" x="94.679805" y="190.608861" transform="rotate(-0, 94.679805, 190.608861)">0</text>
     </g>
    </g>
    <g id="xtick_4">
     <g id="line2d_7">
      <g>
       <use xlink:href="#mc52e388904" x="118.930835" y="181.814173" style="stroke: #000000; stroke-width: 0.5"/>
      </g>
     </g>
     <g id="text_4">
      <text style="font: 6px 'sans-serif'; text-anchor: middle" x="118.930835" y="190.608861" transform="rotate(-0, 118.930835, 190.608861)">10</text>
     </g>
    </g>
    <g id="xtick_5">
     <g id="line2d_8">
      <g>
       <use xlink:href="#mc52e388904" x="143.181864" y="181.814173" style="stroke: #000000; stroke-width: 0.5"/>
      </g>
     </g>
     <g id="text_5">
      <text style="font: 6px 'sans-serif'; text-anchor: middle" x="143.181864" y="190.608861" transform="rotate(-0, 143.181864, 190.608861)">20</text>
     </g>
    </g>
    <g id="xtick_6">
     <g id="line2d_9">
      <g>
       <use xlink:href="#mc52e388904" x="167.432894" y="181.814173" style="stroke: #000000; stroke-width: 0.5"/>
      </g>
     </g>
     <g id="text_6">
      <text style="font: 6px 'sans-serif'; text-anchor: middle" x="167.432894" y="190.608861" transform="rotate(-0, 167.432894, 190.608861)">30</text>
     </g>
    </g>
    <g id="xtick_7">
     <g id="line2d_10">
      <g>
       <use xlink:href="#mc52e388904" x="191.683924" y="181.814173" style="stroke: #000000; stroke-width: 0.5"/>
      </g>
     </g>
     <g id="text_7">
      <text style="font: 6px 'sans-serif'; text-anchor: middle" x="191.683924" y="190.608861" transform="rotate(-0, 191.683924, 190.608861)">40</text>
     </g>
    </g>
    <g id="xtick_8">
     <g id="line2d_11">
      <g>
       <use xlink:href="#mc52e388904" x="215.934954" y="181.814173" style="stroke: #000000; stroke-width: 0.5"/>
      </g>
     </g>
     <g id="text_8">
      <text style="font: 6px 'sans-serif'; text-anchor: middle" x="215.934954" y="190.608861" transform="rotate(-0, 215.934954, 190.608861)">50</text>
     </g>
    </g>
    <g id="text_9">
     <text style="font: 6px 'sans-serif'; text-anchor: middle" x="124.874267" y="200.169173" transform="rotate(-0, 124.874267, 200.169173)">Surugamide-1 Activity</text>
    </g>
   </g>
   <g id="matplotlib.axis_2">
    <g id="ytick_1">
     <g id="line2d_12">
      <defs>
       <path id="m0d97d0f0ff" d="M 0 0 
L -2.5 0 
" style="stroke: #000000; stroke-width: 0.5"/>
      </defs>
      <g>
       <use xlink:href="#m0d97d0f0ff" x="31.508125" y="173.275978" style="stroke: #000000; stroke-width: 0.5"/>
      </g>
     </g>
     <g id="text_10">
      <text style="font: 6px 'sans-serif'; text-anchor: end" x="27.008125" y="175.423322" transform="rotate(-0, 27.008125, 175.423322)">−10</text>
     </g>
    </g>
    <g id="ytick_2">
     <g id="line2d_13">
      <g>
       <use xlink:href="#m0d97d0f0ff" x="31.508125" y="144.506429" style="stroke: #000000; stroke-width: 0.5"/>
      </g>
     </g>
     <g id="text_11">
      <text style="font: 6px 'sans-serif'; text-anchor: end" x="27.008125" y="146.653773" transform="rotate(-0, 27.008125, 146.653773)">−5</text>
     </g>
    </g>
    <g id="ytick_3">
     <g id="line2d_14">
      <g>
       <use xlink:href="#m0d97d0f0ff" x="31.508125" y="115.736879" style="stroke: #000000; stroke-width: 0.5"/>
      </g>
     </g>
     <g id="text_12">
      <text style="font: 6px 'sans-serif'; text-anchor: end" x="27.008125" y="117.884223" transform="rotate(-0, 27.008125, 117.884223)">0</text>
     </g>
    </g>
    <g id="ytick_4">
     <g id="line2d_15">
      <g>
       <use xlink:href="#m0d97d0f0ff" x="31.508125" y="86.96733" style="stroke: #000000; stroke-width: 0.5"/>
      </g>
     </g>
     <g id="text_13">
      <text style="font: 6px 'sans-serif'; text-anchor: end" x="27.008125" y="89.114674" transform="rotate(-0, 27.008125, 89.114674)">5</text>
     </g>
    </g>
    <g id="ytick_5">
     <g id="line2d_16">
      <g>
       <use xlink:href="#m0d97d0f0ff" x="31.508125" y="58.19778" style="stroke: #000000; stroke-width: 0.5"/>
      </g>
     </g>
     <g id="text_14">
      <text style="font: 6px 'sans-serif'; text-anchor: end" x="27.008125" y="60.345124" transform="rotate(-0, 27.008125, 60.345124)">10</text>
     </g>
    </g>
    <g id="ytick_6">
     <g id="line2d_17">
      <g>
       <use xlink:href="#m0d97d0f0ff" x="31.508125" y="29.428231" style="stroke: #000000; stroke-width: 0.5"/>
      </g>
     </g>
     <g id="text_15">
      <text style="font: 6px 'sans-serif'; text-anchor: end" x="27.008125" y="31.575575" transform="rotate(-0, 27.008125, 31.575575)">15</text>
     </g>
    </g>
    <g id="text_16">
     <text style="font: 6px 'sans-serif'; text-anchor: middle" x="11.567813" y="94.507087" transform="rotate(-90, 11.567813, 94.507087)">Surugamide-2 Activity</text>
    </g>
   </g>
   <g id="PathCollection_1">
    <defs>
     <path id="m784ef5e153" d="M 0 2.738613 
C 0.726289 2.738613 1.422928 2.450055 1.936492 1.936492 
C 2.450055 1.422928 2.738613 0.726289 2.738613 0 
C 2.738613 -0.726289 2.450055 -1.422928 1.936492 -1.936492 
C 1.422928 -2.450055 0.726289 -2.738613 0 -2.738613 
C -0.726289 -2.738613 -1.422928 -2.450055 -1.936492 -1.936492 
C -2.450055 -1.422928 -2.738613 -0.726289 -2.738613 0 
C -2.738613 0.726289 -2.450055 1.422928 -1.936492 1.936492 
C -1.422928 2.450055 -0.726289 2.738613 0 2.738613 
z
" style="stroke: #008000; stroke-width: 0.5"/>
    </defs>
    <g clip-path="url(#pc2a3c2efed)">
     <use xlink:href="#m784ef5e153" x="89.654514" y="60.309738" style="fill: #008000; stroke: #008000; stroke-width: 0.5"/>
     <use xlink:href="#m784ef5e153" x="88.945884" y="55.760915" style="fill: #008000; stroke: #008000; stroke-width: 0.5"/>
     <use xlink:href="#m784ef5e153" x="84.942434" y="48.8946" style="fill: #008000; stroke: #008000; stroke-width: 0.5"/>
     <use xlink:href="#m784ef5e153" x="85.829603" y="48.794434" style="fill: #008000; stroke: #008000; stroke-width: 0.5"/>
    </g>
   </g>
   <g id="PathCollection_2">
    <defs>
     <path id="m5b764ea6d0" d="M 0 2.738613 
C 0.726289 2.738613 1.422928 2.450055 1.936492 1.936492 
C 2.450055 1.422928 2.738613 0.726289 2.738613 0 
C 2.738613 -0.726289 2.450055 -1.422928 1.936492 -1.936492 
C 1.422928 -2.450055 0.726289 -2.738613 0 -2.738613 
C -0.726289 -2.738613 -1.422928 -2.450055 -1.936492 -1.936492 
C -2.450055 -1.422928 -2.738613 -0.726289 -2.738613 0 
C -2.738613 0.726289 -2.450055 1.422928 -1.936492 1.936492 
C -1.422928 2.450055 -0.726289 2.738613 0 2.738613 
z
" style="stroke: #ffa500; stroke-width: 0.5"/>
    </defs>
    <g clip-path="url(#pc2a3c2efed)">
     <use xlink:href="#m5b764ea6d0" x="147.770901" y="127.361302" style="fill: #ffa500; stroke: #ffa500; stroke-width: 0.5"/>
     <use xlink:href="#m5b764ea6d0" x="153.334657" y="125.577025" style="fill: #ffa500; stroke: #ffa500; stroke-width: 0.5"/>
     <use xlink:href="#m5b764ea6d0" x="142.836466" y="117.556658" style="fill: #ffa500; stroke: #ffa500; stroke-width: 0.5"/>
     <use xlink:href="#m5b764ea6d0" x="137.273456" y="136.70035" style="fill: #ffa500; stroke: #ffa500; stroke-width: 0.5"/>
     <use xlink:href="#m5b764ea6d0" x="63.142575" y="108.188296" style="fill: #ffa500; stroke: #ffa500; stroke-width: 0.5"/>
     <use xlink:href="#m5b764ea6d0" x="131.846179" y="105.507657" style="fill: #ffa500; stroke: #ffa500; stroke-width: 0.5"/>
     <use xlink:href="#m5b764ea6d0" x="147.689305" y="129.588206" style="fill: #ffa500; stroke: #ffa500; stroke-width: 0.5"/>
     <use xlink:href="#m5b764ea6d0" x="152.988472" y="108.675461" style="fill: #ffa500; stroke: #ffa500; stroke-width: 0.5"/>
     <use xlink:href="#m5b764ea6d0" x="167.103015" y="135.836517" style="fill: #ffa500; stroke: #ffa500; stroke-width: 0.5"/>
     <use xlink:href="#m5b764ea6d0" x="167.109875" y="105.905553" style="fill: #ffa500; stroke: #ffa500; stroke-width: 0.5"/>
     <use xlink:href="#m5b764ea6d0" x="165.0002" y="104.089924" style="fill: #ffa500; stroke: #ffa500; stroke-width: 0.5"/>
     <use xlink:href="#m5b764ea6d0" x="164.369457" y="105.005186" style="fill: #ffa500; stroke: #ffa500; stroke-width: 0.5"/>
     <use xlink:href="#m5b764ea6d0" x="170.988009" y="142.036778" style="fill: #ffa500; stroke: #ffa500; stroke-width: 0.5"/>
     <use xlink:href="#m5b764ea6d0" x="177.684923" y="132.237094" style="fill: #ffa500; stroke: #ffa500; stroke-width: 0.5"/>
     <use xlink:href="#m5b764ea6d0" x="174.93486" y="65.356326" style="fill: #ffa500; stroke: #ffa500; stroke-width: 0.5"/>
     <use xlink:href="#m5b764ea6d0" x="177.517503" y="58.944655" style="fill: #ffa500; stroke: #ffa500; stroke-width: 0.5"/>
     <use xlink:href="#m5b764ea6d0" x="150.101963" y="99.706381" style="fill: #ffa500; stroke: #ffa500; stroke-width: 0.5"/>
     <use xlink:href="#m5b764ea6d0" x="153.193684" y="78.499783" style="fill: #ffa500; stroke: #ffa500; stroke-width: 0.5"/>
     <use xlink:href="#m5b764ea6d0" x="161.699003" y="134.22531" style="fill: #ffa500; stroke: #ffa500; stroke-width: 0.5"/>
     <use xlink:href="#m5b764ea6d0" x="158.950287" y="131.739247" style="fill: #ffa500; stroke: #ffa500; stroke-width: 0.5"/>
     <use xlink:href="#m5b764ea6d0" x="164.9131" y="126.948739" style="fill: #ffa500; stroke: #ffa500; stroke-width: 0.5"/>
     <use xlink:href="#m5b764ea6d0" x="161.512167" y="117.511459" style="fill: #ffa500; stroke: #ffa500; stroke-width: 0.5"/>
     <use xlink:href="#m5b764ea6d0" x="139.060589" y="145.880799" style="fill: #ffa500; stroke: #ffa500; stroke-width: 0.5"/>
     <use xlink:href="#m5b764ea6d0" x="137.773044" y="148.410326" style="fill: #ffa500; stroke: #ffa500; stroke-width: 0.5"/>
     <use xlink:href="#m5b764ea6d0" x="156.527398" y="147.933393" style="fill: #ffa500; stroke: #ffa500; stroke-width: 0.5"/>
     <use xlink:href="#m5b764ea6d0" x="159.040736" y="164.512678" style="fill: #ffa500; stroke: #ffa500; stroke-width: 0.5"/>
     <use xlink:href="#m5b764ea6d0" x="118.537434" y="144.053812" style="fill: #ffa500; stroke: #ffa500; stroke-width: 0.5"/>
     <use xlink:href="#m5b764ea6d0" x="109.84024" y="141.910779" style="fill: #ffa500; stroke: #ffa500; stroke-width: 0.5"/>
     <use xlink:href="#m5b764ea6d0" x="166.322527" y="143.940033" style="fill: #ffa500; stroke: #ffa500; stroke-width: 0.5"/>
     <use xlink:href="#m5b764ea6d0" x="154.206268" y="151.130508" style="fill: #ffa500; stroke: #ffa500; stroke-width: 0.5"/>
     <use xlink:href="#m5b764ea6d0" x="148.081557" y="136.790533" style="fill: #ffa500; stroke: #ffa500; stroke-width: 0.5"/>
     <use xlink:href="#m5b764ea6d0" x="154.103708" y="113.057178" style="fill: #ffa500; stroke: #ffa500; stroke-width: 0.5"/>
    </g>
   </g>
   <g id="PathCollection_3">
    <defs>
     <path id="m88ee4399ee" d="M 0 2.738613 
C 0.726289 2.738613 1.422928 2.450055 1.936492 1.936492 
C 2.450055 1.422928 2.738613 0.726289 2.738613 0 
C 2.738613 -0.726289 2.450055 -1.422928 1.936492 -1.936492 
C 1.422928 -2.450055 0.726289 -2.738613 0 -2.738613 
C -0.726289 -2.738613 -1.422928 -2.450055 -1.936492 -1.936492 
C -2.450055 -1.422928 -2.738613 -0.726289 -2.738613 0 
C -2.738613 0.726289 -2.450055 1.422928 -1.936492 1.936492 
C -1.422928 2.450055 -0.726289 2.738613 0 2.738613 
z
" style="stroke: #a52a2a; stroke-width: 0.5"/>
    </defs>
    <g clip-path="url(#pc2a3c2efed)">
     <use xlink:href="#m88ee4399ee" x="114.186758" y="132.901267" style="fill: #a52a2a; stroke: #a52a2a; stroke-width: 0.5"/>
     <use xlink:href="#m88ee4399ee" x="130.865859" y="151.055752" style="fill: #a52a2a; stroke: #a52a2a; stroke-width: 0.5"/>
     <use xlink:href="#m88ee4399ee" x="130.055699" y="153.404798" style="fill: #a52a2a; stroke: #a52a2a; stroke-width: 0.5"/>
     <use xlink:href="#m88ee4399ee" x="126.838312" y="146.234676" style="fill: #a52a2a; stroke: #a52a2a; stroke-width: 0.5"/>
     <use xlink:href="#m88ee4399ee" x="129.394788" y="152.805563" style="fill: #a52a2a; stroke: #a52a2a; stroke-width: 0.5"/>
     <use xlink:href="#m88ee4399ee" x="128.435922" y="149.349853" style="fill: #a52a2a; stroke: #a52a2a; stroke-width: 0.5"/>
     <use xlink:href="#m88ee4399ee" x="128.408519" y="149.231673" style="fill: #a52a2a; stroke: #a52a2a; stroke-width: 0.5"/>
     <use xlink:href="#m88ee4399ee" x="127.413028" y="145.454709" style="fill: #a52a2a; stroke: #a52a2a; stroke-width: 0.5"/>
     <use xlink:href="#m88ee4399ee" x="127.487825" y="144.339812" style="fill: #a52a2a; stroke: #a52a2a; stroke-width: 0.5"/>
     <use xlink:href="#m88ee4399ee" x="126.612705" y="141.391289" style="fill: #a52a2a; stroke: #a52a2a; stroke-width: 0.5"/>
     <use xlink:href="#m88ee4399ee" x="127.086867" y="150.047483" style="fill: #a52a2a; stroke: #a52a2a; stroke-width: 0.5"/>
     <use xlink:href="#m88ee4399ee" x="129.544747" y="152.563405" style="fill: #a52a2a; stroke: #a52a2a; stroke-width: 0.5"/>
     <use xlink:href="#m88ee4399ee" x="127.365155" y="148.545235" style="fill: #a52a2a; stroke: #a52a2a; stroke-width: 0.5"/>
    </g>
   </g>
   <g id="PathCollection_4">
    <defs>
     <path id="m9f7597ee76" d="M 0 2.738613 
C 0.726289 2.738613 1.422928 2.450055 1.936492 1.936492 
C 2.450055 1.422928 2.738613 0.726289 2.738613 0 
C 2.738613 -0.726289 2.450055 -1.422928 1.936492 -1.936492 
C 1.422928 -2.450055 0.726289 -2.738613 0 -2.738613 
C -0.726289 -2.738613 -1.422928 -2.450055 -1.936492 -1.936492 
C -2.450055 -1.422928 -2.738613 -0.726289 -2.738613 0 
C -2.738613 0.726289 -2.450055 1.422928 -1.936492 1.936492 
C -1.422928 2.450055 -0.726289 2.738613 0 2.738613 
z
" style="stroke: #ffc0cb; stroke-width: 0.5"/>
    </defs>
    <g clip-path="url(#pc2a3c2efed)">
     <use xlink:href="#m9f7597ee76" x="193.389694" y="122.488688" style="fill: #ffc0cb; stroke: #ffc0cb; stroke-width: 0.5"/>
     <use xlink:href="#m9f7597ee76" x="194.580421" y="106.430346" style="fill: #ffc0cb; stroke: #ffc0cb; stroke-width: 0.5"/>
     <use xlink:href="#m9f7597ee76" x="198.751064" y="111.182973" style="fill: #ffc0cb; stroke: #ffc0cb; stroke-width: 0.5"/>
     <use xlink:href="#m9f7597ee76" x="176.832137" y="127.453775" style="fill: #ffc0cb; stroke: #ffc0cb; stroke-width: 0.5"/>
     <use xlink:href="#m9f7597ee76" x="173.512109" y="125.269742" style="fill: #ffc0cb; stroke: #ffc0cb; stroke-width: 0.5"/>
     <use xlink:href="#m9f7597ee76" x="172.905173" y="121.537834" style="fill: #ffc0cb; stroke: #ffc0cb; stroke-width: 0.5"/>
     <use xlink:href="#m9f7597ee76" x="188.390098" y="102.792262" style="fill: #ffc0cb; stroke: #ffc0cb; stroke-width: 0.5"/>
     <use xlink:href="#m9f7597ee76" x="192.064296" y="104.419165" style="fill: #ffc0cb; stroke: #ffc0cb; stroke-width: 0.5"/>
     <use xlink:href="#m9f7597ee76" x="190.399337" y="115.349832" style="fill: #ffc0cb; stroke: #ffc0cb; stroke-width: 0.5"/>
     <use xlink:href="#m9f7597ee76" x="150.097841" y="123.405634" style="fill: #ffc0cb; stroke: #ffc0cb; stroke-width: 0.5"/>
     <use xlink:href="#m9f7597ee76" x="143.774452" y="130.851437" style="fill: #ffc0cb; stroke: #ffc0cb; stroke-width: 0.5"/>
     <use xlink:href="#m9f7597ee76" x="143.445992" y="143.406473" style="fill: #ffc0cb; stroke: #ffc0cb; stroke-width: 0.5"/>
     <use xlink:href="#m9f7597ee76" x="196.452269" y="120.117842" style="fill: #ffc0cb; stroke: #ffc0cb; stroke-width: 0.5"/>
     <use xlink:href="#m9f7597ee76" x="195.895272" y="123.23916" style="fill: #ffc0cb; stroke: #ffc0cb; stroke-width: 0.5"/>
     <use xlink:href="#m9f7597ee76" x="188.523777" y="118.226199" style="fill: #ffc0cb; stroke: #ffc0cb; stroke-width: 0.5"/>
     <use xlink:href="#m9f7597ee76" x="200.254518" y="123.287095" style="fill: #ffc0cb; stroke: #ffc0cb; stroke-width: 0.5"/>
     <use xlink:href="#m9f7597ee76" x="201.303015" y="118.721992" style="fill: #ffc0cb; stroke: #ffc0cb; stroke-width: 0.5"/>
     <use xlink:href="#m9f7597ee76" x="202.679385" y="109.595812" style="fill: #ffc0cb; stroke: #ffc0cb; stroke-width: 0.5"/>
    </g>
   </g>
   <g id="PathCollection_5">
    <defs>
     <path id="mf6fea2fa14" d="M 0 2.738613 
C 0.726289 2.738613 1.422928 2.450055 1.936492 1.936492 
C 2.450055 1.422928 2.738613 0.726289 2.738613 0 
C 2.738613 -0.726289 2.450055 -1.422928 1.936492 -1.936492 
C 1.422928 -2.450055 0.726289 -2.738613 0 -2.738613 
C -0.726289 -2.738613 -1.422928 -2.450055 -1.936492 -1.936492 
C -2.450055 -1.422928 -2.738613 -0.726289 -2.738613 0 
C -2.738613 0.726289 -2.450055 1.422928 -1.936492 1.936492 
C -1.422928 2.450055 -0.726289 2.738613 0 2.738613 
z
" style="stroke: #ff0000; stroke-width: 0.5"/>
    </defs>
    <g clip-path="url(#pc2a3c2efed)">
     <use xlink:href="#mf6fea2fa14" x="98.763753" y="21.751181" style="fill: #ff0000; stroke: #ff0000; stroke-width: 0.5"/>
     <use xlink:href="#mf6fea2fa14" x="98.295526" y="47.512194" style="fill: #ff0000; stroke: #ff0000; stroke-width: 0.5"/>
     <use xlink:href="#mf6fea2fa14" x="138.04084" y="91.883275" style="fill: #ff0000; stroke: #ff0000; stroke-width: 0.5"/>
     <use xlink:href="#mf6fea2fa14" x="149.146661" y="167.262992" style="fill: #ff0000; stroke: #ff0000; stroke-width: 0.5"/>
     <use xlink:href="#mf6fea2fa14" x="177.562318" y="121.662071" style="fill: #ff0000; stroke: #ff0000; stroke-width: 0.5"/>
     <use xlink:href="#mf6fea2fa14" x="137.456226" y="150.830961" style="fill: #ff0000; stroke: #ff0000; stroke-width: 0.5"/>
     <use xlink:href="#mf6fea2fa14" x="170.229605" y="78.92535" style="fill: #ff0000; stroke: #ff0000; stroke-width: 0.5"/>
     <use xlink:href="#mf6fea2fa14" x="170.041205" y="71.644037" style="fill: #ff0000; stroke: #ff0000; stroke-width: 0.5"/>
     <use xlink:href="#mf6fea2fa14" x="137.264402" y="155.511072" style="fill: #ff0000; stroke: #ff0000; stroke-width: 0.5"/>
     <use xlink:href="#mf6fea2fa14" x="144.38073" y="128.834801" style="fill: #ff0000; stroke: #ff0000; stroke-width: 0.5"/>
    </g>
   </g>
   <g id="PathCollection_6">
    <defs>
     <path id="m21ded0b236" d="M 0 2.738613 
C 0.726289 2.738613 1.422928 2.450055 1.936492 1.936492 
C 2.450055 1.422928 2.738613 0.726289 2.738613 0 
C 2.738613 -0.726289 2.450055 -1.422928 1.936492 -1.936492 
C 1.422928 -2.450055 0.726289 -2.738613 0 -2.738613 
C -0.726289 -2.738613 -1.422928 -2.450055 -1.936492 -1.936492 
C -2.450055 -1.422928 -2.738613 -0.726289 -2.738613 0 
C -2.738613 0.726289 -2.450055 1.422928 -1.936492 1.936492 
C -1.422928 2.450055 -0.726289 2.738613 0 2.738613 
z
" style="stroke: #0000ff; stroke-width: 0.5"/>
    </defs>
    <g clip-path="url(#pc2a3c2efed)">
     <use xlink:href="#m21ded0b236" x="158.618901" y="109.032461" style="fill: #0000ff; stroke: #0000ff; stroke-width: 0.5"/>
     <use xlink:href="#m21ded0b236" x="157.387656" y="107.08457" style="fill: #0000ff; stroke: #0000ff; stroke-width: 0.5"/>
    </g>
   </g>
   <g id="PathCollection_7">
    <defs>
     <path id="m3ccd2906fe" d="M 0 2.738613 
C 0.726289 2.738613 1.422928 2.450055 1.936492 1.936492 
C 2.450055 1.422928 2.738613 0.726289 2.738613 0 
C 2.738613 -0.726289 2.450055 -1.422928 1.936492 -1.936492 
C 1.422928 -2.450055 0.726289 -2.738613 0 -2.738613 
C -0.726289 -2.738613 -1.422928 -2.450055 -1.936492 -1.936492 
C -2.450055 -1.422928 -2.738613 -0.726289 -2.738613 0 
C -2.738613 0.726289 -2.450055 1.422928 -1.936492 1.936492 
C -1.422928 2.450055 -0.726289 2.738613 0 2.738613 
z
" style="stroke: #000000; stroke-width: 0.5"/>
    </defs>
    <g clip-path="url(#pc2a3c2efed)">
     <use xlink:href="#m3ccd2906fe" x="50.395983" y="107.697153" style="stroke: #000000; stroke-width: 0.5"/>
     <use xlink:href="#m3ccd2906fe" x="47.069149" y="101.759267" style="stroke: #000000; stroke-width: 0.5"/>
     <use xlink:href="#m3ccd2906fe" x="71.082672" y="83.722718" style="stroke: #000000; stroke-width: 0.5"/>
     <use xlink:href="#m3ccd2906fe" x="149.639957" y="132.301366" style="stroke: #000000; stroke-width: 0.5"/>
     <use xlink:href="#m3ccd2906fe" x="147.383839" y="121.030847" style="stroke: #000000; stroke-width: 0.5"/>
     <use xlink:href="#m3ccd2906fe" x="148.309452" y="141.630173" style="stroke: #000000; stroke-width: 0.5"/>
     <use xlink:href="#m3ccd2906fe" x="150.198392" y="114.174111" style="stroke: #000000; stroke-width: 0.5"/>
    </g>
   </g>
   <g id="PathCollection_8">
    <defs>
     <path id="m84ae2982a2" d="M 0 2.738613 
C 0.726289 2.738613 1.422928 2.450055 1.936492 1.936492 
C 2.450055 1.422928 2.738613 0.726289 2.738613 0 
C 2.738613 -0.726289 2.450055 -1.422928 1.936492 -1.936492 
C 1.422928 -2.450055 0.726289 -2.738613 0 -2.738613 
C -0.726289 -2.738613 -1.422928 -2.450055 -1.936492 -1.936492 
C -2.450055 -1.422928 -2.738613 -0.726289 -2.738613 0 
C -2.738613 0.726289 -2.450055 1.422928 -1.936492 1.936492 
C -1.422928 2.450055 -0.726289 2.738613 0 2.738613 
z
"/>
    </defs>
    <g clip-path="url(#pc2a3c2efed)">
     <use xlink:href="#m84ae2982a2" x="99.015209" y="108.028929" style="fill: #808080; fill-opacity: 0.7"/>
     <use xlink:href="#m84ae2982a2" x="90.344401" y="123.44483" style="fill: #808080; fill-opacity: 0.7"/>
     <use xlink:href="#m84ae2982a2" x="117.234594" y="97.112136" style="fill: #808080; fill-opacity: 0.7"/>
     <use xlink:href="#m84ae2982a2" x="118.154396" y="100.117887" style="fill: #808080; fill-opacity: 0.7"/>
     <use xlink:href="#m84ae2982a2" x="71.676106" y="113.42509" style="fill: #808080; fill-opacity: 0.7"/>
     <use xlink:href="#m84ae2982a2" x="113.367569" y="107.563408" style="fill: #808080; fill-opacity: 0.7"/>
     <use xlink:href="#m84ae2982a2" x="138.346122" y="39.749373" style="fill: #808080; fill-opacity: 0.7"/>
     <use xlink:href="#m84ae2982a2" x="125.715875" y="64.066093" style="fill: #808080; fill-opacity: 0.7"/>
     <use xlink:href="#m84ae2982a2" x="70.335812" y="138.939467" style="fill: #808080; fill-opacity: 0.7"/>
     <use xlink:href="#m84ae2982a2" x="67.054435" y="135.005489" style="fill: #808080; fill-opacity: 0.7"/>
     <use xlink:href="#m84ae2982a2" x="121.290019" y="97.517449" style="fill: #808080; fill-opacity: 0.7"/>
     <use xlink:href="#m84ae2982a2" x="95.65836" y="99.148757" style="fill: #808080; fill-opacity: 0.7"/>
     <use xlink:href="#m84ae2982a2" x="93.720979" y="64.714328" style="fill: #808080; fill-opacity: 0.7"/>
     <use xlink:href="#m84ae2982a2" x="129.604274" y="90.040443" style="fill: #808080; fill-opacity: 0.7"/>
     <use xlink:href="#m84ae2982a2" x="88.826127" y="80.07141" style="fill: #808080; fill-opacity: 0.7"/>
     <use xlink:href="#m84ae2982a2" x="101.314704" y="102.152799" style="fill: #808080; fill-opacity: 0.7"/>
     <use xlink:href="#m84ae2982a2" x="119.910961" y="82.32805" style="fill: #808080; fill-opacity: 0.7"/>
     <use xlink:href="#m84ae2982a2" x="115.717001" y="96.412108" style="fill: #808080; fill-opacity: 0.7"/>
     <use xlink:href="#m84ae2982a2" x="121.439186" y="95.829829" style="fill: #808080; fill-opacity: 0.7"/>
     <use xlink:href="#m84ae2982a2" x="110.509014" y="102.47248" style="fill: #808080; fill-opacity: 0.7"/>
     <use xlink:href="#m84ae2982a2" x="100.207165" y="96.891983" style="fill: #808080; fill-opacity: 0.7"/>
     <use xlink:href="#m84ae2982a2" x="117.556276" y="99.43318" style="fill: #808080; fill-opacity: 0.7"/>
     <use xlink:href="#m84ae2982a2" x="114.952228" y="95.057159" style="fill: #808080; fill-opacity: 0.7"/>
     <use xlink:href="#m84ae2982a2" x="106.026147" y="118.663835" style="fill: #808080; fill-opacity: 0.7"/>
     <use xlink:href="#m84ae2982a2" x="108.962914" y="109.449237" style="fill: #808080; fill-opacity: 0.7"/>
     <use xlink:href="#m84ae2982a2" x="106.3597" y="119.499919" style="fill: #808080; fill-opacity: 0.7"/>
     <use xlink:href="#m84ae2982a2" x="85.0913" y="115.115496" style="fill: #808080; fill-opacity: 0.7"/>
     <use xlink:href="#m84ae2982a2" x="112.078747" y="112.546163" style="fill: #808080; fill-opacity: 0.7"/>
     <use xlink:href="#m84ae2982a2" x="105.294375" y="125.492931" style="fill: #808080; fill-opacity: 0.7"/>
     <use xlink:href="#m84ae2982a2" x="111.489142" y="129.734976" style="fill: #808080; fill-opacity: 0.7"/>
     <use xlink:href="#m84ae2982a2" x="111.239777" y="130.268527" style="fill: #808080; fill-opacity: 0.7"/>
     <use xlink:href="#m84ae2982a2" x="90.494921" y="137.569693" style="fill: #808080; fill-opacity: 0.7"/>
     <use xlink:href="#m84ae2982a2" x="92.819272" y="143.429077" style="fill: #808080; fill-opacity: 0.7"/>
     <use xlink:href="#m84ae2982a2" x="94.010291" y="142.951336" style="fill: #808080; fill-opacity: 0.7"/>
     <use xlink:href="#m84ae2982a2" x="80.709724" y="154.799073" style="fill: #808080; fill-opacity: 0.7"/>
     <use xlink:href="#m84ae2982a2" x="77.718215" y="152.558322" style="fill: #808080; fill-opacity: 0.7"/>
     <use xlink:href="#m84ae2982a2" x="73.740267" y="131.397561" style="fill: #808080; fill-opacity: 0.7"/>
     <use xlink:href="#m84ae2982a2" x="89.449023" y="148.506044" style="fill: #808080; fill-opacity: 0.7"/>
     <use xlink:href="#m84ae2982a2" x="92.422225" y="157.028148" style="fill: #808080; fill-opacity: 0.7"/>
     <use xlink:href="#m84ae2982a2" x="90.00017" y="152.494196" style="fill: #808080; fill-opacity: 0.7"/>
     <use xlink:href="#m84ae2982a2" x="70.900686" y="144.555506" style="fill: #808080; fill-opacity: 0.7"/>
     <use xlink:href="#m84ae2982a2" x="75.154304" y="132.885694" style="fill: #808080; fill-opacity: 0.7"/>
     <use xlink:href="#m84ae2982a2" x="72.983779" y="139.150139" style="fill: #808080; fill-opacity: 0.7"/>
     <use xlink:href="#m84ae2982a2" x="88.899298" y="159.541737" style="fill: #808080; fill-opacity: 0.7"/>
     <use xlink:href="#m84ae2982a2" x="87.162351" y="151.538099" style="fill: #808080; fill-opacity: 0.7"/>
     <use xlink:href="#m84ae2982a2" x="88.356356" y="149.75888" style="fill: #808080; fill-opacity: 0.7"/>
     <use xlink:href="#m84ae2982a2" x="82.707638" y="159.067248" style="fill: #808080; fill-opacity: 0.7"/>
     <use xlink:href="#m84ae2982a2" x="78.990858" y="156.598935" style="fill: #808080; fill-opacity: 0.7"/>
     <use xlink:href="#m84ae2982a2" x="83.027646" y="160.355282" style="fill: #808080; fill-opacity: 0.7"/>
     <use xlink:href="#m84ae2982a2" x="89.78209" y="160.108089" style="fill: #808080; fill-opacity: 0.7"/>
     <use xlink:href="#m84ae2982a2" x="88.856866" y="157.435326" style="fill: #808080; fill-opacity: 0.7"/>
     <use xlink:href="#m84ae2982a2" x="87.872801" y="151.410138" style="fill: #808080; fill-opacity: 0.7"/>
     <use xlink:href="#m84ae2982a2" x="98.507906" y="153.609258" style="fill: #808080; fill-opacity: 0.7"/>
     <use xlink:href="#m84ae2982a2" x="102.467719" y="145.577681" style="fill: #808080; fill-opacity: 0.7"/>
     <use xlink:href="#m84ae2982a2" x="104.531635" y="142.495711" style="fill: #808080; fill-opacity: 0.7"/>
    </g>
   </g>
   <g id="PathCollection_9">
    <defs>
     <path id="md6c9135b11" d="M 0 2.738613 
C 0.726289 2.738613 1.422928 2.450055 1.936492 1.936492 
C 2.450055 1.422928 2.738613 0.726289 2.738613 0 
C 2.738613 -0.726289 2.450055 -1.422928 1.936492 -1.936492 
C 1.422928 -2.450055 0.726289 -2.738613 0 -2.738613 
C -0.726289 -2.738613 -1.422928 -2.450055 -1.936492 -1.936492 
C -2.450055 -1.422928 -2.738613 -0.726289 -2.738613 0 
C -2.738613 0.726289 -2.450055 1.422928 -1.936492 1.936492 
C -1.422928 2.450055 -0.726289 2.738613 0 2.738613 
z
" style="stroke: #800080; stroke-width: 0.5"/>
    </defs>
    <g clip-path="url(#pc2a3c2efed)">
     <use xlink:href="#md6c9135b11" x="131.183621" y="99.229893" style="fill: #800080; stroke: #800080; stroke-width: 0.5"/>
    </g>
   </g>
   <g id="LineCollection_1">
    <path d="M 31.508125 115.736879 
L 218.240408 115.736879 
" clip-path="url(#pc2a3c2efed)" style="fill: none; stroke: #808080; stroke-width: 0.5"/>
   </g>
   <g id="LineCollection_2">
    <path d="M 94.679805 181.814173 
L 94.679805 7.2 
" clip-path="url(#pc2a3c2efed)" style="fill: none; stroke: #808080; stroke-width: 0.5"/>
   </g>
   <g id="patch_3">
    <path d="M 31.508125 181.814173 
L 31.508125 7.2 
" style="fill: none; stroke: #000000; stroke-width: 0.5; stroke-linejoin: miter; stroke-linecap: square"/>
   </g>
   <g id="patch_4">
    <path d="M 218.240408 181.814173 
L 218.240408 7.2 
" style="fill: none; stroke: #000000; stroke-width: 0.5; stroke-linejoin: miter; stroke-linecap: square"/>
   </g>
   <g id="patch_5">
    <path d="M 31.508125 181.814173 
L 218.240408 181.814173 
" style="fill: none; stroke: #000000; stroke-width: 0.5; stroke-linejoin: miter; stroke-linecap: square"/>
   </g>
   <g id="patch_6">
    <path d="M 31.508125 7.2 
L 218.240408 7.2 
" style="fill: none; stroke: #000000; stroke-width: 0.5; stroke-linejoin: miter; stroke-linecap: square"/>
   </g>
   <g id="text_17">
    <text style="font: 6px 'sans-serif'; text-anchor: start" x="98.763753" y="21.751181" transform="rotate(-0, 98.763753, 21.751181)">165-ISP22</text>
   </g>
   <g id="text_18">
    <text style="font: 6px 'sans-serif'; text-anchor: start" x="95.65836" y="99.148757" transform="rotate(-0, 95.65836, 99.148757)">167-ISP22</text>
   </g>
   <g id="text_19">
    <text style="font: 6px 'sans-serif'; text-anchor: start" x="93.720979" y="64.714328" transform="rotate(-0, 93.720979, 64.714328)">170-ISP23</text>
   </g>
   <g id="text_20">
    <text style="font: 6px 'sans-serif'; text-anchor: start" x="98.295526" y="47.512194" transform="rotate(-0, 98.295526, 47.512194)">171-ISP23</text>
   </g>
   <g id="text_21">
    <text style="font: 6px 'sans-serif'; text-anchor: start" x="129.604274" y="90.040443" transform="rotate(-0, 129.604274, 90.040443)">594-ISP25NaCl</text>
   </g>
   <g id="text_22">
    <text style="font: 6px 'sans-serif'; text-anchor: start" x="138.04084" y="91.883275" transform="rotate(-0, 138.04084, 91.883275)">595-ISP25NaCl</text>
   </g>
   <g id="text_23">
    <text style="font: 6px 'sans-serif'; text-anchor: start" x="149.146661" y="167.262992" transform="rotate(-0, 149.146661, 167.262992)">599-ISP27NaCl</text>
   </g>
   <g id="text_24">
    <text style="font: 6px 'sans-serif'; text-anchor: start" x="177.562318" y="121.662071" transform="rotate(-0, 177.562318, 121.662071)">601-ISP27NaCl</text>
   </g>
   <g id="text_25">
    <text style="font: 6px 'sans-serif'; text-anchor: start" x="88.826127" y="80.07141" transform="rotate(-0, 88.826127, 80.07141)">173-MSG1</text>
   </g>
   <g id="text_26">
    <text style="font: 6px 'sans-serif'; text-anchor: start" x="101.314704" y="102.152799" transform="rotate(-0, 101.314704, 102.152799)">174-MSG1</text>
   </g>
   <g id="text_27">
    <text style="font: 6px 'sans-serif'; text-anchor: start" x="119.910961" y="82.32805" transform="rotate(-0, 119.910961, 82.32805)">179-MSG2</text>
   </g>
   <g id="text_28">
    <text style="font: 6px 'sans-serif'; text-anchor: start" x="115.717001" y="96.412108" transform="rotate(-0, 115.717001, 96.412108)">180-MSG2</text>
   </g>
   <g id="text_29">
    <text style="font: 6px 'sans-serif'; text-anchor: start" x="121.439186" y="95.829829" transform="rotate(-0, 121.439186, 95.829829)">182-MSG3</text>
   </g>
   <g id="text_30">
    <text style="font: 6px 'sans-serif'; text-anchor: start" x="110.509014" y="102.47248" transform="rotate(-0, 110.509014, 102.47248)">184-MSG3</text>
   </g>
   <g id="text_31">
    <text style="font: 6px 'sans-serif'; text-anchor: start" x="137.456226" y="150.830961" transform="rotate(-0, 137.456226, 150.830961)">301-MSG5</text>
   </g>
   <g id="text_32">
    <text style="font: 6px 'sans-serif'; text-anchor: start" x="100.207165" y="96.891983" transform="rotate(-0, 100.207165, 96.891983)">303-MSG5</text>
   </g>
   <g id="text_33">
    <text style="font: 6px 'sans-serif'; text-anchor: start" x="170.229605" y="78.92535" transform="rotate(-0, 170.229605, 78.92535)">596-MSG5NaCl</text>
   </g>
   <g id="text_34">
    <text style="font: 6px 'sans-serif'; text-anchor: start" x="170.041205" y="71.644037" transform="rotate(-0, 170.041205, 71.644037)">598-MSG5NaCl</text>
   </g>
   <g id="text_35">
    <text style="font: 6px 'sans-serif'; text-anchor: start" x="137.264402" y="155.511072" transform="rotate(-0, 137.264402, 155.511072)">325-MSG7</text>
   </g>
   <g id="text_36">
    <text style="font: 6px 'sans-serif'; text-anchor: start" x="144.38073" y="128.834801" transform="rotate(-0, 144.38073, 128.834801)">326-MSG7</text>
   </g>
   <g id="text_37">
    <text style="font: 6px 'sans-serif'; text-anchor: start" x="50.395983" y="107.697153" transform="rotate(-0, 50.395983, 107.697153)">353-24hISP2</text>
   </g>
   <g id="text_38">
    <text style="font: 6px 'sans-serif'; text-anchor: start" x="47.069149" y="101.759267" transform="rotate(-0, 47.069149, 101.759267)">354-24hISP2</text>
   </g>
   <g id="text_39">
    <text style="font: 6px 'sans-serif'; text-anchor: start" x="106.026147" y="118.663835" transform="rotate(-0, 106.026147, 118.663835)">358-24hMSG</text>
   </g>
   <g id="text_40">
    <text style="font: 6px 'sans-serif'; text-anchor: start" x="108.962914" y="109.449237" transform="rotate(-0, 108.962914, 109.449237)">359-24hMSG</text>
   </g>
   <g id="text_41">
    <text style="font: 6px 'sans-serif'; text-anchor: start" x="106.3597" y="119.499919" transform="rotate(-0, 106.3597, 119.499919)">360-24hMSG</text>
   </g>
   <g id="text_42">
    <text style="font: 6px 'sans-serif'; text-anchor: start" x="85.0913" y="115.115496" transform="rotate(-0, 85.0913, 115.115496)">365-48hISP2</text>
   </g>
   <g id="text_43">
    <text style="font: 6px 'sans-serif'; text-anchor: start" x="71.082672" y="83.722718" transform="rotate(-0, 71.082672, 83.722718)">366-48hISP2</text>
   </g>
   <g id="text_44">
    <text style="font: 6px 'sans-serif'; text-anchor: start" x="112.078747" y="112.546163" transform="rotate(-0, 112.078747, 112.546163)">370-48hMSG</text>
   </g>
   <g id="text_45">
    <text style="font: 6px 'sans-serif'; text-anchor: start" x="149.639957" y="132.301366" transform="rotate(-0, 149.639957, 132.301366)">371-48hMSG</text>
   </g>
   <g id="text_46">
    <text style="font: 6px 'sans-serif'; text-anchor: start" x="105.294375" y="125.492931" transform="rotate(-0, 105.294375, 125.492931)">372-48hMSG</text>
   </g>
   <g id="text_47">
    <text style="font: 6px 'sans-serif'; text-anchor: start" x="147.383839" y="121.030847" transform="rotate(-0, 147.383839, 121.030847)">382-72hMSG</text>
   </g>
   <g id="text_48">
    <text style="font: 6px 'sans-serif'; text-anchor: start" x="148.309452" y="141.630173" transform="rotate(-0, 148.309452, 141.630173)">383-72hMSG</text>
   </g>
   <g id="text_49">
    <text style="font: 6px 'sans-serif'; text-anchor: start" x="150.198392" y="114.174111" transform="rotate(-0, 150.198392, 114.174111)">384-72hMSG</text>
   </g>
   <g id="legend_1">
    <g id="patch_7">
     <path d="M 207.670406 92.345156 
L 269.360094 92.345156 
Q 270.760094 92.345156 270.760094 90.945156 
L 270.760094 12.1 
Q 270.760094 10.7 269.360094 10.7 
L 207.670406 10.7 
Q 206.270406 10.7 206.270406 12.1 
L 206.270406 90.945156 
Q 206.270406 92.345156 207.670406 92.345156 
z
" style="fill: #ffffff; opacity: 0.8; stroke: #cccccc; stroke-width: 0.5; stroke-linejoin: miter"/>
    </g>
    <g id="PathCollection_10">
     <g>
      <use xlink:href="#m784ef5e153" x="216.070406" y="16.672969" style="fill: #008000; stroke: #008000; stroke-width: 0.5"/>
     </g>
    </g>
    <g id="text_50">
     <text style="font: 7px 'sans-serif'; text-anchor: start" x="228.670406" y="18.510469" transform="rotate(-0, 228.670406, 18.510469)">Azenta01</text>
    </g>
    <g id="PathCollection_11">
     <g>
      <use xlink:href="#m5b764ea6d0" x="216.070406" y="26.574687" style="fill: #ffa500; stroke: #ffa500; stroke-width: 0.5"/>
     </g>
    </g>
    <g id="text_51">
     <text style="font: 7px 'sans-serif'; text-anchor: start" x="228.670406" y="28.412187" transform="rotate(-0, 228.670406, 28.412187)">C-source</text>
    </g>
    <g id="PathCollection_12">
     <g>
      <use xlink:href="#m88ee4399ee" x="216.070406" y="36.476406" style="fill: #a52a2a; stroke: #a52a2a; stroke-width: 0.5"/>
     </g>
    </g>
    <g id="text_52">
     <text style="font: 7px 'sans-serif'; text-anchor: start" x="228.670406" y="38.313906" transform="rotate(-0, 228.670406, 38.313906)">Nybomycin</text>
    </g>
    <g id="PathCollection_13">
     <g>
      <use xlink:href="#m9f7597ee76" x="216.070406" y="46.460156" style="fill: #ffc0cb; stroke: #ffc0cb; stroke-width: 0.5"/>
     </g>
    </g>
    <g id="text_53">
     <text style="font: 7px 'sans-serif'; text-anchor: start" x="228.670406" y="48.297656" transform="rotate(-0, 228.670406, 48.297656)">Pamamycin</text>
    </g>
    <g id="PathCollection_14">
     <g>
      <use xlink:href="#mf6fea2fa14" x="216.070406" y="56.529219" style="fill: #ff0000; stroke: #ff0000; stroke-width: 0.5"/>
     </g>
    </g>
    <g id="text_54">
     <text style="font: 7px 'sans-serif'; text-anchor: start" x="228.670406" y="58.366719" transform="rotate(-0, 228.670406, 58.366719)">Salinity</text>
    </g>
    <g id="PathCollection_15">
     <g>
      <use xlink:href="#m21ded0b236" x="216.070406" y="66.512969" style="fill: #0000ff; stroke: #0000ff; stroke-width: 0.5"/>
     </g>
    </g>
    <g id="text_55">
     <text style="font: 7px 'sans-serif'; text-anchor: start" x="228.670406" y="68.350469" transform="rotate(-0, 228.670406, 68.350469)">Temperature</text>
    </g>
    <g id="PathCollection_16">
     <g>
      <use xlink:href="#m3ccd2906fe" x="216.070406" y="76.414687" style="stroke: #000000; stroke-width: 0.5"/>
     </g>
    </g>
    <g id="text_56">
     <text style="font: 7px 'sans-serif'; text-anchor: start" x="228.670406" y="78.252187" transform="rotate(-0, 228.670406, 78.252187)">Time course</text>
    </g>
    <g id="PathCollection_17">
     <g>
      <use xlink:href="#md6c9135b11" x="216.070406" y="86.316406" style="fill: #800080; stroke: #800080; stroke-width: 0.5"/>
     </g>
    </g>
    <g id="text_57">
     <text style="font: 7px 'sans-serif'; text-anchor: start" x="228.670406" y="88.153906" transform="rotate(-0, 228.670406, 88.153906)">pH</text>
    </g>
   </g>
  </g>
 </g>
 <defs>
  <clipPath id="pc2a3c2efed">
   <rect x="31.508125" y="7.2" width="186.732283" height="174.614173"/>
  </clipPath>
 </defs>
</svg>
