<?xml version="1.0" encoding="utf-8" standalone="no"?>
<!DOCTYPE svg PUBLIC "-//W3C//DTD SVG 1.1//EN"
  "http://www.w3.org/Graphics/SVG/1.1/DTD/svg11.dtd">
<svg xmlns:xlink="http://www.w3.org/1999/xlink" width="473.907514pt" height="204.381959pt" viewBox="0 0 473.907514 204.381959" xmlns="http://www.w3.org/2000/svg" version="1.1">
 <metadata>
  <rdf:RDF xmlns:dc="http://purl.org/dc/elements/1.1/" xmlns:cc="http://creativecommons.org/ns#" xmlns:rdf="http://www.w3.org/1999/02/22-rdf-syntax-ns#">
   <cc:Work>
    <dc:type rdf:resource="http://purl.org/dc/dcmitype/StillImage"/>
    <dc:date>2024-04-09T13:08:41.043263</dc:date>
    <dc:format>image/svg+xml</dc:format>
    <dc:creator>
     <cc:Agent>
      <dc:title>Matplotlib v3.5.3, https://matplotlib.org/</dc:title>
     </cc:Agent>
    </dc:creator>
   </cc:Work>
  </rdf:RDF>
 </metadata>
 <defs>
  <style type="text/css">*{stroke-linejoin: round; stroke-linecap: butt}</style>
 </defs>
 <g id="figure_1">
  <g id="patch_1">
   <path d="M 0 204.381959 
L 473.907514 204.381959 
L 473.907514 0 
L 0 0 
L 0 204.381959 
z
" style="fill: none"/>
  </g>
  <g id="axes_1">
   <g id="patch_2">
    <path d="M 34.27675 131.726177 
L 236.557132 131.726177 
L 236.557132 17.494687 
L 34.27675 17.494687 
L 34.27675 131.726177 
z
" style="fill: none"/>
   </g>
   <g id="matplotlib.axis_1"/>
   <g id="matplotlib.axis_2">
    <g id="ytick_1">
     <g id="line2d_1">
      <defs>
       <path id="mae021486de" d="M 0 0 
L -2.5 0 
" style="stroke: #000000; stroke-width: 0.5"/>
      </defs>
      <g>
       <use xlink:href="#mae021486de" x="34.27675" y="110.228866" style="stroke: #000000; stroke-width: 0.5"/>
      </g>
     </g>
     <g id="text_1">
      <text style="font: 6px 'sans-serif'; text-anchor: end" x="29.77675" y="112.37621" transform="rotate(-0, 29.77675, 112.37621)">0</text>
     </g>
    </g>
    <g id="ytick_2">
     <g id="line2d_2">
      <g>
       <use xlink:href="#mae021486de" x="34.27675" y="88.232184" style="stroke: #000000; stroke-width: 0.5"/>
      </g>
     </g>
     <g id="text_2">
      <text style="font: 6px 'sans-serif'; text-anchor: end" x="29.77675" y="90.379527" transform="rotate(-0, 29.77675, 90.379527)">10</text>
     </g>
    </g>
    <g id="ytick_3">
     <g id="line2d_3">
      <g>
       <use xlink:href="#mae021486de" x="34.27675" y="66.235501" style="stroke: #000000; stroke-width: 0.5"/>
      </g>
     </g>
     <g id="text_3">
      <text style="font: 6px 'sans-serif'; text-anchor: end" x="29.77675" y="68.382845" transform="rotate(-0, 29.77675, 68.382845)">20</text>
     </g>
    </g>
    <g id="ytick_4">
     <g id="line2d_4">
      <g>
       <use xlink:href="#mae021486de" x="34.27675" y="44.238818" style="stroke: #000000; stroke-width: 0.5"/>
      </g>
     </g>
     <g id="text_4">
      <text style="font: 6px 'sans-serif'; text-anchor: end" x="29.77675" y="46.386162" transform="rotate(-0, 29.77675, 46.386162)">30</text>
     </g>
    </g>
    <g id="ytick_5">
     <g id="line2d_5">
      <g>
       <use xlink:href="#mae021486de" x="34.27675" y="22.242136" style="stroke: #000000; stroke-width: 0.5"/>
      </g>
     </g>
     <g id="text_5">
      <text style="font: 6px 'sans-serif'; text-anchor: end" x="29.77675" y="24.38948" transform="rotate(-0, 29.77675, 24.38948)">40</text>
     </g>
    </g>
    <g id="text_6">
     <text style="font: 6px 'sans-serif'" transform="translate(11.494688 94.61762)rotate(-90)">UC-3 iModulon</text>
     <text style="font: 6px 'sans-serif'" transform="translate(17.840812 84.111526)rotate(-90)">Activity</text>
    </g>
   </g>
   <g id="patch_3">
    <path d="M 44.390769 110.228866 
L 51.133448 110.228866 
L 51.133448 110.228866 
L 44.390769 110.228866 
z
" clip-path="url(#p4b1173d64f)" style="fill: #1f77b4"/>
   </g>
   <g id="patch_4">
    <path d="M 51.133448 110.228866 
L 57.876128 110.228866 
L 57.876128 73.534428 
L 51.133448 73.534428 
z
" clip-path="url(#p4b1173d64f)" style="fill: #1f77b4"/>
   </g>
   <g id="patch_5">
    <path d="M 57.876128 110.228866 
L 64.618807 110.228866 
L 64.618807 108.039798 
L 57.876128 108.039798 
z
" clip-path="url(#p4b1173d64f)" style="fill: #1f77b4"/>
   </g>
   <g id="patch_6">
    <path d="M 64.618807 110.228866 
L 71.361487 110.228866 
L 71.361487 110.84519 
L 64.618807 110.84519 
z
" clip-path="url(#p4b1173d64f)" style="fill: #1f77b4"/>
   </g>
   <g id="patch_7">
    <path d="M 71.361487 110.228866 
L 78.104166 110.228866 
L 78.104166 114.063046 
L 71.361487 114.063046 
z
" clip-path="url(#p4b1173d64f)" style="fill: #1f77b4"/>
   </g>
   <g id="patch_8">
    <path d="M 78.104166 110.228866 
L 84.846845 110.228866 
L 84.846845 96.47888 
L 78.104166 96.47888 
z
" clip-path="url(#p4b1173d64f)" style="fill: #1f77b4"/>
   </g>
   <g id="patch_9">
    <path d="M 84.846845 110.228866 
L 91.589525 110.228866 
L 91.589525 109.826743 
L 84.846845 109.826743 
z
" clip-path="url(#p4b1173d64f)" style="fill: #1f77b4"/>
   </g>
   <g id="patch_10">
    <path d="M 91.589525 110.228866 
L 98.332204 110.228866 
L 98.332204 105.496661 
L 91.589525 105.496661 
z
" clip-path="url(#p4b1173d64f)" style="fill: #1f77b4"/>
   </g>
   <g id="patch_11">
    <path d="M 98.332204 110.228866 
L 105.074884 110.228866 
L 105.074884 107.142583 
L 98.332204 107.142583 
z
" clip-path="url(#p4b1173d64f)" style="fill: #1f77b4"/>
   </g>
   <g id="patch_12">
    <path d="M 105.074884 110.228866 
L 111.817563 110.228866 
L 111.817563 103.553099 
L 105.074884 103.553099 
z
" clip-path="url(#p4b1173d64f)" style="fill: #1f77b4"/>
   </g>
   <g id="patch_13">
    <path d="M 111.817563 110.228866 
L 118.560242 110.228866 
L 118.560242 120.731982 
L 111.817563 120.731982 
z
" clip-path="url(#p4b1173d64f)" style="fill: #1f77b4"/>
   </g>
   <g id="patch_14">
    <path d="M 118.560242 110.228866 
L 125.302922 110.228866 
L 125.302922 109.684518 
L 118.560242 109.684518 
z
" clip-path="url(#p4b1173d64f)" style="fill: #1f77b4"/>
   </g>
   <g id="patch_15">
    <path d="M 125.302922 110.228866 
L 132.045601 110.228866 
L 132.045601 108.361231 
L 125.302922 108.361231 
z
" clip-path="url(#p4b1173d64f)" style="fill: #1f77b4"/>
   </g>
   <g id="patch_16">
    <path d="M 132.045601 110.228866 
L 138.788281 110.228866 
L 138.788281 107.669044 
L 132.045601 107.669044 
z
" clip-path="url(#p4b1173d64f)" style="fill: #1f77b4"/>
   </g>
   <g id="patch_17">
    <path d="M 138.788281 110.228866 
L 145.53096 110.228866 
L 145.53096 110.228866 
L 138.788281 110.228866 
z
" clip-path="url(#p4b1173d64f)" style="fill: #1f77b4"/>
   </g>
   <g id="patch_18">
    <path d="M 145.53096 110.228866 
L 152.273639 110.228866 
L 152.273639 107.330806 
L 145.53096 107.330806 
z
" clip-path="url(#p4b1173d64f)" style="fill: #1f77b4"/>
   </g>
   <g id="patch_19">
    <path d="M 152.273639 110.228866 
L 159.016319 110.228866 
L 159.016319 110.845769 
L 152.273639 110.845769 
z
" clip-path="url(#p4b1173d64f)" style="fill: #1f77b4"/>
   </g>
   <g id="patch_20">
    <path d="M 159.016319 110.228866 
L 165.758998 110.228866 
L 165.758998 100.681924 
L 159.016319 100.681924 
z
" clip-path="url(#p4b1173d64f)" style="fill: #1f77b4"/>
   </g>
   <g id="patch_21">
    <path d="M 165.758998 110.228866 
L 172.501678 110.228866 
L 172.501678 108.470407 
L 165.758998 108.470407 
z
" clip-path="url(#p4b1173d64f)" style="fill: #1f77b4"/>
   </g>
   <g id="patch_22">
    <path d="M 172.501678 110.228866 
L 179.244357 110.228866 
L 179.244357 113.21039 
L 172.501678 113.21039 
z
" clip-path="url(#p4b1173d64f)" style="fill: #1f77b4"/>
   </g>
   <g id="patch_23">
    <path d="M 179.244357 110.228866 
L 185.987036 110.228866 
L 185.987036 111.637175 
L 179.244357 111.637175 
z
" clip-path="url(#p4b1173d64f)" style="fill: #1f77b4"/>
   </g>
   <g id="patch_24">
    <path d="M 185.987036 110.228866 
L 192.729716 110.228866 
L 192.729716 64.697049 
L 185.987036 64.697049 
z
" clip-path="url(#p4b1173d64f)" style="fill: #1f77b4"/>
   </g>
   <g id="patch_25">
    <path d="M 192.729716 110.228866 
L 199.472395 110.228866 
L 199.472395 104.829695 
L 192.729716 104.829695 
z
" clip-path="url(#p4b1173d64f)" style="fill: #1f77b4"/>
   </g>
   <g id="patch_26">
    <path d="M 199.472395 110.228866 
L 206.215075 110.228866 
L 206.215075 107.259662 
L 199.472395 107.259662 
z
" clip-path="url(#p4b1173d64f)" style="fill: #1f77b4"/>
   </g>
   <g id="patch_27">
    <path d="M 206.215075 110.228866 
L 212.957754 110.228866 
L 212.957754 109.788968 
L 206.215075 109.788968 
z
" clip-path="url(#p4b1173d64f)" style="fill: #1f77b4"/>
   </g>
   <g id="patch_28">
    <path d="M 212.957754 110.228866 
L 219.700433 110.228866 
L 219.700433 110.248184 
L 212.957754 110.248184 
z
" clip-path="url(#p4b1173d64f)" style="fill: #1f77b4"/>
   </g>
   <g id="patch_29">
    <path d="M 219.700433 110.228866 
L 226.443113 110.228866 
L 226.443113 53.133245 
L 219.700433 53.133245 
z
" clip-path="url(#p4b1173d64f)" style="fill: #1f77b4"/>
   </g>
   <g id="PathCollection_1">
    <defs>
     <path id="m4e11f07130" d="M 0 1.581139 
C 0.419323 1.581139 0.821528 1.41454 1.118034 1.118034 
C 1.41454 0.821528 1.581139 0.419323 1.581139 0 
C 1.581139 -0.419323 1.41454 -0.821528 1.118034 -1.118034 
C 0.821528 -1.41454 0.419323 -1.581139 0 -1.581139 
C -0.419323 -1.581139 -0.821528 -1.41454 -1.118034 -1.118034 
C -1.41454 -0.821528 -1.581139 -0.419323 -1.581139 0 
C -1.581139 0.419323 -1.41454 0.821528 -1.118034 1.118034 
C -0.821528 1.41454 -0.419323 1.581139 0 1.581139 
z
" style="stroke: #000000; stroke-width: 0.5"/>
    </defs>
    <g clip-path="url(#p4b1173d64f)">
     <use xlink:href="#m4e11f07130" x="47.762109" y="110.619959" style="stroke: #000000; stroke-width: 0.5"/>
     <use xlink:href="#m4e11f07130" x="47.762109" y="109.837774" style="stroke: #000000; stroke-width: 0.5"/>
     <use xlink:href="#m4e11f07130" x="54.504788" y="73.391539" style="stroke: #000000; stroke-width: 0.5"/>
     <use xlink:href="#m4e11f07130" x="54.504788" y="73.677317" style="stroke: #000000; stroke-width: 0.5"/>
     <use xlink:href="#m4e11f07130" x="61.247468" y="108.329058" style="stroke: #000000; stroke-width: 0.5"/>
     <use xlink:href="#m4e11f07130" x="61.247468" y="107.750537" style="stroke: #000000; stroke-width: 0.5"/>
     <use xlink:href="#m4e11f07130" x="67.990147" y="111.05714" style="stroke: #000000; stroke-width: 0.5"/>
     <use xlink:href="#m4e11f07130" x="67.990147" y="110.63324" style="stroke: #000000; stroke-width: 0.5"/>
     <use xlink:href="#m4e11f07130" x="74.732826" y="114.195863" style="stroke: #000000; stroke-width: 0.5"/>
     <use xlink:href="#m4e11f07130" x="74.732826" y="113.930229" style="stroke: #000000; stroke-width: 0.5"/>
     <use xlink:href="#m4e11f07130" x="81.475506" y="97.556257" style="stroke: #000000; stroke-width: 0.5"/>
     <use xlink:href="#m4e11f07130" x="81.475506" y="95.401503" style="stroke: #000000; stroke-width: 0.5"/>
     <use xlink:href="#m4e11f07130" x="88.218185" y="109.907695" style="stroke: #000000; stroke-width: 0.5"/>
     <use xlink:href="#m4e11f07130" x="88.218185" y="109.74579" style="stroke: #000000; stroke-width: 0.5"/>
     <use xlink:href="#m4e11f07130" x="94.960865" y="105.319802" style="stroke: #000000; stroke-width: 0.5"/>
     <use xlink:href="#m4e11f07130" x="94.960865" y="105.673521" style="stroke: #000000; stroke-width: 0.5"/>
     <use xlink:href="#m4e11f07130" x="101.703544" y="107.14427" style="stroke: #000000; stroke-width: 0.5"/>
     <use xlink:href="#m4e11f07130" x="101.703544" y="107.140896" style="stroke: #000000; stroke-width: 0.5"/>
     <use xlink:href="#m4e11f07130" x="108.446223" y="103.44458" style="stroke: #000000; stroke-width: 0.5"/>
     <use xlink:href="#m4e11f07130" x="108.446223" y="103.661618" style="stroke: #000000; stroke-width: 0.5"/>
     <use xlink:href="#m4e11f07130" x="115.188903" y="119.257078" style="stroke: #000000; stroke-width: 0.5"/>
     <use xlink:href="#m4e11f07130" x="115.188903" y="122.206886" style="stroke: #000000; stroke-width: 0.5"/>
     <use xlink:href="#m4e11f07130" x="121.931582" y="111.719489" style="stroke: #000000; stroke-width: 0.5"/>
     <use xlink:href="#m4e11f07130" x="121.931582" y="107.649548" style="stroke: #000000; stroke-width: 0.5"/>
     <use xlink:href="#m4e11f07130" x="128.674262" y="109.100978" style="stroke: #000000; stroke-width: 0.5"/>
     <use xlink:href="#m4e11f07130" x="128.674262" y="107.621483" style="stroke: #000000; stroke-width: 0.5"/>
     <use xlink:href="#m4e11f07130" x="135.416941" y="107.105567" style="stroke: #000000; stroke-width: 0.5"/>
     <use xlink:href="#m4e11f07130" x="135.416941" y="108.232522" style="stroke: #000000; stroke-width: 0.5"/>
     <use xlink:href="#m4e11f07130" x="142.15962" y="110.400831" style="stroke: #000000; stroke-width: 0.5"/>
     <use xlink:href="#m4e11f07130" x="142.15962" y="111.460132" style="stroke: #000000; stroke-width: 0.5"/>
     <use xlink:href="#m4e11f07130" x="142.15962" y="109.513163" style="stroke: #000000; stroke-width: 0.5"/>
     <use xlink:href="#m4e11f07130" x="142.15962" y="109.541339" style="stroke: #000000; stroke-width: 0.5"/>
     <use xlink:href="#m4e11f07130" x="148.9023" y="104.978968" style="stroke: #000000; stroke-width: 0.5"/>
     <use xlink:href="#m4e11f07130" x="148.9023" y="109.682645" style="stroke: #000000; stroke-width: 0.5"/>
     <use xlink:href="#m4e11f07130" x="155.644979" y="111.488226" style="stroke: #000000; stroke-width: 0.5"/>
     <use xlink:href="#m4e11f07130" x="155.644979" y="110.203313" style="stroke: #000000; stroke-width: 0.5"/>
     <use xlink:href="#m4e11f07130" x="162.387659" y="99.939482" style="stroke: #000000; stroke-width: 0.5"/>
     <use xlink:href="#m4e11f07130" x="162.387659" y="101.424365" style="stroke: #000000; stroke-width: 0.5"/>
     <use xlink:href="#m4e11f07130" x="169.130338" y="108.162125" style="stroke: #000000; stroke-width: 0.5"/>
     <use xlink:href="#m4e11f07130" x="169.130338" y="108.77869" style="stroke: #000000; stroke-width: 0.5"/>
     <use xlink:href="#m4e11f07130" x="175.873017" y="112.420027" style="stroke: #000000; stroke-width: 0.5"/>
     <use xlink:href="#m4e11f07130" x="175.873017" y="114.000753" style="stroke: #000000; stroke-width: 0.5"/>
     <use xlink:href="#m4e11f07130" x="182.615697" y="111.882497" style="stroke: #000000; stroke-width: 0.5"/>
     <use xlink:href="#m4e11f07130" x="182.615697" y="111.391854" style="stroke: #000000; stroke-width: 0.5"/>
     <use xlink:href="#m4e11f07130" x="189.358376" y="102.380119" style="stroke: #000000; stroke-width: 0.5"/>
     <use xlink:href="#m4e11f07130" x="189.358376" y="27.013978" style="stroke: #000000; stroke-width: 0.5"/>
     <use xlink:href="#m4e11f07130" x="196.101056" y="103.964113" style="stroke: #000000; stroke-width: 0.5"/>
     <use xlink:href="#m4e11f07130" x="196.101056" y="105.695276" style="stroke: #000000; stroke-width: 0.5"/>
     <use xlink:href="#m4e11f07130" x="202.843735" y="106.456887" style="stroke: #000000; stroke-width: 0.5"/>
     <use xlink:href="#m4e11f07130" x="202.843735" y="107.28976" style="stroke: #000000; stroke-width: 0.5"/>
     <use xlink:href="#m4e11f07130" x="202.843735" y="108.032341" style="stroke: #000000; stroke-width: 0.5"/>
     <use xlink:href="#m4e11f07130" x="209.586414" y="110.917311" style="stroke: #000000; stroke-width: 0.5"/>
     <use xlink:href="#m4e11f07130" x="209.586414" y="111.950344" style="stroke: #000000; stroke-width: 0.5"/>
     <use xlink:href="#m4e11f07130" x="209.586414" y="106.499249" style="stroke: #000000; stroke-width: 0.5"/>
     <use xlink:href="#m4e11f07130" x="216.329094" y="110.513055" style="stroke: #000000; stroke-width: 0.5"/>
     <use xlink:href="#m4e11f07130" x="216.329094" y="109.51209" style="stroke: #000000; stroke-width: 0.5"/>
     <use xlink:href="#m4e11f07130" x="216.329094" y="110.719408" style="stroke: #000000; stroke-width: 0.5"/>
     <use xlink:href="#m4e11f07130" x="223.071773" y="49.675978" style="stroke: #000000; stroke-width: 0.5"/>
     <use xlink:href="#m4e11f07130" x="223.071773" y="56.590511" style="stroke: #000000; stroke-width: 0.5"/>
    </g>
   </g>
   <g id="LineCollection_1">
    <path d="M 44.390769 131.726177 
L 44.390769 17.494687 
" clip-path="url(#p4b1173d64f)" style="fill: none; stroke: #d3d3d3"/>
    <path d="M 51.133448 131.726177 
L 51.133448 17.494687 
" clip-path="url(#p4b1173d64f)" style="fill: none; stroke: #d3d3d3"/>
    <path d="M 199.472395 131.726177 
L 199.472395 17.494687 
" clip-path="url(#p4b1173d64f)" style="fill: none; stroke: #d3d3d3"/>
    <path d="M 226.443113 131.726177 
L 226.443113 17.494687 
" clip-path="url(#p4b1173d64f)" style="fill: none; stroke: #d3d3d3"/>
   </g>
   <g id="LineCollection_2">
    <path d="M 34.27675 110.228866 
L 236.557132 110.228866 
" clip-path="url(#p4b1173d64f)" style="fill: none; stroke: #000000"/>
   </g>
   <g id="patch_30">
    <path d="M 34.27675 131.726177 
L 34.27675 17.494687 
" style="fill: none; stroke: #000000; stroke-width: 0.5; stroke-linejoin: miter; stroke-linecap: square"/>
   </g>
   <g id="patch_31">
    <path d="M 236.557132 131.726177 
L 236.557132 17.494687 
" style="fill: none; stroke: #000000; stroke-width: 0.5; stroke-linejoin: miter; stroke-linecap: square"/>
   </g>
   <g id="patch_32">
    <path d="M 34.27675 131.726177 
L 236.557132 131.726177 
" style="fill: none; stroke: #000000; stroke-width: 0.5; stroke-linejoin: miter; stroke-linecap: square"/>
   </g>
   <g id="patch_33">
    <path d="M 34.27675 17.494687 
L 236.557132 17.494687 
" style="fill: none; stroke: #000000; stroke-width: 0.5; stroke-linejoin: miter; stroke-linecap: square"/>
   </g>
   <g id="text_7">
    <text style="font: 10px 'sans-serif'" transform="translate(30.306268 161.86529)rotate(-45)">Control</text>
   </g>
   <g id="text_8">
    <text style="font: 10px 'sans-serif'" transform="translate(82.696177 187.016194)rotate(-45)">Nutrient source</text>
   </g>
   <g id="text_9">
    <text style="font: 10px 'sans-serif'" transform="translate(161.590619 195.776584)rotate(-45)">Time course MSG</text>
   </g>
   <g id="text_10">
    <text style="font: 6px 'sans-serif'; text-anchor: middle" x="135.416941" y="11.494687" transform="rotate(-0, 135.416941, 11.494687)">UC-3</text>
   </g>
  </g>
  <g id="axes_2">
   <g id="patch_34">
    <path d="M 260.257132 131.726177 
L 462.537514 131.726177 
L 462.537514 17.494687 
L 260.257132 17.494687 
L 260.257132 131.726177 
z
" style="fill: none"/>
   </g>
   <g id="matplotlib.axis_3">
    <g id="xtick_1">
     <g id="line2d_6">
      <defs>
       <path id="m44beb74052" d="M 0 0 
L 0 2.5 
" style="stroke: #000000; stroke-width: 0.5"/>
      </defs>
      <g>
       <use xlink:href="#m44beb74052" x="260.257132" y="131.726177" style="stroke: #000000; stroke-width: 0.5"/>
      </g>
     </g>
     <g id="text_11">
      <text style="font: 6px 'sans-serif'; text-anchor: middle" x="260.257132" y="140.520865" transform="rotate(-0, 260.257132, 140.520865)">0.0</text>
     </g>
    </g>
    <g id="xtick_2">
     <g id="line2d_7">
      <g>
       <use xlink:href="#m44beb74052" x="300.713208" y="131.726177" style="stroke: #000000; stroke-width: 0.5"/>
      </g>
     </g>
     <g id="text_12">
      <text style="font: 6px 'sans-serif'; text-anchor: middle" x="300.713208" y="140.520865" transform="rotate(-0, 300.713208, 140.520865)">0.2</text>
     </g>
    </g>
    <g id="xtick_3">
     <g id="line2d_8">
      <g>
       <use xlink:href="#m44beb74052" x="341.169285" y="131.726177" style="stroke: #000000; stroke-width: 0.5"/>
      </g>
     </g>
     <g id="text_13">
      <text style="font: 6px 'sans-serif'; text-anchor: middle" x="341.169285" y="140.520865" transform="rotate(-0, 341.169285, 140.520865)">0.4</text>
     </g>
    </g>
    <g id="xtick_4">
     <g id="line2d_9">
      <g>
       <use xlink:href="#m44beb74052" x="381.625361" y="131.726177" style="stroke: #000000; stroke-width: 0.5"/>
      </g>
     </g>
     <g id="text_14">
      <text style="font: 6px 'sans-serif'; text-anchor: middle" x="381.625361" y="140.520865" transform="rotate(-0, 381.625361, 140.520865)">0.6</text>
     </g>
    </g>
    <g id="xtick_5">
     <g id="line2d_10">
      <g>
       <use xlink:href="#m44beb74052" x="422.081437" y="131.726177" style="stroke: #000000; stroke-width: 0.5"/>
      </g>
     </g>
     <g id="text_15">
      <text style="font: 6px 'sans-serif'; text-anchor: middle" x="422.081437" y="140.520865" transform="rotate(-0, 422.081437, 140.520865)">0.8</text>
     </g>
    </g>
    <g id="xtick_6">
     <g id="line2d_11">
      <g>
       <use xlink:href="#m44beb74052" x="462.537514" y="131.726177" style="stroke: #000000; stroke-width: 0.5"/>
      </g>
     </g>
     <g id="text_16">
      <text style="font: 6px 'sans-serif'; text-anchor: middle" x="462.537514" y="140.520865" transform="rotate(-0, 462.537514, 140.520865)">1.0</text>
     </g>
    </g>
   </g>
   <g id="matplotlib.axis_4">
    <g id="ytick_6">
     <g id="line2d_12">
      <g>
       <use xlink:href="#mae021486de" x="260.257132" y="131.726177" style="stroke: #000000; stroke-width: 0.5"/>
      </g>
     </g>
     <g id="text_17">
      <text style="font: 6px 'sans-serif'; text-anchor: end" x="255.757132" y="133.873521" transform="rotate(-0, 255.757132, 133.873521)">0.0</text>
     </g>
    </g>
    <g id="ytick_7">
     <g id="line2d_13">
      <g>
       <use xlink:href="#mae021486de" x="260.257132" y="108.879879" style="stroke: #000000; stroke-width: 0.5"/>
      </g>
     </g>
     <g id="text_18">
      <text style="font: 6px 'sans-serif'; text-anchor: end" x="255.757132" y="111.027223" transform="rotate(-0, 255.757132, 111.027223)">0.2</text>
     </g>
    </g>
    <g id="ytick_8">
     <g id="line2d_14">
      <g>
       <use xlink:href="#mae021486de" x="260.257132" y="86.033581" style="stroke: #000000; stroke-width: 0.5"/>
      </g>
     </g>
     <g id="text_19">
      <text style="font: 6px 'sans-serif'; text-anchor: end" x="255.757132" y="88.180925" transform="rotate(-0, 255.757132, 88.180925)">0.4</text>
     </g>
    </g>
    <g id="ytick_9">
     <g id="line2d_15">
      <g>
       <use xlink:href="#mae021486de" x="260.257132" y="63.187283" style="stroke: #000000; stroke-width: 0.5"/>
      </g>
     </g>
     <g id="text_20">
      <text style="font: 6px 'sans-serif'; text-anchor: end" x="255.757132" y="65.334627" transform="rotate(-0, 255.757132, 65.334627)">0.6</text>
     </g>
    </g>
    <g id="ytick_10">
     <g id="line2d_16">
      <g>
       <use xlink:href="#mae021486de" x="260.257132" y="40.340985" style="stroke: #000000; stroke-width: 0.5"/>
      </g>
     </g>
     <g id="text_21">
      <text style="font: 6px 'sans-serif'; text-anchor: end" x="255.757132" y="42.488329" transform="rotate(-0, 255.757132, 42.488329)">0.8</text>
     </g>
    </g>
    <g id="ytick_11">
     <g id="line2d_17">
      <g>
       <use xlink:href="#mae021486de" x="260.257132" y="17.494687" style="stroke: #000000; stroke-width: 0.5"/>
      </g>
     </g>
     <g id="text_22">
      <text style="font: 6px 'sans-serif'; text-anchor: end" x="255.757132" y="19.642031" transform="rotate(-0, 255.757132, 19.642031)">1.0</text>
     </g>
    </g>
   </g>
   <g id="patch_35">
    <path d="M 260.257132 131.726177 
L 260.257132 17.494687 
" style="fill: none; stroke: #000000; stroke-width: 0.5; stroke-linejoin: miter; stroke-linecap: square"/>
   </g>
   <g id="patch_36">
    <path d="M 462.537514 131.726177 
L 462.537514 17.494687 
" style="fill: none; stroke: #000000; stroke-width: 0.5; stroke-linejoin: miter; stroke-linecap: square"/>
   </g>
   <g id="patch_37">
    <path d="M 260.257132 131.726177 
L 462.537514 131.726177 
" style="fill: none; stroke: #000000; stroke-width: 0.5; stroke-linejoin: miter; stroke-linecap: square"/>
   </g>
   <g id="patch_38">
    <path d="M 260.257132 17.494687 
L 462.537514 17.494687 
" style="fill: none; stroke: #000000; stroke-width: 0.5; stroke-linejoin: miter; stroke-linecap: square"/>
   </g>
  </g>
 </g>
 <defs>
  <clipPath id="p4b1173d64f">
   <rect x="34.27675" y="17.494687" width="202.280382" height="114.23149"/>
  </clipPath>
 </defs>
</svg>
