<?xml version="1.0" encoding="utf-8" standalone="no"?>
<!DOCTYPE svg PUBLIC "-//W3C//DTD SVG 1.1//EN"
  "http://www.w3.org/Graphics/SVG/1.1/DTD/svg11.dtd">
<svg xmlns:xlink="http://www.w3.org/1999/xlink" width="1503.79026pt" height="257.25pt" viewBox="0 0 1503.79026 257.25" xmlns="http://www.w3.org/2000/svg" version="1.1">
 <metadata>
  <rdf:RDF xmlns:dc="http://purl.org/dc/elements/1.1/" xmlns:cc="http://creativecommons.org/ns#" xmlns:rdf="http://www.w3.org/1999/02/22-rdf-syntax-ns#">
   <cc:Work>
    <dc:type rdf:resource="http://purl.org/dc/dcmitype/StillImage"/>
    <dc:date>2024-05-23T14:08:46.643403</dc:date>
    <dc:format>image/svg+xml</dc:format>
    <dc:creator>
     <cc:Agent>
      <dc:title>Matplotlib v3.5.3, https://matplotlib.org/</dc:title>
     </cc:Agent>
    </dc:creator>
   </cc:Work>
  </rdf:RDF>
 </metadata>
 <defs>
  <style type="text/css">*{stroke-linejoin: round; stroke-linecap: butt}</style>
 </defs>
 <g id="figure_1">
  <g id="patch_1">
   <path d="M 0 257.25 
L 1503.79026 257.25 
L 1503.79026 0 
L 0 0 
z
" style="fill: #ffffff"/>
  </g>
  <g id="axes_1">
   <g id="line2d_1">
    <path d="M 10.360573 181.196308 
L 1126.360573 181.196308 
" clip-path="url(#p502d7a7808)" style="fill: none; stroke: #000000; stroke-width: 1.5; stroke-linecap: square"/>
   </g>
   <g id="line2d_2">
    <path d="M 567.365473 108.697846 
L 567.365473 181.196308 
" clip-path="url(#p502d7a7808)" style="fill: none; stroke: #000000; stroke-width: 0.5; stroke-linecap: square"/>
   </g>
   <g id="line2d_3">
    <path d="M 480.093971 65.198769 
L 480.093971 181.196308 
" clip-path="url(#p502d7a7808)" style="fill: none; stroke: #000000; stroke-width: 0.5; stroke-linecap: square"/>
   </g>
   <g id="line2d_4">
    <path d="M 502.050773 36.199385 
L 502.050773 152.196923 
" clip-path="url(#p502d7a7808)" style="fill: none; stroke: #000000; stroke-width: 0.5; stroke-linecap: square"/>
   </g>
   <g id="patch_2">
    <path d="M 517.868975 174.196308 
Q 563.164736 174.196308 608.460497 174.196308 
L 608.460497 174.196308 
Q 612.661234 177.696308 616.861971 181.196308 
Q 612.661234 184.696308 608.460497 188.196308 
L 608.460497 188.196308 
Q 563.164736 188.196308 517.868975 188.196308 
L 517.868975 174.196308 
z
" clip-path="url(#p502d7a7808)" style="fill: #17becf; stroke: #000000; stroke-linecap: round"/>
   </g>
   <g id="patch_3">
    <path d="M 858.813261 174.196308 
Q 881.35261 174.196308 903.89196 174.196308 
L 903.89196 174.196308 
Q 908.091058 177.696308 912.290156 181.196308 
Q 908.091058 184.696308 903.89196 188.196308 
L 903.89196 188.196308 
Q 881.35261 188.196308 858.813261 188.196308 
L 858.813261 174.196308 
z
" clip-path="url(#p502d7a7808)" style="fill: #17becf; stroke: #000000; stroke-linecap: round"/>
   </g>
   <g id="patch_4">
    <path d="M 343.791213 174.196308 
Q 363.927049 174.196308 384.062886 174.196308 
L 384.062886 174.196308 
Q 388.26175 177.696308 392.460615 181.196308 
Q 388.26175 184.696308 384.062886 188.196308 
L 384.062886 188.196308 
Q 363.927049 188.196308 343.791213 188.196308 
L 343.791213 174.196308 
z
" clip-path="url(#p502d7a7808)" style="fill: #e377c2; stroke: #000000; stroke-linecap: round"/>
   </g>
   <g id="patch_5">
    <path d="M 142.600225 174.196308 
Q 159.477815 174.196308 176.355406 174.196308 
L 176.355406 174.196308 
Q 180.555828 177.696308 184.75625 181.196308 
Q 180.555828 184.696308 176.355406 188.196308 
L 176.355406 188.196308 
Q 159.477815 188.196308 142.600225 188.196308 
L 142.600225 174.196308 
z
" clip-path="url(#p502d7a7808)" style="fill: #2ca02c; stroke: #000000; stroke-linecap: round"/>
   </g>
   <g id="patch_6">
    <path d="M 969.90253 174.196308 
Q 986.162298 174.196308 1002.422067 174.196308 
L 1002.422067 174.196308 
Q 1006.619989 177.696308 1010.817912 181.196308 
Q 1006.619989 184.696308 1002.422067 188.196308 
L 1002.422067 188.196308 
Q 986.162298 188.196308 969.90253 188.196308 
L 969.90253 174.196308 
z
" clip-path="url(#p502d7a7808)" style="fill: #9467bd; stroke: #000000; stroke-linecap: round"/>
   </g>
   <g id="patch_7">
    <path d="M 761.888004 174.196308 
Q 776.557319 174.196308 791.226635 174.196308 
L 791.226635 174.196308 
Q 795.425436 177.696308 799.624237 181.196308 
Q 795.425436 184.696308 791.226635 188.196308 
L 791.226635 188.196308 
Q 776.557319 188.196308 761.888004 188.196308 
L 761.888004 174.196308 
z
" clip-path="url(#p502d7a7808)" style="fill: #9467bd; stroke: #000000; stroke-linecap: round"/>
   </g>
   <g id="patch_8">
    <path d="M 688.405735 188.196308 
Q 673.775755 188.196308 659.145776 188.196308 
L 659.145776 188.196308 
Q 654.946409 184.696308 650.747042 181.196308 
Q 654.946409 177.696308 659.145776 174.196308 
L 659.145776 174.196308 
Q 673.775755 174.196308 688.405735 174.196308 
L 688.405735 188.196308 
z
" clip-path="url(#p502d7a7808)" style="fill: #808080; stroke: #000000; stroke-linecap: round"/>
   </g>
   <g id="patch_9">
    <path d="M 855.685806 188.196308 
Q 841.403639 188.196308 827.121472 188.196308 
L 827.121472 188.196308 
Q 822.923223 184.696308 818.724975 181.196308 
Q 822.923223 177.696308 827.121472 174.196308 
L 827.121472 174.196308 
Q 841.403639 174.196308 855.685806 174.196308 
L 855.685806 188.196308 
z
" clip-path="url(#p502d7a7808)" style="fill: #808080; stroke: #000000; stroke-linecap: round"/>
   </g>
   <g id="patch_10">
    <path d="M 77.879999 188.196308 
Q 64.683099 188.196308 51.486198 188.196308 
L 51.486198 188.196308 
Q 47.288246 184.696308 43.090294 181.196308 
Q 47.288246 177.696308 51.486198 174.196308 
L 51.486198 174.196308 
Q 64.683099 174.196308 77.879999 174.196308 
L 77.879999 188.196308 
z
" clip-path="url(#p502d7a7808)" style="fill: #808080; stroke: #000000; stroke-linecap: round"/>
   </g>
   <g id="patch_11">
    <path d="M 695.25512 174.196308 
Q 707.945932 174.196308 720.636743 174.196308 
L 720.636743 174.196308 
Q 724.836773 177.696308 729.036803 181.196308 
Q 724.836773 184.696308 720.636743 188.196308 
L 720.636743 188.196308 
Q 707.945932 188.196308 695.25512 188.196308 
L 695.25512 174.196308 
z
" clip-path="url(#p502d7a7808)" style="fill: #9467bd; stroke: #000000; stroke-linecap: round"/>
   </g>
   <g id="patch_12">
    <path d="M 111.609989 145.196923 
Q 122.943735 145.196923 134.277481 145.196923 
L 134.277481 145.196923 
Q 138.477623 148.696923 142.677765 152.196923 
Q 138.477623 155.696923 134.277481 159.196923 
L 134.277481 159.196923 
Q 122.943735 159.196923 111.609989 159.196923 
L 111.609989 145.196923 
z
" clip-path="url(#p502d7a7808)" style="fill: #2ca02c; stroke: #000000; stroke-linecap: round"/>
   </g>
   <g id="patch_13">
    <path d="M 1010.740371 145.196923 
Q 1022.074118 145.196923 1033.407864 145.196923 
L 1033.407864 145.196923 
Q 1037.608005 148.696923 1041.808147 152.196923 
Q 1037.608005 155.696923 1033.407864 159.196923 
L 1033.407864 159.196923 
Q 1022.074118 159.196923 1010.740371 159.196923 
L 1010.740371 145.196923 
z
" clip-path="url(#p502d7a7808)" style="fill: #808080; stroke: #000000; stroke-linecap: round"/>
   </g>
   <g id="patch_14">
    <path d="M 466.614899 174.196308 
Q 475.893279 174.196308 485.171659 174.196308 
L 485.171659 174.196308 
Q 489.372352 177.696308 493.573044 181.196308 
Q 489.372352 184.696308 485.171659 188.196308 
L 485.171659 188.196308 
Q 475.893279 188.196308 466.614899 188.196308 
L 466.614899 174.196308 
z
" clip-path="url(#p502d7a7808)" style="fill: #17becf; stroke: #000000; stroke-linecap: round"/>
   </g>
   <g id="patch_15">
    <path d="M 624.745226 174.196308 
Q 632.706511 174.196308 640.667796 174.196308 
L 640.667796 174.196308 
Q 644.8674 177.696308 649.067004 181.196308 
Q 644.8674 184.696308 640.667796 188.196308 
L 640.667796 188.196308 
Q 632.706511 188.196308 624.745226 188.196308 
L 624.745226 174.196308 
z
" clip-path="url(#p502d7a7808)" style="fill: #9467bd; stroke: #000000; stroke-linecap: round"/>
   </g>
   <g id="patch_16">
    <path d="M 251.311594 188.196308 
Q 243.620865 188.196308 235.930136 188.196308 
L 235.930136 188.196308 
Q 231.731366 184.696308 227.532597 181.196308 
Q 231.731366 177.696308 235.930136 174.196308 
L 235.930136 174.196308 
Q 243.620865 174.196308 251.311594 174.196308 
L 251.311594 188.196308 
z
" clip-path="url(#p502d7a7808)" style="fill: #808080; stroke: #000000; stroke-linecap: round"/>
   </g>
   <g id="patch_17">
    <path d="M 324.01846 188.196308 
Q 316.406726 188.196308 308.794992 188.196308 
L 308.794992 188.196308 
Q 304.594768 184.696308 300.394544 181.196308 
Q 304.594768 177.696308 308.794992 174.196308 
L 308.794992 174.196308 
Q 316.406726 174.196308 324.01846 174.196308 
L 324.01846 188.196308 
z
" clip-path="url(#p502d7a7808)" style="fill: #9467bd; stroke: #000000; stroke-linecap: round"/>
   </g>
   <g id="patch_18">
    <path d="M 753.12596 188.196308 
Q 745.553581 188.196308 737.981203 188.196308 
L 737.981203 188.196308 
Q 733.780393 184.696308 729.579584 181.196308 
Q 733.780393 177.696308 737.981203 174.196308 
L 737.981203 174.196308 
Q 745.553581 174.196308 753.12596 174.196308 
L 753.12596 188.196308 
z
" clip-path="url(#p502d7a7808)" style="fill: #17becf; stroke: #000000; stroke-linecap: round"/>
   </g>
   <g id="patch_19">
    <path d="M 913.68588 174.196308 
Q 920.600986 174.196308 927.516092 174.196308 
L 927.516092 174.196308 
Q 931.715082 177.696308 935.914073 181.196308 
Q 931.715082 184.696308 927.516092 188.196308 
L 927.516092 188.196308 
Q 920.600986 188.196308 913.68588 188.196308 
L 913.68588 174.196308 
z
" clip-path="url(#p502d7a7808)" style="fill: #17becf; stroke: #000000; stroke-linecap: round"/>
   </g>
   <g id="patch_20">
    <path d="M 255.627998 174.196308 
Q 262.310701 174.196308 268.993404 174.196308 
L 268.993404 174.196308 
Q 273.192177 177.696308 277.390949 181.196308 
Q 273.192177 184.696308 268.993404 188.196308 
L 268.993404 188.196308 
Q 262.310701 188.196308 255.627998 188.196308 
L 255.627998 174.196308 
z
" clip-path="url(#p502d7a7808)" style="fill: #2ca02c; stroke: #000000; stroke-linecap: round"/>
   </g>
   <g id="patch_21">
    <path d="M 279.562075 174.196308 
Q 285.54644 174.196308 291.530805 174.196308 
L 291.530805 174.196308 
Q 295.730054 177.696308 299.929303 181.196308 
Q 295.730054 184.696308 291.530805 188.196308 
L 291.530805 188.196308 
Q 285.54644 188.196308 279.562075 188.196308 
L 279.562075 174.196308 
z
" clip-path="url(#p502d7a7808)" style="fill: #808080; stroke: #000000; stroke-linecap: round"/>
   </g>
   <g id="patch_22">
    <path d="M 102.201777 188.196308 
Q 96.488213 188.196308 90.774649 188.196308 
L 90.774649 188.196308 
Q 86.57599 184.696308 82.377331 181.196308 
Q 86.57599 177.696308 90.774649 174.196308 
L 90.774649 174.196308 
Q 96.488213 174.196308 102.201777 174.196308 
L 102.201777 188.196308 
z
" clip-path="url(#p502d7a7808)" style="fill: #2ca02c; stroke: #000000; stroke-linecap: round"/>
   </g>
   <g id="patch_23">
    <path d="M 938.188585 174.196308 
Q 943.860518 174.196308 949.53245 174.196308 
L 949.53245 174.196308 
Q 953.73397 177.696308 957.935491 181.196308 
Q 953.73397 184.696308 949.53245 188.196308 
L 949.53245 188.196308 
Q 943.860518 188.196308 938.188585 188.196308 
L 938.188585 174.196308 
z
" clip-path="url(#p502d7a7808)" style="fill: #17becf; stroke: #000000; stroke-linecap: round"/>
   </g>
   <g id="patch_24">
    <path d="M 40.298846 188.196308 
Q 34.782436 188.196308 29.266026 188.196308 
L 29.266026 188.196308 
Q 25.064064 184.696308 20.862101 181.196308 
Q 25.064064 177.696308 29.266026 174.196308 
L 29.266026 174.196308 
Q 34.782436 174.196308 40.298846 174.196308 
L 40.298846 188.196308 
z
" clip-path="url(#p502d7a7808)" style="fill: #ff7f0e; stroke: #000000; stroke-linecap: round"/>
   </g>
   <g id="patch_25">
    <path d="M 493.495504 145.196923 
Q 497.85042 145.196923 502.205336 145.196923 
L 502.205336 145.196923 
Q 506.405689 148.696923 510.606042 152.196923 
Q 506.405689 155.696923 502.205336 159.196923 
L 502.205336 159.196923 
Q 497.85042 159.196923 493.495504 159.196923 
L 493.495504 145.196923 
z
" clip-path="url(#p502d7a7808)" style="fill: #17becf; stroke: #000000; stroke-linecap: round"/>
   </g>
   <g id="patch_26">
    <path d="M 404.505194 174.196308 
Q 408.783384 174.196308 413.061574 174.196308 
L 413.061574 174.196308 
Q 417.261113 177.696308 421.460652 181.196308 
Q 417.261113 184.696308 413.061574 188.196308 
L 413.061574 188.196308 
Q 408.783384 188.196308 404.505194 188.196308 
L 404.505194 174.196308 
z
" clip-path="url(#p502d7a7808)" style="fill: #bcbd22; stroke: #000000; stroke-linecap: round"/>
   </g>
   <g id="patch_27">
    <path d="M 450.047142 145.196923 
Q 454.16986 145.196923 458.292578 145.196923 
L 458.292578 145.196923 
Q 462.492509 148.696923 466.692439 152.196923 
Q 462.492509 155.696923 458.292578 159.196923 
L 458.292578 159.196923 
Q 454.16986 159.196923 450.047142 159.196923 
L 450.047142 145.196923 
z
" clip-path="url(#p502d7a7808)" style="fill: #9467bd; stroke: #000000; stroke-linecap: round"/>
   </g>
   <g id="patch_28">
    <path d="M 1063.105857 174.196308 
Q 1067.228576 174.196308 1071.351294 174.196308 
L 1071.351294 174.196308 
Q 1075.551224 177.696308 1079.751155 181.196308 
Q 1075.551224 184.696308 1071.351294 188.196308 
L 1071.351294 188.196308 
Q 1067.228576 188.196308 1063.105857 188.196308 
L 1063.105857 174.196308 
z
" clip-path="url(#p502d7a7808)" style="fill: #9467bd; stroke: #000000; stroke-linecap: round"/>
   </g>
   <g id="patch_29">
    <path d="M 1111.077398 188.196308 
Q 1108.118142 188.196308 1105.158887 188.196308 
L 1105.158887 188.196308 
Q 1100.958597 184.696308 1096.758307 181.196308 
Q 1100.958597 177.696308 1105.158887 174.196308 
L 1105.158887 174.196308 
Q 1108.118142 174.196308 1111.077398 174.196308 
L 1111.077398 188.196308 
z
" clip-path="url(#p502d7a7808)" style="fill: #17becf; stroke: #000000; stroke-linecap: round"/>
   </g>
   <g id="patch_30">
    <path d="M 1093.294844 188.196308 
Q 1090.995245 188.196308 1088.695646 188.196308 
L 1088.695646 188.196308 
Q 1084.494791 184.696308 1080.293936 181.196308 
Q 1084.494791 177.696308 1088.695646 174.196308 
L 1088.695646 174.196308 
Q 1090.995245 174.196308 1093.294844 174.196308 
L 1093.294844 188.196308 
z
" clip-path="url(#p502d7a7808)" style="fill: #9467bd; stroke: #000000; stroke-linecap: round"/>
   </g>
   <g id="patch_31">
    <path d="M 1060.727958 188.196308 
Q 1058.620111 188.196308 1056.512264 188.196308 
L 1056.512264 188.196308 
Q 1052.313507 184.696308 1048.114751 181.196308 
Q 1052.313507 177.696308 1056.512264 174.196308 
L 1056.512264 174.196308 
Q 1058.620111 174.196308 1060.727958 174.196308 
L 1060.727958 188.196308 
z
" clip-path="url(#p502d7a7808)" style="fill: #9467bd; stroke: #000000; stroke-linecap: round"/>
   </g>
   <g id="patch_32">
    <path d="M 198.842721 174.196308 
Q 200.910065 174.196308 202.97741 174.196308 
L 202.97741 174.196308 
Q 207.177899 177.696308 211.378387 181.196308 
Q 207.177899 184.696308 202.97741 188.196308 
L 202.97741 188.196308 
Q 200.910065 188.196308 198.842721 188.196308 
L 198.842721 174.196308 
z
" clip-path="url(#p502d7a7808)" style="fill: #d62728; stroke: #000000; stroke-linecap: round"/>
   </g>
   <g id="patch_33">
    <path d="M 328.8518 174.196308 
Q 330.919144 174.196308 332.986488 174.196308 
L 332.986488 174.196308 
Q 337.186977 177.696308 341.387466 181.196308 
Q 337.186977 184.696308 332.986488 188.196308 
L 332.986488 188.196308 
Q 330.919144 188.196308 328.8518 188.196308 
L 328.8518 174.196308 
z
" clip-path="url(#p502d7a7808)" style="fill: #8c564b; stroke: #000000; stroke-linecap: round"/>
   </g>
   <g id="patch_34">
    <path d="M 1126.352819 188.196308 
Q 1124.521386 188.196308 1122.689953 188.196308 
L 1122.689953 188.196308 
Q 1118.524943 184.696308 1114.359933 181.196308 
Q 1118.524943 177.696308 1122.689953 174.196308 
L 1122.689953 174.196308 
Q 1124.521386 174.196308 1126.352819 174.196308 
L 1126.352819 188.196308 
z
" clip-path="url(#p502d7a7808)" style="fill: #9467bd; stroke: #000000; stroke-linecap: round"/>
   </g>
   <g id="patch_35">
    <path d="M 184.67871 145.196923 
Q 186.427255 145.196923 188.1758 145.196923 
L 188.1758 145.196923 
Q 192.152307 148.696923 196.128814 152.196923 
Q 192.152307 155.696923 188.1758 159.196923 
L 188.1758 159.196923 
Q 186.427255 159.196923 184.67871 159.196923 
L 184.67871 145.196923 
z
" clip-path="url(#p502d7a7808)" style="fill: #2ca02c; stroke: #000000; stroke-linecap: round"/>
   </g>
   <g id="patch_36">
    <path d="M 216.444348 174.196308 
Q 217.978524 174.196308 219.512701 174.196308 
L 219.512701 174.196308 
Q 223.005714 177.696308 226.498728 181.196308 
Q 223.005714 184.696308 219.512701 188.196308 
L 219.512701 188.196308 
Q 217.978524 188.196308 216.444348 188.196308 
L 216.444348 174.196308 
z
" clip-path="url(#p502d7a7808)" style="fill: #2ca02c; stroke: #000000; stroke-linecap: round"/>
   </g>
   <g id="patch_37">
    <path d="M 394.39912 174.196308 
Q 395.838643 174.196308 397.278167 174.196308 
L 397.278167 174.196308 
Q 400.555673 177.696308 403.833179 181.196308 
Q 400.555673 184.696308 397.278167 188.196308 
L 397.278167 188.196308 
Q 395.838643 188.196308 394.39912 188.196308 
L 394.39912 174.196308 
z
" clip-path="url(#p502d7a7808)" style="fill: #7f7f7f; stroke: #000000; stroke-linecap: round"/>
   </g>
   <g id="patch_38">
    <path d="M 19.414684 188.196308 
Q 18.034319 188.196308 16.653955 188.196308 
L 16.653955 188.196308 
Q 13.511141 184.696308 10.368327 181.196308 
Q 13.511141 177.696308 16.653955 174.196308 
L 16.653955 174.196308 
Q 18.034319 174.196308 19.414684 174.196308 
L 19.414684 188.196308 
z
" clip-path="url(#p502d7a7808)" style="fill: #1f77b4; stroke: #000000; stroke-linecap: round"/>
   </g>
   <g id="patch_39">
    <path d="M 961.243873 145.196923 
Q 962.576911 145.196923 963.909949 145.196923 
L 963.909949 145.196923 
Q 966.945009 148.696923 969.98007 152.196923 
Q 966.945009 155.696923 963.909949 159.196923 
L 963.909949 159.196923 
Q 962.576911 159.196923 961.243873 159.196923 
L 961.243873 145.196923 
z
" clip-path="url(#p502d7a7808)" style="fill: #9467bd; stroke: #000000; stroke-linecap: round"/>
   </g>
   <g id="patch_40">
    <path d="M 618.257695 145.196923 
Q 619.259445 145.196923 620.261196 145.196923 
L 620.261196 145.196923 
Q 622.541981 148.696923 624.822766 152.196923 
Q 622.541981 155.696923 620.261196 159.196923 
L 620.261196 159.196923 
Q 619.259445 159.196923 618.257695 159.196923 
L 618.257695 145.196923 
z
" clip-path="url(#p502d7a7808)" style="fill: #9467bd; stroke: #000000; stroke-linecap: round"/>
   </g>
   <g id="patch_41">
    <path d="M 809.135836 174.196308 
Q 809.819222 174.196308 810.502608 174.196308 
L 810.502608 174.196308 
Q 812.054964 177.696308 813.607321 181.196308 
Q 812.054964 184.696308 810.502608 188.196308 
L 810.502608 188.196308 
Q 809.819222 188.196308 809.135836 188.196308 
L 809.135836 174.196308 
z
" clip-path="url(#p502d7a7808)" style="fill: #17becf; stroke: #000000; stroke-linecap: round"/>
   </g>
   <g id="matplotlib.axis_1">
    <g id="xtick_1">
     <g id="line2d_5">
      <defs>
       <path id="m57155351de" d="M 0 0 
L 0 3.5 
" style="stroke: #808080; stroke-width: 0.8"/>
      </defs>
      <g>
       <use xlink:href="#m57155351de" x="10.38125" y="195.696" style="fill: #808080; stroke: #808080; stroke-width: 0.8"/>
      </g>
     </g>
     <g id="text_1">
      <!-- 0 -->
      <g style="fill: #808080" transform="translate(7.2 210.294438)scale(0.1 -0.1)">
       <defs>
        <path id="DejaVuSans-30" d="M 2034 4250 
Q 1547 4250 1301 3770 
Q 1056 3291 1056 2328 
Q 1056 1369 1301 889 
Q 1547 409 2034 409 
Q 2525 409 2770 889 
Q 3016 1369 3016 2328 
Q 3016 3291 2770 3770 
Q 2525 4250 2034 4250 
z
M 2034 4750 
Q 2819 4750 3233 4129 
Q 3647 3509 3647 2328 
Q 3647 1150 3233 529 
Q 2819 -91 2034 -91 
Q 1250 -91 836 529 
Q 422 1150 422 2328 
Q 422 3509 836 4129 
Q 1250 4750 2034 4750 
z
" transform="scale(0.015625)"/>
       </defs>
       <use xlink:href="#DejaVuSans-30"/>
      </g>
     </g>
    </g>
    <g id="xtick_2">
     <g id="line2d_6">
      <g>
       <use xlink:href="#m57155351de" x="139.614927" y="195.696" style="fill: #808080; stroke: #808080; stroke-width: 0.8"/>
      </g>
     </g>
     <g id="text_2">
      <!-- 5,000 -->
      <g style="fill: #808080" transform="translate(125.300864 210.294438)scale(0.1 -0.1)">
       <defs>
        <path id="DejaVuSans-35" d="M 691 4666 
L 3169 4666 
L 3169 4134 
L 1269 4134 
L 1269 2991 
Q 1406 3038 1543 3061 
Q 1681 3084 1819 3084 
Q 2600 3084 3056 2656 
Q 3513 2228 3513 1497 
Q 3513 744 3044 326 
Q 2575 -91 1722 -91 
Q 1428 -91 1123 -41 
Q 819 9 494 109 
L 494 744 
Q 775 591 1075 516 
Q 1375 441 1709 441 
Q 2250 441 2565 725 
Q 2881 1009 2881 1497 
Q 2881 1984 2565 2268 
Q 2250 2553 1709 2553 
Q 1456 2553 1204 2497 
Q 953 2441 691 2322 
L 691 4666 
z
" transform="scale(0.015625)"/>
        <path id="DejaVuSans-2c" d="M 750 794 
L 1409 794 
L 1409 256 
L 897 -744 
L 494 -744 
L 750 256 
L 750 794 
z
" transform="scale(0.015625)"/>
       </defs>
       <use xlink:href="#DejaVuSans-35"/>
       <use xlink:href="#DejaVuSans-2c" x="63.623047"/>
       <use xlink:href="#DejaVuSans-30" x="95.410156"/>
       <use xlink:href="#DejaVuSans-30" x="159.033203"/>
       <use xlink:href="#DejaVuSans-30" x="222.65625"/>
      </g>
     </g>
    </g>
    <g id="xtick_3">
     <g id="line2d_7">
      <g>
       <use xlink:href="#m57155351de" x="268.848603" y="195.696" style="fill: #808080; stroke: #808080; stroke-width: 0.8"/>
      </g>
     </g>
     <g id="text_3">
      <!-- 10,000 -->
      <g style="fill: #808080" transform="translate(251.353291 210.294438)scale(0.1 -0.1)">
       <defs>
        <path id="DejaVuSans-31" d="M 794 531 
L 1825 531 
L 1825 4091 
L 703 3866 
L 703 4441 
L 1819 4666 
L 2450 4666 
L 2450 531 
L 3481 531 
L 3481 0 
L 794 0 
L 794 531 
z
" transform="scale(0.015625)"/>
       </defs>
       <use xlink:href="#DejaVuSans-31"/>
       <use xlink:href="#DejaVuSans-30" x="63.623047"/>
       <use xlink:href="#DejaVuSans-2c" x="127.246094"/>
       <use xlink:href="#DejaVuSans-30" x="159.033203"/>
       <use xlink:href="#DejaVuSans-30" x="222.65625"/>
       <use xlink:href="#DejaVuSans-30" x="286.279297"/>
      </g>
     </g>
    </g>
    <g id="xtick_4">
     <g id="line2d_8">
      <g>
       <use xlink:href="#m57155351de" x="398.08228" y="195.696" style="fill: #808080; stroke: #808080; stroke-width: 0.8"/>
      </g>
     </g>
     <g id="text_4">
      <!-- 15,000 -->
      <g style="fill: #808080" transform="translate(380.586968 210.294438)scale(0.1 -0.1)">
       <use xlink:href="#DejaVuSans-31"/>
       <use xlink:href="#DejaVuSans-35" x="63.623047"/>
       <use xlink:href="#DejaVuSans-2c" x="127.246094"/>
       <use xlink:href="#DejaVuSans-30" x="159.033203"/>
       <use xlink:href="#DejaVuSans-30" x="222.65625"/>
       <use xlink:href="#DejaVuSans-30" x="286.279297"/>
      </g>
     </g>
    </g>
    <g id="xtick_5">
     <g id="line2d_9">
      <g>
       <use xlink:href="#m57155351de" x="527.315957" y="195.696" style="fill: #808080; stroke: #808080; stroke-width: 0.8"/>
      </g>
     </g>
     <g id="text_5">
      <!-- 20,000 -->
      <g style="fill: #808080" transform="translate(509.820644 210.294438)scale(0.1 -0.1)">
       <defs>
        <path id="DejaVuSans-32" d="M 1228 531 
L 3431 531 
L 3431 0 
L 469 0 
L 469 531 
Q 828 903 1448 1529 
Q 2069 2156 2228 2338 
Q 2531 2678 2651 2914 
Q 2772 3150 2772 3378 
Q 2772 3750 2511 3984 
Q 2250 4219 1831 4219 
Q 1534 4219 1204 4116 
Q 875 4013 500 3803 
L 500 4441 
Q 881 4594 1212 4672 
Q 1544 4750 1819 4750 
Q 2544 4750 2975 4387 
Q 3406 4025 3406 3419 
Q 3406 3131 3298 2873 
Q 3191 2616 2906 2266 
Q 2828 2175 2409 1742 
Q 1991 1309 1228 531 
z
" transform="scale(0.015625)"/>
       </defs>
       <use xlink:href="#DejaVuSans-32"/>
       <use xlink:href="#DejaVuSans-30" x="63.623047"/>
       <use xlink:href="#DejaVuSans-2c" x="127.246094"/>
       <use xlink:href="#DejaVuSans-30" x="159.033203"/>
       <use xlink:href="#DejaVuSans-30" x="222.65625"/>
       <use xlink:href="#DejaVuSans-30" x="286.279297"/>
      </g>
     </g>
    </g>
    <g id="xtick_6">
     <g id="line2d_10">
      <g>
       <use xlink:href="#m57155351de" x="656.549634" y="195.696" style="fill: #808080; stroke: #808080; stroke-width: 0.8"/>
      </g>
     </g>
     <g id="text_6">
      <!-- 25,000 -->
      <g style="fill: #808080" transform="translate(639.054321 210.294438)scale(0.1 -0.1)">
       <use xlink:href="#DejaVuSans-32"/>
       <use xlink:href="#DejaVuSans-35" x="63.623047"/>
       <use xlink:href="#DejaVuSans-2c" x="127.246094"/>
       <use xlink:href="#DejaVuSans-30" x="159.033203"/>
       <use xlink:href="#DejaVuSans-30" x="222.65625"/>
       <use xlink:href="#DejaVuSans-30" x="286.279297"/>
      </g>
     </g>
    </g>
    <g id="xtick_7">
     <g id="line2d_11">
      <g>
       <use xlink:href="#m57155351de" x="785.78331" y="195.696" style="fill: #808080; stroke: #808080; stroke-width: 0.8"/>
      </g>
     </g>
     <g id="text_7">
      <!-- 30,000 -->
      <g style="fill: #808080" transform="translate(768.287998 210.294438)scale(0.1 -0.1)">
       <defs>
        <path id="DejaVuSans-33" d="M 2597 2516 
Q 3050 2419 3304 2112 
Q 3559 1806 3559 1356 
Q 3559 666 3084 287 
Q 2609 -91 1734 -91 
Q 1441 -91 1130 -33 
Q 819 25 488 141 
L 488 750 
Q 750 597 1062 519 
Q 1375 441 1716 441 
Q 2309 441 2620 675 
Q 2931 909 2931 1356 
Q 2931 1769 2642 2001 
Q 2353 2234 1838 2234 
L 1294 2234 
L 1294 2753 
L 1863 2753 
Q 2328 2753 2575 2939 
Q 2822 3125 2822 3475 
Q 2822 3834 2567 4026 
Q 2313 4219 1838 4219 
Q 1578 4219 1281 4162 
Q 984 4106 628 3988 
L 628 4550 
Q 988 4650 1302 4700 
Q 1616 4750 1894 4750 
Q 2613 4750 3031 4423 
Q 3450 4097 3450 3541 
Q 3450 3153 3228 2886 
Q 3006 2619 2597 2516 
z
" transform="scale(0.015625)"/>
       </defs>
       <use xlink:href="#DejaVuSans-33"/>
       <use xlink:href="#DejaVuSans-30" x="63.623047"/>
       <use xlink:href="#DejaVuSans-2c" x="127.246094"/>
       <use xlink:href="#DejaVuSans-30" x="159.033203"/>
       <use xlink:href="#DejaVuSans-30" x="222.65625"/>
       <use xlink:href="#DejaVuSans-30" x="286.279297"/>
      </g>
     </g>
    </g>
    <g id="xtick_8">
     <g id="line2d_12">
      <g>
       <use xlink:href="#m57155351de" x="915.016987" y="195.696" style="fill: #808080; stroke: #808080; stroke-width: 0.8"/>
      </g>
     </g>
     <g id="text_8">
      <!-- 35,000 -->
      <g style="fill: #808080" transform="translate(897.521675 210.294438)scale(0.1 -0.1)">
       <use xlink:href="#DejaVuSans-33"/>
       <use xlink:href="#DejaVuSans-35" x="63.623047"/>
       <use xlink:href="#DejaVuSans-2c" x="127.246094"/>
       <use xlink:href="#DejaVuSans-30" x="159.033203"/>
       <use xlink:href="#DejaVuSans-30" x="222.65625"/>
       <use xlink:href="#DejaVuSans-30" x="286.279297"/>
      </g>
     </g>
    </g>
    <g id="xtick_9">
     <g id="line2d_13">
      <g>
       <use xlink:href="#m57155351de" x="1044.250664" y="195.696" style="fill: #808080; stroke: #808080; stroke-width: 0.8"/>
      </g>
     </g>
     <g id="text_9">
      <!-- 40,000 -->
      <g style="fill: #808080" transform="translate(1026.755351 210.294438)scale(0.1 -0.1)">
       <defs>
        <path id="DejaVuSans-34" d="M 2419 4116 
L 825 1625 
L 2419 1625 
L 2419 4116 
z
M 2253 4666 
L 3047 4666 
L 3047 1625 
L 3713 1625 
L 3713 1100 
L 3047 1100 
L 3047 0 
L 2419 0 
L 2419 1100 
L 313 1100 
L 313 1709 
L 2253 4666 
z
" transform="scale(0.015625)"/>
       </defs>
       <use xlink:href="#DejaVuSans-34"/>
       <use xlink:href="#DejaVuSans-30" x="63.623047"/>
       <use xlink:href="#DejaVuSans-2c" x="127.246094"/>
       <use xlink:href="#DejaVuSans-30" x="159.033203"/>
       <use xlink:href="#DejaVuSans-30" x="222.65625"/>
       <use xlink:href="#DejaVuSans-30" x="286.279297"/>
      </g>
     </g>
    </g>
   </g>
   <g id="text_10">
    <g id="patch_42">
     <path d="M 494.566098 123.479612 
L 640.164848 123.479612 
Q 643.464848 123.479612 643.464848 120.179612 
L 643.464848 97.216081 
Q 643.464848 93.916081 640.164848 93.916081 
L 494.566098 93.916081 
Q 491.266098 93.916081 491.266098 97.216081 
L 491.266098 120.179612 
Q 491.266098 123.479612 494.566098 123.479612 
z
" style="fill: #e8fbfc; stroke: #808080; stroke-linejoin: miter"/>
    </g>
    <!-- amino acid adenylation -->
    <g transform="translate(502.927817 105.574362)scale(0.11 -0.11)">
     <defs>
      <path id="DejaVuSans-61" d="M 2194 1759 
Q 1497 1759 1228 1600 
Q 959 1441 959 1056 
Q 959 750 1161 570 
Q 1363 391 1709 391 
Q 2188 391 2477 730 
Q 2766 1069 2766 1631 
L 2766 1759 
L 2194 1759 
z
M 3341 1997 
L 3341 0 
L 2766 0 
L 2766 531 
Q 2569 213 2275 61 
Q 1981 -91 1556 -91 
Q 1019 -91 701 211 
Q 384 513 384 1019 
Q 384 1609 779 1909 
Q 1175 2209 1959 2209 
L 2766 2209 
L 2766 2266 
Q 2766 2663 2505 2880 
Q 2244 3097 1772 3097 
Q 1472 3097 1187 3025 
Q 903 2953 641 2809 
L 641 3341 
Q 956 3463 1253 3523 
Q 1550 3584 1831 3584 
Q 2591 3584 2966 3190 
Q 3341 2797 3341 1997 
z
" transform="scale(0.015625)"/>
      <path id="DejaVuSans-6d" d="M 3328 2828 
Q 3544 3216 3844 3400 
Q 4144 3584 4550 3584 
Q 5097 3584 5394 3201 
Q 5691 2819 5691 2113 
L 5691 0 
L 5113 0 
L 5113 2094 
Q 5113 2597 4934 2840 
Q 4756 3084 4391 3084 
Q 3944 3084 3684 2787 
Q 3425 2491 3425 1978 
L 3425 0 
L 2847 0 
L 2847 2094 
Q 2847 2600 2669 2842 
Q 2491 3084 2119 3084 
Q 1678 3084 1418 2786 
Q 1159 2488 1159 1978 
L 1159 0 
L 581 0 
L 581 3500 
L 1159 3500 
L 1159 2956 
Q 1356 3278 1631 3431 
Q 1906 3584 2284 3584 
Q 2666 3584 2933 3390 
Q 3200 3197 3328 2828 
z
" transform="scale(0.015625)"/>
      <path id="DejaVuSans-69" d="M 603 3500 
L 1178 3500 
L 1178 0 
L 603 0 
L 603 3500 
z
M 603 4863 
L 1178 4863 
L 1178 4134 
L 603 4134 
L 603 4863 
z
" transform="scale(0.015625)"/>
      <path id="DejaVuSans-6e" d="M 3513 2113 
L 3513 0 
L 2938 0 
L 2938 2094 
Q 2938 2591 2744 2837 
Q 2550 3084 2163 3084 
Q 1697 3084 1428 2787 
Q 1159 2491 1159 1978 
L 1159 0 
L 581 0 
L 581 3500 
L 1159 3500 
L 1159 2956 
Q 1366 3272 1645 3428 
Q 1925 3584 2291 3584 
Q 2894 3584 3203 3211 
Q 3513 2838 3513 2113 
z
" transform="scale(0.015625)"/>
      <path id="DejaVuSans-6f" d="M 1959 3097 
Q 1497 3097 1228 2736 
Q 959 2375 959 1747 
Q 959 1119 1226 758 
Q 1494 397 1959 397 
Q 2419 397 2687 759 
Q 2956 1122 2956 1747 
Q 2956 2369 2687 2733 
Q 2419 3097 1959 3097 
z
M 1959 3584 
Q 2709 3584 3137 3096 
Q 3566 2609 3566 1747 
Q 3566 888 3137 398 
Q 2709 -91 1959 -91 
Q 1206 -91 779 398 
Q 353 888 353 1747 
Q 353 2609 779 3096 
Q 1206 3584 1959 3584 
z
" transform="scale(0.015625)"/>
      <path id="DejaVuSans-20" transform="scale(0.015625)"/>
      <path id="DejaVuSans-63" d="M 3122 3366 
L 3122 2828 
Q 2878 2963 2633 3030 
Q 2388 3097 2138 3097 
Q 1578 3097 1268 2742 
Q 959 2388 959 1747 
Q 959 1106 1268 751 
Q 1578 397 2138 397 
Q 2388 397 2633 464 
Q 2878 531 3122 666 
L 3122 134 
Q 2881 22 2623 -34 
Q 2366 -91 2075 -91 
Q 1284 -91 818 406 
Q 353 903 353 1747 
Q 353 2603 823 3093 
Q 1294 3584 2113 3584 
Q 2378 3584 2631 3529 
Q 2884 3475 3122 3366 
z
" transform="scale(0.015625)"/>
      <path id="DejaVuSans-64" d="M 2906 2969 
L 2906 4863 
L 3481 4863 
L 3481 0 
L 2906 0 
L 2906 525 
Q 2725 213 2448 61 
Q 2172 -91 1784 -91 
Q 1150 -91 751 415 
Q 353 922 353 1747 
Q 353 2572 751 3078 
Q 1150 3584 1784 3584 
Q 2172 3584 2448 3432 
Q 2725 3281 2906 2969 
z
M 947 1747 
Q 947 1113 1208 752 
Q 1469 391 1925 391 
Q 2381 391 2643 752 
Q 2906 1113 2906 1747 
Q 2906 2381 2643 2742 
Q 2381 3103 1925 3103 
Q 1469 3103 1208 2742 
Q 947 2381 947 1747 
z
" transform="scale(0.015625)"/>
      <path id="DejaVuSans-65" d="M 3597 1894 
L 3597 1613 
L 953 1613 
Q 991 1019 1311 708 
Q 1631 397 2203 397 
Q 2534 397 2845 478 
Q 3156 559 3463 722 
L 3463 178 
Q 3153 47 2828 -22 
Q 2503 -91 2169 -91 
Q 1331 -91 842 396 
Q 353 884 353 1716 
Q 353 2575 817 3079 
Q 1281 3584 2069 3584 
Q 2775 3584 3186 3129 
Q 3597 2675 3597 1894 
z
M 3022 2063 
Q 3016 2534 2758 2815 
Q 2500 3097 2075 3097 
Q 1594 3097 1305 2825 
Q 1016 2553 972 2059 
L 3022 2063 
z
" transform="scale(0.015625)"/>
      <path id="DejaVuSans-79" d="M 2059 -325 
Q 1816 -950 1584 -1140 
Q 1353 -1331 966 -1331 
L 506 -1331 
L 506 -850 
L 844 -850 
Q 1081 -850 1212 -737 
Q 1344 -625 1503 -206 
L 1606 56 
L 191 3500 
L 800 3500 
L 1894 763 
L 2988 3500 
L 3597 3500 
L 2059 -325 
z
" transform="scale(0.015625)"/>
      <path id="DejaVuSans-6c" d="M 603 4863 
L 1178 4863 
L 1178 0 
L 603 0 
L 603 4863 
z
" transform="scale(0.015625)"/>
      <path id="DejaVuSans-74" d="M 1172 4494 
L 1172 3500 
L 2356 3500 
L 2356 3053 
L 1172 3053 
L 1172 1153 
Q 1172 725 1289 603 
Q 1406 481 1766 481 
L 2356 481 
L 2356 0 
L 1766 0 
Q 1100 0 847 248 
Q 594 497 594 1153 
L 594 3053 
L 172 3053 
L 172 3500 
L 594 3500 
L 594 4494 
L 1172 4494 
z
" transform="scale(0.015625)"/>
     </defs>
     <use xlink:href="#DejaVuSans-61"/>
     <use xlink:href="#DejaVuSans-6d" x="61.279297"/>
     <use xlink:href="#DejaVuSans-69" x="158.691406"/>
     <use xlink:href="#DejaVuSans-6e" x="186.474609"/>
     <use xlink:href="#DejaVuSans-6f" x="249.853516"/>
     <use xlink:href="#DejaVuSans-20" x="311.035156"/>
     <use xlink:href="#DejaVuSans-61" x="342.822266"/>
     <use xlink:href="#DejaVuSans-63" x="404.101562"/>
     <use xlink:href="#DejaVuSans-69" x="459.082031"/>
     <use xlink:href="#DejaVuSans-64" x="486.865234"/>
     <use xlink:href="#DejaVuSans-20" x="550.341797"/>
     <use xlink:href="#DejaVuSans-61" x="582.128906"/>
     <use xlink:href="#DejaVuSans-64" x="643.408203"/>
     <use xlink:href="#DejaVuSans-65" x="706.884766"/>
     <use xlink:href="#DejaVuSans-6e" x="768.408203"/>
     <use xlink:href="#DejaVuSans-79" x="831.787109"/>
     <use xlink:href="#DejaVuSans-6c" x="890.966797"/>
     <use xlink:href="#DejaVuSans-61" x="918.75"/>
     <use xlink:href="#DejaVuSans-74" x="980.029297"/>
     <use xlink:href="#DejaVuSans-69" x="1019.238281"/>
     <use xlink:href="#DejaVuSans-6f" x="1047.021484"/>
     <use xlink:href="#DejaVuSans-6e" x="1108.203125"/>
    </g>
    <!-- domain-containing protein -->
    <g transform="translate(494.566098 117.891956)scale(0.11 -0.11)">
     <defs>
      <path id="DejaVuSans-2d" d="M 313 2009 
L 1997 2009 
L 1997 1497 
L 313 1497 
L 313 2009 
z
" transform="scale(0.015625)"/>
      <path id="DejaVuSans-67" d="M 2906 1791 
Q 2906 2416 2648 2759 
Q 2391 3103 1925 3103 
Q 1463 3103 1205 2759 
Q 947 2416 947 1791 
Q 947 1169 1205 825 
Q 1463 481 1925 481 
Q 2391 481 2648 825 
Q 2906 1169 2906 1791 
z
M 3481 434 
Q 3481 -459 3084 -895 
Q 2688 -1331 1869 -1331 
Q 1566 -1331 1297 -1286 
Q 1028 -1241 775 -1147 
L 775 -588 
Q 1028 -725 1275 -790 
Q 1522 -856 1778 -856 
Q 2344 -856 2625 -561 
Q 2906 -266 2906 331 
L 2906 616 
Q 2728 306 2450 153 
Q 2172 0 1784 0 
Q 1141 0 747 490 
Q 353 981 353 1791 
Q 353 2603 747 3093 
Q 1141 3584 1784 3584 
Q 2172 3584 2450 3431 
Q 2728 3278 2906 2969 
L 2906 3500 
L 3481 3500 
L 3481 434 
z
" transform="scale(0.015625)"/>
      <path id="DejaVuSans-70" d="M 1159 525 
L 1159 -1331 
L 581 -1331 
L 581 3500 
L 1159 3500 
L 1159 2969 
Q 1341 3281 1617 3432 
Q 1894 3584 2278 3584 
Q 2916 3584 3314 3078 
Q 3713 2572 3713 1747 
Q 3713 922 3314 415 
Q 2916 -91 2278 -91 
Q 1894 -91 1617 61 
Q 1341 213 1159 525 
z
M 3116 1747 
Q 3116 2381 2855 2742 
Q 2594 3103 2138 3103 
Q 1681 3103 1420 2742 
Q 1159 2381 1159 1747 
Q 1159 1113 1420 752 
Q 1681 391 2138 391 
Q 2594 391 2855 752 
Q 3116 1113 3116 1747 
z
" transform="scale(0.015625)"/>
      <path id="DejaVuSans-72" d="M 2631 2963 
Q 2534 3019 2420 3045 
Q 2306 3072 2169 3072 
Q 1681 3072 1420 2755 
Q 1159 2438 1159 1844 
L 1159 0 
L 581 0 
L 581 3500 
L 1159 3500 
L 1159 2956 
Q 1341 3275 1631 3429 
Q 1922 3584 2338 3584 
Q 2397 3584 2469 3576 
Q 2541 3569 2628 3553 
L 2631 2963 
z
" transform="scale(0.015625)"/>
     </defs>
     <use xlink:href="#DejaVuSans-64"/>
     <use xlink:href="#DejaVuSans-6f" x="63.476562"/>
     <use xlink:href="#DejaVuSans-6d" x="124.658203"/>
     <use xlink:href="#DejaVuSans-61" x="222.070312"/>
     <use xlink:href="#DejaVuSans-69" x="283.349609"/>
     <use xlink:href="#DejaVuSans-6e" x="311.132812"/>
     <use xlink:href="#DejaVuSans-2d" x="374.511719"/>
     <use xlink:href="#DejaVuSans-63" x="410.595703"/>
     <use xlink:href="#DejaVuSans-6f" x="465.576172"/>
     <use xlink:href="#DejaVuSans-6e" x="526.757812"/>
     <use xlink:href="#DejaVuSans-74" x="590.136719"/>
     <use xlink:href="#DejaVuSans-61" x="629.345703"/>
     <use xlink:href="#DejaVuSans-69" x="690.625"/>
     <use xlink:href="#DejaVuSans-6e" x="718.408203"/>
     <use xlink:href="#DejaVuSans-69" x="781.787109"/>
     <use xlink:href="#DejaVuSans-6e" x="809.570312"/>
     <use xlink:href="#DejaVuSans-67" x="872.949219"/>
     <use xlink:href="#DejaVuSans-20" x="936.425781"/>
     <use xlink:href="#DejaVuSans-70" x="968.212891"/>
     <use xlink:href="#DejaVuSans-72" x="1031.689453"/>
     <use xlink:href="#DejaVuSans-6f" x="1070.552734"/>
     <use xlink:href="#DejaVuSans-74" x="1131.734375"/>
     <use xlink:href="#DejaVuSans-65" x="1170.943359"/>
     <use xlink:href="#DejaVuSans-69" x="1232.466797"/>
     <use xlink:href="#DejaVuSans-6e" x="1260.25"/>
    </g>
   </g>
   <g id="text_11">
    <g id="patch_43">
     <path d="M 412.599518 73.821738 
L 547.588425 73.821738 
Q 550.888425 73.821738 550.888425 70.521738 
L 550.888425 59.8758 
Q 550.888425 56.5758 547.588425 56.5758 
L 412.599518 56.5758 
Q 409.299518 56.5758 409.299518 59.8758 
L 409.299518 70.521738 
Q 409.299518 73.821738 412.599518 73.821738 
z
" style="fill: #e8fbfc; stroke: #808080; stroke-linejoin: miter"/>
    </g>
    <!-- EamA family transporter -->
    <g transform="translate(412.599518 68.234082)scale(0.11 -0.11)">
     <defs>
      <path id="DejaVuSans-45" d="M 628 4666 
L 3578 4666 
L 3578 4134 
L 1259 4134 
L 1259 2753 
L 3481 2753 
L 3481 2222 
L 1259 2222 
L 1259 531 
L 3634 531 
L 3634 0 
L 628 0 
L 628 4666 
z
" transform="scale(0.015625)"/>
      <path id="DejaVuSans-41" d="M 2188 4044 
L 1331 1722 
L 3047 1722 
L 2188 4044 
z
M 1831 4666 
L 2547 4666 
L 4325 0 
L 3669 0 
L 3244 1197 
L 1141 1197 
L 716 0 
L 50 0 
L 1831 4666 
z
" transform="scale(0.015625)"/>
      <path id="DejaVuSans-66" d="M 2375 4863 
L 2375 4384 
L 1825 4384 
Q 1516 4384 1395 4259 
Q 1275 4134 1275 3809 
L 1275 3500 
L 2222 3500 
L 2222 3053 
L 1275 3053 
L 1275 0 
L 697 0 
L 697 3053 
L 147 3053 
L 147 3500 
L 697 3500 
L 697 3744 
Q 697 4328 969 4595 
Q 1241 4863 1831 4863 
L 2375 4863 
z
" transform="scale(0.015625)"/>
      <path id="DejaVuSans-73" d="M 2834 3397 
L 2834 2853 
Q 2591 2978 2328 3040 
Q 2066 3103 1784 3103 
Q 1356 3103 1142 2972 
Q 928 2841 928 2578 
Q 928 2378 1081 2264 
Q 1234 2150 1697 2047 
L 1894 2003 
Q 2506 1872 2764 1633 
Q 3022 1394 3022 966 
Q 3022 478 2636 193 
Q 2250 -91 1575 -91 
Q 1294 -91 989 -36 
Q 684 19 347 128 
L 347 722 
Q 666 556 975 473 
Q 1284 391 1588 391 
Q 1994 391 2212 530 
Q 2431 669 2431 922 
Q 2431 1156 2273 1281 
Q 2116 1406 1581 1522 
L 1381 1569 
Q 847 1681 609 1914 
Q 372 2147 372 2553 
Q 372 3047 722 3315 
Q 1072 3584 1716 3584 
Q 2034 3584 2315 3537 
Q 2597 3491 2834 3397 
z
" transform="scale(0.015625)"/>
     </defs>
     <use xlink:href="#DejaVuSans-45"/>
     <use xlink:href="#DejaVuSans-61" x="63.183594"/>
     <use xlink:href="#DejaVuSans-6d" x="124.462891"/>
     <use xlink:href="#DejaVuSans-41" x="221.875"/>
     <use xlink:href="#DejaVuSans-20" x="290.283203"/>
     <use xlink:href="#DejaVuSans-66" x="322.070312"/>
     <use xlink:href="#DejaVuSans-61" x="357.275391"/>
     <use xlink:href="#DejaVuSans-6d" x="418.554688"/>
     <use xlink:href="#DejaVuSans-69" x="515.966797"/>
     <use xlink:href="#DejaVuSans-6c" x="543.75"/>
     <use xlink:href="#DejaVuSans-79" x="571.533203"/>
     <use xlink:href="#DejaVuSans-20" x="630.712891"/>
     <use xlink:href="#DejaVuSans-74" x="662.5"/>
     <use xlink:href="#DejaVuSans-72" x="701.708984"/>
     <use xlink:href="#DejaVuSans-61" x="742.822266"/>
     <use xlink:href="#DejaVuSans-6e" x="804.101562"/>
     <use xlink:href="#DejaVuSans-73" x="867.480469"/>
     <use xlink:href="#DejaVuSans-70" x="919.580078"/>
     <use xlink:href="#DejaVuSans-6f" x="983.056641"/>
     <use xlink:href="#DejaVuSans-72" x="1044.238281"/>
     <use xlink:href="#DejaVuSans-74" x="1085.351562"/>
     <use xlink:href="#DejaVuSans-65" x="1124.560547"/>
     <use xlink:href="#DejaVuSans-72" x="1186.083984"/>
    </g>
   </g>
   <g id="text_12">
    <g id="patch_44">
     <path d="M 442.563117 44.822353 
L 561.538429 44.822353 
Q 564.838429 44.822353 564.838429 41.522353 
L 564.838429 30.876416 
Q 564.838429 27.576416 561.538429 27.576416 
L 442.563117 27.576416 
Q 439.263117 27.576416 439.263117 30.876416 
L 439.263117 41.522353 
Q 439.263117 44.822353 442.563117 44.822353 
z
" style="fill: #e8fbfc; stroke: #808080; stroke-linejoin: miter"/>
    </g>
    <!-- HAD family hydrolase -->
    <g transform="translate(442.563117 39.234697)scale(0.11 -0.11)">
     <defs>
      <path id="DejaVuSans-48" d="M 628 4666 
L 1259 4666 
L 1259 2753 
L 3553 2753 
L 3553 4666 
L 4184 4666 
L 4184 0 
L 3553 0 
L 3553 2222 
L 1259 2222 
L 1259 0 
L 628 0 
L 628 4666 
z
" transform="scale(0.015625)"/>
      <path id="DejaVuSans-44" d="M 1259 4147 
L 1259 519 
L 2022 519 
Q 2988 519 3436 956 
Q 3884 1394 3884 2338 
Q 3884 3275 3436 3711 
Q 2988 4147 2022 4147 
L 1259 4147 
z
M 628 4666 
L 1925 4666 
Q 3281 4666 3915 4102 
Q 4550 3538 4550 2338 
Q 4550 1131 3912 565 
Q 3275 0 1925 0 
L 628 0 
L 628 4666 
z
" transform="scale(0.015625)"/>
      <path id="DejaVuSans-68" d="M 3513 2113 
L 3513 0 
L 2938 0 
L 2938 2094 
Q 2938 2591 2744 2837 
Q 2550 3084 2163 3084 
Q 1697 3084 1428 2787 
Q 1159 2491 1159 1978 
L 1159 0 
L 581 0 
L 581 4863 
L 1159 4863 
L 1159 2956 
Q 1366 3272 1645 3428 
Q 1925 3584 2291 3584 
Q 2894 3584 3203 3211 
Q 3513 2838 3513 2113 
z
" transform="scale(0.015625)"/>
     </defs>
     <use xlink:href="#DejaVuSans-48"/>
     <use xlink:href="#DejaVuSans-41" x="75.195312"/>
     <use xlink:href="#DejaVuSans-44" x="143.603516"/>
     <use xlink:href="#DejaVuSans-20" x="220.605469"/>
     <use xlink:href="#DejaVuSans-66" x="252.392578"/>
     <use xlink:href="#DejaVuSans-61" x="287.597656"/>
     <use xlink:href="#DejaVuSans-6d" x="348.876953"/>
     <use xlink:href="#DejaVuSans-69" x="446.289062"/>
     <use xlink:href="#DejaVuSans-6c" x="474.072266"/>
     <use xlink:href="#DejaVuSans-79" x="501.855469"/>
     <use xlink:href="#DejaVuSans-20" x="561.035156"/>
     <use xlink:href="#DejaVuSans-68" x="592.822266"/>
     <use xlink:href="#DejaVuSans-79" x="656.201172"/>
     <use xlink:href="#DejaVuSans-64" x="715.380859"/>
     <use xlink:href="#DejaVuSans-72" x="778.857422"/>
     <use xlink:href="#DejaVuSans-6f" x="817.720703"/>
     <use xlink:href="#DejaVuSans-6c" x="878.902344"/>
     <use xlink:href="#DejaVuSans-61" x="906.685547"/>
     <use xlink:href="#DejaVuSans-73" x="967.964844"/>
     <use xlink:href="#DejaVuSans-65" x="1020.064453"/>
    </g>
   </g>
   <g id="legend_1">
    <g id="patch_45">
     <path d="M 1189.160573 250.05 
L 1494.59026 250.05 
Q 1496.59026 250.05 1496.59026 248.05 
L 1496.59026 14.2 
Q 1496.59026 12.2 1494.59026 12.2 
L 1189.160573 12.2 
Q 1187.160573 12.2 1187.160573 14.2 
L 1187.160573 248.05 
Q 1187.160573 250.05 1189.160573 250.05 
z
" style="fill: #ffffff; opacity: 0.8; stroke: #cccccc; stroke-linejoin: miter"/>
    </g>
    <g id="patch_46">
     <path d="M 1191.160573 23.798438 
L 1211.160573 23.798438 
L 1211.160573 16.798438 
L 1191.160573 16.798438 
z
" style="fill: #1f77b4; stroke: #1f77b4; stroke-linejoin: miter"/>
    </g>
    <g id="text_13">
     <!-- BGC-19-20 deletion, SigE -->
     <g transform="translate(1219.160573 23.798438)scale(0.1 -0.1)">
      <defs>
       <path id="DejaVuSans-42" d="M 1259 2228 
L 1259 519 
L 2272 519 
Q 2781 519 3026 730 
Q 3272 941 3272 1375 
Q 3272 1813 3026 2020 
Q 2781 2228 2272 2228 
L 1259 2228 
z
M 1259 4147 
L 1259 2741 
L 2194 2741 
Q 2656 2741 2882 2914 
Q 3109 3088 3109 3444 
Q 3109 3797 2882 3972 
Q 2656 4147 2194 4147 
L 1259 4147 
z
M 628 4666 
L 2241 4666 
Q 2963 4666 3353 4366 
Q 3744 4066 3744 3513 
Q 3744 3084 3544 2831 
Q 3344 2578 2956 2516 
Q 3422 2416 3680 2098 
Q 3938 1781 3938 1306 
Q 3938 681 3513 340 
Q 3088 0 2303 0 
L 628 0 
L 628 4666 
z
" transform="scale(0.015625)"/>
       <path id="DejaVuSans-47" d="M 3809 666 
L 3809 1919 
L 2778 1919 
L 2778 2438 
L 4434 2438 
L 4434 434 
Q 4069 175 3628 42 
Q 3188 -91 2688 -91 
Q 1594 -91 976 548 
Q 359 1188 359 2328 
Q 359 3472 976 4111 
Q 1594 4750 2688 4750 
Q 3144 4750 3555 4637 
Q 3966 4525 4313 4306 
L 4313 3634 
Q 3963 3931 3569 4081 
Q 3175 4231 2741 4231 
Q 1884 4231 1454 3753 
Q 1025 3275 1025 2328 
Q 1025 1384 1454 906 
Q 1884 428 2741 428 
Q 3075 428 3337 486 
Q 3600 544 3809 666 
z
" transform="scale(0.015625)"/>
       <path id="DejaVuSans-43" d="M 4122 4306 
L 4122 3641 
Q 3803 3938 3442 4084 
Q 3081 4231 2675 4231 
Q 1875 4231 1450 3742 
Q 1025 3253 1025 2328 
Q 1025 1406 1450 917 
Q 1875 428 2675 428 
Q 3081 428 3442 575 
Q 3803 722 4122 1019 
L 4122 359 
Q 3791 134 3420 21 
Q 3050 -91 2638 -91 
Q 1578 -91 968 557 
Q 359 1206 359 2328 
Q 359 3453 968 4101 
Q 1578 4750 2638 4750 
Q 3056 4750 3426 4639 
Q 3797 4528 4122 4306 
z
" transform="scale(0.015625)"/>
       <path id="DejaVuSans-39" d="M 703 97 
L 703 672 
Q 941 559 1184 500 
Q 1428 441 1663 441 
Q 2288 441 2617 861 
Q 2947 1281 2994 2138 
Q 2813 1869 2534 1725 
Q 2256 1581 1919 1581 
Q 1219 1581 811 2004 
Q 403 2428 403 3163 
Q 403 3881 828 4315 
Q 1253 4750 1959 4750 
Q 2769 4750 3195 4129 
Q 3622 3509 3622 2328 
Q 3622 1225 3098 567 
Q 2575 -91 1691 -91 
Q 1453 -91 1209 -44 
Q 966 3 703 97 
z
M 1959 2075 
Q 2384 2075 2632 2365 
Q 2881 2656 2881 3163 
Q 2881 3666 2632 3958 
Q 2384 4250 1959 4250 
Q 1534 4250 1286 3958 
Q 1038 3666 1038 3163 
Q 1038 2656 1286 2365 
Q 1534 2075 1959 2075 
z
" transform="scale(0.015625)"/>
       <path id="DejaVuSans-53" d="M 3425 4513 
L 3425 3897 
Q 3066 4069 2747 4153 
Q 2428 4238 2131 4238 
Q 1616 4238 1336 4038 
Q 1056 3838 1056 3469 
Q 1056 3159 1242 3001 
Q 1428 2844 1947 2747 
L 2328 2669 
Q 3034 2534 3370 2195 
Q 3706 1856 3706 1288 
Q 3706 609 3251 259 
Q 2797 -91 1919 -91 
Q 1588 -91 1214 -16 
Q 841 59 441 206 
L 441 856 
Q 825 641 1194 531 
Q 1563 422 1919 422 
Q 2459 422 2753 634 
Q 3047 847 3047 1241 
Q 3047 1584 2836 1778 
Q 2625 1972 2144 2069 
L 1759 2144 
Q 1053 2284 737 2584 
Q 422 2884 422 3419 
Q 422 4038 858 4394 
Q 1294 4750 2059 4750 
Q 2388 4750 2728 4690 
Q 3069 4631 3425 4513 
z
" transform="scale(0.015625)"/>
      </defs>
      <use xlink:href="#DejaVuSans-42"/>
      <use xlink:href="#DejaVuSans-47" x="66.853516"/>
      <use xlink:href="#DejaVuSans-43" x="144.34375"/>
      <use xlink:href="#DejaVuSans-2d" x="214.167969"/>
      <use xlink:href="#DejaVuSans-31" x="250.251953"/>
      <use xlink:href="#DejaVuSans-39" x="313.875"/>
      <use xlink:href="#DejaVuSans-2d" x="377.498047"/>
      <use xlink:href="#DejaVuSans-32" x="413.582031"/>
      <use xlink:href="#DejaVuSans-30" x="477.205078"/>
      <use xlink:href="#DejaVuSans-20" x="540.828125"/>
      <use xlink:href="#DejaVuSans-64" x="572.615234"/>
      <use xlink:href="#DejaVuSans-65" x="636.091797"/>
      <use xlink:href="#DejaVuSans-6c" x="697.615234"/>
      <use xlink:href="#DejaVuSans-65" x="725.398438"/>
      <use xlink:href="#DejaVuSans-74" x="786.921875"/>
      <use xlink:href="#DejaVuSans-69" x="826.130859"/>
      <use xlink:href="#DejaVuSans-6f" x="853.914062"/>
      <use xlink:href="#DejaVuSans-6e" x="915.095703"/>
      <use xlink:href="#DejaVuSans-2c" x="978.474609"/>
      <use xlink:href="#DejaVuSans-20" x="1010.261719"/>
      <use xlink:href="#DejaVuSans-53" x="1042.048828"/>
      <use xlink:href="#DejaVuSans-69" x="1105.525391"/>
      <use xlink:href="#DejaVuSans-67" x="1133.308594"/>
      <use xlink:href="#DejaVuSans-45" x="1196.785156"/>
     </g>
    </g>
    <g id="patch_47">
     <path d="M 1191.160573 38.476563 
L 1211.160573 38.476563 
L 1211.160573 31.476563 
L 1191.160573 31.476563 
z
" style="fill: #ff7f0e; stroke: #ff7f0e; stroke-linejoin: miter"/>
    </g>
    <g id="text_14">
     <!-- UC-4 -->
     <g transform="translate(1219.160573 38.476563)scale(0.1 -0.1)">
      <defs>
       <path id="DejaVuSans-55" d="M 556 4666 
L 1191 4666 
L 1191 1831 
Q 1191 1081 1462 751 
Q 1734 422 2344 422 
Q 2950 422 3222 751 
Q 3494 1081 3494 1831 
L 3494 4666 
L 4128 4666 
L 4128 1753 
Q 4128 841 3676 375 
Q 3225 -91 2344 -91 
Q 1459 -91 1007 375 
Q 556 841 556 1753 
L 556 4666 
z
" transform="scale(0.015625)"/>
      </defs>
      <use xlink:href="#DejaVuSans-55"/>
      <use xlink:href="#DejaVuSans-43" x="73.193359"/>
      <use xlink:href="#DejaVuSans-2d" x="143.017578"/>
      <use xlink:href="#DejaVuSans-34" x="179.101562"/>
     </g>
    </g>
    <g id="patch_48">
     <path d="M 1191.160573 53.154688 
L 1211.160573 53.154688 
L 1211.160573 46.154688 
L 1191.160573 46.154688 
z
" style="fill: #2ca02c; stroke: #2ca02c; stroke-linejoin: miter"/>
    </g>
    <g id="text_15">
     <!-- Minimycin deletion -->
     <g transform="translate(1219.160573 53.154688)scale(0.1 -0.1)">
      <defs>
       <path id="DejaVuSans-4d" d="M 628 4666 
L 1569 4666 
L 2759 1491 
L 3956 4666 
L 4897 4666 
L 4897 0 
L 4281 0 
L 4281 4097 
L 3078 897 
L 2444 897 
L 1241 4097 
L 1241 0 
L 628 0 
L 628 4666 
z
" transform="scale(0.015625)"/>
      </defs>
      <use xlink:href="#DejaVuSans-4d"/>
      <use xlink:href="#DejaVuSans-69" x="86.279297"/>
      <use xlink:href="#DejaVuSans-6e" x="114.0625"/>
      <use xlink:href="#DejaVuSans-69" x="177.441406"/>
      <use xlink:href="#DejaVuSans-6d" x="205.224609"/>
      <use xlink:href="#DejaVuSans-79" x="302.636719"/>
      <use xlink:href="#DejaVuSans-63" x="361.816406"/>
      <use xlink:href="#DejaVuSans-69" x="416.796875"/>
      <use xlink:href="#DejaVuSans-6e" x="444.580078"/>
      <use xlink:href="#DejaVuSans-20" x="507.958984"/>
      <use xlink:href="#DejaVuSans-64" x="539.746094"/>
      <use xlink:href="#DejaVuSans-65" x="603.222656"/>
      <use xlink:href="#DejaVuSans-6c" x="664.746094"/>
      <use xlink:href="#DejaVuSans-65" x="692.529297"/>
      <use xlink:href="#DejaVuSans-74" x="754.052734"/>
      <use xlink:href="#DejaVuSans-69" x="793.261719"/>
      <use xlink:href="#DejaVuSans-6f" x="821.044922"/>
      <use xlink:href="#DejaVuSans-6e" x="882.226562"/>
     </g>
    </g>
    <g id="patch_49">
     <path d="M 1191.160573 67.832813 
L 1211.160573 67.832813 
L 1211.160573 60.832813 
L 1191.160573 60.832813 
z
" style="fill: #d62728; stroke: #d62728; stroke-linejoin: miter"/>
    </g>
    <g id="text_16">
     <!-- UC-1, Minimycin deletion -->
     <g transform="translate(1219.160573 67.832813)scale(0.1 -0.1)">
      <use xlink:href="#DejaVuSans-55"/>
      <use xlink:href="#DejaVuSans-43" x="73.193359"/>
      <use xlink:href="#DejaVuSans-2d" x="143.017578"/>
      <use xlink:href="#DejaVuSans-31" x="179.101562"/>
      <use xlink:href="#DejaVuSans-2c" x="242.724609"/>
      <use xlink:href="#DejaVuSans-20" x="274.511719"/>
      <use xlink:href="#DejaVuSans-4d" x="306.298828"/>
      <use xlink:href="#DejaVuSans-69" x="392.578125"/>
      <use xlink:href="#DejaVuSans-6e" x="420.361328"/>
      <use xlink:href="#DejaVuSans-69" x="483.740234"/>
      <use xlink:href="#DejaVuSans-6d" x="511.523438"/>
      <use xlink:href="#DejaVuSans-79" x="608.935547"/>
      <use xlink:href="#DejaVuSans-63" x="668.115234"/>
      <use xlink:href="#DejaVuSans-69" x="723.095703"/>
      <use xlink:href="#DejaVuSans-6e" x="750.878906"/>
      <use xlink:href="#DejaVuSans-20" x="814.257812"/>
      <use xlink:href="#DejaVuSans-64" x="846.044922"/>
      <use xlink:href="#DejaVuSans-65" x="909.521484"/>
      <use xlink:href="#DejaVuSans-6c" x="971.044922"/>
      <use xlink:href="#DejaVuSans-65" x="998.828125"/>
      <use xlink:href="#DejaVuSans-74" x="1060.351562"/>
      <use xlink:href="#DejaVuSans-69" x="1099.560547"/>
      <use xlink:href="#DejaVuSans-6f" x="1127.34375"/>
      <use xlink:href="#DejaVuSans-6e" x="1188.525391"/>
     </g>
    </g>
    <g id="patch_50">
     <path d="M 1191.160573 82.510938 
L 1211.160573 82.510938 
L 1211.160573 75.510938 
L 1191.160573 75.510938 
z
" style="fill: #9467bd; stroke: #9467bd; stroke-linejoin: miter"/>
    </g>
    <g id="text_17">
     <!-- BGC-19-20 deletion -->
     <g transform="translate(1219.160573 82.510938)scale(0.1 -0.1)">
      <use xlink:href="#DejaVuSans-42"/>
      <use xlink:href="#DejaVuSans-47" x="66.853516"/>
      <use xlink:href="#DejaVuSans-43" x="144.34375"/>
      <use xlink:href="#DejaVuSans-2d" x="214.167969"/>
      <use xlink:href="#DejaVuSans-31" x="250.251953"/>
      <use xlink:href="#DejaVuSans-39" x="313.875"/>
      <use xlink:href="#DejaVuSans-2d" x="377.498047"/>
      <use xlink:href="#DejaVuSans-32" x="413.582031"/>
      <use xlink:href="#DejaVuSans-30" x="477.205078"/>
      <use xlink:href="#DejaVuSans-20" x="540.828125"/>
      <use xlink:href="#DejaVuSans-64" x="572.615234"/>
      <use xlink:href="#DejaVuSans-65" x="636.091797"/>
      <use xlink:href="#DejaVuSans-6c" x="697.615234"/>
      <use xlink:href="#DejaVuSans-65" x="725.398438"/>
      <use xlink:href="#DejaVuSans-74" x="786.921875"/>
      <use xlink:href="#DejaVuSans-69" x="826.130859"/>
      <use xlink:href="#DejaVuSans-6f" x="853.914062"/>
      <use xlink:href="#DejaVuSans-6e" x="915.095703"/>
     </g>
    </g>
    <g id="patch_51">
     <path d="M 1191.160573 97.189063 
L 1211.160573 97.189063 
L 1211.160573 90.189063 
L 1191.160573 90.189063 
z
" style="fill: #8c564b; stroke: #8c564b; stroke-linejoin: miter"/>
    </g>
    <g id="text_18">
     <!-- BGC-19-20 deletion, UC-2 -->
     <g transform="translate(1219.160573 97.189063)scale(0.1 -0.1)">
      <use xlink:href="#DejaVuSans-42"/>
      <use xlink:href="#DejaVuSans-47" x="66.853516"/>
      <use xlink:href="#DejaVuSans-43" x="144.34375"/>
      <use xlink:href="#DejaVuSans-2d" x="214.167969"/>
      <use xlink:href="#DejaVuSans-31" x="250.251953"/>
      <use xlink:href="#DejaVuSans-39" x="313.875"/>
      <use xlink:href="#DejaVuSans-2d" x="377.498047"/>
      <use xlink:href="#DejaVuSans-32" x="413.582031"/>
      <use xlink:href="#DejaVuSans-30" x="477.205078"/>
      <use xlink:href="#DejaVuSans-20" x="540.828125"/>
      <use xlink:href="#DejaVuSans-64" x="572.615234"/>
      <use xlink:href="#DejaVuSans-65" x="636.091797"/>
      <use xlink:href="#DejaVuSans-6c" x="697.615234"/>
      <use xlink:href="#DejaVuSans-65" x="725.398438"/>
      <use xlink:href="#DejaVuSans-74" x="786.921875"/>
      <use xlink:href="#DejaVuSans-69" x="826.130859"/>
      <use xlink:href="#DejaVuSans-6f" x="853.914062"/>
      <use xlink:href="#DejaVuSans-6e" x="915.095703"/>
      <use xlink:href="#DejaVuSans-2c" x="978.474609"/>
      <use xlink:href="#DejaVuSans-20" x="1010.261719"/>
      <use xlink:href="#DejaVuSans-55" x="1042.048828"/>
      <use xlink:href="#DejaVuSans-43" x="1115.242188"/>
      <use xlink:href="#DejaVuSans-2d" x="1185.066406"/>
      <use xlink:href="#DejaVuSans-32" x="1221.150391"/>
     </g>
    </g>
    <g id="patch_52">
     <path d="M 1191.160573 111.867188 
L 1211.160573 111.867188 
L 1211.160573 104.867188 
L 1191.160573 104.867188 
z
" style="fill: #e377c2; stroke: #e377c2; stroke-linejoin: miter"/>
    </g>
    <g id="text_19">
     <!-- BGC-19-20 deletion, Transketolase -->
     <g transform="translate(1219.160573 111.867188)scale(0.1 -0.1)">
      <defs>
       <path id="DejaVuSans-54" d="M -19 4666 
L 3928 4666 
L 3928 4134 
L 2272 4134 
L 2272 0 
L 1638 0 
L 1638 4134 
L -19 4134 
L -19 4666 
z
" transform="scale(0.015625)"/>
       <path id="DejaVuSans-6b" d="M 581 4863 
L 1159 4863 
L 1159 1991 
L 2875 3500 
L 3609 3500 
L 1753 1863 
L 3688 0 
L 2938 0 
L 1159 1709 
L 1159 0 
L 581 0 
L 581 4863 
z
" transform="scale(0.015625)"/>
      </defs>
      <use xlink:href="#DejaVuSans-42"/>
      <use xlink:href="#DejaVuSans-47" x="66.853516"/>
      <use xlink:href="#DejaVuSans-43" x="144.34375"/>
      <use xlink:href="#DejaVuSans-2d" x="214.167969"/>
      <use xlink:href="#DejaVuSans-31" x="250.251953"/>
      <use xlink:href="#DejaVuSans-39" x="313.875"/>
      <use xlink:href="#DejaVuSans-2d" x="377.498047"/>
      <use xlink:href="#DejaVuSans-32" x="413.582031"/>
      <use xlink:href="#DejaVuSans-30" x="477.205078"/>
      <use xlink:href="#DejaVuSans-20" x="540.828125"/>
      <use xlink:href="#DejaVuSans-64" x="572.615234"/>
      <use xlink:href="#DejaVuSans-65" x="636.091797"/>
      <use xlink:href="#DejaVuSans-6c" x="697.615234"/>
      <use xlink:href="#DejaVuSans-65" x="725.398438"/>
      <use xlink:href="#DejaVuSans-74" x="786.921875"/>
      <use xlink:href="#DejaVuSans-69" x="826.130859"/>
      <use xlink:href="#DejaVuSans-6f" x="853.914062"/>
      <use xlink:href="#DejaVuSans-6e" x="915.095703"/>
      <use xlink:href="#DejaVuSans-2c" x="978.474609"/>
      <use xlink:href="#DejaVuSans-20" x="1010.261719"/>
      <use xlink:href="#DejaVuSans-54" x="1042.048828"/>
      <use xlink:href="#DejaVuSans-72" x="1088.382812"/>
      <use xlink:href="#DejaVuSans-61" x="1129.496094"/>
      <use xlink:href="#DejaVuSans-6e" x="1190.775391"/>
      <use xlink:href="#DejaVuSans-73" x="1254.154297"/>
      <use xlink:href="#DejaVuSans-6b" x="1306.253906"/>
      <use xlink:href="#DejaVuSans-65" x="1360.539062"/>
      <use xlink:href="#DejaVuSans-74" x="1422.0625"/>
      <use xlink:href="#DejaVuSans-6f" x="1461.271484"/>
      <use xlink:href="#DejaVuSans-6c" x="1522.453125"/>
      <use xlink:href="#DejaVuSans-61" x="1550.236328"/>
      <use xlink:href="#DejaVuSans-73" x="1611.515625"/>
      <use xlink:href="#DejaVuSans-65" x="1663.615234"/>
     </g>
    </g>
    <g id="patch_53">
     <path d="M 1191.160573 126.545313 
L 1211.160573 126.545313 
L 1211.160573 119.545313 
L 1191.160573 119.545313 
z
" style="fill: #7f7f7f; stroke: #7f7f7f; stroke-linejoin: miter"/>
    </g>
    <g id="text_20">
     <!-- BGC-19-20 deletion, Minimycin deletion, Transketolase -->
     <g transform="translate(1219.160573 126.545313)scale(0.1 -0.1)">
      <use xlink:href="#DejaVuSans-42"/>
      <use xlink:href="#DejaVuSans-47" x="66.853516"/>
      <use xlink:href="#DejaVuSans-43" x="144.34375"/>
      <use xlink:href="#DejaVuSans-2d" x="214.167969"/>
      <use xlink:href="#DejaVuSans-31" x="250.251953"/>
      <use xlink:href="#DejaVuSans-39" x="313.875"/>
      <use xlink:href="#DejaVuSans-2d" x="377.498047"/>
      <use xlink:href="#DejaVuSans-32" x="413.582031"/>
      <use xlink:href="#DejaVuSans-30" x="477.205078"/>
      <use xlink:href="#DejaVuSans-20" x="540.828125"/>
      <use xlink:href="#DejaVuSans-64" x="572.615234"/>
      <use xlink:href="#DejaVuSans-65" x="636.091797"/>
      <use xlink:href="#DejaVuSans-6c" x="697.615234"/>
      <use xlink:href="#DejaVuSans-65" x="725.398438"/>
      <use xlink:href="#DejaVuSans-74" x="786.921875"/>
      <use xlink:href="#DejaVuSans-69" x="826.130859"/>
      <use xlink:href="#DejaVuSans-6f" x="853.914062"/>
      <use xlink:href="#DejaVuSans-6e" x="915.095703"/>
      <use xlink:href="#DejaVuSans-2c" x="978.474609"/>
      <use xlink:href="#DejaVuSans-20" x="1010.261719"/>
      <use xlink:href="#DejaVuSans-4d" x="1042.048828"/>
      <use xlink:href="#DejaVuSans-69" x="1128.328125"/>
      <use xlink:href="#DejaVuSans-6e" x="1156.111328"/>
      <use xlink:href="#DejaVuSans-69" x="1219.490234"/>
      <use xlink:href="#DejaVuSans-6d" x="1247.273438"/>
      <use xlink:href="#DejaVuSans-79" x="1344.685547"/>
      <use xlink:href="#DejaVuSans-63" x="1403.865234"/>
      <use xlink:href="#DejaVuSans-69" x="1458.845703"/>
      <use xlink:href="#DejaVuSans-6e" x="1486.628906"/>
      <use xlink:href="#DejaVuSans-20" x="1550.007812"/>
      <use xlink:href="#DejaVuSans-64" x="1581.794922"/>
      <use xlink:href="#DejaVuSans-65" x="1645.271484"/>
      <use xlink:href="#DejaVuSans-6c" x="1706.794922"/>
      <use xlink:href="#DejaVuSans-65" x="1734.578125"/>
      <use xlink:href="#DejaVuSans-74" x="1796.101562"/>
      <use xlink:href="#DejaVuSans-69" x="1835.310547"/>
      <use xlink:href="#DejaVuSans-6f" x="1863.09375"/>
      <use xlink:href="#DejaVuSans-6e" x="1924.275391"/>
      <use xlink:href="#DejaVuSans-2c" x="1987.654297"/>
      <use xlink:href="#DejaVuSans-20" x="2019.441406"/>
      <use xlink:href="#DejaVuSans-54" x="2051.228516"/>
      <use xlink:href="#DejaVuSans-72" x="2097.5625"/>
      <use xlink:href="#DejaVuSans-61" x="2138.675781"/>
      <use xlink:href="#DejaVuSans-6e" x="2199.955078"/>
      <use xlink:href="#DejaVuSans-73" x="2263.333984"/>
      <use xlink:href="#DejaVuSans-6b" x="2315.433594"/>
      <use xlink:href="#DejaVuSans-65" x="2369.71875"/>
      <use xlink:href="#DejaVuSans-74" x="2431.242188"/>
      <use xlink:href="#DejaVuSans-6f" x="2470.451172"/>
      <use xlink:href="#DejaVuSans-6c" x="2531.632812"/>
      <use xlink:href="#DejaVuSans-61" x="2559.416016"/>
      <use xlink:href="#DejaVuSans-73" x="2620.695312"/>
      <use xlink:href="#DejaVuSans-65" x="2672.794922"/>
     </g>
    </g>
    <g id="patch_54">
     <path d="M 1191.160573 141.223437 
L 1211.160573 141.223437 
L 1211.160573 134.223437 
L 1191.160573 134.223437 
z
" style="fill: #bcbd22; stroke: #bcbd22; stroke-linejoin: miter"/>
    </g>
    <g id="text_21">
     <!-- BGC-19-20 deletion, Minimycin deletion -->
     <g transform="translate(1219.160573 141.223437)scale(0.1 -0.1)">
      <use xlink:href="#DejaVuSans-42"/>
      <use xlink:href="#DejaVuSans-47" x="66.853516"/>
      <use xlink:href="#DejaVuSans-43" x="144.34375"/>
      <use xlink:href="#DejaVuSans-2d" x="214.167969"/>
      <use xlink:href="#DejaVuSans-31" x="250.251953"/>
      <use xlink:href="#DejaVuSans-39" x="313.875"/>
      <use xlink:href="#DejaVuSans-2d" x="377.498047"/>
      <use xlink:href="#DejaVuSans-32" x="413.582031"/>
      <use xlink:href="#DejaVuSans-30" x="477.205078"/>
      <use xlink:href="#DejaVuSans-20" x="540.828125"/>
      <use xlink:href="#DejaVuSans-64" x="572.615234"/>
      <use xlink:href="#DejaVuSans-65" x="636.091797"/>
      <use xlink:href="#DejaVuSans-6c" x="697.615234"/>
      <use xlink:href="#DejaVuSans-65" x="725.398438"/>
      <use xlink:href="#DejaVuSans-74" x="786.921875"/>
      <use xlink:href="#DejaVuSans-69" x="826.130859"/>
      <use xlink:href="#DejaVuSans-6f" x="853.914062"/>
      <use xlink:href="#DejaVuSans-6e" x="915.095703"/>
      <use xlink:href="#DejaVuSans-2c" x="978.474609"/>
      <use xlink:href="#DejaVuSans-20" x="1010.261719"/>
      <use xlink:href="#DejaVuSans-4d" x="1042.048828"/>
      <use xlink:href="#DejaVuSans-69" x="1128.328125"/>
      <use xlink:href="#DejaVuSans-6e" x="1156.111328"/>
      <use xlink:href="#DejaVuSans-69" x="1219.490234"/>
      <use xlink:href="#DejaVuSans-6d" x="1247.273438"/>
      <use xlink:href="#DejaVuSans-79" x="1344.685547"/>
      <use xlink:href="#DejaVuSans-63" x="1403.865234"/>
      <use xlink:href="#DejaVuSans-69" x="1458.845703"/>
      <use xlink:href="#DejaVuSans-6e" x="1486.628906"/>
      <use xlink:href="#DejaVuSans-20" x="1550.007812"/>
      <use xlink:href="#DejaVuSans-64" x="1581.794922"/>
      <use xlink:href="#DejaVuSans-65" x="1645.271484"/>
      <use xlink:href="#DejaVuSans-6c" x="1706.794922"/>
      <use xlink:href="#DejaVuSans-65" x="1734.578125"/>
      <use xlink:href="#DejaVuSans-74" x="1796.101562"/>
      <use xlink:href="#DejaVuSans-69" x="1835.310547"/>
      <use xlink:href="#DejaVuSans-6f" x="1863.09375"/>
      <use xlink:href="#DejaVuSans-6e" x="1924.275391"/>
     </g>
    </g>
    <g id="patch_55">
     <path d="M 1191.160573 155.901562 
L 1211.160573 155.901562 
L 1211.160573 148.901562 
L 1191.160573 148.901562 
z
" style="fill: #17becf; stroke: #17becf; stroke-linejoin: miter"/>
    </g>
    <g id="text_22">
     <!-- BGC-19-20 deletion, Minimycin/dudomycin -->
     <g transform="translate(1219.160573 155.901562)scale(0.1 -0.1)">
      <defs>
       <path id="DejaVuSans-2f" d="M 1625 4666 
L 2156 4666 
L 531 -594 
L 0 -594 
L 1625 4666 
z
" transform="scale(0.015625)"/>
       <path id="DejaVuSans-75" d="M 544 1381 
L 544 3500 
L 1119 3500 
L 1119 1403 
Q 1119 906 1312 657 
Q 1506 409 1894 409 
Q 2359 409 2629 706 
Q 2900 1003 2900 1516 
L 2900 3500 
L 3475 3500 
L 3475 0 
L 2900 0 
L 2900 538 
Q 2691 219 2414 64 
Q 2138 -91 1772 -91 
Q 1169 -91 856 284 
Q 544 659 544 1381 
z
M 1991 3584 
L 1991 3584 
z
" transform="scale(0.015625)"/>
      </defs>
      <use xlink:href="#DejaVuSans-42"/>
      <use xlink:href="#DejaVuSans-47" x="66.853516"/>
      <use xlink:href="#DejaVuSans-43" x="144.34375"/>
      <use xlink:href="#DejaVuSans-2d" x="214.167969"/>
      <use xlink:href="#DejaVuSans-31" x="250.251953"/>
      <use xlink:href="#DejaVuSans-39" x="313.875"/>
      <use xlink:href="#DejaVuSans-2d" x="377.498047"/>
      <use xlink:href="#DejaVuSans-32" x="413.582031"/>
      <use xlink:href="#DejaVuSans-30" x="477.205078"/>
      <use xlink:href="#DejaVuSans-20" x="540.828125"/>
      <use xlink:href="#DejaVuSans-64" x="572.615234"/>
      <use xlink:href="#DejaVuSans-65" x="636.091797"/>
      <use xlink:href="#DejaVuSans-6c" x="697.615234"/>
      <use xlink:href="#DejaVuSans-65" x="725.398438"/>
      <use xlink:href="#DejaVuSans-74" x="786.921875"/>
      <use xlink:href="#DejaVuSans-69" x="826.130859"/>
      <use xlink:href="#DejaVuSans-6f" x="853.914062"/>
      <use xlink:href="#DejaVuSans-6e" x="915.095703"/>
      <use xlink:href="#DejaVuSans-2c" x="978.474609"/>
      <use xlink:href="#DejaVuSans-20" x="1010.261719"/>
      <use xlink:href="#DejaVuSans-4d" x="1042.048828"/>
      <use xlink:href="#DejaVuSans-69" x="1128.328125"/>
      <use xlink:href="#DejaVuSans-6e" x="1156.111328"/>
      <use xlink:href="#DejaVuSans-69" x="1219.490234"/>
      <use xlink:href="#DejaVuSans-6d" x="1247.273438"/>
      <use xlink:href="#DejaVuSans-79" x="1344.685547"/>
      <use xlink:href="#DejaVuSans-63" x="1403.865234"/>
      <use xlink:href="#DejaVuSans-69" x="1458.845703"/>
      <use xlink:href="#DejaVuSans-6e" x="1486.628906"/>
      <use xlink:href="#DejaVuSans-2f" x="1550.007812"/>
      <use xlink:href="#DejaVuSans-64" x="1583.699219"/>
      <use xlink:href="#DejaVuSans-75" x="1647.175781"/>
      <use xlink:href="#DejaVuSans-64" x="1710.554688"/>
      <use xlink:href="#DejaVuSans-6f" x="1774.03125"/>
      <use xlink:href="#DejaVuSans-6d" x="1835.212891"/>
      <use xlink:href="#DejaVuSans-79" x="1932.625"/>
      <use xlink:href="#DejaVuSans-63" x="1991.804688"/>
      <use xlink:href="#DejaVuSans-69" x="2046.785156"/>
      <use xlink:href="#DejaVuSans-6e" x="2074.568359"/>
     </g>
    </g>
    <g id="patch_56">
     <path d="M 1191.160573 170.579687 
L 1211.160573 170.579687 
L 1211.160573 163.579687 
L 1191.160573 163.579687 
z
" style="fill: #17becf; stroke: #17becf; stroke-linejoin: miter"/>
    </g>
    <g id="text_23">
     <!-- Amino acid transport -->
     <g transform="translate(1219.160573 170.579687)scale(0.1 -0.1)">
      <use xlink:href="#DejaVuSans-41"/>
      <use xlink:href="#DejaVuSans-6d" x="68.408203"/>
      <use xlink:href="#DejaVuSans-69" x="165.820312"/>
      <use xlink:href="#DejaVuSans-6e" x="193.603516"/>
      <use xlink:href="#DejaVuSans-6f" x="256.982422"/>
      <use xlink:href="#DejaVuSans-20" x="318.164062"/>
      <use xlink:href="#DejaVuSans-61" x="349.951172"/>
      <use xlink:href="#DejaVuSans-63" x="411.230469"/>
      <use xlink:href="#DejaVuSans-69" x="466.210938"/>
      <use xlink:href="#DejaVuSans-64" x="493.994141"/>
      <use xlink:href="#DejaVuSans-20" x="557.470703"/>
      <use xlink:href="#DejaVuSans-74" x="589.257812"/>
      <use xlink:href="#DejaVuSans-72" x="628.466797"/>
      <use xlink:href="#DejaVuSans-61" x="669.580078"/>
      <use xlink:href="#DejaVuSans-6e" x="730.859375"/>
      <use xlink:href="#DejaVuSans-73" x="794.238281"/>
      <use xlink:href="#DejaVuSans-70" x="846.337891"/>
      <use xlink:href="#DejaVuSans-6f" x="909.814453"/>
      <use xlink:href="#DejaVuSans-72" x="970.996094"/>
      <use xlink:href="#DejaVuSans-74" x="1012.109375"/>
     </g>
    </g>
    <g id="patch_57">
     <path d="M 1191.160573 185.257812 
L 1211.160573 185.257812 
L 1211.160573 178.257812 
L 1191.160573 178.257812 
z
" style="fill: #17becf; stroke: #17becf; stroke-linejoin: miter"/>
    </g>
    <g id="text_24">
     <!-- BGC-19-20 deletion, araBAD -->
     <g transform="translate(1219.160573 185.257812)scale(0.1 -0.1)">
      <use xlink:href="#DejaVuSans-42"/>
      <use xlink:href="#DejaVuSans-47" x="66.853516"/>
      <use xlink:href="#DejaVuSans-43" x="144.34375"/>
      <use xlink:href="#DejaVuSans-2d" x="214.167969"/>
      <use xlink:href="#DejaVuSans-31" x="250.251953"/>
      <use xlink:href="#DejaVuSans-39" x="313.875"/>
      <use xlink:href="#DejaVuSans-2d" x="377.498047"/>
      <use xlink:href="#DejaVuSans-32" x="413.582031"/>
      <use xlink:href="#DejaVuSans-30" x="477.205078"/>
      <use xlink:href="#DejaVuSans-20" x="540.828125"/>
      <use xlink:href="#DejaVuSans-64" x="572.615234"/>
      <use xlink:href="#DejaVuSans-65" x="636.091797"/>
      <use xlink:href="#DejaVuSans-6c" x="697.615234"/>
      <use xlink:href="#DejaVuSans-65" x="725.398438"/>
      <use xlink:href="#DejaVuSans-74" x="786.921875"/>
      <use xlink:href="#DejaVuSans-69" x="826.130859"/>
      <use xlink:href="#DejaVuSans-6f" x="853.914062"/>
      <use xlink:href="#DejaVuSans-6e" x="915.095703"/>
      <use xlink:href="#DejaVuSans-2c" x="978.474609"/>
      <use xlink:href="#DejaVuSans-20" x="1010.261719"/>
      <use xlink:href="#DejaVuSans-61" x="1042.048828"/>
      <use xlink:href="#DejaVuSans-72" x="1103.328125"/>
      <use xlink:href="#DejaVuSans-61" x="1144.441406"/>
      <use xlink:href="#DejaVuSans-42" x="1205.720703"/>
      <use xlink:href="#DejaVuSans-41" x="1274.324219"/>
      <use xlink:href="#DejaVuSans-44" x="1342.732422"/>
     </g>
    </g>
    <g id="patch_58">
     <path d="M 1191.160573 199.935937 
L 1211.160573 199.935937 
L 1211.160573 192.935937 
L 1191.160573 192.935937 
z
" style="fill: #17becf; stroke: #17becf; stroke-linejoin: miter"/>
    </g>
    <g id="text_25">
     <!-- WhiB3 -->
     <g transform="translate(1219.160573 199.935937)scale(0.1 -0.1)">
      <defs>
       <path id="DejaVuSans-57" d="M 213 4666 
L 850 4666 
L 1831 722 
L 2809 4666 
L 3519 4666 
L 4500 722 
L 5478 4666 
L 6119 4666 
L 4947 0 
L 4153 0 
L 3169 4050 
L 2175 0 
L 1381 0 
L 213 4666 
z
" transform="scale(0.015625)"/>
      </defs>
      <use xlink:href="#DejaVuSans-57"/>
      <use xlink:href="#DejaVuSans-68" x="98.876953"/>
      <use xlink:href="#DejaVuSans-69" x="162.255859"/>
      <use xlink:href="#DejaVuSans-42" x="190.039062"/>
      <use xlink:href="#DejaVuSans-33" x="258.642578"/>
     </g>
    </g>
    <g id="patch_59">
     <path d="M 1191.160573 214.614062 
L 1211.160573 214.614062 
L 1211.160573 207.614062 
L 1191.160573 207.614062 
z
" style="fill: #17becf; stroke: #17becf; stroke-linejoin: miter"/>
    </g>
    <g id="text_26">
     <!-- BGC-19-20 deletion, UC-4 -->
     <g transform="translate(1219.160573 214.614062)scale(0.1 -0.1)">
      <use xlink:href="#DejaVuSans-42"/>
      <use xlink:href="#DejaVuSans-47" x="66.853516"/>
      <use xlink:href="#DejaVuSans-43" x="144.34375"/>
      <use xlink:href="#DejaVuSans-2d" x="214.167969"/>
      <use xlink:href="#DejaVuSans-31" x="250.251953"/>
      <use xlink:href="#DejaVuSans-39" x="313.875"/>
      <use xlink:href="#DejaVuSans-2d" x="377.498047"/>
      <use xlink:href="#DejaVuSans-32" x="413.582031"/>
      <use xlink:href="#DejaVuSans-30" x="477.205078"/>
      <use xlink:href="#DejaVuSans-20" x="540.828125"/>
      <use xlink:href="#DejaVuSans-64" x="572.615234"/>
      <use xlink:href="#DejaVuSans-65" x="636.091797"/>
      <use xlink:href="#DejaVuSans-6c" x="697.615234"/>
      <use xlink:href="#DejaVuSans-65" x="725.398438"/>
      <use xlink:href="#DejaVuSans-74" x="786.921875"/>
      <use xlink:href="#DejaVuSans-69" x="826.130859"/>
      <use xlink:href="#DejaVuSans-6f" x="853.914062"/>
      <use xlink:href="#DejaVuSans-6e" x="915.095703"/>
      <use xlink:href="#DejaVuSans-2c" x="978.474609"/>
      <use xlink:href="#DejaVuSans-20" x="1010.261719"/>
      <use xlink:href="#DejaVuSans-55" x="1042.048828"/>
      <use xlink:href="#DejaVuSans-43" x="1115.242188"/>
      <use xlink:href="#DejaVuSans-2d" x="1185.066406"/>
      <use xlink:href="#DejaVuSans-34" x="1221.150391"/>
     </g>
    </g>
    <g id="patch_60">
     <path d="M 1191.160573 229.292187 
L 1211.160573 229.292187 
L 1211.160573 222.292187 
L 1191.160573 222.292187 
z
" style="fill: #17becf; stroke: #17becf; stroke-linejoin: miter"/>
    </g>
    <g id="text_27">
     <!-- BGC-19-20 deletion, Quorum sensing -->
     <g transform="translate(1219.160573 229.292187)scale(0.1 -0.1)">
      <defs>
       <path id="DejaVuSans-51" d="M 2522 4238 
Q 1834 4238 1429 3725 
Q 1025 3213 1025 2328 
Q 1025 1447 1429 934 
Q 1834 422 2522 422 
Q 3209 422 3611 934 
Q 4013 1447 4013 2328 
Q 4013 3213 3611 3725 
Q 3209 4238 2522 4238 
z
M 3406 84 
L 4238 -825 
L 3475 -825 
L 2784 -78 
Q 2681 -84 2626 -87 
Q 2572 -91 2522 -91 
Q 1538 -91 948 567 
Q 359 1225 359 2328 
Q 359 3434 948 4092 
Q 1538 4750 2522 4750 
Q 3503 4750 4090 4092 
Q 4678 3434 4678 2328 
Q 4678 1516 4351 937 
Q 4025 359 3406 84 
z
" transform="scale(0.015625)"/>
      </defs>
      <use xlink:href="#DejaVuSans-42"/>
      <use xlink:href="#DejaVuSans-47" x="66.853516"/>
      <use xlink:href="#DejaVuSans-43" x="144.34375"/>
      <use xlink:href="#DejaVuSans-2d" x="214.167969"/>
      <use xlink:href="#DejaVuSans-31" x="250.251953"/>
      <use xlink:href="#DejaVuSans-39" x="313.875"/>
      <use xlink:href="#DejaVuSans-2d" x="377.498047"/>
      <use xlink:href="#DejaVuSans-32" x="413.582031"/>
      <use xlink:href="#DejaVuSans-30" x="477.205078"/>
      <use xlink:href="#DejaVuSans-20" x="540.828125"/>
      <use xlink:href="#DejaVuSans-64" x="572.615234"/>
      <use xlink:href="#DejaVuSans-65" x="636.091797"/>
      <use xlink:href="#DejaVuSans-6c" x="697.615234"/>
      <use xlink:href="#DejaVuSans-65" x="725.398438"/>
      <use xlink:href="#DejaVuSans-74" x="786.921875"/>
      <use xlink:href="#DejaVuSans-69" x="826.130859"/>
      <use xlink:href="#DejaVuSans-6f" x="853.914062"/>
      <use xlink:href="#DejaVuSans-6e" x="915.095703"/>
      <use xlink:href="#DejaVuSans-2c" x="978.474609"/>
      <use xlink:href="#DejaVuSans-20" x="1010.261719"/>
      <use xlink:href="#DejaVuSans-51" x="1042.048828"/>
      <use xlink:href="#DejaVuSans-75" x="1120.759766"/>
      <use xlink:href="#DejaVuSans-6f" x="1184.138672"/>
      <use xlink:href="#DejaVuSans-72" x="1245.320312"/>
      <use xlink:href="#DejaVuSans-75" x="1286.433594"/>
      <use xlink:href="#DejaVuSans-6d" x="1349.8125"/>
      <use xlink:href="#DejaVuSans-20" x="1447.224609"/>
      <use xlink:href="#DejaVuSans-73" x="1479.011719"/>
      <use xlink:href="#DejaVuSans-65" x="1531.111328"/>
      <use xlink:href="#DejaVuSans-6e" x="1592.634766"/>
      <use xlink:href="#DejaVuSans-73" x="1656.013672"/>
      <use xlink:href="#DejaVuSans-69" x="1708.113281"/>
      <use xlink:href="#DejaVuSans-6e" x="1735.896484"/>
      <use xlink:href="#DejaVuSans-67" x="1799.275391"/>
     </g>
    </g>
    <g id="patch_61">
     <path d="M 1191.160573 243.970312 
L 1211.160573 243.970312 
L 1211.160573 236.970312 
L 1191.160573 236.970312 
z
" style="fill: #17becf; stroke: #17becf; stroke-linejoin: miter"/>
    </g>
    <g id="text_28">
     <!-- BGC-19-20 deletion, UC-1 -->
     <g transform="translate(1219.160573 243.970312)scale(0.1 -0.1)">
      <use xlink:href="#DejaVuSans-42"/>
      <use xlink:href="#DejaVuSans-47" x="66.853516"/>
      <use xlink:href="#DejaVuSans-43" x="144.34375"/>
      <use xlink:href="#DejaVuSans-2d" x="214.167969"/>
      <use xlink:href="#DejaVuSans-31" x="250.251953"/>
      <use xlink:href="#DejaVuSans-39" x="313.875"/>
      <use xlink:href="#DejaVuSans-2d" x="377.498047"/>
      <use xlink:href="#DejaVuSans-32" x="413.582031"/>
      <use xlink:href="#DejaVuSans-30" x="477.205078"/>
      <use xlink:href="#DejaVuSans-20" x="540.828125"/>
      <use xlink:href="#DejaVuSans-64" x="572.615234"/>
      <use xlink:href="#DejaVuSans-65" x="636.091797"/>
      <use xlink:href="#DejaVuSans-6c" x="697.615234"/>
      <use xlink:href="#DejaVuSans-65" x="725.398438"/>
      <use xlink:href="#DejaVuSans-74" x="786.921875"/>
      <use xlink:href="#DejaVuSans-69" x="826.130859"/>
      <use xlink:href="#DejaVuSans-6f" x="853.914062"/>
      <use xlink:href="#DejaVuSans-6e" x="915.095703"/>
      <use xlink:href="#DejaVuSans-2c" x="978.474609"/>
      <use xlink:href="#DejaVuSans-20" x="1010.261719"/>
      <use xlink:href="#DejaVuSans-55" x="1042.048828"/>
      <use xlink:href="#DejaVuSans-43" x="1115.242188"/>
      <use xlink:href="#DejaVuSans-2d" x="1185.066406"/>
      <use xlink:href="#DejaVuSans-31" x="1221.150391"/>
     </g>
    </g>
   </g>
  </g>
 </g>
 <defs>
  <clipPath id="p502d7a7808">
   <rect x="10.360573" y="7.2" width="1116" height="188.496"/>
  </clipPath>
 </defs>
</svg>
