<?xml version="1.0" encoding="utf-8" standalone="no"?>
<!DOCTYPE svg PUBLIC "-//W3C//DTD SVG 1.1//EN"
  "http://www.w3.org/Graphics/SVG/1.1/DTD/svg11.dtd">
<svg xmlns:xlink="http://www.w3.org/1999/xlink" width="1379.086977pt" height="230.662125pt" viewBox="0 0 1379.086977 230.662125" xmlns="http://www.w3.org/2000/svg" version="1.1">
 <metadata>
  <rdf:RDF xmlns:dc="http://purl.org/dc/elements/1.1/" xmlns:cc="http://creativecommons.org/ns#" xmlns:rdf="http://www.w3.org/1999/02/22-rdf-syntax-ns#">
   <cc:Work>
    <dc:type rdf:resource="http://purl.org/dc/dcmitype/StillImage"/>
    <dc:date>2024-05-23T13:38:17.694334</dc:date>
    <dc:format>image/svg+xml</dc:format>
    <dc:creator>
     <cc:Agent>
      <dc:title>Matplotlib v3.5.3, https://matplotlib.org/</dc:title>
     </cc:Agent>
    </dc:creator>
   </cc:Work>
  </rdf:RDF>
 </metadata>
 <defs>
  <style type="text/css">*{stroke-linejoin: round; stroke-linecap: butt}</style>
 </defs>
 <g id="figure_1">
  <g id="patch_1">
   <path d="M 0 230.662125 
L 1379.086977 230.662125 
L 1379.086977 0 
L 0 0 
z
" style="fill: #ffffff"/>
  </g>
  <g id="axes_1">
   <g id="line2d_1">
    <path d="M 10.33854 192.528 
L 1126.33854 192.528 
" clip-path="url(#p896c4ae846)" style="fill: none; stroke: #000000; stroke-width: 1.5; stroke-linecap: square"/>
   </g>
   <g id="line2d_2">
    <path d="M 555.685599 92.736 
L 555.685599 192.528 
" clip-path="url(#p896c4ae846)" style="fill: none; stroke: #000000; stroke-width: 0.5; stroke-linecap: square"/>
   </g>
   <g id="line2d_3">
    <path d="M 313.998426 35.712 
L 313.998426 192.528 
" clip-path="url(#p896c4ae846)" style="fill: none; stroke: #000000; stroke-width: 0.5; stroke-linecap: square"/>
   </g>
   <g id="line2d_4">
    <path d="M 415.969378 92.736 
L 415.969378 164.016 
" clip-path="url(#p896c4ae846)" style="fill: none; stroke: #000000; stroke-width: 0.5; stroke-linecap: square"/>
   </g>
   <g id="line2d_5">
    <path d="M 478.540036 135.504 
L 478.540036 192.528 
" clip-path="url(#p896c4ae846)" style="fill: none; stroke: #000000; stroke-width: 0.5; stroke-linecap: square"/>
   </g>
   <g id="patch_2">
    <path d="M 624.529339 199.528 
Q 559.885387 199.528 495.241435 199.528 
L 495.241435 199.528 
Q 491.041647 196.028 486.84186 192.528 
Q 491.041647 189.028 495.241435 185.528 
L 495.241435 185.528 
Q 559.885387 185.528 624.529339 185.528 
L 624.529339 199.528 
z
" clip-path="url(#p896c4ae846)" style="fill: #2ca02c; stroke: #000000; stroke-linecap: round"/>
   </g>
   <g id="patch_3">
    <path d="M 365.544475 199.528 
Q 318.196925 199.528 270.849374 199.528 
L 270.849374 199.528 
Q 266.650875 196.028 262.452377 192.528 
Q 266.650875 189.028 270.849374 185.528 
L 270.849374 185.528 
Q 318.196925 185.528 365.544475 185.528 
L 365.544475 199.528 
z
" clip-path="url(#p896c4ae846)" style="fill: #2ca02c; stroke: #000000; stroke-linecap: round"/>
   </g>
   <g id="patch_4">
    <path d="M 466.554445 171.016 
Q 420.169878 171.016 373.785311 171.016 
L 373.785311 171.016 
Q 369.584811 167.516 365.384312 164.016 
Q 369.584811 160.516 373.785311 157.016 
L 373.785311 157.016 
Q 420.169878 157.016 466.554445 157.016 
L 466.554445 171.016 
z
" clip-path="url(#p896c4ae846)" style="fill: #2ca02c; stroke: #000000; stroke-linecap: round"/>
   </g>
   <g id="patch_5">
    <path d="M 1035.082545 185.528 
Q 1076.502232 185.528 1117.921919 185.528 
L 1117.921919 185.528 
Q 1122.122221 189.028 1126.322523 192.528 
Q 1122.122221 196.028 1117.921919 199.528 
L 1117.921919 199.528 
Q 1076.502232 199.528 1035.082545 199.528 
L 1035.082545 185.528 
z
" clip-path="url(#p896c4ae846)" style="fill: #e377c2; stroke: #000000; stroke-linecap: round"/>
   </g>
   <g id="patch_6">
    <path d="M 792.16745 199.528 
Q 767.082559 199.528 741.997668 199.528 
L 741.997668 199.528 
Q 737.799277 196.028 733.600887 192.528 
Q 737.799277 189.028 741.997668 185.528 
L 741.997668 185.528 
Q 767.082559 185.528 792.16745 185.528 
L 792.16745 199.528 
z
" clip-path="url(#p896c4ae846)" style="fill: #808080; stroke: #000000; stroke-linecap: round"/>
   </g>
   <g id="patch_7">
    <path d="M 848.812047 171.016 
Q 824.610043 171.016 800.408039 171.016 
L 800.408039 171.016 
Q 796.207662 167.516 792.007286 164.016 
Q 796.207662 160.516 800.408039 157.016 
L 800.408039 157.016 
Q 824.610043 157.016 848.812047 157.016 
L 848.812047 171.016 
z
" clip-path="url(#p896c4ae846)" style="fill: #8c564b; stroke: #000000; stroke-linecap: round"/>
   </g>
   <g id="patch_8">
    <path d="M 958.684413 185.528 
Q 982.886417 185.528 1007.088421 185.528 
L 1007.088421 185.528 
Q 1011.288798 189.028 1015.489174 192.528 
Q 1011.288798 196.028 1007.088421 199.528 
L 1007.088421 199.528 
Q 982.886417 199.528 958.684413 199.528 
L 958.684413 185.528 
z
" clip-path="url(#p896c4ae846)" style="fill: #1f77b4; stroke: #000000; stroke-linecap: round"/>
   </g>
   <g id="patch_9">
    <path d="M 688.327919 199.528 
Q 666.448667 199.528 644.569414 199.528 
L 644.569414 199.528 
Q 640.368662 196.028 636.167909 192.528 
Q 640.368662 189.028 644.569414 185.528 
L 644.569414 185.528 
Q 666.448667 185.528 688.327919 185.528 
L 688.327919 199.528 
z
" clip-path="url(#p896c4ae846)" style="fill: #9467bd; stroke: #000000; stroke-linecap: round"/>
   </g>
   <g id="patch_10">
    <path d="M 81.787611 185.528 
Q 101.424915 185.528 121.06222 185.528 
L 121.06222 185.528 
Q 125.262628 189.028 129.463035 192.528 
Q 125.262628 196.028 121.06222 199.528 
L 121.06222 199.528 
Q 101.424915 199.528 81.787611 199.528 
L 81.787611 185.528 
z
" clip-path="url(#p896c4ae846)" style="fill: #808080; stroke: #000000; stroke-linecap: round"/>
   </g>
   <g id="patch_11">
    <path d="M 733.761051 171.016 
Q 715.165031 171.016 696.56901 171.016 
L 696.56901 171.016 
Q 692.368383 167.516 688.167756 164.016 
Q 692.368383 160.516 696.56901 157.016 
L 696.56901 157.016 
Q 715.165031 157.016 733.761051 157.016 
L 733.761051 171.016 
z
" clip-path="url(#p896c4ae846)" style="fill: #808080; stroke: #000000; stroke-linecap: round"/>
   </g>
   <g id="patch_12">
    <path d="M 191.873529 185.528 
Q 207.346681 185.528 222.819833 185.528 
L 222.819833 185.528 
Q 227.020134 189.028 231.220436 192.528 
Q 227.020134 196.028 222.819833 199.528 
L 222.819833 199.528 
Q 207.346681 199.528 191.873529 199.528 
L 191.873529 185.528 
z
" clip-path="url(#p896c4ae846)" style="fill: #808080; stroke: #000000; stroke-linecap: round"/>
   </g>
   <g id="patch_13">
    <path d="M 39.45098 185.528 
Q 54.606046 185.528 69.761112 185.528 
L 69.761112 185.528 
Q 73.959172 189.028 78.157231 192.528 
Q 73.959172 196.028 69.761112 199.528 
L 69.761112 199.528 
Q 54.606046 199.528 39.45098 199.528 
L 39.45098 185.528 
z
" clip-path="url(#p896c4ae846)" style="fill: #808080; stroke: #000000; stroke-linecap: round"/>
   </g>
   <g id="patch_14">
    <path d="M 855.912642 185.528 
Q 870.024463 185.528 884.136285 185.528 
L 884.136285 185.528 
Q 888.336524 189.028 892.536764 192.528 
Q 888.336524 196.028 884.136285 199.528 
L 884.136285 199.528 
Q 870.024463 199.528 855.912642 199.528 
L 855.912642 185.528 
z
" clip-path="url(#p896c4ae846)" style="fill: #808080; stroke: #000000; stroke-linecap: round"/>
   </g>
   <g id="patch_15">
    <path d="M 10.354556 185.528 
Q 20.143513 185.528 29.932469 185.528 
L 29.932469 185.528 
Q 34.131151 189.028 38.329833 192.528 
Q 34.131151 196.028 29.932469 199.528 
L 29.932469 199.528 
Q 20.143513 199.528 10.354556 199.528 
L 10.354556 185.528 
z
" clip-path="url(#p896c4ae846)" style="fill: #808080; stroke: #000000; stroke-linecap: round"/>
   </g>
   <g id="patch_16">
    <path d="M 163.738088 185.528 
Q 166.239207 185.528 168.740326 185.528 
L 168.740326 185.528 
Q 172.939393 189.028 177.138459 192.528 
Q 172.939393 196.028 168.740326 199.528 
L 168.740326 199.528 
Q 166.239207 199.528 163.738088 199.528 
L 163.738088 185.528 
z
" clip-path="url(#p896c4ae846)" style="fill: #ff7f0e; stroke: #000000; stroke-linecap: round"/>
   </g>
   <g id="patch_17">
    <path d="M 156.157002 199.528 
Q 154.575345 199.528 152.993688 199.528 
L 152.993688 199.528 
Q 149.396715 196.028 145.799743 192.528 
Q 149.396715 189.028 152.993688 185.528 
L 152.993688 185.528 
Q 154.575345 185.528 156.157002 185.528 
L 156.157002 199.528 
z
" clip-path="url(#p896c4ae846)" style="fill: #1f77b4; stroke: #000000; stroke-linecap: round"/>
   </g>
   <g id="patch_18">
    <path d="M 482.036946 199.528 
Q 480.969774 199.528 479.902601 199.528 
L 479.902601 199.528 
Q 477.472864 196.028 475.043126 192.528 
Q 477.472864 189.028 479.902601 185.528 
L 479.902601 185.528 
Q 480.969774 185.528 482.036946 185.528 
L 482.036946 199.528 
z
" clip-path="url(#p896c4ae846)" style="fill: #d62728; stroke: #000000; stroke-linecap: round"/>
   </g>
   <g id="matplotlib.axis_1">
    <g id="xtick_1">
     <g id="line2d_6">
      <defs>
       <path id="m9aaa5f6db1" d="M 0 0 
L 0 3.5 
" style="stroke: #808080; stroke-width: 0.8"/>
      </defs>
      <g>
       <use xlink:href="#m9aaa5f6db1" x="10.38125" y="206.784" style="fill: #808080; stroke: #808080; stroke-width: 0.8"/>
      </g>
     </g>
     <g id="text_1">
      <!-- 0 -->
      <g style="fill: #808080" transform="translate(7.2 221.382437)scale(0.1 -0.1)">
       <defs>
        <path id="DejaVuSans-30" d="M 2034 4250 
Q 1547 4250 1301 3770 
Q 1056 3291 1056 2328 
Q 1056 1369 1301 889 
Q 1547 409 2034 409 
Q 2525 409 2770 889 
Q 3016 1369 3016 2328 
Q 3016 3291 2770 3770 
Q 2525 4250 2034 4250 
z
M 2034 4750 
Q 2819 4750 3233 4129 
Q 3647 3509 3647 2328 
Q 3647 1150 3233 529 
Q 2819 -91 2034 -91 
Q 1250 -91 836 529 
Q 422 1150 422 2328 
Q 422 3509 836 4129 
Q 1250 4750 2034 4750 
z
" transform="scale(0.015625)"/>
       </defs>
       <use xlink:href="#DejaVuSans-30"/>
      </g>
     </g>
    </g>
    <g id="xtick_2">
     <g id="line2d_7">
      <g>
       <use xlink:href="#m9aaa5f6db1" x="143.851083" y="206.784" style="fill: #808080; stroke: #808080; stroke-width: 0.8"/>
      </g>
     </g>
     <g id="text_2">
      <!-- 2,500 -->
      <g style="fill: #808080" transform="translate(129.53702 221.382437)scale(0.1 -0.1)">
       <defs>
        <path id="DejaVuSans-32" d="M 1228 531 
L 3431 531 
L 3431 0 
L 469 0 
L 469 531 
Q 828 903 1448 1529 
Q 2069 2156 2228 2338 
Q 2531 2678 2651 2914 
Q 2772 3150 2772 3378 
Q 2772 3750 2511 3984 
Q 2250 4219 1831 4219 
Q 1534 4219 1204 4116 
Q 875 4013 500 3803 
L 500 4441 
Q 881 4594 1212 4672 
Q 1544 4750 1819 4750 
Q 2544 4750 2975 4387 
Q 3406 4025 3406 3419 
Q 3406 3131 3298 2873 
Q 3191 2616 2906 2266 
Q 2828 2175 2409 1742 
Q 1991 1309 1228 531 
z
" transform="scale(0.015625)"/>
        <path id="DejaVuSans-2c" d="M 750 794 
L 1409 794 
L 1409 256 
L 897 -744 
L 494 -744 
L 750 256 
L 750 794 
z
" transform="scale(0.015625)"/>
        <path id="DejaVuSans-35" d="M 691 4666 
L 3169 4666 
L 3169 4134 
L 1269 4134 
L 1269 2991 
Q 1406 3038 1543 3061 
Q 1681 3084 1819 3084 
Q 2600 3084 3056 2656 
Q 3513 2228 3513 1497 
Q 3513 744 3044 326 
Q 2575 -91 1722 -91 
Q 1428 -91 1123 -41 
Q 819 9 494 109 
L 494 744 
Q 775 591 1075 516 
Q 1375 441 1709 441 
Q 2250 441 2565 725 
Q 2881 1009 2881 1497 
Q 2881 1984 2565 2268 
Q 2250 2553 1709 2553 
Q 1456 2553 1204 2497 
Q 953 2441 691 2322 
L 691 4666 
z
" transform="scale(0.015625)"/>
       </defs>
       <use xlink:href="#DejaVuSans-32"/>
       <use xlink:href="#DejaVuSans-2c" x="63.623047"/>
       <use xlink:href="#DejaVuSans-35" x="95.410156"/>
       <use xlink:href="#DejaVuSans-30" x="159.033203"/>
       <use xlink:href="#DejaVuSans-30" x="222.65625"/>
      </g>
     </g>
    </g>
    <g id="xtick_3">
     <g id="line2d_8">
      <g>
       <use xlink:href="#m9aaa5f6db1" x="277.320916" y="206.784" style="fill: #808080; stroke: #808080; stroke-width: 0.8"/>
      </g>
     </g>
     <g id="text_3">
      <!-- 5,000 -->
      <g style="fill: #808080" transform="translate(263.006853 221.382437)scale(0.1 -0.1)">
       <use xlink:href="#DejaVuSans-35"/>
       <use xlink:href="#DejaVuSans-2c" x="63.623047"/>
       <use xlink:href="#DejaVuSans-30" x="95.410156"/>
       <use xlink:href="#DejaVuSans-30" x="159.033203"/>
       <use xlink:href="#DejaVuSans-30" x="222.65625"/>
      </g>
     </g>
    </g>
    <g id="xtick_4">
     <g id="line2d_9">
      <g>
       <use xlink:href="#m9aaa5f6db1" x="410.790749" y="206.784" style="fill: #808080; stroke: #808080; stroke-width: 0.8"/>
      </g>
     </g>
     <g id="text_4">
      <!-- 7,500 -->
      <g style="fill: #808080" transform="translate(396.476686 221.382437)scale(0.1 -0.1)">
       <defs>
        <path id="DejaVuSans-37" d="M 525 4666 
L 3525 4666 
L 3525 4397 
L 1831 0 
L 1172 0 
L 2766 4134 
L 525 4134 
L 525 4666 
z
" transform="scale(0.015625)"/>
       </defs>
       <use xlink:href="#DejaVuSans-37"/>
       <use xlink:href="#DejaVuSans-2c" x="63.623047"/>
       <use xlink:href="#DejaVuSans-35" x="95.410156"/>
       <use xlink:href="#DejaVuSans-30" x="159.033203"/>
       <use xlink:href="#DejaVuSans-30" x="222.65625"/>
      </g>
     </g>
    </g>
    <g id="xtick_5">
     <g id="line2d_10">
      <g>
       <use xlink:href="#m9aaa5f6db1" x="544.260582" y="206.784" style="fill: #808080; stroke: #808080; stroke-width: 0.8"/>
      </g>
     </g>
     <g id="text_5">
      <!-- 10,000 -->
      <g style="fill: #808080" transform="translate(526.765269 221.382437)scale(0.1 -0.1)">
       <defs>
        <path id="DejaVuSans-31" d="M 794 531 
L 1825 531 
L 1825 4091 
L 703 3866 
L 703 4441 
L 1819 4666 
L 2450 4666 
L 2450 531 
L 3481 531 
L 3481 0 
L 794 0 
L 794 531 
z
" transform="scale(0.015625)"/>
       </defs>
       <use xlink:href="#DejaVuSans-31"/>
       <use xlink:href="#DejaVuSans-30" x="63.623047"/>
       <use xlink:href="#DejaVuSans-2c" x="127.246094"/>
       <use xlink:href="#DejaVuSans-30" x="159.033203"/>
       <use xlink:href="#DejaVuSans-30" x="222.65625"/>
       <use xlink:href="#DejaVuSans-30" x="286.279297"/>
      </g>
     </g>
    </g>
    <g id="xtick_6">
     <g id="line2d_11">
      <g>
       <use xlink:href="#m9aaa5f6db1" x="677.730415" y="206.784" style="fill: #808080; stroke: #808080; stroke-width: 0.8"/>
      </g>
     </g>
     <g id="text_6">
      <!-- 12,500 -->
      <g style="fill: #808080" transform="translate(660.235102 221.382437)scale(0.1 -0.1)">
       <use xlink:href="#DejaVuSans-31"/>
       <use xlink:href="#DejaVuSans-32" x="63.623047"/>
       <use xlink:href="#DejaVuSans-2c" x="127.246094"/>
       <use xlink:href="#DejaVuSans-35" x="159.033203"/>
       <use xlink:href="#DejaVuSans-30" x="222.65625"/>
       <use xlink:href="#DejaVuSans-30" x="286.279297"/>
      </g>
     </g>
    </g>
    <g id="xtick_7">
     <g id="line2d_12">
      <g>
       <use xlink:href="#m9aaa5f6db1" x="811.200248" y="206.784" style="fill: #808080; stroke: #808080; stroke-width: 0.8"/>
      </g>
     </g>
     <g id="text_7">
      <!-- 15,000 -->
      <g style="fill: #808080" transform="translate(793.704935 221.382437)scale(0.1 -0.1)">
       <use xlink:href="#DejaVuSans-31"/>
       <use xlink:href="#DejaVuSans-35" x="63.623047"/>
       <use xlink:href="#DejaVuSans-2c" x="127.246094"/>
       <use xlink:href="#DejaVuSans-30" x="159.033203"/>
       <use xlink:href="#DejaVuSans-30" x="222.65625"/>
       <use xlink:href="#DejaVuSans-30" x="286.279297"/>
      </g>
     </g>
    </g>
    <g id="xtick_8">
     <g id="line2d_13">
      <g>
       <use xlink:href="#m9aaa5f6db1" x="944.670081" y="206.784" style="fill: #808080; stroke: #808080; stroke-width: 0.8"/>
      </g>
     </g>
     <g id="text_8">
      <!-- 17,500 -->
      <g style="fill: #808080" transform="translate(927.174768 221.382437)scale(0.1 -0.1)">
       <use xlink:href="#DejaVuSans-31"/>
       <use xlink:href="#DejaVuSans-37" x="63.623047"/>
       <use xlink:href="#DejaVuSans-2c" x="127.246094"/>
       <use xlink:href="#DejaVuSans-35" x="159.033203"/>
       <use xlink:href="#DejaVuSans-30" x="222.65625"/>
       <use xlink:href="#DejaVuSans-30" x="286.279297"/>
      </g>
     </g>
    </g>
    <g id="xtick_9">
     <g id="line2d_14">
      <g>
       <use xlink:href="#m9aaa5f6db1" x="1078.139914" y="206.784" style="fill: #808080; stroke: #808080; stroke-width: 0.8"/>
      </g>
     </g>
     <g id="text_9">
      <!-- 20,000 -->
      <g style="fill: #808080" transform="translate(1060.644601 221.382437)scale(0.1 -0.1)">
       <use xlink:href="#DejaVuSans-32"/>
       <use xlink:href="#DejaVuSans-30" x="63.623047"/>
       <use xlink:href="#DejaVuSans-2c" x="127.246094"/>
       <use xlink:href="#DejaVuSans-30" x="159.033203"/>
       <use xlink:href="#DejaVuSans-30" x="222.65625"/>
       <use xlink:href="#DejaVuSans-30" x="286.279297"/>
      </g>
     </g>
    </g>
   </g>
   <g id="text_10">
    <g id="patch_19">
     <path d="M 502.866693 107.517766 
L 608.504506 107.517766 
Q 611.804506 107.517766 611.804506 104.217766 
L 611.804506 81.254234 
Q 611.804506 77.954234 608.504506 77.954234 
L 502.866693 77.954234 
Q 499.566693 77.954234 499.566693 81.254234 
L 499.566693 104.217766 
Q 499.566693 107.517766 502.866693 107.517766 
z
" style="fill: #ebfaeb; stroke: #808080; stroke-linejoin: miter"/>
    </g>
    <!-- class III lanthionine -->
    <g transform="translate(502.866693 89.612516)scale(0.11 -0.11)">
     <defs>
      <path id="DejaVuSans-63" d="M 3122 3366 
L 3122 2828 
Q 2878 2963 2633 3030 
Q 2388 3097 2138 3097 
Q 1578 3097 1268 2742 
Q 959 2388 959 1747 
Q 959 1106 1268 751 
Q 1578 397 2138 397 
Q 2388 397 2633 464 
Q 2878 531 3122 666 
L 3122 134 
Q 2881 22 2623 -34 
Q 2366 -91 2075 -91 
Q 1284 -91 818 406 
Q 353 903 353 1747 
Q 353 2603 823 3093 
Q 1294 3584 2113 3584 
Q 2378 3584 2631 3529 
Q 2884 3475 3122 3366 
z
" transform="scale(0.015625)"/>
      <path id="DejaVuSans-6c" d="M 603 4863 
L 1178 4863 
L 1178 0 
L 603 0 
L 603 4863 
z
" transform="scale(0.015625)"/>
      <path id="DejaVuSans-61" d="M 2194 1759 
Q 1497 1759 1228 1600 
Q 959 1441 959 1056 
Q 959 750 1161 570 
Q 1363 391 1709 391 
Q 2188 391 2477 730 
Q 2766 1069 2766 1631 
L 2766 1759 
L 2194 1759 
z
M 3341 1997 
L 3341 0 
L 2766 0 
L 2766 531 
Q 2569 213 2275 61 
Q 1981 -91 1556 -91 
Q 1019 -91 701 211 
Q 384 513 384 1019 
Q 384 1609 779 1909 
Q 1175 2209 1959 2209 
L 2766 2209 
L 2766 2266 
Q 2766 2663 2505 2880 
Q 2244 3097 1772 3097 
Q 1472 3097 1187 3025 
Q 903 2953 641 2809 
L 641 3341 
Q 956 3463 1253 3523 
Q 1550 3584 1831 3584 
Q 2591 3584 2966 3190 
Q 3341 2797 3341 1997 
z
" transform="scale(0.015625)"/>
      <path id="DejaVuSans-73" d="M 2834 3397 
L 2834 2853 
Q 2591 2978 2328 3040 
Q 2066 3103 1784 3103 
Q 1356 3103 1142 2972 
Q 928 2841 928 2578 
Q 928 2378 1081 2264 
Q 1234 2150 1697 2047 
L 1894 2003 
Q 2506 1872 2764 1633 
Q 3022 1394 3022 966 
Q 3022 478 2636 193 
Q 2250 -91 1575 -91 
Q 1294 -91 989 -36 
Q 684 19 347 128 
L 347 722 
Q 666 556 975 473 
Q 1284 391 1588 391 
Q 1994 391 2212 530 
Q 2431 669 2431 922 
Q 2431 1156 2273 1281 
Q 2116 1406 1581 1522 
L 1381 1569 
Q 847 1681 609 1914 
Q 372 2147 372 2553 
Q 372 3047 722 3315 
Q 1072 3584 1716 3584 
Q 2034 3584 2315 3537 
Q 2597 3491 2834 3397 
z
" transform="scale(0.015625)"/>
      <path id="DejaVuSans-20" transform="scale(0.015625)"/>
      <path id="DejaVuSans-49" d="M 628 4666 
L 1259 4666 
L 1259 0 
L 628 0 
L 628 4666 
z
" transform="scale(0.015625)"/>
      <path id="DejaVuSans-6e" d="M 3513 2113 
L 3513 0 
L 2938 0 
L 2938 2094 
Q 2938 2591 2744 2837 
Q 2550 3084 2163 3084 
Q 1697 3084 1428 2787 
Q 1159 2491 1159 1978 
L 1159 0 
L 581 0 
L 581 3500 
L 1159 3500 
L 1159 2956 
Q 1366 3272 1645 3428 
Q 1925 3584 2291 3584 
Q 2894 3584 3203 3211 
Q 3513 2838 3513 2113 
z
" transform="scale(0.015625)"/>
      <path id="DejaVuSans-74" d="M 1172 4494 
L 1172 3500 
L 2356 3500 
L 2356 3053 
L 1172 3053 
L 1172 1153 
Q 1172 725 1289 603 
Q 1406 481 1766 481 
L 2356 481 
L 2356 0 
L 1766 0 
Q 1100 0 847 248 
Q 594 497 594 1153 
L 594 3053 
L 172 3053 
L 172 3500 
L 594 3500 
L 594 4494 
L 1172 4494 
z
" transform="scale(0.015625)"/>
      <path id="DejaVuSans-68" d="M 3513 2113 
L 3513 0 
L 2938 0 
L 2938 2094 
Q 2938 2591 2744 2837 
Q 2550 3084 2163 3084 
Q 1697 3084 1428 2787 
Q 1159 2491 1159 1978 
L 1159 0 
L 581 0 
L 581 4863 
L 1159 4863 
L 1159 2956 
Q 1366 3272 1645 3428 
Q 1925 3584 2291 3584 
Q 2894 3584 3203 3211 
Q 3513 2838 3513 2113 
z
" transform="scale(0.015625)"/>
      <path id="DejaVuSans-69" d="M 603 3500 
L 1178 3500 
L 1178 0 
L 603 0 
L 603 3500 
z
M 603 4863 
L 1178 4863 
L 1178 4134 
L 603 4134 
L 603 4863 
z
" transform="scale(0.015625)"/>
      <path id="DejaVuSans-6f" d="M 1959 3097 
Q 1497 3097 1228 2736 
Q 959 2375 959 1747 
Q 959 1119 1226 758 
Q 1494 397 1959 397 
Q 2419 397 2687 759 
Q 2956 1122 2956 1747 
Q 2956 2369 2687 2733 
Q 2419 3097 1959 3097 
z
M 1959 3584 
Q 2709 3584 3137 3096 
Q 3566 2609 3566 1747 
Q 3566 888 3137 398 
Q 2709 -91 1959 -91 
Q 1206 -91 779 398 
Q 353 888 353 1747 
Q 353 2609 779 3096 
Q 1206 3584 1959 3584 
z
" transform="scale(0.015625)"/>
      <path id="DejaVuSans-65" d="M 3597 1894 
L 3597 1613 
L 953 1613 
Q 991 1019 1311 708 
Q 1631 397 2203 397 
Q 2534 397 2845 478 
Q 3156 559 3463 722 
L 3463 178 
Q 3153 47 2828 -22 
Q 2503 -91 2169 -91 
Q 1331 -91 842 396 
Q 353 884 353 1716 
Q 353 2575 817 3079 
Q 1281 3584 2069 3584 
Q 2775 3584 3186 3129 
Q 3597 2675 3597 1894 
z
M 3022 2063 
Q 3016 2534 2758 2815 
Q 2500 3097 2075 3097 
Q 1594 3097 1305 2825 
Q 1016 2553 972 2059 
L 3022 2063 
z
" transform="scale(0.015625)"/>
     </defs>
     <use xlink:href="#DejaVuSans-63"/>
     <use xlink:href="#DejaVuSans-6c" x="54.980469"/>
     <use xlink:href="#DejaVuSans-61" x="82.763672"/>
     <use xlink:href="#DejaVuSans-73" x="144.042969"/>
     <use xlink:href="#DejaVuSans-73" x="196.142578"/>
     <use xlink:href="#DejaVuSans-20" x="248.242188"/>
     <use xlink:href="#DejaVuSans-49" x="280.029297"/>
     <use xlink:href="#DejaVuSans-49" x="309.521484"/>
     <use xlink:href="#DejaVuSans-49" x="339.013672"/>
     <use xlink:href="#DejaVuSans-20" x="368.505859"/>
     <use xlink:href="#DejaVuSans-6c" x="400.292969"/>
     <use xlink:href="#DejaVuSans-61" x="428.076172"/>
     <use xlink:href="#DejaVuSans-6e" x="489.355469"/>
     <use xlink:href="#DejaVuSans-74" x="552.734375"/>
     <use xlink:href="#DejaVuSans-68" x="591.943359"/>
     <use xlink:href="#DejaVuSans-69" x="655.322266"/>
     <use xlink:href="#DejaVuSans-6f" x="683.105469"/>
     <use xlink:href="#DejaVuSans-6e" x="744.287109"/>
     <use xlink:href="#DejaVuSans-69" x="807.666016"/>
     <use xlink:href="#DejaVuSans-6e" x="835.449219"/>
     <use xlink:href="#DejaVuSans-65" x="898.828125"/>
    </g>
    <!-- synthetase LanKC -->
    <g transform="translate(506.464037 101.930109)scale(0.11 -0.11)">
     <defs>
      <path id="DejaVuSans-79" d="M 2059 -325 
Q 1816 -950 1584 -1140 
Q 1353 -1331 966 -1331 
L 506 -1331 
L 506 -850 
L 844 -850 
Q 1081 -850 1212 -737 
Q 1344 -625 1503 -206 
L 1606 56 
L 191 3500 
L 800 3500 
L 1894 763 
L 2988 3500 
L 3597 3500 
L 2059 -325 
z
" transform="scale(0.015625)"/>
      <path id="DejaVuSans-4c" d="M 628 4666 
L 1259 4666 
L 1259 531 
L 3531 531 
L 3531 0 
L 628 0 
L 628 4666 
z
" transform="scale(0.015625)"/>
      <path id="DejaVuSans-4b" d="M 628 4666 
L 1259 4666 
L 1259 2694 
L 3353 4666 
L 4166 4666 
L 1850 2491 
L 4331 0 
L 3500 0 
L 1259 2247 
L 1259 0 
L 628 0 
L 628 4666 
z
" transform="scale(0.015625)"/>
      <path id="DejaVuSans-43" d="M 4122 4306 
L 4122 3641 
Q 3803 3938 3442 4084 
Q 3081 4231 2675 4231 
Q 1875 4231 1450 3742 
Q 1025 3253 1025 2328 
Q 1025 1406 1450 917 
Q 1875 428 2675 428 
Q 3081 428 3442 575 
Q 3803 722 4122 1019 
L 4122 359 
Q 3791 134 3420 21 
Q 3050 -91 2638 -91 
Q 1578 -91 968 557 
Q 359 1206 359 2328 
Q 359 3453 968 4101 
Q 1578 4750 2638 4750 
Q 3056 4750 3426 4639 
Q 3797 4528 4122 4306 
z
" transform="scale(0.015625)"/>
     </defs>
     <use xlink:href="#DejaVuSans-73"/>
     <use xlink:href="#DejaVuSans-79" x="52.099609"/>
     <use xlink:href="#DejaVuSans-6e" x="111.279297"/>
     <use xlink:href="#DejaVuSans-74" x="174.658203"/>
     <use xlink:href="#DejaVuSans-68" x="213.867188"/>
     <use xlink:href="#DejaVuSans-65" x="277.246094"/>
     <use xlink:href="#DejaVuSans-74" x="338.769531"/>
     <use xlink:href="#DejaVuSans-61" x="377.978516"/>
     <use xlink:href="#DejaVuSans-73" x="439.257812"/>
     <use xlink:href="#DejaVuSans-65" x="491.357422"/>
     <use xlink:href="#DejaVuSans-20" x="552.880859"/>
     <use xlink:href="#DejaVuSans-4c" x="584.667969"/>
     <use xlink:href="#DejaVuSans-61" x="640.380859"/>
     <use xlink:href="#DejaVuSans-6e" x="701.660156"/>
     <use xlink:href="#DejaVuSans-4b" x="765.039062"/>
     <use xlink:href="#DejaVuSans-43" x="825.115234"/>
    </g>
   </g>
   <g id="text_11">
    <g id="patch_20">
     <path d="M 260.327879 50.493766 
L 367.668973 50.493766 
Q 370.968973 50.493766 370.968973 47.193766 
L 370.968973 24.230234 
Q 370.968973 20.930234 367.668973 20.930234 
L 260.327879 20.930234 
Q 257.027879 20.930234 257.027879 24.230234 
L 257.027879 47.193766 
Q 257.027879 50.493766 260.327879 50.493766 
z
" style="fill: #ebfaeb; stroke: #808080; stroke-linejoin: miter"/>
    </g>
    <!-- ABC transporter -->
    <g transform="translate(269.912488 32.588516)scale(0.11 -0.11)">
     <defs>
      <path id="DejaVuSans-41" d="M 2188 4044 
L 1331 1722 
L 3047 1722 
L 2188 4044 
z
M 1831 4666 
L 2547 4666 
L 4325 0 
L 3669 0 
L 3244 1197 
L 1141 1197 
L 716 0 
L 50 0 
L 1831 4666 
z
" transform="scale(0.015625)"/>
      <path id="DejaVuSans-42" d="M 1259 2228 
L 1259 519 
L 2272 519 
Q 2781 519 3026 730 
Q 3272 941 3272 1375 
Q 3272 1813 3026 2020 
Q 2781 2228 2272 2228 
L 1259 2228 
z
M 1259 4147 
L 1259 2741 
L 2194 2741 
Q 2656 2741 2882 2914 
Q 3109 3088 3109 3444 
Q 3109 3797 2882 3972 
Q 2656 4147 2194 4147 
L 1259 4147 
z
M 628 4666 
L 2241 4666 
Q 2963 4666 3353 4366 
Q 3744 4066 3744 3513 
Q 3744 3084 3544 2831 
Q 3344 2578 2956 2516 
Q 3422 2416 3680 2098 
Q 3938 1781 3938 1306 
Q 3938 681 3513 340 
Q 3088 0 2303 0 
L 628 0 
L 628 4666 
z
" transform="scale(0.015625)"/>
      <path id="DejaVuSans-72" d="M 2631 2963 
Q 2534 3019 2420 3045 
Q 2306 3072 2169 3072 
Q 1681 3072 1420 2755 
Q 1159 2438 1159 1844 
L 1159 0 
L 581 0 
L 581 3500 
L 1159 3500 
L 1159 2956 
Q 1341 3275 1631 3429 
Q 1922 3584 2338 3584 
Q 2397 3584 2469 3576 
Q 2541 3569 2628 3553 
L 2631 2963 
z
" transform="scale(0.015625)"/>
      <path id="DejaVuSans-70" d="M 1159 525 
L 1159 -1331 
L 581 -1331 
L 581 3500 
L 1159 3500 
L 1159 2969 
Q 1341 3281 1617 3432 
Q 1894 3584 2278 3584 
Q 2916 3584 3314 3078 
Q 3713 2572 3713 1747 
Q 3713 922 3314 415 
Q 2916 -91 2278 -91 
Q 1894 -91 1617 61 
Q 1341 213 1159 525 
z
M 3116 1747 
Q 3116 2381 2855 2742 
Q 2594 3103 2138 3103 
Q 1681 3103 1420 2742 
Q 1159 2381 1159 1747 
Q 1159 1113 1420 752 
Q 1681 391 2138 391 
Q 2594 391 2855 752 
Q 3116 1113 3116 1747 
z
" transform="scale(0.015625)"/>
     </defs>
     <use xlink:href="#DejaVuSans-41"/>
     <use xlink:href="#DejaVuSans-42" x="68.408203"/>
     <use xlink:href="#DejaVuSans-43" x="135.261719"/>
     <use xlink:href="#DejaVuSans-20" x="205.085938"/>
     <use xlink:href="#DejaVuSans-74" x="236.873047"/>
     <use xlink:href="#DejaVuSans-72" x="276.082031"/>
     <use xlink:href="#DejaVuSans-61" x="317.195312"/>
     <use xlink:href="#DejaVuSans-6e" x="378.474609"/>
     <use xlink:href="#DejaVuSans-73" x="441.853516"/>
     <use xlink:href="#DejaVuSans-70" x="493.953125"/>
     <use xlink:href="#DejaVuSans-6f" x="557.429688"/>
     <use xlink:href="#DejaVuSans-72" x="618.611328"/>
     <use xlink:href="#DejaVuSans-74" x="659.724609"/>
     <use xlink:href="#DejaVuSans-65" x="698.933594"/>
     <use xlink:href="#DejaVuSans-72" x="760.457031"/>
    </g>
    <!-- ATP-binding protein -->
    <g transform="translate(260.327879 44.906109)scale(0.11 -0.11)">
     <defs>
      <path id="DejaVuSans-54" d="M -19 4666 
L 3928 4666 
L 3928 4134 
L 2272 4134 
L 2272 0 
L 1638 0 
L 1638 4134 
L -19 4134 
L -19 4666 
z
" transform="scale(0.015625)"/>
      <path id="DejaVuSans-50" d="M 1259 4147 
L 1259 2394 
L 2053 2394 
Q 2494 2394 2734 2622 
Q 2975 2850 2975 3272 
Q 2975 3691 2734 3919 
Q 2494 4147 2053 4147 
L 1259 4147 
z
M 628 4666 
L 2053 4666 
Q 2838 4666 3239 4311 
Q 3641 3956 3641 3272 
Q 3641 2581 3239 2228 
Q 2838 1875 2053 1875 
L 1259 1875 
L 1259 0 
L 628 0 
L 628 4666 
z
" transform="scale(0.015625)"/>
      <path id="DejaVuSans-2d" d="M 313 2009 
L 1997 2009 
L 1997 1497 
L 313 1497 
L 313 2009 
z
" transform="scale(0.015625)"/>
      <path id="DejaVuSans-62" d="M 3116 1747 
Q 3116 2381 2855 2742 
Q 2594 3103 2138 3103 
Q 1681 3103 1420 2742 
Q 1159 2381 1159 1747 
Q 1159 1113 1420 752 
Q 1681 391 2138 391 
Q 2594 391 2855 752 
Q 3116 1113 3116 1747 
z
M 1159 2969 
Q 1341 3281 1617 3432 
Q 1894 3584 2278 3584 
Q 2916 3584 3314 3078 
Q 3713 2572 3713 1747 
Q 3713 922 3314 415 
Q 2916 -91 2278 -91 
Q 1894 -91 1617 61 
Q 1341 213 1159 525 
L 1159 0 
L 581 0 
L 581 4863 
L 1159 4863 
L 1159 2969 
z
" transform="scale(0.015625)"/>
      <path id="DejaVuSans-64" d="M 2906 2969 
L 2906 4863 
L 3481 4863 
L 3481 0 
L 2906 0 
L 2906 525 
Q 2725 213 2448 61 
Q 2172 -91 1784 -91 
Q 1150 -91 751 415 
Q 353 922 353 1747 
Q 353 2572 751 3078 
Q 1150 3584 1784 3584 
Q 2172 3584 2448 3432 
Q 2725 3281 2906 2969 
z
M 947 1747 
Q 947 1113 1208 752 
Q 1469 391 1925 391 
Q 2381 391 2643 752 
Q 2906 1113 2906 1747 
Q 2906 2381 2643 2742 
Q 2381 3103 1925 3103 
Q 1469 3103 1208 2742 
Q 947 2381 947 1747 
z
" transform="scale(0.015625)"/>
      <path id="DejaVuSans-67" d="M 2906 1791 
Q 2906 2416 2648 2759 
Q 2391 3103 1925 3103 
Q 1463 3103 1205 2759 
Q 947 2416 947 1791 
Q 947 1169 1205 825 
Q 1463 481 1925 481 
Q 2391 481 2648 825 
Q 2906 1169 2906 1791 
z
M 3481 434 
Q 3481 -459 3084 -895 
Q 2688 -1331 1869 -1331 
Q 1566 -1331 1297 -1286 
Q 1028 -1241 775 -1147 
L 775 -588 
Q 1028 -725 1275 -790 
Q 1522 -856 1778 -856 
Q 2344 -856 2625 -561 
Q 2906 -266 2906 331 
L 2906 616 
Q 2728 306 2450 153 
Q 2172 0 1784 0 
Q 1141 0 747 490 
Q 353 981 353 1791 
Q 353 2603 747 3093 
Q 1141 3584 1784 3584 
Q 2172 3584 2450 3431 
Q 2728 3278 2906 2969 
L 2906 3500 
L 3481 3500 
L 3481 434 
z
" transform="scale(0.015625)"/>
     </defs>
     <use xlink:href="#DejaVuSans-41"/>
     <use xlink:href="#DejaVuSans-54" x="60.658203"/>
     <use xlink:href="#DejaVuSans-50" x="121.742188"/>
     <use xlink:href="#DejaVuSans-2d" x="179.794922"/>
     <use xlink:href="#DejaVuSans-62" x="215.878906"/>
     <use xlink:href="#DejaVuSans-69" x="279.355469"/>
     <use xlink:href="#DejaVuSans-6e" x="307.138672"/>
     <use xlink:href="#DejaVuSans-64" x="370.517578"/>
     <use xlink:href="#DejaVuSans-69" x="433.994141"/>
     <use xlink:href="#DejaVuSans-6e" x="461.777344"/>
     <use xlink:href="#DejaVuSans-67" x="525.15625"/>
     <use xlink:href="#DejaVuSans-20" x="588.632812"/>
     <use xlink:href="#DejaVuSans-70" x="620.419922"/>
     <use xlink:href="#DejaVuSans-72" x="683.896484"/>
     <use xlink:href="#DejaVuSans-6f" x="722.759766"/>
     <use xlink:href="#DejaVuSans-74" x="783.941406"/>
     <use xlink:href="#DejaVuSans-65" x="823.150391"/>
     <use xlink:href="#DejaVuSans-69" x="884.673828"/>
     <use xlink:href="#DejaVuSans-6e" x="912.457031"/>
    </g>
   </g>
   <g id="text_12">
    <g id="patch_21">
     <path d="M 362.298831 107.517766 
L 469.639925 107.517766 
Q 472.939925 107.517766 472.939925 104.217766 
L 472.939925 81.254234 
Q 472.939925 77.954234 469.639925 77.954234 
L 362.298831 77.954234 
Q 358.998831 77.954234 358.998831 81.254234 
L 358.998831 104.217766 
Q 358.998831 107.517766 362.298831 107.517766 
z
" style="fill: #ebfaeb; stroke: #808080; stroke-linejoin: miter"/>
    </g>
    <!-- ABC transporter -->
    <g transform="translate(371.883441 89.612516)scale(0.11 -0.11)">
     <use xlink:href="#DejaVuSans-41"/>
     <use xlink:href="#DejaVuSans-42" x="68.408203"/>
     <use xlink:href="#DejaVuSans-43" x="135.261719"/>
     <use xlink:href="#DejaVuSans-20" x="205.085938"/>
     <use xlink:href="#DejaVuSans-74" x="236.873047"/>
     <use xlink:href="#DejaVuSans-72" x="276.082031"/>
     <use xlink:href="#DejaVuSans-61" x="317.195312"/>
     <use xlink:href="#DejaVuSans-6e" x="378.474609"/>
     <use xlink:href="#DejaVuSans-73" x="441.853516"/>
     <use xlink:href="#DejaVuSans-70" x="493.953125"/>
     <use xlink:href="#DejaVuSans-6f" x="557.429688"/>
     <use xlink:href="#DejaVuSans-72" x="618.611328"/>
     <use xlink:href="#DejaVuSans-74" x="659.724609"/>
     <use xlink:href="#DejaVuSans-65" x="698.933594"/>
     <use xlink:href="#DejaVuSans-72" x="760.457031"/>
    </g>
    <!-- ATP-binding protein -->
    <g transform="translate(362.298831 101.930109)scale(0.11 -0.11)">
     <use xlink:href="#DejaVuSans-41"/>
     <use xlink:href="#DejaVuSans-54" x="60.658203"/>
     <use xlink:href="#DejaVuSans-50" x="121.742188"/>
     <use xlink:href="#DejaVuSans-2d" x="179.794922"/>
     <use xlink:href="#DejaVuSans-62" x="215.878906"/>
     <use xlink:href="#DejaVuSans-69" x="279.355469"/>
     <use xlink:href="#DejaVuSans-6e" x="307.138672"/>
     <use xlink:href="#DejaVuSans-64" x="370.517578"/>
     <use xlink:href="#DejaVuSans-69" x="433.994141"/>
     <use xlink:href="#DejaVuSans-6e" x="461.777344"/>
     <use xlink:href="#DejaVuSans-67" x="525.15625"/>
     <use xlink:href="#DejaVuSans-20" x="588.632812"/>
     <use xlink:href="#DejaVuSans-70" x="620.419922"/>
     <use xlink:href="#DejaVuSans-72" x="683.896484"/>
     <use xlink:href="#DejaVuSans-6f" x="722.759766"/>
     <use xlink:href="#DejaVuSans-74" x="783.941406"/>
     <use xlink:href="#DejaVuSans-65" x="823.150391"/>
     <use xlink:href="#DejaVuSans-69" x="884.673828"/>
     <use xlink:href="#DejaVuSans-6e" x="912.457031"/>
    </g>
   </g>
   <g id="text_13">
    <g id="patch_22">
     <path d="M 391.059958 144.126969 
L 566.020114 144.126969 
Q 569.320114 144.126969 569.320114 140.826969 
L 569.320114 130.181031 
Q 569.320114 126.881031 566.020114 126.881031 
L 391.059958 126.881031 
Q 387.759958 126.881031 387.759958 130.181031 
L 387.759958 140.826969 
Q 387.759958 144.126969 391.059958 144.126969 
z
" style="fill: #fbe9ea; stroke: #808080; stroke-linejoin: miter"/>
    </g>
    <!-- SapB/AmfS family lanthipeptide -->
    <g transform="translate(391.059958 138.539312)scale(0.11 -0.11)">
     <defs>
      <path id="DejaVuSans-53" d="M 3425 4513 
L 3425 3897 
Q 3066 4069 2747 4153 
Q 2428 4238 2131 4238 
Q 1616 4238 1336 4038 
Q 1056 3838 1056 3469 
Q 1056 3159 1242 3001 
Q 1428 2844 1947 2747 
L 2328 2669 
Q 3034 2534 3370 2195 
Q 3706 1856 3706 1288 
Q 3706 609 3251 259 
Q 2797 -91 1919 -91 
Q 1588 -91 1214 -16 
Q 841 59 441 206 
L 441 856 
Q 825 641 1194 531 
Q 1563 422 1919 422 
Q 2459 422 2753 634 
Q 3047 847 3047 1241 
Q 3047 1584 2836 1778 
Q 2625 1972 2144 2069 
L 1759 2144 
Q 1053 2284 737 2584 
Q 422 2884 422 3419 
Q 422 4038 858 4394 
Q 1294 4750 2059 4750 
Q 2388 4750 2728 4690 
Q 3069 4631 3425 4513 
z
" transform="scale(0.015625)"/>
      <path id="DejaVuSans-2f" d="M 1625 4666 
L 2156 4666 
L 531 -594 
L 0 -594 
L 1625 4666 
z
" transform="scale(0.015625)"/>
      <path id="DejaVuSans-6d" d="M 3328 2828 
Q 3544 3216 3844 3400 
Q 4144 3584 4550 3584 
Q 5097 3584 5394 3201 
Q 5691 2819 5691 2113 
L 5691 0 
L 5113 0 
L 5113 2094 
Q 5113 2597 4934 2840 
Q 4756 3084 4391 3084 
Q 3944 3084 3684 2787 
Q 3425 2491 3425 1978 
L 3425 0 
L 2847 0 
L 2847 2094 
Q 2847 2600 2669 2842 
Q 2491 3084 2119 3084 
Q 1678 3084 1418 2786 
Q 1159 2488 1159 1978 
L 1159 0 
L 581 0 
L 581 3500 
L 1159 3500 
L 1159 2956 
Q 1356 3278 1631 3431 
Q 1906 3584 2284 3584 
Q 2666 3584 2933 3390 
Q 3200 3197 3328 2828 
z
" transform="scale(0.015625)"/>
      <path id="DejaVuSans-66" d="M 2375 4863 
L 2375 4384 
L 1825 4384 
Q 1516 4384 1395 4259 
Q 1275 4134 1275 3809 
L 1275 3500 
L 2222 3500 
L 2222 3053 
L 1275 3053 
L 1275 0 
L 697 0 
L 697 3053 
L 147 3053 
L 147 3500 
L 697 3500 
L 697 3744 
Q 697 4328 969 4595 
Q 1241 4863 1831 4863 
L 2375 4863 
z
" transform="scale(0.015625)"/>
     </defs>
     <use xlink:href="#DejaVuSans-53"/>
     <use xlink:href="#DejaVuSans-61" x="63.476562"/>
     <use xlink:href="#DejaVuSans-70" x="124.755859"/>
     <use xlink:href="#DejaVuSans-42" x="188.232422"/>
     <use xlink:href="#DejaVuSans-2f" x="256.835938"/>
     <use xlink:href="#DejaVuSans-41" x="290.527344"/>
     <use xlink:href="#DejaVuSans-6d" x="358.935547"/>
     <use xlink:href="#DejaVuSans-66" x="456.347656"/>
     <use xlink:href="#DejaVuSans-53" x="491.552734"/>
     <use xlink:href="#DejaVuSans-20" x="555.029297"/>
     <use xlink:href="#DejaVuSans-66" x="586.816406"/>
     <use xlink:href="#DejaVuSans-61" x="622.021484"/>
     <use xlink:href="#DejaVuSans-6d" x="683.300781"/>
     <use xlink:href="#DejaVuSans-69" x="780.712891"/>
     <use xlink:href="#DejaVuSans-6c" x="808.496094"/>
     <use xlink:href="#DejaVuSans-79" x="836.279297"/>
     <use xlink:href="#DejaVuSans-20" x="895.458984"/>
     <use xlink:href="#DejaVuSans-6c" x="927.246094"/>
     <use xlink:href="#DejaVuSans-61" x="955.029297"/>
     <use xlink:href="#DejaVuSans-6e" x="1016.308594"/>
     <use xlink:href="#DejaVuSans-74" x="1079.6875"/>
     <use xlink:href="#DejaVuSans-68" x="1118.896484"/>
     <use xlink:href="#DejaVuSans-69" x="1182.275391"/>
     <use xlink:href="#DejaVuSans-70" x="1210.058594"/>
     <use xlink:href="#DejaVuSans-65" x="1273.535156"/>
     <use xlink:href="#DejaVuSans-70" x="1335.058594"/>
     <use xlink:href="#DejaVuSans-74" x="1398.535156"/>
     <use xlink:href="#DejaVuSans-69" x="1437.744141"/>
     <use xlink:href="#DejaVuSans-64" x="1465.527344"/>
     <use xlink:href="#DejaVuSans-65" x="1529.003906"/>
    </g>
   </g>
   <g id="legend_1">
    <g id="patch_23">
     <path d="M 1189.13854 117.946875 
L 1369.886977 117.946875 
Q 1371.886977 117.946875 1371.886977 115.946875 
L 1371.886977 14.2 
Q 1371.886977 12.2 1369.886977 12.2 
L 1189.13854 12.2 
Q 1187.13854 12.2 1187.13854 14.2 
L 1187.13854 115.946875 
Q 1187.13854 117.946875 1189.13854 117.946875 
z
" style="fill: #ffffff; opacity: 0.8; stroke: #cccccc; stroke-linejoin: miter"/>
    </g>
    <g id="patch_24">
     <path d="M 1191.13854 23.798437 
L 1211.13854 23.798437 
L 1211.13854 16.798437 
L 1191.13854 16.798437 
z
" style="fill: #1f77b4; stroke: #1f77b4; stroke-linejoin: miter"/>
    </g>
    <g id="text_14">
     <!-- UC-1 -->
     <g transform="translate(1219.13854 23.798437)scale(0.1 -0.1)">
      <defs>
       <path id="DejaVuSans-55" d="M 556 4666 
L 1191 4666 
L 1191 1831 
Q 1191 1081 1462 751 
Q 1734 422 2344 422 
Q 2950 422 3222 751 
Q 3494 1081 3494 1831 
L 3494 4666 
L 4128 4666 
L 4128 1753 
Q 4128 841 3676 375 
Q 3225 -91 2344 -91 
Q 1459 -91 1007 375 
Q 556 841 556 1753 
L 556 4666 
z
" transform="scale(0.015625)"/>
      </defs>
      <use xlink:href="#DejaVuSans-55"/>
      <use xlink:href="#DejaVuSans-43" x="73.193359"/>
      <use xlink:href="#DejaVuSans-2d" x="143.017578"/>
      <use xlink:href="#DejaVuSans-31" x="179.101562"/>
     </g>
    </g>
    <g id="patch_25">
     <path d="M 1191.13854 38.476562 
L 1211.13854 38.476562 
L 1211.13854 31.476562 
L 1191.13854 31.476562 
z
" style="fill: #ff7f0e; stroke: #ff7f0e; stroke-linejoin: miter"/>
    </g>
    <g id="text_15">
     <!-- UC-4 -->
     <g transform="translate(1219.13854 38.476562)scale(0.1 -0.1)">
      <defs>
       <path id="DejaVuSans-34" d="M 2419 4116 
L 825 1625 
L 2419 1625 
L 2419 4116 
z
M 2253 4666 
L 3047 4666 
L 3047 1625 
L 3713 1625 
L 3713 1100 
L 3047 1100 
L 3047 0 
L 2419 0 
L 2419 1100 
L 313 1100 
L 313 1709 
L 2253 4666 
z
" transform="scale(0.015625)"/>
      </defs>
      <use xlink:href="#DejaVuSans-55"/>
      <use xlink:href="#DejaVuSans-43" x="73.193359"/>
      <use xlink:href="#DejaVuSans-2d" x="143.017578"/>
      <use xlink:href="#DejaVuSans-34" x="179.101562"/>
     </g>
    </g>
    <g id="patch_26">
     <path d="M 1191.13854 53.154687 
L 1211.13854 53.154687 
L 1211.13854 46.154687 
L 1191.13854 46.154687 
z
" style="fill: #2ca02c; stroke: #2ca02c; stroke-linejoin: miter"/>
    </g>
    <g id="text_16">
     <!-- SAL-2242 -->
     <g transform="translate(1219.13854 53.154687)scale(0.1 -0.1)">
      <use xlink:href="#DejaVuSans-53"/>
      <use xlink:href="#DejaVuSans-41" x="65.351562"/>
      <use xlink:href="#DejaVuSans-4c" x="133.759766"/>
      <use xlink:href="#DejaVuSans-2d" x="187.722656"/>
      <use xlink:href="#DejaVuSans-32" x="223.806641"/>
      <use xlink:href="#DejaVuSans-32" x="287.429688"/>
      <use xlink:href="#DejaVuSans-34" x="351.052734"/>
      <use xlink:href="#DejaVuSans-32" x="414.675781"/>
     </g>
    </g>
    <g id="patch_27">
     <path d="M 1191.13854 67.832812 
L 1211.13854 67.832812 
L 1211.13854 60.832812 
L 1191.13854 60.832812 
z
" style="fill: #d62728; stroke: #d62728; stroke-linejoin: miter"/>
    </g>
    <g id="text_17">
     <!-- Minimycin deletion, SAL-2242 -->
     <g transform="translate(1219.13854 67.832812)scale(0.1 -0.1)">
      <defs>
       <path id="DejaVuSans-4d" d="M 628 4666 
L 1569 4666 
L 2759 1491 
L 3956 4666 
L 4897 4666 
L 4897 0 
L 4281 0 
L 4281 4097 
L 3078 897 
L 2444 897 
L 1241 4097 
L 1241 0 
L 628 0 
L 628 4666 
z
" transform="scale(0.015625)"/>
      </defs>
      <use xlink:href="#DejaVuSans-4d"/>
      <use xlink:href="#DejaVuSans-69" x="86.279297"/>
      <use xlink:href="#DejaVuSans-6e" x="114.0625"/>
      <use xlink:href="#DejaVuSans-69" x="177.441406"/>
      <use xlink:href="#DejaVuSans-6d" x="205.224609"/>
      <use xlink:href="#DejaVuSans-79" x="302.636719"/>
      <use xlink:href="#DejaVuSans-63" x="361.816406"/>
      <use xlink:href="#DejaVuSans-69" x="416.796875"/>
      <use xlink:href="#DejaVuSans-6e" x="444.580078"/>
      <use xlink:href="#DejaVuSans-20" x="507.958984"/>
      <use xlink:href="#DejaVuSans-64" x="539.746094"/>
      <use xlink:href="#DejaVuSans-65" x="603.222656"/>
      <use xlink:href="#DejaVuSans-6c" x="664.746094"/>
      <use xlink:href="#DejaVuSans-65" x="692.529297"/>
      <use xlink:href="#DejaVuSans-74" x="754.052734"/>
      <use xlink:href="#DejaVuSans-69" x="793.261719"/>
      <use xlink:href="#DejaVuSans-6f" x="821.044922"/>
      <use xlink:href="#DejaVuSans-6e" x="882.226562"/>
      <use xlink:href="#DejaVuSans-2c" x="945.605469"/>
      <use xlink:href="#DejaVuSans-20" x="977.392578"/>
      <use xlink:href="#DejaVuSans-53" x="1009.179688"/>
      <use xlink:href="#DejaVuSans-41" x="1074.53125"/>
      <use xlink:href="#DejaVuSans-4c" x="1142.939453"/>
      <use xlink:href="#DejaVuSans-2d" x="1196.902344"/>
      <use xlink:href="#DejaVuSans-32" x="1232.986328"/>
      <use xlink:href="#DejaVuSans-32" x="1296.609375"/>
      <use xlink:href="#DejaVuSans-34" x="1360.232422"/>
      <use xlink:href="#DejaVuSans-32" x="1423.855469"/>
     </g>
    </g>
    <g id="patch_28">
     <path d="M 1191.13854 82.510937 
L 1211.13854 82.510937 
L 1211.13854 75.510937 
L 1191.13854 75.510937 
z
" style="fill: #9467bd; stroke: #9467bd; stroke-linejoin: miter"/>
    </g>
    <g id="text_18">
     <!-- Minimycin deletion -->
     <g transform="translate(1219.13854 82.510937)scale(0.1 -0.1)">
      <use xlink:href="#DejaVuSans-4d"/>
      <use xlink:href="#DejaVuSans-69" x="86.279297"/>
      <use xlink:href="#DejaVuSans-6e" x="114.0625"/>
      <use xlink:href="#DejaVuSans-69" x="177.441406"/>
      <use xlink:href="#DejaVuSans-6d" x="205.224609"/>
      <use xlink:href="#DejaVuSans-79" x="302.636719"/>
      <use xlink:href="#DejaVuSans-63" x="361.816406"/>
      <use xlink:href="#DejaVuSans-69" x="416.796875"/>
      <use xlink:href="#DejaVuSans-6e" x="444.580078"/>
      <use xlink:href="#DejaVuSans-20" x="507.958984"/>
      <use xlink:href="#DejaVuSans-64" x="539.746094"/>
      <use xlink:href="#DejaVuSans-65" x="603.222656"/>
      <use xlink:href="#DejaVuSans-6c" x="664.746094"/>
      <use xlink:href="#DejaVuSans-65" x="692.529297"/>
      <use xlink:href="#DejaVuSans-74" x="754.052734"/>
      <use xlink:href="#DejaVuSans-69" x="793.261719"/>
      <use xlink:href="#DejaVuSans-6f" x="821.044922"/>
      <use xlink:href="#DejaVuSans-6e" x="882.226562"/>
     </g>
    </g>
    <g id="patch_29">
     <path d="M 1191.13854 97.189062 
L 1211.13854 97.189062 
L 1211.13854 90.189062 
L 1191.13854 90.189062 
z
" style="fill: #8c564b; stroke: #8c564b; stroke-linejoin: miter"/>
    </g>
    <g id="text_19">
     <!-- Iron acquisition -->
     <g transform="translate(1219.13854 97.189062)scale(0.1 -0.1)">
      <defs>
       <path id="DejaVuSans-71" d="M 947 1747 
Q 947 1113 1208 752 
Q 1469 391 1925 391 
Q 2381 391 2643 752 
Q 2906 1113 2906 1747 
Q 2906 2381 2643 2742 
Q 2381 3103 1925 3103 
Q 1469 3103 1208 2742 
Q 947 2381 947 1747 
z
M 2906 525 
Q 2725 213 2448 61 
Q 2172 -91 1784 -91 
Q 1150 -91 751 415 
Q 353 922 353 1747 
Q 353 2572 751 3078 
Q 1150 3584 1784 3584 
Q 2172 3584 2448 3432 
Q 2725 3281 2906 2969 
L 2906 3500 
L 3481 3500 
L 3481 -1331 
L 2906 -1331 
L 2906 525 
z
" transform="scale(0.015625)"/>
       <path id="DejaVuSans-75" d="M 544 1381 
L 544 3500 
L 1119 3500 
L 1119 1403 
Q 1119 906 1312 657 
Q 1506 409 1894 409 
Q 2359 409 2629 706 
Q 2900 1003 2900 1516 
L 2900 3500 
L 3475 3500 
L 3475 0 
L 2900 0 
L 2900 538 
Q 2691 219 2414 64 
Q 2138 -91 1772 -91 
Q 1169 -91 856 284 
Q 544 659 544 1381 
z
M 1991 3584 
L 1991 3584 
z
" transform="scale(0.015625)"/>
      </defs>
      <use xlink:href="#DejaVuSans-49"/>
      <use xlink:href="#DejaVuSans-72" x="29.492188"/>
      <use xlink:href="#DejaVuSans-6f" x="68.355469"/>
      <use xlink:href="#DejaVuSans-6e" x="129.537109"/>
      <use xlink:href="#DejaVuSans-20" x="192.916016"/>
      <use xlink:href="#DejaVuSans-61" x="224.703125"/>
      <use xlink:href="#DejaVuSans-63" x="285.982422"/>
      <use xlink:href="#DejaVuSans-71" x="340.962891"/>
      <use xlink:href="#DejaVuSans-75" x="404.439453"/>
      <use xlink:href="#DejaVuSans-69" x="467.818359"/>
      <use xlink:href="#DejaVuSans-73" x="495.601562"/>
      <use xlink:href="#DejaVuSans-69" x="547.701172"/>
      <use xlink:href="#DejaVuSans-74" x="575.484375"/>
      <use xlink:href="#DejaVuSans-69" x="614.693359"/>
      <use xlink:href="#DejaVuSans-6f" x="642.476562"/>
      <use xlink:href="#DejaVuSans-6e" x="703.658203"/>
     </g>
    </g>
    <g id="patch_30">
     <path d="M 1191.13854 111.867187 
L 1211.13854 111.867187 
L 1211.13854 104.867187 
L 1191.13854 104.867187 
z
" style="fill: #e377c2; stroke: #e377c2; stroke-linejoin: miter"/>
    </g>
    <g id="text_20">
     <!-- Surugamide -->
     <g transform="translate(1219.13854 111.867187)scale(0.1 -0.1)">
      <use xlink:href="#DejaVuSans-53"/>
      <use xlink:href="#DejaVuSans-75" x="63.476562"/>
      <use xlink:href="#DejaVuSans-72" x="126.855469"/>
      <use xlink:href="#DejaVuSans-75" x="167.96875"/>
      <use xlink:href="#DejaVuSans-67" x="231.347656"/>
      <use xlink:href="#DejaVuSans-61" x="294.824219"/>
      <use xlink:href="#DejaVuSans-6d" x="356.103516"/>
      <use xlink:href="#DejaVuSans-69" x="453.515625"/>
      <use xlink:href="#DejaVuSans-64" x="481.298828"/>
      <use xlink:href="#DejaVuSans-65" x="544.775391"/>
     </g>
    </g>
   </g>
  </g>
 </g>
 <defs>
  <clipPath id="p896c4ae846">
   <rect x="10.33854" y="7.2" width="1116" height="199.584"/>
  </clipPath>
 </defs>
</svg>
