<?xml version="1.0" encoding="utf-8" standalone="no"?>
<!DOCTYPE svg PUBLIC "-//W3C//DTD SVG 1.1//EN"
  "http://www.w3.org/Graphics/SVG/1.1/DTD/svg11.dtd">
<svg xmlns:xlink="http://www.w3.org/1999/xlink" width="1477.012922pt" height="208.486125pt" viewBox="0 0 1477.012922 208.486125" xmlns="http://www.w3.org/2000/svg" version="1.1">
 <metadata>
  <rdf:RDF xmlns:dc="http://purl.org/dc/elements/1.1/" xmlns:cc="http://creativecommons.org/ns#" xmlns:rdf="http://www.w3.org/1999/02/22-rdf-syntax-ns#">
   <cc:Work>
    <dc:type rdf:resource="http://purl.org/dc/dcmitype/StillImage"/>
    <dc:date>2024-05-23T14:12:24.768797</dc:date>
    <dc:format>image/svg+xml</dc:format>
    <dc:creator>
     <cc:Agent>
      <dc:title>Matplotlib v3.5.3, https://matplotlib.org/</dc:title>
     </cc:Agent>
    </dc:creator>
   </cc:Work>
  </rdf:RDF>
 </metadata>
 <defs>
  <style type="text/css">*{stroke-linejoin: round; stroke-linecap: butt}</style>
 </defs>
 <g id="figure_1">
  <g id="patch_1">
   <path d="M 0 208.486125 
L 1477.012922 208.486125 
L 1477.012922 0 
L 0 0 
z
" style="fill: #ffffff"/>
  </g>
  <g id="axes_1">
   <g id="line2d_1">
    <path d="M 39.150422 169.824 
L 1155.150422 169.824 
" clip-path="url(#p0cc200befa)" style="fill: none; stroke: #000000; stroke-width: 1.5; stroke-linecap: square"/>
   </g>
   <g id="line2d_2">
    <path d="M 1064.619239 125.472 
L 1064.619239 169.824 
" clip-path="url(#p0cc200befa)" style="fill: none; stroke: #000000; stroke-width: 0.5; stroke-linecap: square"/>
   </g>
   <g id="line2d_3">
    <path d="M 885.900558 95.904 
L 885.900558 140.256 
" clip-path="url(#p0cc200befa)" style="fill: none; stroke: #000000; stroke-width: 0.5; stroke-linecap: square"/>
   </g>
   <g id="line2d_4">
    <path d="M 441.46276 110.688 
L 441.46276 169.824 
" clip-path="url(#p0cc200befa)" style="fill: none; stroke: #000000; stroke-width: 0.5; stroke-linecap: square"/>
   </g>
   <g id="line2d_5">
    <path d="M 587.917722 81.12 
L 587.917722 140.256 
" clip-path="url(#p0cc200befa)" style="fill: none; stroke: #000000; stroke-width: 0.5; stroke-linecap: square"/>
   </g>
   <g id="line2d_6">
    <path d="M 92.700078 140.256 
L 92.700078 169.824 
" clip-path="url(#p0cc200befa)" style="fill: none; stroke: #000000; stroke-width: 0.5; stroke-linecap: square"/>
   </g>
   <g id="line2d_7">
    <path d="M 321.488398 81.12 
L 321.488398 140.256 
" clip-path="url(#p0cc200befa)" style="fill: none; stroke: #000000; stroke-width: 0.5; stroke-linecap: square"/>
   </g>
   <g id="line2d_8">
    <path d="M 201.108202 36.768 
L 201.108202 169.824 
" clip-path="url(#p0cc200befa)" style="fill: none; stroke: #000000; stroke-width: 0.5; stroke-linecap: square"/>
   </g>
   <g id="line2d_9">
    <path d="M 257.316064 110.688 
L 257.316064 169.824 
" clip-path="url(#p0cc200befa)" style="fill: none; stroke: #000000; stroke-width: 0.5; stroke-linecap: square"/>
   </g>
   <g id="patch_2">
    <path d="M 974.118493 162.824 
Q 1060.419825 162.824 1146.721157 162.824 
L 1146.721157 162.824 
Q 1150.920571 166.324 1155.119984 169.824 
Q 1150.920571 173.324 1146.721157 176.824 
L 1146.721157 176.824 
Q 1060.419825 176.824 974.118493 176.824 
L 974.118493 162.824 
z
" clip-path="url(#p0cc200befa)" style="fill: #1f77b4; stroke: #000000; stroke-linecap: round"/>
   </g>
   <g id="patch_3">
    <path d="M 797.378248 133.256 
Q 881.701097 133.256 966.023946 133.256 
L 966.023946 133.256 
Q 970.223407 136.756 974.422868 140.256 
Q 970.223407 143.756 966.023946 147.256 
L 966.023946 147.256 
Q 881.701097 147.256 797.378248 147.256 
L 797.378248 133.256 
z
" clip-path="url(#p0cc200befa)" style="fill: #1f77b4; stroke: #000000; stroke-linecap: round"/>
   </g>
   <g id="patch_4">
    <path d="M 364.050127 162.824 
Q 437.264694 162.824 510.47926 162.824 
L 510.47926 162.824 
Q 514.677327 166.324 518.875394 169.824 
Q 514.677327 173.324 510.47926 176.824 
L 510.47926 176.824 
Q 437.264694 176.824 364.050127 176.824 
L 364.050127 162.824 
z
" clip-path="url(#p0cc200befa)" style="fill: #1f77b4; stroke: #000000; stroke-linecap: round"/>
   </g>
   <g id="patch_5">
    <path d="M 518.571019 133.256 
Q 583.71688 133.256 648.862741 133.256 
L 648.862741 133.256 
Q 653.063583 136.756 657.264426 140.256 
Q 653.063583 143.756 648.862741 147.256 
L 648.862741 147.256 
Q 583.71688 147.256 518.571019 147.256 
L 518.571019 133.256 
z
" clip-path="url(#p0cc200befa)" style="fill: #1f77b4; stroke: #000000; stroke-linecap: round"/>
   </g>
   <g id="patch_6">
    <path d="M 658.786299 162.824 
Q 720.890689 162.824 782.995079 162.824 
L 782.995079 162.824 
Q 787.193646 166.324 791.392212 169.824 
Q 787.193646 173.324 782.995079 176.824 
L 782.995079 176.824 
Q 720.890689 176.824 658.786299 176.824 
L 658.786299 162.824 
z
" clip-path="url(#p0cc200befa)" style="fill: #1f77b4; stroke: #000000; stroke-linecap: round"/>
   </g>
   <g id="patch_7">
    <path d="M 39.180859 162.824 
Q 88.500923 162.824 137.820987 162.824 
L 137.820987 162.824 
Q 142.020142 166.324 146.219297 169.824 
Q 142.020142 173.324 137.820987 176.824 
L 137.820987 176.824 
Q 88.500923 176.824 39.180859 176.824 
L 39.180859 162.824 
z
" clip-path="url(#p0cc200befa)" style="fill: #1f77b4; stroke: #000000; stroke-linecap: round"/>
   </g>
   <g id="patch_8">
    <path d="M 278.622293 133.256 
Q 317.287865 133.256 355.953436 133.256 
L 355.953436 133.256 
Q 360.153969 136.756 364.354502 140.256 
Q 360.153969 143.756 355.953436 147.256 
L 355.953436 147.256 
Q 317.287865 147.256 278.622293 147.256 
L 278.622293 133.256 
z
" clip-path="url(#p0cc200befa)" style="fill: #1f77b4; stroke: #000000; stroke-linecap: round"/>
   </g>
   <g id="patch_9">
    <path d="M 158.69866 162.824 
Q 196.908405 162.824 235.118149 162.824 
L 235.118149 162.824 
Q 239.317947 166.324 243.517744 169.824 
Q 239.317947 173.324 235.118149 176.824 
L 235.118149 176.824 
Q 196.908405 176.824 158.69866 176.824 
L 158.69866 162.824 
z
" clip-path="url(#p0cc200befa)" style="fill: #1f77b4; stroke: #000000; stroke-linecap: round"/>
   </g>
   <g id="patch_10">
    <path d="M 250.518362 162.824 
Q 253.115629 162.824 255.712895 162.824 
L 255.712895 162.824 
Q 259.913331 166.324 264.113766 169.824 
Q 259.913331 173.324 255.712895 176.824 
L 255.712895 176.824 
Q 253.115629 176.824 250.518362 176.824 
L 250.518362 162.824 
z
" clip-path="url(#p0cc200befa)" style="fill: #ff7f0e; stroke: #000000; stroke-linecap: round"/>
   </g>
   <g id="matplotlib.axis_1">
    <g id="xtick_1">
     <g id="line2d_10">
      <defs>
       <path id="mffac06d82e" d="M 0 0 
L 0 3.5 
" style="stroke: #808080; stroke-width: 0.8"/>
      </defs>
      <g>
       <use xlink:href="#mffac06d82e" x="39.231588" y="184.608" style="fill: #808080; stroke: #808080; stroke-width: 0.8"/>
      </g>
     </g>
     <g id="text_1">
      <!-- 0 -->
      <g style="fill: #808080" transform="translate(36.050338 199.206437)scale(0.1 -0.1)">
       <defs>
        <path id="DejaVuSans-30" d="M 2034 4250 
Q 1547 4250 1301 3770 
Q 1056 3291 1056 2328 
Q 1056 1369 1301 889 
Q 1547 409 2034 409 
Q 2525 409 2770 889 
Q 3016 1369 3016 2328 
Q 3016 3291 2770 3770 
Q 2525 4250 2034 4250 
z
M 2034 4750 
Q 2819 4750 3233 4129 
Q 3647 3509 3647 2328 
Q 3647 1150 3233 529 
Q 2819 -91 2034 -91 
Q 1250 -91 836 529 
Q 422 1150 422 2328 
Q 422 3509 836 4129 
Q 1250 4750 2034 4750 
z
" transform="scale(0.015625)"/>
       </defs>
       <use xlink:href="#DejaVuSans-30"/>
      </g>
     </g>
    </g>
    <g id="xtick_2">
     <g id="line2d_11">
      <g>
       <use xlink:href="#mffac06d82e" x="191.418941" y="184.608" style="fill: #808080; stroke: #808080; stroke-width: 0.8"/>
      </g>
     </g>
     <g id="text_2">
      <!-- 1,500 -->
      <g style="fill: #808080" transform="translate(177.104878 199.206437)scale(0.1 -0.1)">
       <defs>
        <path id="DejaVuSans-31" d="M 794 531 
L 1825 531 
L 1825 4091 
L 703 3866 
L 703 4441 
L 1819 4666 
L 2450 4666 
L 2450 531 
L 3481 531 
L 3481 0 
L 794 0 
L 794 531 
z
" transform="scale(0.015625)"/>
        <path id="DejaVuSans-2c" d="M 750 794 
L 1409 794 
L 1409 256 
L 897 -744 
L 494 -744 
L 750 256 
L 750 794 
z
" transform="scale(0.015625)"/>
        <path id="DejaVuSans-35" d="M 691 4666 
L 3169 4666 
L 3169 4134 
L 1269 4134 
L 1269 2991 
Q 1406 3038 1543 3061 
Q 1681 3084 1819 3084 
Q 2600 3084 3056 2656 
Q 3513 2228 3513 1497 
Q 3513 744 3044 326 
Q 2575 -91 1722 -91 
Q 1428 -91 1123 -41 
Q 819 9 494 109 
L 494 744 
Q 775 591 1075 516 
Q 1375 441 1709 441 
Q 2250 441 2565 725 
Q 2881 1009 2881 1497 
Q 2881 1984 2565 2268 
Q 2250 2553 1709 2553 
Q 1456 2553 1204 2497 
Q 953 2441 691 2322 
L 691 4666 
z
" transform="scale(0.015625)"/>
       </defs>
       <use xlink:href="#DejaVuSans-31"/>
       <use xlink:href="#DejaVuSans-2c" x="63.623047"/>
       <use xlink:href="#DejaVuSans-35" x="95.410156"/>
       <use xlink:href="#DejaVuSans-30" x="159.033203"/>
       <use xlink:href="#DejaVuSans-30" x="222.65625"/>
      </g>
     </g>
    </g>
    <g id="xtick_3">
     <g id="line2d_12">
      <g>
       <use xlink:href="#mffac06d82e" x="343.606293" y="184.608" style="fill: #808080; stroke: #808080; stroke-width: 0.8"/>
      </g>
     </g>
     <g id="text_3">
      <!-- 3,000 -->
      <g style="fill: #808080" transform="translate(329.29223 199.206437)scale(0.1 -0.1)">
       <defs>
        <path id="DejaVuSans-33" d="M 2597 2516 
Q 3050 2419 3304 2112 
Q 3559 1806 3559 1356 
Q 3559 666 3084 287 
Q 2609 -91 1734 -91 
Q 1441 -91 1130 -33 
Q 819 25 488 141 
L 488 750 
Q 750 597 1062 519 
Q 1375 441 1716 441 
Q 2309 441 2620 675 
Q 2931 909 2931 1356 
Q 2931 1769 2642 2001 
Q 2353 2234 1838 2234 
L 1294 2234 
L 1294 2753 
L 1863 2753 
Q 2328 2753 2575 2939 
Q 2822 3125 2822 3475 
Q 2822 3834 2567 4026 
Q 2313 4219 1838 4219 
Q 1578 4219 1281 4162 
Q 984 4106 628 3988 
L 628 4550 
Q 988 4650 1302 4700 
Q 1616 4750 1894 4750 
Q 2613 4750 3031 4423 
Q 3450 4097 3450 3541 
Q 3450 3153 3228 2886 
Q 3006 2619 2597 2516 
z
" transform="scale(0.015625)"/>
       </defs>
       <use xlink:href="#DejaVuSans-33"/>
       <use xlink:href="#DejaVuSans-2c" x="63.623047"/>
       <use xlink:href="#DejaVuSans-30" x="95.410156"/>
       <use xlink:href="#DejaVuSans-30" x="159.033203"/>
       <use xlink:href="#DejaVuSans-30" x="222.65625"/>
      </g>
     </g>
    </g>
    <g id="xtick_4">
     <g id="line2d_13">
      <g>
       <use xlink:href="#mffac06d82e" x="495.793645" y="184.608" style="fill: #808080; stroke: #808080; stroke-width: 0.8"/>
      </g>
     </g>
     <g id="text_4">
      <!-- 4,500 -->
      <g style="fill: #808080" transform="translate(481.479583 199.206437)scale(0.1 -0.1)">
       <defs>
        <path id="DejaVuSans-34" d="M 2419 4116 
L 825 1625 
L 2419 1625 
L 2419 4116 
z
M 2253 4666 
L 3047 4666 
L 3047 1625 
L 3713 1625 
L 3713 1100 
L 3047 1100 
L 3047 0 
L 2419 0 
L 2419 1100 
L 313 1100 
L 313 1709 
L 2253 4666 
z
" transform="scale(0.015625)"/>
       </defs>
       <use xlink:href="#DejaVuSans-34"/>
       <use xlink:href="#DejaVuSans-2c" x="63.623047"/>
       <use xlink:href="#DejaVuSans-35" x="95.410156"/>
       <use xlink:href="#DejaVuSans-30" x="159.033203"/>
       <use xlink:href="#DejaVuSans-30" x="222.65625"/>
      </g>
     </g>
    </g>
    <g id="xtick_5">
     <g id="line2d_14">
      <g>
       <use xlink:href="#mffac06d82e" x="647.980997" y="184.608" style="fill: #808080; stroke: #808080; stroke-width: 0.8"/>
      </g>
     </g>
     <g id="text_5">
      <!-- 6,000 -->
      <g style="fill: #808080" transform="translate(633.666935 199.206437)scale(0.1 -0.1)">
       <defs>
        <path id="DejaVuSans-36" d="M 2113 2584 
Q 1688 2584 1439 2293 
Q 1191 2003 1191 1497 
Q 1191 994 1439 701 
Q 1688 409 2113 409 
Q 2538 409 2786 701 
Q 3034 994 3034 1497 
Q 3034 2003 2786 2293 
Q 2538 2584 2113 2584 
z
M 3366 4563 
L 3366 3988 
Q 3128 4100 2886 4159 
Q 2644 4219 2406 4219 
Q 1781 4219 1451 3797 
Q 1122 3375 1075 2522 
Q 1259 2794 1537 2939 
Q 1816 3084 2150 3084 
Q 2853 3084 3261 2657 
Q 3669 2231 3669 1497 
Q 3669 778 3244 343 
Q 2819 -91 2113 -91 
Q 1303 -91 875 529 
Q 447 1150 447 2328 
Q 447 3434 972 4092 
Q 1497 4750 2381 4750 
Q 2619 4750 2861 4703 
Q 3103 4656 3366 4563 
z
" transform="scale(0.015625)"/>
       </defs>
       <use xlink:href="#DejaVuSans-36"/>
       <use xlink:href="#DejaVuSans-2c" x="63.623047"/>
       <use xlink:href="#DejaVuSans-30" x="95.410156"/>
       <use xlink:href="#DejaVuSans-30" x="159.033203"/>
       <use xlink:href="#DejaVuSans-30" x="222.65625"/>
      </g>
     </g>
    </g>
    <g id="xtick_6">
     <g id="line2d_15">
      <g>
       <use xlink:href="#mffac06d82e" x="800.16835" y="184.608" style="fill: #808080; stroke: #808080; stroke-width: 0.8"/>
      </g>
     </g>
     <g id="text_6">
      <!-- 7,500 -->
      <g style="fill: #808080" transform="translate(785.854287 199.206437)scale(0.1 -0.1)">
       <defs>
        <path id="DejaVuSans-37" d="M 525 4666 
L 3525 4666 
L 3525 4397 
L 1831 0 
L 1172 0 
L 2766 4134 
L 525 4134 
L 525 4666 
z
" transform="scale(0.015625)"/>
       </defs>
       <use xlink:href="#DejaVuSans-37"/>
       <use xlink:href="#DejaVuSans-2c" x="63.623047"/>
       <use xlink:href="#DejaVuSans-35" x="95.410156"/>
       <use xlink:href="#DejaVuSans-30" x="159.033203"/>
       <use xlink:href="#DejaVuSans-30" x="222.65625"/>
      </g>
     </g>
    </g>
    <g id="xtick_7">
     <g id="line2d_16">
      <g>
       <use xlink:href="#mffac06d82e" x="952.355702" y="184.608" style="fill: #808080; stroke: #808080; stroke-width: 0.8"/>
      </g>
     </g>
     <g id="text_7">
      <!-- 9,000 -->
      <g style="fill: #808080" transform="translate(938.041639 199.206437)scale(0.1 -0.1)">
       <defs>
        <path id="DejaVuSans-39" d="M 703 97 
L 703 672 
Q 941 559 1184 500 
Q 1428 441 1663 441 
Q 2288 441 2617 861 
Q 2947 1281 2994 2138 
Q 2813 1869 2534 1725 
Q 2256 1581 1919 1581 
Q 1219 1581 811 2004 
Q 403 2428 403 3163 
Q 403 3881 828 4315 
Q 1253 4750 1959 4750 
Q 2769 4750 3195 4129 
Q 3622 3509 3622 2328 
Q 3622 1225 3098 567 
Q 2575 -91 1691 -91 
Q 1453 -91 1209 -44 
Q 966 3 703 97 
z
M 1959 2075 
Q 2384 2075 2632 2365 
Q 2881 2656 2881 3163 
Q 2881 3666 2632 3958 
Q 2384 4250 1959 4250 
Q 1534 4250 1286 3958 
Q 1038 3666 1038 3163 
Q 1038 2656 1286 2365 
Q 1534 2075 1959 2075 
z
" transform="scale(0.015625)"/>
       </defs>
       <use xlink:href="#DejaVuSans-39"/>
       <use xlink:href="#DejaVuSans-2c" x="63.623047"/>
       <use xlink:href="#DejaVuSans-30" x="95.410156"/>
       <use xlink:href="#DejaVuSans-30" x="159.033203"/>
       <use xlink:href="#DejaVuSans-30" x="222.65625"/>
      </g>
     </g>
    </g>
    <g id="xtick_8">
     <g id="line2d_17">
      <g>
       <use xlink:href="#mffac06d82e" x="1104.543054" y="184.608" style="fill: #808080; stroke: #808080; stroke-width: 0.8"/>
      </g>
     </g>
     <g id="text_8">
      <!-- 10,500 -->
      <g style="fill: #808080" transform="translate(1087.047742 199.206437)scale(0.1 -0.1)">
       <use xlink:href="#DejaVuSans-31"/>
       <use xlink:href="#DejaVuSans-30" x="63.623047"/>
       <use xlink:href="#DejaVuSans-2c" x="127.246094"/>
       <use xlink:href="#DejaVuSans-35" x="159.033203"/>
       <use xlink:href="#DejaVuSans-30" x="222.65625"/>
       <use xlink:href="#DejaVuSans-30" x="286.279297"/>
      </g>
     </g>
    </g>
   </g>
   <g id="text_9">
    <g id="patch_11">
     <path d="M 1010.948692 140.253766 
L 1118.289786 140.253766 
Q 1121.589786 140.253766 1121.589786 136.953766 
L 1121.589786 113.990234 
Q 1121.589786 110.690234 1118.289786 110.690234 
L 1010.948692 110.690234 
Q 1007.648692 110.690234 1007.648692 113.990234 
L 1007.648692 136.953766 
Q 1007.648692 140.253766 1010.948692 140.253766 
z
" style="fill: #e9f4fb; stroke: #808080; stroke-linejoin: miter"/>
    </g>
    <!-- ABC transporter -->
    <g transform="translate(1020.533301 122.348516)scale(0.11 -0.11)">
     <defs>
      <path id="DejaVuSans-41" d="M 2188 4044 
L 1331 1722 
L 3047 1722 
L 2188 4044 
z
M 1831 4666 
L 2547 4666 
L 4325 0 
L 3669 0 
L 3244 1197 
L 1141 1197 
L 716 0 
L 50 0 
L 1831 4666 
z
" transform="scale(0.015625)"/>
      <path id="DejaVuSans-42" d="M 1259 2228 
L 1259 519 
L 2272 519 
Q 2781 519 3026 730 
Q 3272 941 3272 1375 
Q 3272 1813 3026 2020 
Q 2781 2228 2272 2228 
L 1259 2228 
z
M 1259 4147 
L 1259 2741 
L 2194 2741 
Q 2656 2741 2882 2914 
Q 3109 3088 3109 3444 
Q 3109 3797 2882 3972 
Q 2656 4147 2194 4147 
L 1259 4147 
z
M 628 4666 
L 2241 4666 
Q 2963 4666 3353 4366 
Q 3744 4066 3744 3513 
Q 3744 3084 3544 2831 
Q 3344 2578 2956 2516 
Q 3422 2416 3680 2098 
Q 3938 1781 3938 1306 
Q 3938 681 3513 340 
Q 3088 0 2303 0 
L 628 0 
L 628 4666 
z
" transform="scale(0.015625)"/>
      <path id="DejaVuSans-43" d="M 4122 4306 
L 4122 3641 
Q 3803 3938 3442 4084 
Q 3081 4231 2675 4231 
Q 1875 4231 1450 3742 
Q 1025 3253 1025 2328 
Q 1025 1406 1450 917 
Q 1875 428 2675 428 
Q 3081 428 3442 575 
Q 3803 722 4122 1019 
L 4122 359 
Q 3791 134 3420 21 
Q 3050 -91 2638 -91 
Q 1578 -91 968 557 
Q 359 1206 359 2328 
Q 359 3453 968 4101 
Q 1578 4750 2638 4750 
Q 3056 4750 3426 4639 
Q 3797 4528 4122 4306 
z
" transform="scale(0.015625)"/>
      <path id="DejaVuSans-20" transform="scale(0.015625)"/>
      <path id="DejaVuSans-74" d="M 1172 4494 
L 1172 3500 
L 2356 3500 
L 2356 3053 
L 1172 3053 
L 1172 1153 
Q 1172 725 1289 603 
Q 1406 481 1766 481 
L 2356 481 
L 2356 0 
L 1766 0 
Q 1100 0 847 248 
Q 594 497 594 1153 
L 594 3053 
L 172 3053 
L 172 3500 
L 594 3500 
L 594 4494 
L 1172 4494 
z
" transform="scale(0.015625)"/>
      <path id="DejaVuSans-72" d="M 2631 2963 
Q 2534 3019 2420 3045 
Q 2306 3072 2169 3072 
Q 1681 3072 1420 2755 
Q 1159 2438 1159 1844 
L 1159 0 
L 581 0 
L 581 3500 
L 1159 3500 
L 1159 2956 
Q 1341 3275 1631 3429 
Q 1922 3584 2338 3584 
Q 2397 3584 2469 3576 
Q 2541 3569 2628 3553 
L 2631 2963 
z
" transform="scale(0.015625)"/>
      <path id="DejaVuSans-61" d="M 2194 1759 
Q 1497 1759 1228 1600 
Q 959 1441 959 1056 
Q 959 750 1161 570 
Q 1363 391 1709 391 
Q 2188 391 2477 730 
Q 2766 1069 2766 1631 
L 2766 1759 
L 2194 1759 
z
M 3341 1997 
L 3341 0 
L 2766 0 
L 2766 531 
Q 2569 213 2275 61 
Q 1981 -91 1556 -91 
Q 1019 -91 701 211 
Q 384 513 384 1019 
Q 384 1609 779 1909 
Q 1175 2209 1959 2209 
L 2766 2209 
L 2766 2266 
Q 2766 2663 2505 2880 
Q 2244 3097 1772 3097 
Q 1472 3097 1187 3025 
Q 903 2953 641 2809 
L 641 3341 
Q 956 3463 1253 3523 
Q 1550 3584 1831 3584 
Q 2591 3584 2966 3190 
Q 3341 2797 3341 1997 
z
" transform="scale(0.015625)"/>
      <path id="DejaVuSans-6e" d="M 3513 2113 
L 3513 0 
L 2938 0 
L 2938 2094 
Q 2938 2591 2744 2837 
Q 2550 3084 2163 3084 
Q 1697 3084 1428 2787 
Q 1159 2491 1159 1978 
L 1159 0 
L 581 0 
L 581 3500 
L 1159 3500 
L 1159 2956 
Q 1366 3272 1645 3428 
Q 1925 3584 2291 3584 
Q 2894 3584 3203 3211 
Q 3513 2838 3513 2113 
z
" transform="scale(0.015625)"/>
      <path id="DejaVuSans-73" d="M 2834 3397 
L 2834 2853 
Q 2591 2978 2328 3040 
Q 2066 3103 1784 3103 
Q 1356 3103 1142 2972 
Q 928 2841 928 2578 
Q 928 2378 1081 2264 
Q 1234 2150 1697 2047 
L 1894 2003 
Q 2506 1872 2764 1633 
Q 3022 1394 3022 966 
Q 3022 478 2636 193 
Q 2250 -91 1575 -91 
Q 1294 -91 989 -36 
Q 684 19 347 128 
L 347 722 
Q 666 556 975 473 
Q 1284 391 1588 391 
Q 1994 391 2212 530 
Q 2431 669 2431 922 
Q 2431 1156 2273 1281 
Q 2116 1406 1581 1522 
L 1381 1569 
Q 847 1681 609 1914 
Q 372 2147 372 2553 
Q 372 3047 722 3315 
Q 1072 3584 1716 3584 
Q 2034 3584 2315 3537 
Q 2597 3491 2834 3397 
z
" transform="scale(0.015625)"/>
      <path id="DejaVuSans-70" d="M 1159 525 
L 1159 -1331 
L 581 -1331 
L 581 3500 
L 1159 3500 
L 1159 2969 
Q 1341 3281 1617 3432 
Q 1894 3584 2278 3584 
Q 2916 3584 3314 3078 
Q 3713 2572 3713 1747 
Q 3713 922 3314 415 
Q 2916 -91 2278 -91 
Q 1894 -91 1617 61 
Q 1341 213 1159 525 
z
M 3116 1747 
Q 3116 2381 2855 2742 
Q 2594 3103 2138 3103 
Q 1681 3103 1420 2742 
Q 1159 2381 1159 1747 
Q 1159 1113 1420 752 
Q 1681 391 2138 391 
Q 2594 391 2855 752 
Q 3116 1113 3116 1747 
z
" transform="scale(0.015625)"/>
      <path id="DejaVuSans-6f" d="M 1959 3097 
Q 1497 3097 1228 2736 
Q 959 2375 959 1747 
Q 959 1119 1226 758 
Q 1494 397 1959 397 
Q 2419 397 2687 759 
Q 2956 1122 2956 1747 
Q 2956 2369 2687 2733 
Q 2419 3097 1959 3097 
z
M 1959 3584 
Q 2709 3584 3137 3096 
Q 3566 2609 3566 1747 
Q 3566 888 3137 398 
Q 2709 -91 1959 -91 
Q 1206 -91 779 398 
Q 353 888 353 1747 
Q 353 2609 779 3096 
Q 1206 3584 1959 3584 
z
" transform="scale(0.015625)"/>
      <path id="DejaVuSans-65" d="M 3597 1894 
L 3597 1613 
L 953 1613 
Q 991 1019 1311 708 
Q 1631 397 2203 397 
Q 2534 397 2845 478 
Q 3156 559 3463 722 
L 3463 178 
Q 3153 47 2828 -22 
Q 2503 -91 2169 -91 
Q 1331 -91 842 396 
Q 353 884 353 1716 
Q 353 2575 817 3079 
Q 1281 3584 2069 3584 
Q 2775 3584 3186 3129 
Q 3597 2675 3597 1894 
z
M 3022 2063 
Q 3016 2534 2758 2815 
Q 2500 3097 2075 3097 
Q 1594 3097 1305 2825 
Q 1016 2553 972 2059 
L 3022 2063 
z
" transform="scale(0.015625)"/>
     </defs>
     <use xlink:href="#DejaVuSans-41"/>
     <use xlink:href="#DejaVuSans-42" x="68.408203"/>
     <use xlink:href="#DejaVuSans-43" x="135.261719"/>
     <use xlink:href="#DejaVuSans-20" x="205.085938"/>
     <use xlink:href="#DejaVuSans-74" x="236.873047"/>
     <use xlink:href="#DejaVuSans-72" x="276.082031"/>
     <use xlink:href="#DejaVuSans-61" x="317.195312"/>
     <use xlink:href="#DejaVuSans-6e" x="378.474609"/>
     <use xlink:href="#DejaVuSans-73" x="441.853516"/>
     <use xlink:href="#DejaVuSans-70" x="493.953125"/>
     <use xlink:href="#DejaVuSans-6f" x="557.429688"/>
     <use xlink:href="#DejaVuSans-72" x="618.611328"/>
     <use xlink:href="#DejaVuSans-74" x="659.724609"/>
     <use xlink:href="#DejaVuSans-65" x="698.933594"/>
     <use xlink:href="#DejaVuSans-72" x="760.457031"/>
    </g>
    <!-- ATP-binding protein -->
    <g transform="translate(1010.948692 134.666109)scale(0.11 -0.11)">
     <defs>
      <path id="DejaVuSans-54" d="M -19 4666 
L 3928 4666 
L 3928 4134 
L 2272 4134 
L 2272 0 
L 1638 0 
L 1638 4134 
L -19 4134 
L -19 4666 
z
" transform="scale(0.015625)"/>
      <path id="DejaVuSans-50" d="M 1259 4147 
L 1259 2394 
L 2053 2394 
Q 2494 2394 2734 2622 
Q 2975 2850 2975 3272 
Q 2975 3691 2734 3919 
Q 2494 4147 2053 4147 
L 1259 4147 
z
M 628 4666 
L 2053 4666 
Q 2838 4666 3239 4311 
Q 3641 3956 3641 3272 
Q 3641 2581 3239 2228 
Q 2838 1875 2053 1875 
L 1259 1875 
L 1259 0 
L 628 0 
L 628 4666 
z
" transform="scale(0.015625)"/>
      <path id="DejaVuSans-2d" d="M 313 2009 
L 1997 2009 
L 1997 1497 
L 313 1497 
L 313 2009 
z
" transform="scale(0.015625)"/>
      <path id="DejaVuSans-62" d="M 3116 1747 
Q 3116 2381 2855 2742 
Q 2594 3103 2138 3103 
Q 1681 3103 1420 2742 
Q 1159 2381 1159 1747 
Q 1159 1113 1420 752 
Q 1681 391 2138 391 
Q 2594 391 2855 752 
Q 3116 1113 3116 1747 
z
M 1159 2969 
Q 1341 3281 1617 3432 
Q 1894 3584 2278 3584 
Q 2916 3584 3314 3078 
Q 3713 2572 3713 1747 
Q 3713 922 3314 415 
Q 2916 -91 2278 -91 
Q 1894 -91 1617 61 
Q 1341 213 1159 525 
L 1159 0 
L 581 0 
L 581 4863 
L 1159 4863 
L 1159 2969 
z
" transform="scale(0.015625)"/>
      <path id="DejaVuSans-69" d="M 603 3500 
L 1178 3500 
L 1178 0 
L 603 0 
L 603 3500 
z
M 603 4863 
L 1178 4863 
L 1178 4134 
L 603 4134 
L 603 4863 
z
" transform="scale(0.015625)"/>
      <path id="DejaVuSans-64" d="M 2906 2969 
L 2906 4863 
L 3481 4863 
L 3481 0 
L 2906 0 
L 2906 525 
Q 2725 213 2448 61 
Q 2172 -91 1784 -91 
Q 1150 -91 751 415 
Q 353 922 353 1747 
Q 353 2572 751 3078 
Q 1150 3584 1784 3584 
Q 2172 3584 2448 3432 
Q 2725 3281 2906 2969 
z
M 947 1747 
Q 947 1113 1208 752 
Q 1469 391 1925 391 
Q 2381 391 2643 752 
Q 2906 1113 2906 1747 
Q 2906 2381 2643 2742 
Q 2381 3103 1925 3103 
Q 1469 3103 1208 2742 
Q 947 2381 947 1747 
z
" transform="scale(0.015625)"/>
      <path id="DejaVuSans-67" d="M 2906 1791 
Q 2906 2416 2648 2759 
Q 2391 3103 1925 3103 
Q 1463 3103 1205 2759 
Q 947 2416 947 1791 
Q 947 1169 1205 825 
Q 1463 481 1925 481 
Q 2391 481 2648 825 
Q 2906 1169 2906 1791 
z
M 3481 434 
Q 3481 -459 3084 -895 
Q 2688 -1331 1869 -1331 
Q 1566 -1331 1297 -1286 
Q 1028 -1241 775 -1147 
L 775 -588 
Q 1028 -725 1275 -790 
Q 1522 -856 1778 -856 
Q 2344 -856 2625 -561 
Q 2906 -266 2906 331 
L 2906 616 
Q 2728 306 2450 153 
Q 2172 0 1784 0 
Q 1141 0 747 490 
Q 353 981 353 1791 
Q 353 2603 747 3093 
Q 1141 3584 1784 3584 
Q 2172 3584 2450 3431 
Q 2728 3278 2906 2969 
L 2906 3500 
L 3481 3500 
L 3481 434 
z
" transform="scale(0.015625)"/>
     </defs>
     <use xlink:href="#DejaVuSans-41"/>
     <use xlink:href="#DejaVuSans-54" x="60.658203"/>
     <use xlink:href="#DejaVuSans-50" x="121.742188"/>
     <use xlink:href="#DejaVuSans-2d" x="179.794922"/>
     <use xlink:href="#DejaVuSans-62" x="215.878906"/>
     <use xlink:href="#DejaVuSans-69" x="279.355469"/>
     <use xlink:href="#DejaVuSans-6e" x="307.138672"/>
     <use xlink:href="#DejaVuSans-64" x="370.517578"/>
     <use xlink:href="#DejaVuSans-69" x="433.994141"/>
     <use xlink:href="#DejaVuSans-6e" x="461.777344"/>
     <use xlink:href="#DejaVuSans-67" x="525.15625"/>
     <use xlink:href="#DejaVuSans-20" x="588.632812"/>
     <use xlink:href="#DejaVuSans-70" x="620.419922"/>
     <use xlink:href="#DejaVuSans-72" x="683.896484"/>
     <use xlink:href="#DejaVuSans-6f" x="722.759766"/>
     <use xlink:href="#DejaVuSans-74" x="783.941406"/>
     <use xlink:href="#DejaVuSans-65" x="823.150391"/>
     <use xlink:href="#DejaVuSans-69" x="884.673828"/>
     <use xlink:href="#DejaVuSans-6e" x="912.457031"/>
    </g>
   </g>
   <g id="text_10">
    <g id="patch_12">
     <path d="M 832.230011 110.685766 
L 939.571105 110.685766 
Q 942.871105 110.685766 942.871105 107.385766 
L 942.871105 84.422234 
Q 942.871105 81.122234 939.571105 81.122234 
L 832.230011 81.122234 
Q 828.930011 81.122234 828.930011 84.422234 
L 828.930011 107.385766 
Q 828.930011 110.685766 832.230011 110.685766 
z
" style="fill: #e9f4fb; stroke: #808080; stroke-linejoin: miter"/>
    </g>
    <!-- ABC transporter -->
    <g transform="translate(841.814621 92.780516)scale(0.11 -0.11)">
     <use xlink:href="#DejaVuSans-41"/>
     <use xlink:href="#DejaVuSans-42" x="68.408203"/>
     <use xlink:href="#DejaVuSans-43" x="135.261719"/>
     <use xlink:href="#DejaVuSans-20" x="205.085938"/>
     <use xlink:href="#DejaVuSans-74" x="236.873047"/>
     <use xlink:href="#DejaVuSans-72" x="276.082031"/>
     <use xlink:href="#DejaVuSans-61" x="317.195312"/>
     <use xlink:href="#DejaVuSans-6e" x="378.474609"/>
     <use xlink:href="#DejaVuSans-73" x="441.853516"/>
     <use xlink:href="#DejaVuSans-70" x="493.953125"/>
     <use xlink:href="#DejaVuSans-6f" x="557.429688"/>
     <use xlink:href="#DejaVuSans-72" x="618.611328"/>
     <use xlink:href="#DejaVuSans-74" x="659.724609"/>
     <use xlink:href="#DejaVuSans-65" x="698.933594"/>
     <use xlink:href="#DejaVuSans-72" x="760.457031"/>
    </g>
    <!-- ATP-binding protein -->
    <g transform="translate(832.230011 105.098109)scale(0.11 -0.11)">
     <use xlink:href="#DejaVuSans-41"/>
     <use xlink:href="#DejaVuSans-54" x="60.658203"/>
     <use xlink:href="#DejaVuSans-50" x="121.742188"/>
     <use xlink:href="#DejaVuSans-2d" x="179.794922"/>
     <use xlink:href="#DejaVuSans-62" x="215.878906"/>
     <use xlink:href="#DejaVuSans-69" x="279.355469"/>
     <use xlink:href="#DejaVuSans-6e" x="307.138672"/>
     <use xlink:href="#DejaVuSans-64" x="370.517578"/>
     <use xlink:href="#DejaVuSans-69" x="433.994141"/>
     <use xlink:href="#DejaVuSans-6e" x="461.777344"/>
     <use xlink:href="#DejaVuSans-67" x="525.15625"/>
     <use xlink:href="#DejaVuSans-20" x="588.632812"/>
     <use xlink:href="#DejaVuSans-70" x="620.419922"/>
     <use xlink:href="#DejaVuSans-72" x="683.896484"/>
     <use xlink:href="#DejaVuSans-6f" x="722.759766"/>
     <use xlink:href="#DejaVuSans-74" x="783.941406"/>
     <use xlink:href="#DejaVuSans-65" x="823.150391"/>
     <use xlink:href="#DejaVuSans-69" x="884.673828"/>
     <use xlink:href="#DejaVuSans-6e" x="912.457031"/>
    </g>
   </g>
   <g id="text_11">
    <g id="patch_13">
     <path d="M 363.34987 119.310969 
L 519.575651 119.310969 
Q 522.875651 119.310969 522.875651 116.010969 
L 522.875651 105.365031 
Q 522.875651 102.065031 519.575651 102.065031 
L 363.34987 102.065031 
Q 360.04987 102.065031 360.04987 105.365031 
L 360.04987 116.010969 
Q 360.04987 119.310969 363.34987 119.310969 
z
" style="fill: #e9f4fb; stroke: #808080; stroke-linejoin: miter"/>
    </g>
    <!-- CocE/NonD family hydrolase -->
    <g transform="translate(363.34987 113.723312)scale(0.11 -0.11)">
     <defs>
      <path id="DejaVuSans-63" d="M 3122 3366 
L 3122 2828 
Q 2878 2963 2633 3030 
Q 2388 3097 2138 3097 
Q 1578 3097 1268 2742 
Q 959 2388 959 1747 
Q 959 1106 1268 751 
Q 1578 397 2138 397 
Q 2388 397 2633 464 
Q 2878 531 3122 666 
L 3122 134 
Q 2881 22 2623 -34 
Q 2366 -91 2075 -91 
Q 1284 -91 818 406 
Q 353 903 353 1747 
Q 353 2603 823 3093 
Q 1294 3584 2113 3584 
Q 2378 3584 2631 3529 
Q 2884 3475 3122 3366 
z
" transform="scale(0.015625)"/>
      <path id="DejaVuSans-45" d="M 628 4666 
L 3578 4666 
L 3578 4134 
L 1259 4134 
L 1259 2753 
L 3481 2753 
L 3481 2222 
L 1259 2222 
L 1259 531 
L 3634 531 
L 3634 0 
L 628 0 
L 628 4666 
z
" transform="scale(0.015625)"/>
      <path id="DejaVuSans-2f" d="M 1625 4666 
L 2156 4666 
L 531 -594 
L 0 -594 
L 1625 4666 
z
" transform="scale(0.015625)"/>
      <path id="DejaVuSans-4e" d="M 628 4666 
L 1478 4666 
L 3547 763 
L 3547 4666 
L 4159 4666 
L 4159 0 
L 3309 0 
L 1241 3903 
L 1241 0 
L 628 0 
L 628 4666 
z
" transform="scale(0.015625)"/>
      <path id="DejaVuSans-44" d="M 1259 4147 
L 1259 519 
L 2022 519 
Q 2988 519 3436 956 
Q 3884 1394 3884 2338 
Q 3884 3275 3436 3711 
Q 2988 4147 2022 4147 
L 1259 4147 
z
M 628 4666 
L 1925 4666 
Q 3281 4666 3915 4102 
Q 4550 3538 4550 2338 
Q 4550 1131 3912 565 
Q 3275 0 1925 0 
L 628 0 
L 628 4666 
z
" transform="scale(0.015625)"/>
      <path id="DejaVuSans-66" d="M 2375 4863 
L 2375 4384 
L 1825 4384 
Q 1516 4384 1395 4259 
Q 1275 4134 1275 3809 
L 1275 3500 
L 2222 3500 
L 2222 3053 
L 1275 3053 
L 1275 0 
L 697 0 
L 697 3053 
L 147 3053 
L 147 3500 
L 697 3500 
L 697 3744 
Q 697 4328 969 4595 
Q 1241 4863 1831 4863 
L 2375 4863 
z
" transform="scale(0.015625)"/>
      <path id="DejaVuSans-6d" d="M 3328 2828 
Q 3544 3216 3844 3400 
Q 4144 3584 4550 3584 
Q 5097 3584 5394 3201 
Q 5691 2819 5691 2113 
L 5691 0 
L 5113 0 
L 5113 2094 
Q 5113 2597 4934 2840 
Q 4756 3084 4391 3084 
Q 3944 3084 3684 2787 
Q 3425 2491 3425 1978 
L 3425 0 
L 2847 0 
L 2847 2094 
Q 2847 2600 2669 2842 
Q 2491 3084 2119 3084 
Q 1678 3084 1418 2786 
Q 1159 2488 1159 1978 
L 1159 0 
L 581 0 
L 581 3500 
L 1159 3500 
L 1159 2956 
Q 1356 3278 1631 3431 
Q 1906 3584 2284 3584 
Q 2666 3584 2933 3390 
Q 3200 3197 3328 2828 
z
" transform="scale(0.015625)"/>
      <path id="DejaVuSans-6c" d="M 603 4863 
L 1178 4863 
L 1178 0 
L 603 0 
L 603 4863 
z
" transform="scale(0.015625)"/>
      <path id="DejaVuSans-79" d="M 2059 -325 
Q 1816 -950 1584 -1140 
Q 1353 -1331 966 -1331 
L 506 -1331 
L 506 -850 
L 844 -850 
Q 1081 -850 1212 -737 
Q 1344 -625 1503 -206 
L 1606 56 
L 191 3500 
L 800 3500 
L 1894 763 
L 2988 3500 
L 3597 3500 
L 2059 -325 
z
" transform="scale(0.015625)"/>
      <path id="DejaVuSans-68" d="M 3513 2113 
L 3513 0 
L 2938 0 
L 2938 2094 
Q 2938 2591 2744 2837 
Q 2550 3084 2163 3084 
Q 1697 3084 1428 2787 
Q 1159 2491 1159 1978 
L 1159 0 
L 581 0 
L 581 4863 
L 1159 4863 
L 1159 2956 
Q 1366 3272 1645 3428 
Q 1925 3584 2291 3584 
Q 2894 3584 3203 3211 
Q 3513 2838 3513 2113 
z
" transform="scale(0.015625)"/>
     </defs>
     <use xlink:href="#DejaVuSans-43"/>
     <use xlink:href="#DejaVuSans-6f" x="69.824219"/>
     <use xlink:href="#DejaVuSans-63" x="131.005859"/>
     <use xlink:href="#DejaVuSans-45" x="185.986328"/>
     <use xlink:href="#DejaVuSans-2f" x="249.169922"/>
     <use xlink:href="#DejaVuSans-4e" x="282.861328"/>
     <use xlink:href="#DejaVuSans-6f" x="357.666016"/>
     <use xlink:href="#DejaVuSans-6e" x="418.847656"/>
     <use xlink:href="#DejaVuSans-44" x="482.226562"/>
     <use xlink:href="#DejaVuSans-20" x="559.228516"/>
     <use xlink:href="#DejaVuSans-66" x="591.015625"/>
     <use xlink:href="#DejaVuSans-61" x="626.220703"/>
     <use xlink:href="#DejaVuSans-6d" x="687.5"/>
     <use xlink:href="#DejaVuSans-69" x="784.912109"/>
     <use xlink:href="#DejaVuSans-6c" x="812.695312"/>
     <use xlink:href="#DejaVuSans-79" x="840.478516"/>
     <use xlink:href="#DejaVuSans-20" x="899.658203"/>
     <use xlink:href="#DejaVuSans-68" x="931.445312"/>
     <use xlink:href="#DejaVuSans-79" x="994.824219"/>
     <use xlink:href="#DejaVuSans-64" x="1054.003906"/>
     <use xlink:href="#DejaVuSans-72" x="1117.480469"/>
     <use xlink:href="#DejaVuSans-6f" x="1156.34375"/>
     <use xlink:href="#DejaVuSans-6c" x="1217.525391"/>
     <use xlink:href="#DejaVuSans-61" x="1245.308594"/>
     <use xlink:href="#DejaVuSans-73" x="1306.587891"/>
     <use xlink:href="#DejaVuSans-65" x="1358.6875"/>
    </g>
   </g>
   <g id="text_12">
    <g id="patch_14">
     <path d="M 522.253738 89.742969 
L 653.581707 89.742969 
Q 656.881707 89.742969 656.881707 86.442969 
L 656.881707 75.797031 
Q 656.881707 72.497031 653.581707 72.497031 
L 522.253738 72.497031 
Q 518.953738 72.497031 518.953738 75.797031 
L 518.953738 86.442969 
Q 518.953738 89.742969 522.253738 89.742969 
z
" style="fill: #e9f4fb; stroke: #808080; stroke-linejoin: miter"/>
    </g>
    <!-- YcaO-like family protein -->
    <g transform="translate(522.253738 84.155312)scale(0.11 -0.11)">
     <defs>
      <path id="DejaVuSans-59" d="M -13 4666 
L 666 4666 
L 1959 2747 
L 3244 4666 
L 3922 4666 
L 2272 2222 
L 2272 0 
L 1638 0 
L 1638 2222 
L -13 4666 
z
" transform="scale(0.015625)"/>
      <path id="DejaVuSans-4f" d="M 2522 4238 
Q 1834 4238 1429 3725 
Q 1025 3213 1025 2328 
Q 1025 1447 1429 934 
Q 1834 422 2522 422 
Q 3209 422 3611 934 
Q 4013 1447 4013 2328 
Q 4013 3213 3611 3725 
Q 3209 4238 2522 4238 
z
M 2522 4750 
Q 3503 4750 4090 4092 
Q 4678 3434 4678 2328 
Q 4678 1225 4090 567 
Q 3503 -91 2522 -91 
Q 1538 -91 948 565 
Q 359 1222 359 2328 
Q 359 3434 948 4092 
Q 1538 4750 2522 4750 
z
" transform="scale(0.015625)"/>
      <path id="DejaVuSans-6b" d="M 581 4863 
L 1159 4863 
L 1159 1991 
L 2875 3500 
L 3609 3500 
L 1753 1863 
L 3688 0 
L 2938 0 
L 1159 1709 
L 1159 0 
L 581 0 
L 581 4863 
z
" transform="scale(0.015625)"/>
     </defs>
     <use xlink:href="#DejaVuSans-59"/>
     <use xlink:href="#DejaVuSans-63" x="61.083984"/>
     <use xlink:href="#DejaVuSans-61" x="116.064453"/>
     <use xlink:href="#DejaVuSans-4f" x="177.34375"/>
     <use xlink:href="#DejaVuSans-2d" x="258.804688"/>
     <use xlink:href="#DejaVuSans-6c" x="294.888672"/>
     <use xlink:href="#DejaVuSans-69" x="322.671875"/>
     <use xlink:href="#DejaVuSans-6b" x="350.455078"/>
     <use xlink:href="#DejaVuSans-65" x="404.740234"/>
     <use xlink:href="#DejaVuSans-20" x="466.263672"/>
     <use xlink:href="#DejaVuSans-66" x="498.050781"/>
     <use xlink:href="#DejaVuSans-61" x="533.255859"/>
     <use xlink:href="#DejaVuSans-6d" x="594.535156"/>
     <use xlink:href="#DejaVuSans-69" x="691.947266"/>
     <use xlink:href="#DejaVuSans-6c" x="719.730469"/>
     <use xlink:href="#DejaVuSans-79" x="747.513672"/>
     <use xlink:href="#DejaVuSans-20" x="806.693359"/>
     <use xlink:href="#DejaVuSans-70" x="838.480469"/>
     <use xlink:href="#DejaVuSans-72" x="901.957031"/>
     <use xlink:href="#DejaVuSans-6f" x="940.820312"/>
     <use xlink:href="#DejaVuSans-74" x="1002.001953"/>
     <use xlink:href="#DejaVuSans-65" x="1041.210938"/>
     <use xlink:href="#DejaVuSans-69" x="1102.734375"/>
     <use xlink:href="#DejaVuSans-6e" x="1130.517578"/>
    </g>
   </g>
   <g id="text_13">
    <!-- nitroreductase -->
    <g style="fill: #ffffff" transform="translate(685.118006 172.859312)scale(0.11 -0.11)">
     <defs>
      <path id="DejaVuSans-75" d="M 544 1381 
L 544 3500 
L 1119 3500 
L 1119 1403 
Q 1119 906 1312 657 
Q 1506 409 1894 409 
Q 2359 409 2629 706 
Q 2900 1003 2900 1516 
L 2900 3500 
L 3475 3500 
L 3475 0 
L 2900 0 
L 2900 538 
Q 2691 219 2414 64 
Q 2138 -91 1772 -91 
Q 1169 -91 856 284 
Q 544 659 544 1381 
z
M 1991 3584 
L 1991 3584 
z
" transform="scale(0.015625)"/>
     </defs>
     <use xlink:href="#DejaVuSans-6e"/>
     <use xlink:href="#DejaVuSans-69" x="63.378906"/>
     <use xlink:href="#DejaVuSans-74" x="91.162109"/>
     <use xlink:href="#DejaVuSans-72" x="130.371094"/>
     <use xlink:href="#DejaVuSans-6f" x="169.234375"/>
     <use xlink:href="#DejaVuSans-72" x="230.416016"/>
     <use xlink:href="#DejaVuSans-65" x="269.279297"/>
     <use xlink:href="#DejaVuSans-64" x="330.802734"/>
     <use xlink:href="#DejaVuSans-75" x="394.279297"/>
     <use xlink:href="#DejaVuSans-63" x="457.658203"/>
     <use xlink:href="#DejaVuSans-74" x="512.638672"/>
     <use xlink:href="#DejaVuSans-61" x="551.847656"/>
     <use xlink:href="#DejaVuSans-73" x="613.126953"/>
     <use xlink:href="#DejaVuSans-65" x="665.226562"/>
    </g>
   </g>
   <g id="text_14">
    <g id="patch_15">
     <path d="M 7.2 148.878969 
L 178.200156 148.878969 
Q 181.500156 148.878969 181.500156 145.578969 
L 181.500156 134.933031 
Q 181.500156 131.633031 178.200156 131.633031 
L 7.2 131.633031 
Q 3.9 131.633031 3.9 134.933031 
L 3.9 145.578969 
Q 3.9 148.878969 7.2 148.878969 
z
" style="fill: #e9f4fb; stroke: #808080; stroke-linejoin: miter"/>
    </g>
    <!-- iron ABC transporter permease -->
    <g transform="translate(7.2 143.291313)scale(0.11 -0.11)">
     <use xlink:href="#DejaVuSans-69"/>
     <use xlink:href="#DejaVuSans-72" x="27.783203"/>
     <use xlink:href="#DejaVuSans-6f" x="66.646484"/>
     <use xlink:href="#DejaVuSans-6e" x="127.828125"/>
     <use xlink:href="#DejaVuSans-20" x="191.207031"/>
     <use xlink:href="#DejaVuSans-41" x="222.994141"/>
     <use xlink:href="#DejaVuSans-42" x="291.402344"/>
     <use xlink:href="#DejaVuSans-43" x="358.255859"/>
     <use xlink:href="#DejaVuSans-20" x="428.080078"/>
     <use xlink:href="#DejaVuSans-74" x="459.867188"/>
     <use xlink:href="#DejaVuSans-72" x="499.076172"/>
     <use xlink:href="#DejaVuSans-61" x="540.189453"/>
     <use xlink:href="#DejaVuSans-6e" x="601.46875"/>
     <use xlink:href="#DejaVuSans-73" x="664.847656"/>
     <use xlink:href="#DejaVuSans-70" x="716.947266"/>
     <use xlink:href="#DejaVuSans-6f" x="780.423828"/>
     <use xlink:href="#DejaVuSans-72" x="841.605469"/>
     <use xlink:href="#DejaVuSans-74" x="882.71875"/>
     <use xlink:href="#DejaVuSans-65" x="921.927734"/>
     <use xlink:href="#DejaVuSans-72" x="983.451172"/>
     <use xlink:href="#DejaVuSans-20" x="1024.564453"/>
     <use xlink:href="#DejaVuSans-70" x="1056.351562"/>
     <use xlink:href="#DejaVuSans-65" x="1119.828125"/>
     <use xlink:href="#DejaVuSans-72" x="1181.351562"/>
     <use xlink:href="#DejaVuSans-6d" x="1220.714844"/>
     <use xlink:href="#DejaVuSans-65" x="1318.126953"/>
     <use xlink:href="#DejaVuSans-61" x="1379.650391"/>
     <use xlink:href="#DejaVuSans-73" x="1440.929688"/>
     <use xlink:href="#DejaVuSans-65" x="1493.029297"/>
    </g>
   </g>
   <g id="text_15">
    <g id="patch_16">
     <path d="M 265.961601 89.742969 
L 377.015195 89.742969 
Q 380.315195 89.742969 380.315195 86.442969 
L 380.315195 75.797031 
Q 380.315195 72.497031 377.015195 72.497031 
L 265.961601 72.497031 
Q 262.661601 72.497031 262.661601 75.797031 
L 262.661601 86.442969 
Q 262.661601 89.742969 265.961601 89.742969 
z
" style="fill: #e9f4fb; stroke: #808080; stroke-linejoin: miter"/>
    </g>
    <!-- hypothetical protein -->
    <g transform="translate(265.961601 84.155312)scale(0.11 -0.11)">
     <use xlink:href="#DejaVuSans-68"/>
     <use xlink:href="#DejaVuSans-79" x="63.378906"/>
     <use xlink:href="#DejaVuSans-70" x="122.558594"/>
     <use xlink:href="#DejaVuSans-6f" x="186.035156"/>
     <use xlink:href="#DejaVuSans-74" x="247.216797"/>
     <use xlink:href="#DejaVuSans-68" x="286.425781"/>
     <use xlink:href="#DejaVuSans-65" x="349.804688"/>
     <use xlink:href="#DejaVuSans-74" x="411.328125"/>
     <use xlink:href="#DejaVuSans-69" x="450.537109"/>
     <use xlink:href="#DejaVuSans-63" x="478.320312"/>
     <use xlink:href="#DejaVuSans-61" x="533.300781"/>
     <use xlink:href="#DejaVuSans-6c" x="594.580078"/>
     <use xlink:href="#DejaVuSans-20" x="622.363281"/>
     <use xlink:href="#DejaVuSans-70" x="654.150391"/>
     <use xlink:href="#DejaVuSans-72" x="717.626953"/>
     <use xlink:href="#DejaVuSans-6f" x="756.490234"/>
     <use xlink:href="#DejaVuSans-74" x="817.671875"/>
     <use xlink:href="#DejaVuSans-65" x="856.880859"/>
     <use xlink:href="#DejaVuSans-69" x="918.404297"/>
     <use xlink:href="#DejaVuSans-6e" x="946.1875"/>
    </g>
   </g>
   <g id="text_16">
    <g id="patch_17">
     <path d="M 147.437655 51.549766 
L 254.778749 51.549766 
Q 258.078749 51.549766 258.078749 48.249766 
L 258.078749 25.286234 
Q 258.078749 21.986234 254.778749 21.986234 
L 147.437655 21.986234 
Q 144.137655 21.986234 144.137655 25.286234 
L 144.137655 48.249766 
Q 144.137655 51.549766 147.437655 51.549766 
z
" style="fill: #e9f4fb; stroke: #808080; stroke-linejoin: miter"/>
    </g>
    <!-- ABC transporter -->
    <g transform="translate(157.022265 33.644516)scale(0.11 -0.11)">
     <use xlink:href="#DejaVuSans-41"/>
     <use xlink:href="#DejaVuSans-42" x="68.408203"/>
     <use xlink:href="#DejaVuSans-43" x="135.261719"/>
     <use xlink:href="#DejaVuSans-20" x="205.085938"/>
     <use xlink:href="#DejaVuSans-74" x="236.873047"/>
     <use xlink:href="#DejaVuSans-72" x="276.082031"/>
     <use xlink:href="#DejaVuSans-61" x="317.195312"/>
     <use xlink:href="#DejaVuSans-6e" x="378.474609"/>
     <use xlink:href="#DejaVuSans-73" x="441.853516"/>
     <use xlink:href="#DejaVuSans-70" x="493.953125"/>
     <use xlink:href="#DejaVuSans-6f" x="557.429688"/>
     <use xlink:href="#DejaVuSans-72" x="618.611328"/>
     <use xlink:href="#DejaVuSans-74" x="659.724609"/>
     <use xlink:href="#DejaVuSans-65" x="698.933594"/>
     <use xlink:href="#DejaVuSans-72" x="760.457031"/>
    </g>
    <!-- ATP-binding protein -->
    <g transform="translate(147.437655 45.962109)scale(0.11 -0.11)">
     <use xlink:href="#DejaVuSans-41"/>
     <use xlink:href="#DejaVuSans-54" x="60.658203"/>
     <use xlink:href="#DejaVuSans-50" x="121.742188"/>
     <use xlink:href="#DejaVuSans-2d" x="179.794922"/>
     <use xlink:href="#DejaVuSans-62" x="215.878906"/>
     <use xlink:href="#DejaVuSans-69" x="279.355469"/>
     <use xlink:href="#DejaVuSans-6e" x="307.138672"/>
     <use xlink:href="#DejaVuSans-64" x="370.517578"/>
     <use xlink:href="#DejaVuSans-69" x="433.994141"/>
     <use xlink:href="#DejaVuSans-6e" x="461.777344"/>
     <use xlink:href="#DejaVuSans-67" x="525.15625"/>
     <use xlink:href="#DejaVuSans-20" x="588.632812"/>
     <use xlink:href="#DejaVuSans-70" x="620.419922"/>
     <use xlink:href="#DejaVuSans-72" x="683.896484"/>
     <use xlink:href="#DejaVuSans-6f" x="722.759766"/>
     <use xlink:href="#DejaVuSans-74" x="783.941406"/>
     <use xlink:href="#DejaVuSans-65" x="823.150391"/>
     <use xlink:href="#DejaVuSans-69" x="884.673828"/>
     <use xlink:href="#DejaVuSans-6e" x="912.457031"/>
    </g>
   </g>
   <g id="text_17">
    <g id="patch_18">
     <path d="M 186.526767 119.310969 
L 328.105361 119.310969 
Q 331.405361 119.310969 331.405361 116.010969 
L 331.405361 105.365031 
Q 331.405361 102.065031 328.105361 102.065031 
L 186.526767 102.065031 
Q 183.226767 102.065031 183.226767 105.365031 
L 183.226767 116.010969 
Q 183.226767 119.310969 186.526767 119.310969 
z
" style="fill: #fff1e5; stroke: #808080; stroke-linejoin: miter"/>
    </g>
    <!-- streptamidine family RiPP -->
    <g transform="translate(186.526767 113.723312)scale(0.11 -0.11)">
     <defs>
      <path id="DejaVuSans-52" d="M 2841 2188 
Q 3044 2119 3236 1894 
Q 3428 1669 3622 1275 
L 4263 0 
L 3584 0 
L 2988 1197 
Q 2756 1666 2539 1819 
Q 2322 1972 1947 1972 
L 1259 1972 
L 1259 0 
L 628 0 
L 628 4666 
L 2053 4666 
Q 2853 4666 3247 4331 
Q 3641 3997 3641 3322 
Q 3641 2881 3436 2590 
Q 3231 2300 2841 2188 
z
M 1259 4147 
L 1259 2491 
L 2053 2491 
Q 2509 2491 2742 2702 
Q 2975 2913 2975 3322 
Q 2975 3731 2742 3939 
Q 2509 4147 2053 4147 
L 1259 4147 
z
" transform="scale(0.015625)"/>
     </defs>
     <use xlink:href="#DejaVuSans-73"/>
     <use xlink:href="#DejaVuSans-74" x="52.099609"/>
     <use xlink:href="#DejaVuSans-72" x="91.308594"/>
     <use xlink:href="#DejaVuSans-65" x="130.171875"/>
     <use xlink:href="#DejaVuSans-70" x="191.695312"/>
     <use xlink:href="#DejaVuSans-74" x="255.171875"/>
     <use xlink:href="#DejaVuSans-61" x="294.380859"/>
     <use xlink:href="#DejaVuSans-6d" x="355.660156"/>
     <use xlink:href="#DejaVuSans-69" x="453.072266"/>
     <use xlink:href="#DejaVuSans-64" x="480.855469"/>
     <use xlink:href="#DejaVuSans-69" x="544.332031"/>
     <use xlink:href="#DejaVuSans-6e" x="572.115234"/>
     <use xlink:href="#DejaVuSans-65" x="635.494141"/>
     <use xlink:href="#DejaVuSans-20" x="697.017578"/>
     <use xlink:href="#DejaVuSans-66" x="728.804688"/>
     <use xlink:href="#DejaVuSans-61" x="764.009766"/>
     <use xlink:href="#DejaVuSans-6d" x="825.289062"/>
     <use xlink:href="#DejaVuSans-69" x="922.701172"/>
     <use xlink:href="#DejaVuSans-6c" x="950.484375"/>
     <use xlink:href="#DejaVuSans-79" x="978.267578"/>
     <use xlink:href="#DejaVuSans-20" x="1037.447266"/>
     <use xlink:href="#DejaVuSans-52" x="1069.234375"/>
     <use xlink:href="#DejaVuSans-69" x="1138.716797"/>
     <use xlink:href="#DejaVuSans-50" x="1166.5"/>
     <use xlink:href="#DejaVuSans-50" x="1226.802734"/>
    </g>
   </g>
   <g id="legend_1">
    <g id="patch_19">
     <path d="M 1217.950422 44.55625 
L 1467.812922 44.55625 
Q 1469.812922 44.55625 1469.812922 42.55625 
L 1469.812922 14.2 
Q 1469.812922 12.2 1467.812922 12.2 
L 1217.950422 12.2 
Q 1215.950422 12.2 1215.950422 14.2 
L 1215.950422 42.55625 
Q 1215.950422 44.55625 1217.950422 44.55625 
z
" style="fill: #ffffff; opacity: 0.8; stroke: #cccccc; stroke-linejoin: miter"/>
    </g>
    <g id="patch_20">
     <path d="M 1219.950422 23.798437 
L 1239.950422 23.798437 
L 1239.950422 16.798437 
L 1219.950422 16.798437 
z
" style="fill: #1f77b4; stroke: #1f77b4; stroke-linejoin: miter"/>
    </g>
    <g id="text_18">
     <!-- Isorenieratene/streptamidine -->
     <g transform="translate(1247.950422 23.798437)scale(0.1 -0.1)">
      <defs>
       <path id="DejaVuSans-49" d="M 628 4666 
L 1259 4666 
L 1259 0 
L 628 0 
L 628 4666 
z
" transform="scale(0.015625)"/>
      </defs>
      <use xlink:href="#DejaVuSans-49"/>
      <use xlink:href="#DejaVuSans-73" x="29.492188"/>
      <use xlink:href="#DejaVuSans-6f" x="81.591797"/>
      <use xlink:href="#DejaVuSans-72" x="142.773438"/>
      <use xlink:href="#DejaVuSans-65" x="181.636719"/>
      <use xlink:href="#DejaVuSans-6e" x="243.160156"/>
      <use xlink:href="#DejaVuSans-69" x="306.539062"/>
      <use xlink:href="#DejaVuSans-65" x="334.322266"/>
      <use xlink:href="#DejaVuSans-72" x="395.845703"/>
      <use xlink:href="#DejaVuSans-61" x="436.958984"/>
      <use xlink:href="#DejaVuSans-74" x="498.238281"/>
      <use xlink:href="#DejaVuSans-65" x="537.447266"/>
      <use xlink:href="#DejaVuSans-6e" x="598.970703"/>
      <use xlink:href="#DejaVuSans-65" x="662.349609"/>
      <use xlink:href="#DejaVuSans-2f" x="723.873047"/>
      <use xlink:href="#DejaVuSans-73" x="757.564453"/>
      <use xlink:href="#DejaVuSans-74" x="809.664062"/>
      <use xlink:href="#DejaVuSans-72" x="848.873047"/>
      <use xlink:href="#DejaVuSans-65" x="887.736328"/>
      <use xlink:href="#DejaVuSans-70" x="949.259766"/>
      <use xlink:href="#DejaVuSans-74" x="1012.736328"/>
      <use xlink:href="#DejaVuSans-61" x="1051.945312"/>
      <use xlink:href="#DejaVuSans-6d" x="1113.224609"/>
      <use xlink:href="#DejaVuSans-69" x="1210.636719"/>
      <use xlink:href="#DejaVuSans-64" x="1238.419922"/>
      <use xlink:href="#DejaVuSans-69" x="1301.896484"/>
      <use xlink:href="#DejaVuSans-6e" x="1329.679688"/>
      <use xlink:href="#DejaVuSans-65" x="1393.058594"/>
     </g>
    </g>
    <g id="patch_21">
     <path d="M 1219.950422 38.476562 
L 1239.950422 38.476562 
L 1239.950422 31.476562 
L 1219.950422 31.476562 
z
" style="fill: #ff7f0e; stroke: #ff7f0e; stroke-linejoin: miter"/>
    </g>
    <g id="text_19">
     <!-- Isorenieratene/streptamidine, DNA damage -->
     <g transform="translate(1247.950422 38.476562)scale(0.1 -0.1)">
      <use xlink:href="#DejaVuSans-49"/>
      <use xlink:href="#DejaVuSans-73" x="29.492188"/>
      <use xlink:href="#DejaVuSans-6f" x="81.591797"/>
      <use xlink:href="#DejaVuSans-72" x="142.773438"/>
      <use xlink:href="#DejaVuSans-65" x="181.636719"/>
      <use xlink:href="#DejaVuSans-6e" x="243.160156"/>
      <use xlink:href="#DejaVuSans-69" x="306.539062"/>
      <use xlink:href="#DejaVuSans-65" x="334.322266"/>
      <use xlink:href="#DejaVuSans-72" x="395.845703"/>
      <use xlink:href="#DejaVuSans-61" x="436.958984"/>
      <use xlink:href="#DejaVuSans-74" x="498.238281"/>
      <use xlink:href="#DejaVuSans-65" x="537.447266"/>
      <use xlink:href="#DejaVuSans-6e" x="598.970703"/>
      <use xlink:href="#DejaVuSans-65" x="662.349609"/>
      <use xlink:href="#DejaVuSans-2f" x="723.873047"/>
      <use xlink:href="#DejaVuSans-73" x="757.564453"/>
      <use xlink:href="#DejaVuSans-74" x="809.664062"/>
      <use xlink:href="#DejaVuSans-72" x="848.873047"/>
      <use xlink:href="#DejaVuSans-65" x="887.736328"/>
      <use xlink:href="#DejaVuSans-70" x="949.259766"/>
      <use xlink:href="#DejaVuSans-74" x="1012.736328"/>
      <use xlink:href="#DejaVuSans-61" x="1051.945312"/>
      <use xlink:href="#DejaVuSans-6d" x="1113.224609"/>
      <use xlink:href="#DejaVuSans-69" x="1210.636719"/>
      <use xlink:href="#DejaVuSans-64" x="1238.419922"/>
      <use xlink:href="#DejaVuSans-69" x="1301.896484"/>
      <use xlink:href="#DejaVuSans-6e" x="1329.679688"/>
      <use xlink:href="#DejaVuSans-65" x="1393.058594"/>
      <use xlink:href="#DejaVuSans-2c" x="1454.582031"/>
      <use xlink:href="#DejaVuSans-20" x="1486.369141"/>
      <use xlink:href="#DejaVuSans-44" x="1518.15625"/>
      <use xlink:href="#DejaVuSans-4e" x="1595.158203"/>
      <use xlink:href="#DejaVuSans-41" x="1669.962891"/>
      <use xlink:href="#DejaVuSans-20" x="1738.371094"/>
      <use xlink:href="#DejaVuSans-64" x="1770.158203"/>
      <use xlink:href="#DejaVuSans-61" x="1833.634766"/>
      <use xlink:href="#DejaVuSans-6d" x="1894.914062"/>
      <use xlink:href="#DejaVuSans-61" x="1992.326172"/>
      <use xlink:href="#DejaVuSans-67" x="2053.605469"/>
      <use xlink:href="#DejaVuSans-65" x="2117.082031"/>
     </g>
    </g>
   </g>
  </g>
 </g>
 <defs>
  <clipPath id="p0cc200befa">
   <rect x="39.150422" y="7.2" width="1116" height="177.408"/>
  </clipPath>
 </defs>
</svg>
