<?xml version="1.0" encoding="utf-8" standalone="no"?>
<!DOCTYPE svg PUBLIC "-//W3C//DTD SVG 1.1//EN"
  "http://www.w3.org/Graphics/SVG/1.1/DTD/svg11.dtd">
<svg xmlns:xlink="http://www.w3.org/1999/xlink" width="1458.929118pt" height="153.046125pt" viewBox="0 0 1458.929118 153.046125" xmlns="http://www.w3.org/2000/svg" version="1.1">
 <metadata>
  <rdf:RDF xmlns:dc="http://purl.org/dc/elements/1.1/" xmlns:cc="http://creativecommons.org/ns#" xmlns:rdf="http://www.w3.org/1999/02/22-rdf-syntax-ns#">
   <cc:Work>
    <dc:type rdf:resource="http://purl.org/dc/dcmitype/StillImage"/>
    <dc:date>2024-05-23T14:13:37.855094</dc:date>
    <dc:format>image/svg+xml</dc:format>
    <dc:creator>
     <cc:Agent>
      <dc:title>Matplotlib v3.5.3, https://matplotlib.org/</dc:title>
     </cc:Agent>
    </dc:creator>
   </cc:Work>
  </rdf:RDF>
 </metadata>
 <defs>
  <style type="text/css">*{stroke-linejoin: round; stroke-linecap: butt}</style>
 </defs>
 <g id="figure_1">
  <g id="patch_1">
   <path d="M 0 153.046125 
L 1458.929118 153.046125 
L 1458.929118 0 
L 0 0 
z
" style="fill: #ffffff"/>
  </g>
  <g id="axes_1">
   <g id="line2d_1">
    <path d="M 10.358805 111.744 
L 1126.358805 111.744 
" clip-path="url(#p02aa7df753)" style="fill: none; stroke: #000000; stroke-width: 1.5; stroke-linecap: square"/>
   </g>
   <g id="patch_2">
    <path d="M 918.006597 104.744 
Q 936.348918 104.744 954.691239 104.744 
L 954.691239 104.744 
Q 958.891907 108.244 963.092575 111.744 
Q 958.891907 115.244 954.691239 118.744 
L 954.691239 118.744 
Q 936.348918 118.744 918.006597 118.744 
L 918.006597 104.744 
z
" clip-path="url(#p02aa7df753)" style="fill: #1f77b4; stroke: #000000; stroke-linecap: round"/>
   </g>
   <g id="patch_3">
    <path d="M 274.23382 104.744 
Q 291.693134 104.744 309.152447 104.744 
L 309.152447 104.744 
Q 313.352359 108.244 317.552271 111.744 
Q 313.352359 115.244 309.152447 118.744 
L 309.152447 118.744 
Q 291.693134 118.744 274.23382 118.744 
L 274.23382 104.744 
z
" clip-path="url(#p02aa7df753)" style="fill: #2ca02c; stroke: #000000; stroke-linecap: round"/>
   </g>
   <g id="patch_4">
    <path d="M 143.464845 118.744 
Q 127.985539 118.744 112.506233 118.744 
L 112.506233 118.744 
Q 108.304261 115.244 104.102289 111.744 
Q 108.304261 108.244 112.506233 104.744 
L 112.506233 104.744 
Q 127.985539 104.744 143.464845 104.744 
L 143.464845 118.744 
z
" clip-path="url(#p02aa7df753)" style="fill: #808080; stroke: #000000; stroke-linecap: round"/>
   </g>
   <g id="patch_5">
    <path d="M 104.186457 83.896 
Q 89.338512 83.896 74.490567 83.896 
L 74.490567 83.896 
Q 70.288494 80.396 66.086421 76.896 
Q 70.288494 73.396 74.490567 69.896 
L 74.490567 69.896 
Q 89.338512 69.896 104.186457 69.896 
L 104.186457 83.896 
z
" clip-path="url(#p02aa7df753)" style="fill: #808080; stroke: #000000; stroke-linecap: round"/>
   </g>
   <g id="patch_6">
    <path d="M 422.341398 104.744 
Q 436.937466 104.744 451.533534 104.744 
L 451.533534 104.744 
Q 455.73498 108.244 459.936427 111.744 
Q 455.73498 115.244 451.533534 118.744 
L 451.533534 118.744 
Q 436.937466 118.744 422.341398 118.744 
L 422.341398 104.744 
z
" clip-path="url(#p02aa7df753)" style="fill: #2ca02c; stroke: #000000; stroke-linecap: round"/>
   </g>
   <g id="patch_7">
    <path d="M 739.822996 104.744 
Q 754.039525 104.744 768.256055 104.744 
L 768.256055 104.744 
Q 772.458284 108.244 776.660513 111.744 
Q 772.458284 115.244 768.256055 118.744 
L 768.256055 118.744 
Q 754.039525 118.744 739.822996 118.744 
L 739.822996 104.744 
z
" clip-path="url(#p02aa7df753)" style="fill: #1f77b4; stroke: #000000; stroke-linecap: round"/>
   </g>
   <g id="patch_8">
    <path d="M 149.917723 104.744 
Q 163.503706 104.744 177.08969 104.744 
L 177.08969 104.744 
Q 181.291205 108.244 185.49272 111.744 
Q 181.291205 115.244 177.08969 118.744 
L 177.08969 118.744 
Q 163.503706 118.744 149.917723 118.744 
L 149.917723 104.744 
z
" clip-path="url(#p02aa7df753)" style="fill: #808080; stroke: #000000; stroke-linecap: round"/>
   </g>
   <g id="patch_9">
    <path d="M 629.029886 118.744 
Q 615.947767 118.744 602.865647 118.744 
L 602.865647 118.744 
Q 598.665276 115.244 594.464905 111.744 
Q 598.665276 108.244 602.865647 104.744 
L 602.865647 104.744 
Q 615.947767 104.744 629.029886 104.744 
L 629.029886 118.744 
z
" clip-path="url(#p02aa7df753)" style="fill: #9467bd; stroke: #000000; stroke-linecap: round"/>
   </g>
   <g id="patch_10">
    <path d="M 848.988858 104.744 
Q 861.399086 104.744 873.809314 104.744 
L 873.809314 104.744 
Q 878.008233 108.244 882.207152 111.744 
Q 878.008233 115.244 873.809314 118.744 
L 873.809314 118.744 
Q 861.399086 118.744 848.988858 118.744 
L 848.988858 104.744 
z
" clip-path="url(#p02aa7df753)" style="fill: #8c564b; stroke: #000000; stroke-linecap: round"/>
   </g>
   <g id="patch_11">
    <path d="M 736.344053 118.744 
Q 724.229617 118.744 712.115181 118.744 
L 712.115181 118.744 
Q 707.915058 115.244 703.714935 111.744 
Q 707.915058 108.244 712.115181 104.744 
L 712.115181 104.744 
Q 724.229617 104.744 736.344053 104.744 
L 736.344053 118.744 
z
" clip-path="url(#p02aa7df753)" style="fill: #808080; stroke: #000000; stroke-linecap: round"/>
   </g>
   <g id="patch_12">
    <path d="M 882.122984 69.896 
Q 893.650197 69.896 905.177409 69.896 
L 905.177409 69.896 
Q 909.37558 73.396 913.57375 76.896 
Q 909.37558 80.396 905.177409 83.896 
L 905.177409 83.896 
Q 893.650197 83.896 882.122984 83.896 
L 882.122984 69.896 
z
" clip-path="url(#p02aa7df753)" style="fill: #8c564b; stroke: #000000; stroke-linecap: round"/>
   </g>
   <g id="patch_13">
    <path d="M 591.967922 118.744 
Q 580.777669 118.744 569.587416 118.744 
L 569.587416 118.744 
Q 565.388958 115.244 561.190499 111.744 
Q 565.388958 108.244 569.587416 104.744 
L 569.587416 104.744 
Q 580.777669 104.744 591.967922 104.744 
L 591.967922 118.744 
z
" clip-path="url(#p02aa7df753)" style="fill: #9467bd; stroke: #000000; stroke-linecap: round"/>
   </g>
   <g id="patch_14">
    <path d="M 318.281727 104.744 
Q 328.4602 104.744 338.638674 104.744 
L 338.638674 104.744 
Q 342.838896 108.244 347.039118 111.744 
Q 342.838896 115.244 338.638674 118.744 
L 338.638674 118.744 
Q 328.4602 118.744 318.281727 118.744 
L 318.281727 104.744 
z
" clip-path="url(#p02aa7df753)" style="fill: #2ca02c; stroke: #000000; stroke-linecap: round"/>
   </g>
   <g id="patch_15">
    <path d="M 1015.192551 104.744 
Q 1025.033281 104.744 1034.87401 104.744 
L 1034.87401 104.744 
Q 1039.075304 108.244 1043.276598 111.744 
Q 1039.075304 115.244 1034.87401 118.744 
L 1034.87401 118.744 
Q 1025.033281 118.744 1015.192551 118.744 
L 1015.192551 104.744 
z
" clip-path="url(#p02aa7df753)" style="fill: #1f77b4; stroke: #000000; stroke-linecap: round"/>
   </g>
   <g id="patch_16">
    <path d="M 821.914827 69.896 
Q 831.295213 69.896 840.6756 69.896 
L 840.6756 69.896 
Q 844.874313 73.396 849.073026 76.896 
Q 844.874313 80.396 840.6756 83.896 
L 840.6756 83.896 
Q 831.295213 83.896 821.914827 83.896 
L 821.914827 69.896 
z
" clip-path="url(#p02aa7df753)" style="fill: #8c564b; stroke: #000000; stroke-linecap: round"/>
   </g>
   <g id="patch_17">
    <path d="M 964.018423 104.744 
Q 973.356518 104.744 982.694613 104.744 
L 982.694613 104.744 
Q 986.893534 108.244 991.092454 111.744 
Q 986.893534 115.244 982.694613 118.744 
L 982.694613 118.744 
Q 973.356518 118.744 964.018423 118.744 
L 964.018423 104.744 
z
" clip-path="url(#p02aa7df753)" style="fill: #1f77b4; stroke: #000000; stroke-linecap: round"/>
   </g>
   <g id="patch_18">
    <path d="M 1098.210229 118.744 
Q 1088.998514 118.744 1079.786799 118.744 
L 1079.786799 118.744 
Q 1075.58775 115.244 1071.388701 111.744 
Q 1075.58775 108.244 1079.786799 104.744 
L 1079.786799 104.744 
Q 1088.998514 104.744 1098.210229 104.744 
L 1098.210229 118.744 
z
" clip-path="url(#p02aa7df753)" style="fill: #1f77b4; stroke: #000000; stroke-linecap: round"/>
   </g>
   <g id="patch_19">
    <path d="M 677.117856 104.744 
Q 686.158981 104.744 695.200106 104.744 
L 695.200106 104.744 
Q 699.401409 108.244 703.602711 111.744 
Q 699.401409 115.244 695.200106 118.744 
L 695.200106 118.744 
Q 686.158981 118.744 677.117856 118.744 
L 677.117856 104.744 
z
" clip-path="url(#p02aa7df753)" style="fill: #808080; stroke: #000000; stroke-linecap: round"/>
   </g>
   <g id="patch_20">
    <path d="M 234.282089 104.744 
Q 243.157214 104.744 252.032339 104.744 
L 252.032339 104.744 
Q 256.231306 108.244 260.430273 111.744 
Q 256.231306 115.244 252.032339 118.744 
L 252.032339 118.744 
Q 243.157214 118.744 234.282089 118.744 
L 234.282089 104.744 
z
" clip-path="url(#p02aa7df753)" style="fill: #1f77b4; stroke: #000000; stroke-linecap: round"/>
   </g>
   <g id="patch_21">
    <path d="M 372.037006 104.744 
Q 380.447017 104.744 388.857028 104.744 
L 388.857028 104.744 
Q 393.058185 108.244 397.259342 111.744 
Q 393.058185 115.244 388.857028 118.744 
L 388.857028 118.744 
Q 380.447017 118.744 372.037006 118.744 
L 372.037006 104.744 
z
" clip-path="url(#p02aa7df753)" style="fill: #2ca02c; stroke: #000000; stroke-linecap: round"/>
   </g>
   <g id="patch_22">
    <path d="M 347.151342 69.896 
Q 355.437534 69.896 363.723727 69.896 
L 363.723727 69.896 
Q 367.92245 73.396 372.121174 76.896 
Q 367.92245 80.396 363.723727 83.896 
L 363.723727 83.896 
Q 355.437534 83.896 347.151342 83.896 
L 347.151342 69.896 
z
" clip-path="url(#p02aa7df753)" style="fill: #2ca02c; stroke: #000000; stroke-linecap: round"/>
   </g>
   <g id="patch_23">
    <path d="M 397.175174 69.896 
Q 405.207174 69.896 413.239175 69.896 
L 413.239175 69.896 
Q 417.439587 73.396 421.639999 76.896 
Q 417.439587 80.396 413.239175 83.896 
L 413.239175 83.896 
Q 405.207174 83.896 397.175174 83.896 
L 397.175174 69.896 
z
" clip-path="url(#p02aa7df753)" style="fill: #2ca02c; stroke: #000000; stroke-linecap: round"/>
   </g>
   <g id="patch_24">
    <path d="M 990.896062 69.896 
Q 998.885549 69.896 1006.875035 69.896 
L 1006.875035 69.896 
Q 1011.075877 73.396 1015.276719 76.896 
Q 1011.075877 80.396 1006.875035 83.896 
L 1006.875035 83.896 
Q 998.885549 83.896 990.896062 83.896 
L 990.896062 69.896 
z
" clip-path="url(#p02aa7df753)" style="fill: #1f77b4; stroke: #000000; stroke-linecap: round"/>
   </g>
   <g id="patch_25">
    <path d="M 512.625578 118.744 
Q 504.987342 118.744 497.349105 118.744 
L 497.349105 118.744 
Q 493.147713 115.244 488.946322 111.744 
Q 493.147713 108.244 497.349105 104.744 
L 497.349105 104.744 
Q 504.987342 104.744 512.625578 104.744 
L 512.625578 118.744 
z
" clip-path="url(#p02aa7df753)" style="fill: #1f77b4; stroke: #000000; stroke-linecap: round"/>
   </g>
   <g id="patch_26">
    <path d="M 63.393046 118.744 
Q 56.454767 118.744 49.516488 118.744 
L 49.516488 118.744 
Q 45.316538 115.244 41.116588 111.744 
Q 45.316538 108.244 49.516488 104.744 
L 49.516488 104.744 
Q 56.454767 104.744 63.393046 104.744 
L 63.393046 118.744 
z
" clip-path="url(#p02aa7df753)" style="fill: #1f77b4; stroke: #000000; stroke-linecap: round"/>
   </g>
   <g id="patch_27">
    <path d="M 462.685914 104.744 
Q 469.120103 104.744 475.554292 104.744 
L 475.554292 104.744 
Q 479.753323 108.244 483.952355 111.744 
Q 479.753323 115.244 475.554292 118.744 
L 475.554292 118.744 
Q 469.120103 118.744 462.685914 118.744 
L 462.685914 104.744 
z
" clip-path="url(#p02aa7df753)" style="fill: #2ca02c; stroke: #000000; stroke-linecap: round"/>
   </g>
   <g id="patch_28">
    <path d="M 535.575379 118.744 
Q 529.184756 118.744 522.794132 118.744 
L 522.794132 118.744 
Q 518.593619 115.244 514.393106 111.744 
Q 518.593619 108.244 522.794132 104.744 
L 522.794132 104.744 
Q 529.184756 104.744 535.575379 104.744 
L 535.575379 118.744 
z
" clip-path="url(#p02aa7df753)" style="fill: #d62728; stroke: #000000; stroke-linecap: round"/>
   </g>
   <g id="patch_29">
    <path d="M 778.14748 104.744 
Q 784.202271 104.744 790.257062 104.744 
L 790.257062 104.744 
Q 794.456736 108.244 798.65641 111.744 
Q 794.456736 115.244 790.257062 118.744 
L 790.257062 118.744 
Q 784.202271 118.744 778.14748 118.744 
L 778.14748 104.744 
z
" clip-path="url(#p02aa7df753)" style="fill: #1f77b4; stroke: #000000; stroke-linecap: round"/>
   </g>
   <g id="patch_30">
    <path d="M 10.367222 104.744 
Q 16.210718 104.744 22.054214 104.744 
L 22.054214 104.744 
Q 26.254763 108.244 30.455312 111.744 
Q 26.254763 115.244 22.054214 118.744 
L 22.054214 118.744 
Q 16.210718 118.744 10.367222 118.744 
L 10.367222 104.744 
z
" clip-path="url(#p02aa7df753)" style="fill: #808080; stroke: #000000; stroke-linecap: round"/>
   </g>
   <g id="patch_31">
    <path d="M 1043.080206 69.896 
Q 1048.884567 69.896 1054.688927 69.896 
L 1054.688927 69.896 
Q 1058.886528 73.396 1063.084128 76.896 
Q 1058.886528 80.396 1054.688927 83.896 
L 1054.688927 83.896 
Q 1048.884567 83.896 1043.080206 83.896 
L 1043.080206 69.896 
z
" clip-path="url(#p02aa7df753)" style="fill: #1f77b4; stroke: #000000; stroke-linecap: round"/>
   </g>
   <g id="patch_32">
    <path d="M 639.214211 104.744 
Q 644.596574 104.744 649.978938 104.744 
L 649.978938 104.744 
Q 654.177695 108.244 658.376453 111.744 
Q 654.177695 115.244 649.978938 118.744 
L 649.978938 118.744 
Q 644.596574 118.744 639.214211 118.744 
L 639.214211 104.744 
z
" clip-path="url(#p02aa7df753)" style="fill: #808080; stroke: #000000; stroke-linecap: round"/>
   </g>
   <g id="patch_33">
    <path d="M 658.292285 69.896 
Q 663.506545 69.896 668.720806 69.896 
L 668.720806 69.896 
Q 672.919331 73.396 677.117856 76.896 
Q 672.919331 80.396 668.720806 83.896 
L 668.720806 83.896 
Q 663.506545 83.896 658.292285 83.896 
L 658.292285 69.896 
z
" clip-path="url(#p02aa7df753)" style="fill: #808080; stroke: #000000; stroke-linecap: round"/>
   </g>
   <g id="patch_34">
    <path d="M 185.408552 69.896 
Q 190.156611 69.896 194.904669 69.896 
L 194.904669 69.896 
Q 199.106472 73.396 203.308274 76.896 
Q 199.106472 80.396 194.904669 83.896 
L 194.904669 83.896 
Q 190.156611 83.896 185.408552 83.896 
L 185.408552 69.896 
z
" clip-path="url(#p02aa7df753)" style="fill: #ff7f0e; stroke: #000000; stroke-linecap: round"/>
   </g>
   <g id="patch_35">
    <path d="M 800.564217 104.744 
Q 805.272552 104.744 809.980886 104.744 
L 809.980886 104.744 
Q 814.180329 108.244 818.379772 111.744 
Q 814.180329 115.244 809.980886 118.744 
L 809.980886 118.744 
Q 805.272552 118.744 800.564217 118.744 
L 800.564217 104.744 
z
" clip-path="url(#p02aa7df753)" style="fill: #1f77b4; stroke: #000000; stroke-linecap: round"/>
   </g>
   <g id="patch_36">
    <path d="M 555.944029 118.744 
Q 552.8767 118.744 549.80937 118.744 
L 549.80937 118.744 
Q 545.610198 115.244 541.411026 111.744 
Q 545.610198 108.244 549.80937 104.744 
L 549.80937 104.744 
Q 552.8767 104.744 555.944029 104.744 
L 555.944029 118.744 
z
" clip-path="url(#p02aa7df753)" style="fill: #d62728; stroke: #000000; stroke-linecap: round"/>
   </g>
   <g id="patch_37">
    <path d="M 218.149894 118.744 
Q 215.295419 118.744 212.440945 118.744 
L 212.440945 118.744 
Q 208.239337 115.244 204.03773 111.744 
Q 208.239337 108.244 212.440945 104.744 
L 212.440945 104.744 
Q 215.295419 104.744 218.149894 104.744 
L 218.149894 118.744 
z
" clip-path="url(#p02aa7df753)" style="fill: #1f77b4; stroke: #000000; stroke-linecap: round"/>
   </g>
   <g id="patch_38">
    <path d="M 1114.174088 118.744 
Q 1111.360612 118.744 1108.547136 118.744 
L 1108.547136 118.744 
Q 1104.346614 115.244 1100.146093 111.744 
Q 1104.346614 108.244 1108.547136 104.744 
L 1108.547136 104.744 
Q 1111.360612 104.744 1114.174088 104.744 
L 1114.174088 118.744 
z
" clip-path="url(#p02aa7df753)" style="fill: #1f77b4; stroke: #000000; stroke-linecap: round"/>
   </g>
   <g id="patch_39">
    <path d="M 222.189956 69.896 
Q 224.079126 69.896 225.968296 69.896 
L 225.968296 69.896 
Q 230.167276 73.396 234.366257 76.896 
Q 230.167276 80.396 225.968296 83.896 
L 225.968296 83.896 
Q 224.079126 83.896 222.189956 83.896 
L 222.189956 69.896 
z
" clip-path="url(#p02aa7df753)" style="fill: #1f77b4; stroke: #000000; stroke-linecap: round"/>
   </g>
   <g id="patch_40">
    <path d="M 1126.350388 118.744 
Q 1124.722305 118.744 1123.094222 118.744 
L 1123.094222 118.744 
Q 1119.391667 115.244 1115.689112 111.744 
Q 1119.391667 108.244 1123.094222 104.744 
L 1123.094222 104.744 
Q 1124.722305 104.744 1126.350388 104.744 
L 1126.350388 118.744 
z
" clip-path="url(#p02aa7df753)" style="fill: #808080; stroke: #000000; stroke-linecap: round"/>
   </g>
   <g id="patch_41">
    <path d="M 1066.478903 69.896 
Q 1067.309418 69.896 1068.139933 69.896 
L 1068.139933 69.896 
Q 1070.030849 73.396 1071.921765 76.896 
Q 1070.030849 80.396 1068.139933 83.896 
L 1068.139933 83.896 
Q 1067.309418 83.896 1066.478903 83.896 
L 1066.478903 69.896 
z
" clip-path="url(#p02aa7df753)" style="fill: #e377c2; stroke: #000000; stroke-linecap: round"/>
   </g>
   <g id="matplotlib.axis_1">
    <g id="xtick_1">
     <g id="line2d_2">
      <defs>
       <path id="m4121303576" d="M 0 0 
L 0 3.5 
" style="stroke: #808080; stroke-width: 0.8"/>
      </defs>
      <g>
       <use xlink:href="#m4121303576" x="10.38125" y="129.168" style="fill: #808080; stroke: #808080; stroke-width: 0.8"/>
      </g>
     </g>
     <g id="text_1">
      <!-- 0 -->
      <g style="fill: #808080" transform="translate(7.2 143.766437)scale(0.1 -0.1)">
       <defs>
        <path id="DejaVuSans-30" d="M 2034 4250 
Q 1547 4250 1301 3770 
Q 1056 3291 1056 2328 
Q 1056 1369 1301 889 
Q 1547 409 2034 409 
Q 2525 409 2770 889 
Q 3016 1369 3016 2328 
Q 3016 3291 2770 3770 
Q 2525 4250 2034 4250 
z
M 2034 4750 
Q 2819 4750 3233 4129 
Q 3647 3509 3647 2328 
Q 3647 1150 3233 529 
Q 2819 -91 2034 -91 
Q 1250 -91 836 529 
Q 422 1150 422 2328 
Q 422 3509 836 4129 
Q 1250 4750 2034 4750 
z
" transform="scale(0.015625)"/>
       </defs>
       <use xlink:href="#DejaVuSans-30"/>
      </g>
     </g>
    </g>
    <g id="xtick_2">
     <g id="line2d_3">
      <g>
       <use xlink:href="#m4121303576" x="122.605215" y="129.168" style="fill: #808080; stroke: #808080; stroke-width: 0.8"/>
      </g>
     </g>
     <g id="text_2">
      <!-- 4,000 -->
      <g style="fill: #808080" transform="translate(108.291153 143.766437)scale(0.1 -0.1)">
       <defs>
        <path id="DejaVuSans-34" d="M 2419 4116 
L 825 1625 
L 2419 1625 
L 2419 4116 
z
M 2253 4666 
L 3047 4666 
L 3047 1625 
L 3713 1625 
L 3713 1100 
L 3047 1100 
L 3047 0 
L 2419 0 
L 2419 1100 
L 313 1100 
L 313 1709 
L 2253 4666 
z
" transform="scale(0.015625)"/>
        <path id="DejaVuSans-2c" d="M 750 794 
L 1409 794 
L 1409 256 
L 897 -744 
L 494 -744 
L 750 256 
L 750 794 
z
" transform="scale(0.015625)"/>
       </defs>
       <use xlink:href="#DejaVuSans-34"/>
       <use xlink:href="#DejaVuSans-2c" x="63.623047"/>
       <use xlink:href="#DejaVuSans-30" x="95.410156"/>
       <use xlink:href="#DejaVuSans-30" x="159.033203"/>
       <use xlink:href="#DejaVuSans-30" x="222.65625"/>
      </g>
     </g>
    </g>
    <g id="xtick_3">
     <g id="line2d_4">
      <g>
       <use xlink:href="#m4121303576" x="234.82918" y="129.168" style="fill: #808080; stroke: #808080; stroke-width: 0.8"/>
      </g>
     </g>
     <g id="text_3">
      <!-- 8,000 -->
      <g style="fill: #808080" transform="translate(220.515118 143.766437)scale(0.1 -0.1)">
       <defs>
        <path id="DejaVuSans-38" d="M 2034 2216 
Q 1584 2216 1326 1975 
Q 1069 1734 1069 1313 
Q 1069 891 1326 650 
Q 1584 409 2034 409 
Q 2484 409 2743 651 
Q 3003 894 3003 1313 
Q 3003 1734 2745 1975 
Q 2488 2216 2034 2216 
z
M 1403 2484 
Q 997 2584 770 2862 
Q 544 3141 544 3541 
Q 544 4100 942 4425 
Q 1341 4750 2034 4750 
Q 2731 4750 3128 4425 
Q 3525 4100 3525 3541 
Q 3525 3141 3298 2862 
Q 3072 2584 2669 2484 
Q 3125 2378 3379 2068 
Q 3634 1759 3634 1313 
Q 3634 634 3220 271 
Q 2806 -91 2034 -91 
Q 1263 -91 848 271 
Q 434 634 434 1313 
Q 434 1759 690 2068 
Q 947 2378 1403 2484 
z
M 1172 3481 
Q 1172 3119 1398 2916 
Q 1625 2713 2034 2713 
Q 2441 2713 2670 2916 
Q 2900 3119 2900 3481 
Q 2900 3844 2670 4047 
Q 2441 4250 2034 4250 
Q 1625 4250 1398 4047 
Q 1172 3844 1172 3481 
z
" transform="scale(0.015625)"/>
       </defs>
       <use xlink:href="#DejaVuSans-38"/>
       <use xlink:href="#DejaVuSans-2c" x="63.623047"/>
       <use xlink:href="#DejaVuSans-30" x="95.410156"/>
       <use xlink:href="#DejaVuSans-30" x="159.033203"/>
       <use xlink:href="#DejaVuSans-30" x="222.65625"/>
      </g>
     </g>
    </g>
    <g id="xtick_4">
     <g id="line2d_5">
      <g>
       <use xlink:href="#m4121303576" x="347.053146" y="129.168" style="fill: #808080; stroke: #808080; stroke-width: 0.8"/>
      </g>
     </g>
     <g id="text_4">
      <!-- 12,000 -->
      <g style="fill: #808080" transform="translate(329.557833 143.766437)scale(0.1 -0.1)">
       <defs>
        <path id="DejaVuSans-31" d="M 794 531 
L 1825 531 
L 1825 4091 
L 703 3866 
L 703 4441 
L 1819 4666 
L 2450 4666 
L 2450 531 
L 3481 531 
L 3481 0 
L 794 0 
L 794 531 
z
" transform="scale(0.015625)"/>
        <path id="DejaVuSans-32" d="M 1228 531 
L 3431 531 
L 3431 0 
L 469 0 
L 469 531 
Q 828 903 1448 1529 
Q 2069 2156 2228 2338 
Q 2531 2678 2651 2914 
Q 2772 3150 2772 3378 
Q 2772 3750 2511 3984 
Q 2250 4219 1831 4219 
Q 1534 4219 1204 4116 
Q 875 4013 500 3803 
L 500 4441 
Q 881 4594 1212 4672 
Q 1544 4750 1819 4750 
Q 2544 4750 2975 4387 
Q 3406 4025 3406 3419 
Q 3406 3131 3298 2873 
Q 3191 2616 2906 2266 
Q 2828 2175 2409 1742 
Q 1991 1309 1228 531 
z
" transform="scale(0.015625)"/>
       </defs>
       <use xlink:href="#DejaVuSans-31"/>
       <use xlink:href="#DejaVuSans-32" x="63.623047"/>
       <use xlink:href="#DejaVuSans-2c" x="127.246094"/>
       <use xlink:href="#DejaVuSans-30" x="159.033203"/>
       <use xlink:href="#DejaVuSans-30" x="222.65625"/>
       <use xlink:href="#DejaVuSans-30" x="286.279297"/>
      </g>
     </g>
    </g>
    <g id="xtick_5">
     <g id="line2d_6">
      <g>
       <use xlink:href="#m4121303576" x="459.277111" y="129.168" style="fill: #808080; stroke: #808080; stroke-width: 0.8"/>
      </g>
     </g>
     <g id="text_5">
      <!-- 16,000 -->
      <g style="fill: #808080" transform="translate(441.781798 143.766437)scale(0.1 -0.1)">
       <defs>
        <path id="DejaVuSans-36" d="M 2113 2584 
Q 1688 2584 1439 2293 
Q 1191 2003 1191 1497 
Q 1191 994 1439 701 
Q 1688 409 2113 409 
Q 2538 409 2786 701 
Q 3034 994 3034 1497 
Q 3034 2003 2786 2293 
Q 2538 2584 2113 2584 
z
M 3366 4563 
L 3366 3988 
Q 3128 4100 2886 4159 
Q 2644 4219 2406 4219 
Q 1781 4219 1451 3797 
Q 1122 3375 1075 2522 
Q 1259 2794 1537 2939 
Q 1816 3084 2150 3084 
Q 2853 3084 3261 2657 
Q 3669 2231 3669 1497 
Q 3669 778 3244 343 
Q 2819 -91 2113 -91 
Q 1303 -91 875 529 
Q 447 1150 447 2328 
Q 447 3434 972 4092 
Q 1497 4750 2381 4750 
Q 2619 4750 2861 4703 
Q 3103 4656 3366 4563 
z
" transform="scale(0.015625)"/>
       </defs>
       <use xlink:href="#DejaVuSans-31"/>
       <use xlink:href="#DejaVuSans-36" x="63.623047"/>
       <use xlink:href="#DejaVuSans-2c" x="127.246094"/>
       <use xlink:href="#DejaVuSans-30" x="159.033203"/>
       <use xlink:href="#DejaVuSans-30" x="222.65625"/>
       <use xlink:href="#DejaVuSans-30" x="286.279297"/>
      </g>
     </g>
    </g>
    <g id="xtick_6">
     <g id="line2d_7">
      <g>
       <use xlink:href="#m4121303576" x="571.501076" y="129.168" style="fill: #808080; stroke: #808080; stroke-width: 0.8"/>
      </g>
     </g>
     <g id="text_6">
      <!-- 20,000 -->
      <g style="fill: #808080" transform="translate(554.005764 143.766437)scale(0.1 -0.1)">
       <use xlink:href="#DejaVuSans-32"/>
       <use xlink:href="#DejaVuSans-30" x="63.623047"/>
       <use xlink:href="#DejaVuSans-2c" x="127.246094"/>
       <use xlink:href="#DejaVuSans-30" x="159.033203"/>
       <use xlink:href="#DejaVuSans-30" x="222.65625"/>
       <use xlink:href="#DejaVuSans-30" x="286.279297"/>
      </g>
     </g>
    </g>
    <g id="xtick_7">
     <g id="line2d_8">
      <g>
       <use xlink:href="#m4121303576" x="683.725041" y="129.168" style="fill: #808080; stroke: #808080; stroke-width: 0.8"/>
      </g>
     </g>
     <g id="text_7">
      <!-- 24,000 -->
      <g style="fill: #808080" transform="translate(666.229729 143.766437)scale(0.1 -0.1)">
       <use xlink:href="#DejaVuSans-32"/>
       <use xlink:href="#DejaVuSans-34" x="63.623047"/>
       <use xlink:href="#DejaVuSans-2c" x="127.246094"/>
       <use xlink:href="#DejaVuSans-30" x="159.033203"/>
       <use xlink:href="#DejaVuSans-30" x="222.65625"/>
       <use xlink:href="#DejaVuSans-30" x="286.279297"/>
      </g>
     </g>
    </g>
    <g id="xtick_8">
     <g id="line2d_9">
      <g>
       <use xlink:href="#m4121303576" x="795.949007" y="129.168" style="fill: #808080; stroke: #808080; stroke-width: 0.8"/>
      </g>
     </g>
     <g id="text_8">
      <!-- 28,000 -->
      <g style="fill: #808080" transform="translate(778.453694 143.766437)scale(0.1 -0.1)">
       <use xlink:href="#DejaVuSans-32"/>
       <use xlink:href="#DejaVuSans-38" x="63.623047"/>
       <use xlink:href="#DejaVuSans-2c" x="127.246094"/>
       <use xlink:href="#DejaVuSans-30" x="159.033203"/>
       <use xlink:href="#DejaVuSans-30" x="222.65625"/>
       <use xlink:href="#DejaVuSans-30" x="286.279297"/>
      </g>
     </g>
    </g>
    <g id="xtick_9">
     <g id="line2d_10">
      <g>
       <use xlink:href="#m4121303576" x="908.172972" y="129.168" style="fill: #808080; stroke: #808080; stroke-width: 0.8"/>
      </g>
     </g>
     <g id="text_9">
      <!-- 32,000 -->
      <g style="fill: #808080" transform="translate(890.677659 143.766437)scale(0.1 -0.1)">
       <defs>
        <path id="DejaVuSans-33" d="M 2597 2516 
Q 3050 2419 3304 2112 
Q 3559 1806 3559 1356 
Q 3559 666 3084 287 
Q 2609 -91 1734 -91 
Q 1441 -91 1130 -33 
Q 819 25 488 141 
L 488 750 
Q 750 597 1062 519 
Q 1375 441 1716 441 
Q 2309 441 2620 675 
Q 2931 909 2931 1356 
Q 2931 1769 2642 2001 
Q 2353 2234 1838 2234 
L 1294 2234 
L 1294 2753 
L 1863 2753 
Q 2328 2753 2575 2939 
Q 2822 3125 2822 3475 
Q 2822 3834 2567 4026 
Q 2313 4219 1838 4219 
Q 1578 4219 1281 4162 
Q 984 4106 628 3988 
L 628 4550 
Q 988 4650 1302 4700 
Q 1616 4750 1894 4750 
Q 2613 4750 3031 4423 
Q 3450 4097 3450 3541 
Q 3450 3153 3228 2886 
Q 3006 2619 2597 2516 
z
" transform="scale(0.015625)"/>
       </defs>
       <use xlink:href="#DejaVuSans-33"/>
       <use xlink:href="#DejaVuSans-32" x="63.623047"/>
       <use xlink:href="#DejaVuSans-2c" x="127.246094"/>
       <use xlink:href="#DejaVuSans-30" x="159.033203"/>
       <use xlink:href="#DejaVuSans-30" x="222.65625"/>
       <use xlink:href="#DejaVuSans-30" x="286.279297"/>
      </g>
     </g>
    </g>
    <g id="xtick_10">
     <g id="line2d_11">
      <g>
       <use xlink:href="#m4121303576" x="1020.396937" y="129.168" style="fill: #808080; stroke: #808080; stroke-width: 0.8"/>
      </g>
     </g>
     <g id="text_10">
      <!-- 36,000 -->
      <g style="fill: #808080" transform="translate(1002.901625 143.766437)scale(0.1 -0.1)">
       <use xlink:href="#DejaVuSans-33"/>
       <use xlink:href="#DejaVuSans-36" x="63.623047"/>
       <use xlink:href="#DejaVuSans-2c" x="127.246094"/>
       <use xlink:href="#DejaVuSans-30" x="159.033203"/>
       <use xlink:href="#DejaVuSans-30" x="222.65625"/>
       <use xlink:href="#DejaVuSans-30" x="286.279297"/>
      </g>
     </g>
    </g>
   </g>
   <g id="legend_1">
    <g id="patch_42">
     <path d="M 1189.158805 117.946875 
L 1449.729118 117.946875 
Q 1451.729118 117.946875 1451.729118 115.946875 
L 1451.729118 14.2 
Q 1451.729118 12.2 1449.729118 12.2 
L 1189.158805 12.2 
Q 1187.158805 12.2 1187.158805 14.2 
L 1187.158805 115.946875 
Q 1187.158805 117.946875 1189.158805 117.946875 
z
" style="fill: #ffffff; opacity: 0.8; stroke: #cccccc; stroke-linejoin: miter"/>
    </g>
    <g id="patch_43">
     <path d="M 1191.158805 23.798438 
L 1211.158805 23.798438 
L 1211.158805 16.798438 
L 1191.158805 16.798438 
z
" style="fill: #1f77b4; stroke: #1f77b4; stroke-linejoin: miter"/>
    </g>
    <g id="text_11">
     <!-- Large genome deletion -->
     <g transform="translate(1219.158805 23.798438)scale(0.1 -0.1)">
      <defs>
       <path id="DejaVuSans-4c" d="M 628 4666 
L 1259 4666 
L 1259 531 
L 3531 531 
L 3531 0 
L 628 0 
L 628 4666 
z
" transform="scale(0.015625)"/>
       <path id="DejaVuSans-61" d="M 2194 1759 
Q 1497 1759 1228 1600 
Q 959 1441 959 1056 
Q 959 750 1161 570 
Q 1363 391 1709 391 
Q 2188 391 2477 730 
Q 2766 1069 2766 1631 
L 2766 1759 
L 2194 1759 
z
M 3341 1997 
L 3341 0 
L 2766 0 
L 2766 531 
Q 2569 213 2275 61 
Q 1981 -91 1556 -91 
Q 1019 -91 701 211 
Q 384 513 384 1019 
Q 384 1609 779 1909 
Q 1175 2209 1959 2209 
L 2766 2209 
L 2766 2266 
Q 2766 2663 2505 2880 
Q 2244 3097 1772 3097 
Q 1472 3097 1187 3025 
Q 903 2953 641 2809 
L 641 3341 
Q 956 3463 1253 3523 
Q 1550 3584 1831 3584 
Q 2591 3584 2966 3190 
Q 3341 2797 3341 1997 
z
" transform="scale(0.015625)"/>
       <path id="DejaVuSans-72" d="M 2631 2963 
Q 2534 3019 2420 3045 
Q 2306 3072 2169 3072 
Q 1681 3072 1420 2755 
Q 1159 2438 1159 1844 
L 1159 0 
L 581 0 
L 581 3500 
L 1159 3500 
L 1159 2956 
Q 1341 3275 1631 3429 
Q 1922 3584 2338 3584 
Q 2397 3584 2469 3576 
Q 2541 3569 2628 3553 
L 2631 2963 
z
" transform="scale(0.015625)"/>
       <path id="DejaVuSans-67" d="M 2906 1791 
Q 2906 2416 2648 2759 
Q 2391 3103 1925 3103 
Q 1463 3103 1205 2759 
Q 947 2416 947 1791 
Q 947 1169 1205 825 
Q 1463 481 1925 481 
Q 2391 481 2648 825 
Q 2906 1169 2906 1791 
z
M 3481 434 
Q 3481 -459 3084 -895 
Q 2688 -1331 1869 -1331 
Q 1566 -1331 1297 -1286 
Q 1028 -1241 775 -1147 
L 775 -588 
Q 1028 -725 1275 -790 
Q 1522 -856 1778 -856 
Q 2344 -856 2625 -561 
Q 2906 -266 2906 331 
L 2906 616 
Q 2728 306 2450 153 
Q 2172 0 1784 0 
Q 1141 0 747 490 
Q 353 981 353 1791 
Q 353 2603 747 3093 
Q 1141 3584 1784 3584 
Q 2172 3584 2450 3431 
Q 2728 3278 2906 2969 
L 2906 3500 
L 3481 3500 
L 3481 434 
z
" transform="scale(0.015625)"/>
       <path id="DejaVuSans-65" d="M 3597 1894 
L 3597 1613 
L 953 1613 
Q 991 1019 1311 708 
Q 1631 397 2203 397 
Q 2534 397 2845 478 
Q 3156 559 3463 722 
L 3463 178 
Q 3153 47 2828 -22 
Q 2503 -91 2169 -91 
Q 1331 -91 842 396 
Q 353 884 353 1716 
Q 353 2575 817 3079 
Q 1281 3584 2069 3584 
Q 2775 3584 3186 3129 
Q 3597 2675 3597 1894 
z
M 3022 2063 
Q 3016 2534 2758 2815 
Q 2500 3097 2075 3097 
Q 1594 3097 1305 2825 
Q 1016 2553 972 2059 
L 3022 2063 
z
" transform="scale(0.015625)"/>
       <path id="DejaVuSans-20" transform="scale(0.015625)"/>
       <path id="DejaVuSans-6e" d="M 3513 2113 
L 3513 0 
L 2938 0 
L 2938 2094 
Q 2938 2591 2744 2837 
Q 2550 3084 2163 3084 
Q 1697 3084 1428 2787 
Q 1159 2491 1159 1978 
L 1159 0 
L 581 0 
L 581 3500 
L 1159 3500 
L 1159 2956 
Q 1366 3272 1645 3428 
Q 1925 3584 2291 3584 
Q 2894 3584 3203 3211 
Q 3513 2838 3513 2113 
z
" transform="scale(0.015625)"/>
       <path id="DejaVuSans-6f" d="M 1959 3097 
Q 1497 3097 1228 2736 
Q 959 2375 959 1747 
Q 959 1119 1226 758 
Q 1494 397 1959 397 
Q 2419 397 2687 759 
Q 2956 1122 2956 1747 
Q 2956 2369 2687 2733 
Q 2419 3097 1959 3097 
z
M 1959 3584 
Q 2709 3584 3137 3096 
Q 3566 2609 3566 1747 
Q 3566 888 3137 398 
Q 2709 -91 1959 -91 
Q 1206 -91 779 398 
Q 353 888 353 1747 
Q 353 2609 779 3096 
Q 1206 3584 1959 3584 
z
" transform="scale(0.015625)"/>
       <path id="DejaVuSans-6d" d="M 3328 2828 
Q 3544 3216 3844 3400 
Q 4144 3584 4550 3584 
Q 5097 3584 5394 3201 
Q 5691 2819 5691 2113 
L 5691 0 
L 5113 0 
L 5113 2094 
Q 5113 2597 4934 2840 
Q 4756 3084 4391 3084 
Q 3944 3084 3684 2787 
Q 3425 2491 3425 1978 
L 3425 0 
L 2847 0 
L 2847 2094 
Q 2847 2600 2669 2842 
Q 2491 3084 2119 3084 
Q 1678 3084 1418 2786 
Q 1159 2488 1159 1978 
L 1159 0 
L 581 0 
L 581 3500 
L 1159 3500 
L 1159 2956 
Q 1356 3278 1631 3431 
Q 1906 3584 2284 3584 
Q 2666 3584 2933 3390 
Q 3200 3197 3328 2828 
z
" transform="scale(0.015625)"/>
       <path id="DejaVuSans-64" d="M 2906 2969 
L 2906 4863 
L 3481 4863 
L 3481 0 
L 2906 0 
L 2906 525 
Q 2725 213 2448 61 
Q 2172 -91 1784 -91 
Q 1150 -91 751 415 
Q 353 922 353 1747 
Q 353 2572 751 3078 
Q 1150 3584 1784 3584 
Q 2172 3584 2448 3432 
Q 2725 3281 2906 2969 
z
M 947 1747 
Q 947 1113 1208 752 
Q 1469 391 1925 391 
Q 2381 391 2643 752 
Q 2906 1113 2906 1747 
Q 2906 2381 2643 2742 
Q 2381 3103 1925 3103 
Q 1469 3103 1208 2742 
Q 947 2381 947 1747 
z
" transform="scale(0.015625)"/>
       <path id="DejaVuSans-6c" d="M 603 4863 
L 1178 4863 
L 1178 0 
L 603 0 
L 603 4863 
z
" transform="scale(0.015625)"/>
       <path id="DejaVuSans-74" d="M 1172 4494 
L 1172 3500 
L 2356 3500 
L 2356 3053 
L 1172 3053 
L 1172 1153 
Q 1172 725 1289 603 
Q 1406 481 1766 481 
L 2356 481 
L 2356 0 
L 1766 0 
Q 1100 0 847 248 
Q 594 497 594 1153 
L 594 3053 
L 172 3053 
L 172 3500 
L 594 3500 
L 594 4494 
L 1172 4494 
z
" transform="scale(0.015625)"/>
       <path id="DejaVuSans-69" d="M 603 3500 
L 1178 3500 
L 1178 0 
L 603 0 
L 603 3500 
z
M 603 4863 
L 1178 4863 
L 1178 4134 
L 603 4134 
L 603 4863 
z
" transform="scale(0.015625)"/>
      </defs>
      <use xlink:href="#DejaVuSans-4c"/>
      <use xlink:href="#DejaVuSans-61" x="55.712891"/>
      <use xlink:href="#DejaVuSans-72" x="116.992188"/>
      <use xlink:href="#DejaVuSans-67" x="156.355469"/>
      <use xlink:href="#DejaVuSans-65" x="219.832031"/>
      <use xlink:href="#DejaVuSans-20" x="281.355469"/>
      <use xlink:href="#DejaVuSans-67" x="313.142578"/>
      <use xlink:href="#DejaVuSans-65" x="376.619141"/>
      <use xlink:href="#DejaVuSans-6e" x="438.142578"/>
      <use xlink:href="#DejaVuSans-6f" x="501.521484"/>
      <use xlink:href="#DejaVuSans-6d" x="562.703125"/>
      <use xlink:href="#DejaVuSans-65" x="660.115234"/>
      <use xlink:href="#DejaVuSans-20" x="721.638672"/>
      <use xlink:href="#DejaVuSans-64" x="753.425781"/>
      <use xlink:href="#DejaVuSans-65" x="816.902344"/>
      <use xlink:href="#DejaVuSans-6c" x="878.425781"/>
      <use xlink:href="#DejaVuSans-65" x="906.208984"/>
      <use xlink:href="#DejaVuSans-74" x="967.732422"/>
      <use xlink:href="#DejaVuSans-69" x="1006.941406"/>
      <use xlink:href="#DejaVuSans-6f" x="1034.724609"/>
      <use xlink:href="#DejaVuSans-6e" x="1095.90625"/>
     </g>
    </g>
    <g id="patch_44">
     <path d="M 1191.158805 38.476563 
L 1211.158805 38.476563 
L 1211.158805 31.476563 
L 1191.158805 31.476563 
z
" style="fill: #ff7f0e; stroke: #ff7f0e; stroke-linejoin: miter"/>
    </g>
    <g id="text_12">
     <!-- RpoH -->
     <g transform="translate(1219.158805 38.476563)scale(0.1 -0.1)">
      <defs>
       <path id="DejaVuSans-52" d="M 2841 2188 
Q 3044 2119 3236 1894 
Q 3428 1669 3622 1275 
L 4263 0 
L 3584 0 
L 2988 1197 
Q 2756 1666 2539 1819 
Q 2322 1972 1947 1972 
L 1259 1972 
L 1259 0 
L 628 0 
L 628 4666 
L 2053 4666 
Q 2853 4666 3247 4331 
Q 3641 3997 3641 3322 
Q 3641 2881 3436 2590 
Q 3231 2300 2841 2188 
z
M 1259 4147 
L 1259 2491 
L 2053 2491 
Q 2509 2491 2742 2702 
Q 2975 2913 2975 3322 
Q 2975 3731 2742 3939 
Q 2509 4147 2053 4147 
L 1259 4147 
z
" transform="scale(0.015625)"/>
       <path id="DejaVuSans-70" d="M 1159 525 
L 1159 -1331 
L 581 -1331 
L 581 3500 
L 1159 3500 
L 1159 2969 
Q 1341 3281 1617 3432 
Q 1894 3584 2278 3584 
Q 2916 3584 3314 3078 
Q 3713 2572 3713 1747 
Q 3713 922 3314 415 
Q 2916 -91 2278 -91 
Q 1894 -91 1617 61 
Q 1341 213 1159 525 
z
M 3116 1747 
Q 3116 2381 2855 2742 
Q 2594 3103 2138 3103 
Q 1681 3103 1420 2742 
Q 1159 2381 1159 1747 
Q 1159 1113 1420 752 
Q 1681 391 2138 391 
Q 2594 391 2855 752 
Q 3116 1113 3116 1747 
z
" transform="scale(0.015625)"/>
       <path id="DejaVuSans-48" d="M 628 4666 
L 1259 4666 
L 1259 2753 
L 3553 2753 
L 3553 4666 
L 4184 4666 
L 4184 0 
L 3553 0 
L 3553 2222 
L 1259 2222 
L 1259 0 
L 628 0 
L 628 4666 
z
" transform="scale(0.015625)"/>
      </defs>
      <use xlink:href="#DejaVuSans-52"/>
      <use xlink:href="#DejaVuSans-70" x="69.482422"/>
      <use xlink:href="#DejaVuSans-6f" x="132.958984"/>
      <use xlink:href="#DejaVuSans-48" x="194.140625"/>
     </g>
    </g>
    <g id="patch_45">
     <path d="M 1191.158805 53.154688 
L 1211.158805 53.154688 
L 1211.158805 46.154688 
L 1191.158805 46.154688 
z
" style="fill: #2ca02c; stroke: #2ca02c; stroke-linejoin: miter"/>
    </g>
    <g id="text_13">
     <!-- Sulfate, Large genome deletion -->
     <g transform="translate(1219.158805 53.154688)scale(0.1 -0.1)">
      <defs>
       <path id="DejaVuSans-53" d="M 3425 4513 
L 3425 3897 
Q 3066 4069 2747 4153 
Q 2428 4238 2131 4238 
Q 1616 4238 1336 4038 
Q 1056 3838 1056 3469 
Q 1056 3159 1242 3001 
Q 1428 2844 1947 2747 
L 2328 2669 
Q 3034 2534 3370 2195 
Q 3706 1856 3706 1288 
Q 3706 609 3251 259 
Q 2797 -91 1919 -91 
Q 1588 -91 1214 -16 
Q 841 59 441 206 
L 441 856 
Q 825 641 1194 531 
Q 1563 422 1919 422 
Q 2459 422 2753 634 
Q 3047 847 3047 1241 
Q 3047 1584 2836 1778 
Q 2625 1972 2144 2069 
L 1759 2144 
Q 1053 2284 737 2584 
Q 422 2884 422 3419 
Q 422 4038 858 4394 
Q 1294 4750 2059 4750 
Q 2388 4750 2728 4690 
Q 3069 4631 3425 4513 
z
" transform="scale(0.015625)"/>
       <path id="DejaVuSans-75" d="M 544 1381 
L 544 3500 
L 1119 3500 
L 1119 1403 
Q 1119 906 1312 657 
Q 1506 409 1894 409 
Q 2359 409 2629 706 
Q 2900 1003 2900 1516 
L 2900 3500 
L 3475 3500 
L 3475 0 
L 2900 0 
L 2900 538 
Q 2691 219 2414 64 
Q 2138 -91 1772 -91 
Q 1169 -91 856 284 
Q 544 659 544 1381 
z
M 1991 3584 
L 1991 3584 
z
" transform="scale(0.015625)"/>
       <path id="DejaVuSans-66" d="M 2375 4863 
L 2375 4384 
L 1825 4384 
Q 1516 4384 1395 4259 
Q 1275 4134 1275 3809 
L 1275 3500 
L 2222 3500 
L 2222 3053 
L 1275 3053 
L 1275 0 
L 697 0 
L 697 3053 
L 147 3053 
L 147 3500 
L 697 3500 
L 697 3744 
Q 697 4328 969 4595 
Q 1241 4863 1831 4863 
L 2375 4863 
z
" transform="scale(0.015625)"/>
      </defs>
      <use xlink:href="#DejaVuSans-53"/>
      <use xlink:href="#DejaVuSans-75" x="63.476562"/>
      <use xlink:href="#DejaVuSans-6c" x="126.855469"/>
      <use xlink:href="#DejaVuSans-66" x="154.638672"/>
      <use xlink:href="#DejaVuSans-61" x="189.84375"/>
      <use xlink:href="#DejaVuSans-74" x="251.123047"/>
      <use xlink:href="#DejaVuSans-65" x="290.332031"/>
      <use xlink:href="#DejaVuSans-2c" x="351.855469"/>
      <use xlink:href="#DejaVuSans-20" x="383.642578"/>
      <use xlink:href="#DejaVuSans-4c" x="415.429688"/>
      <use xlink:href="#DejaVuSans-61" x="471.142578"/>
      <use xlink:href="#DejaVuSans-72" x="532.421875"/>
      <use xlink:href="#DejaVuSans-67" x="571.785156"/>
      <use xlink:href="#DejaVuSans-65" x="635.261719"/>
      <use xlink:href="#DejaVuSans-20" x="696.785156"/>
      <use xlink:href="#DejaVuSans-67" x="728.572266"/>
      <use xlink:href="#DejaVuSans-65" x="792.048828"/>
      <use xlink:href="#DejaVuSans-6e" x="853.572266"/>
      <use xlink:href="#DejaVuSans-6f" x="916.951172"/>
      <use xlink:href="#DejaVuSans-6d" x="978.132812"/>
      <use xlink:href="#DejaVuSans-65" x="1075.544922"/>
      <use xlink:href="#DejaVuSans-20" x="1137.068359"/>
      <use xlink:href="#DejaVuSans-64" x="1168.855469"/>
      <use xlink:href="#DejaVuSans-65" x="1232.332031"/>
      <use xlink:href="#DejaVuSans-6c" x="1293.855469"/>
      <use xlink:href="#DejaVuSans-65" x="1321.638672"/>
      <use xlink:href="#DejaVuSans-74" x="1383.162109"/>
      <use xlink:href="#DejaVuSans-69" x="1422.371094"/>
      <use xlink:href="#DejaVuSans-6f" x="1450.154297"/>
      <use xlink:href="#DejaVuSans-6e" x="1511.335938"/>
     </g>
    </g>
    <g id="patch_46">
     <path d="M 1191.158805 67.832813 
L 1211.158805 67.832813 
L 1211.158805 60.832813 
L 1191.158805 60.832813 
z
" style="fill: #d62728; stroke: #d62728; stroke-linejoin: miter"/>
    </g>
    <g id="text_14">
     <!-- UC-4, Large genome deletion -->
     <g transform="translate(1219.158805 67.832813)scale(0.1 -0.1)">
      <defs>
       <path id="DejaVuSans-55" d="M 556 4666 
L 1191 4666 
L 1191 1831 
Q 1191 1081 1462 751 
Q 1734 422 2344 422 
Q 2950 422 3222 751 
Q 3494 1081 3494 1831 
L 3494 4666 
L 4128 4666 
L 4128 1753 
Q 4128 841 3676 375 
Q 3225 -91 2344 -91 
Q 1459 -91 1007 375 
Q 556 841 556 1753 
L 556 4666 
z
" transform="scale(0.015625)"/>
       <path id="DejaVuSans-43" d="M 4122 4306 
L 4122 3641 
Q 3803 3938 3442 4084 
Q 3081 4231 2675 4231 
Q 1875 4231 1450 3742 
Q 1025 3253 1025 2328 
Q 1025 1406 1450 917 
Q 1875 428 2675 428 
Q 3081 428 3442 575 
Q 3803 722 4122 1019 
L 4122 359 
Q 3791 134 3420 21 
Q 3050 -91 2638 -91 
Q 1578 -91 968 557 
Q 359 1206 359 2328 
Q 359 3453 968 4101 
Q 1578 4750 2638 4750 
Q 3056 4750 3426 4639 
Q 3797 4528 4122 4306 
z
" transform="scale(0.015625)"/>
       <path id="DejaVuSans-2d" d="M 313 2009 
L 1997 2009 
L 1997 1497 
L 313 1497 
L 313 2009 
z
" transform="scale(0.015625)"/>
      </defs>
      <use xlink:href="#DejaVuSans-55"/>
      <use xlink:href="#DejaVuSans-43" x="73.193359"/>
      <use xlink:href="#DejaVuSans-2d" x="143.017578"/>
      <use xlink:href="#DejaVuSans-34" x="179.101562"/>
      <use xlink:href="#DejaVuSans-2c" x="242.724609"/>
      <use xlink:href="#DejaVuSans-20" x="274.511719"/>
      <use xlink:href="#DejaVuSans-4c" x="306.298828"/>
      <use xlink:href="#DejaVuSans-61" x="362.011719"/>
      <use xlink:href="#DejaVuSans-72" x="423.291016"/>
      <use xlink:href="#DejaVuSans-67" x="462.654297"/>
      <use xlink:href="#DejaVuSans-65" x="526.130859"/>
      <use xlink:href="#DejaVuSans-20" x="587.654297"/>
      <use xlink:href="#DejaVuSans-67" x="619.441406"/>
      <use xlink:href="#DejaVuSans-65" x="682.917969"/>
      <use xlink:href="#DejaVuSans-6e" x="744.441406"/>
      <use xlink:href="#DejaVuSans-6f" x="807.820312"/>
      <use xlink:href="#DejaVuSans-6d" x="869.001953"/>
      <use xlink:href="#DejaVuSans-65" x="966.414062"/>
      <use xlink:href="#DejaVuSans-20" x="1027.9375"/>
      <use xlink:href="#DejaVuSans-64" x="1059.724609"/>
      <use xlink:href="#DejaVuSans-65" x="1123.201172"/>
      <use xlink:href="#DejaVuSans-6c" x="1184.724609"/>
      <use xlink:href="#DejaVuSans-65" x="1212.507812"/>
      <use xlink:href="#DejaVuSans-74" x="1274.03125"/>
      <use xlink:href="#DejaVuSans-69" x="1313.240234"/>
      <use xlink:href="#DejaVuSans-6f" x="1341.023438"/>
      <use xlink:href="#DejaVuSans-6e" x="1402.205078"/>
     </g>
    </g>
    <g id="patch_47">
     <path d="M 1191.158805 82.510938 
L 1211.158805 82.510938 
L 1211.158805 75.510938 
L 1191.158805 75.510938 
z
" style="fill: #9467bd; stroke: #9467bd; stroke-linejoin: miter"/>
    </g>
    <g id="text_15">
     <!-- Cell membrane -->
     <g transform="translate(1219.158805 82.510938)scale(0.1 -0.1)">
      <defs>
       <path id="DejaVuSans-62" d="M 3116 1747 
Q 3116 2381 2855 2742 
Q 2594 3103 2138 3103 
Q 1681 3103 1420 2742 
Q 1159 2381 1159 1747 
Q 1159 1113 1420 752 
Q 1681 391 2138 391 
Q 2594 391 2855 752 
Q 3116 1113 3116 1747 
z
M 1159 2969 
Q 1341 3281 1617 3432 
Q 1894 3584 2278 3584 
Q 2916 3584 3314 3078 
Q 3713 2572 3713 1747 
Q 3713 922 3314 415 
Q 2916 -91 2278 -91 
Q 1894 -91 1617 61 
Q 1341 213 1159 525 
L 1159 0 
L 581 0 
L 581 4863 
L 1159 4863 
L 1159 2969 
z
" transform="scale(0.015625)"/>
      </defs>
      <use xlink:href="#DejaVuSans-43"/>
      <use xlink:href="#DejaVuSans-65" x="69.824219"/>
      <use xlink:href="#DejaVuSans-6c" x="131.347656"/>
      <use xlink:href="#DejaVuSans-6c" x="159.130859"/>
      <use xlink:href="#DejaVuSans-20" x="186.914062"/>
      <use xlink:href="#DejaVuSans-6d" x="218.701172"/>
      <use xlink:href="#DejaVuSans-65" x="316.113281"/>
      <use xlink:href="#DejaVuSans-6d" x="377.636719"/>
      <use xlink:href="#DejaVuSans-62" x="475.048828"/>
      <use xlink:href="#DejaVuSans-72" x="538.525391"/>
      <use xlink:href="#DejaVuSans-61" x="579.638672"/>
      <use xlink:href="#DejaVuSans-6e" x="640.917969"/>
      <use xlink:href="#DejaVuSans-65" x="704.296875"/>
     </g>
    </g>
    <g id="patch_48">
     <path d="M 1191.158805 97.189063 
L 1211.158805 97.189063 
L 1211.158805 90.189063 
L 1191.158805 90.189063 
z
" style="fill: #8c564b; stroke: #8c564b; stroke-linejoin: miter"/>
    </g>
    <g id="text_16">
     <!-- Large genome deletion, Fatty Acid -->
     <g transform="translate(1219.158805 97.189063)scale(0.1 -0.1)">
      <defs>
       <path id="DejaVuSans-46" d="M 628 4666 
L 3309 4666 
L 3309 4134 
L 1259 4134 
L 1259 2759 
L 3109 2759 
L 3109 2228 
L 1259 2228 
L 1259 0 
L 628 0 
L 628 4666 
z
" transform="scale(0.015625)"/>
       <path id="DejaVuSans-79" d="M 2059 -325 
Q 1816 -950 1584 -1140 
Q 1353 -1331 966 -1331 
L 506 -1331 
L 506 -850 
L 844 -850 
Q 1081 -850 1212 -737 
Q 1344 -625 1503 -206 
L 1606 56 
L 191 3500 
L 800 3500 
L 1894 763 
L 2988 3500 
L 3597 3500 
L 2059 -325 
z
" transform="scale(0.015625)"/>
       <path id="DejaVuSans-41" d="M 2188 4044 
L 1331 1722 
L 3047 1722 
L 2188 4044 
z
M 1831 4666 
L 2547 4666 
L 4325 0 
L 3669 0 
L 3244 1197 
L 1141 1197 
L 716 0 
L 50 0 
L 1831 4666 
z
" transform="scale(0.015625)"/>
       <path id="DejaVuSans-63" d="M 3122 3366 
L 3122 2828 
Q 2878 2963 2633 3030 
Q 2388 3097 2138 3097 
Q 1578 3097 1268 2742 
Q 959 2388 959 1747 
Q 959 1106 1268 751 
Q 1578 397 2138 397 
Q 2388 397 2633 464 
Q 2878 531 3122 666 
L 3122 134 
Q 2881 22 2623 -34 
Q 2366 -91 2075 -91 
Q 1284 -91 818 406 
Q 353 903 353 1747 
Q 353 2603 823 3093 
Q 1294 3584 2113 3584 
Q 2378 3584 2631 3529 
Q 2884 3475 3122 3366 
z
" transform="scale(0.015625)"/>
      </defs>
      <use xlink:href="#DejaVuSans-4c"/>
      <use xlink:href="#DejaVuSans-61" x="55.712891"/>
      <use xlink:href="#DejaVuSans-72" x="116.992188"/>
      <use xlink:href="#DejaVuSans-67" x="156.355469"/>
      <use xlink:href="#DejaVuSans-65" x="219.832031"/>
      <use xlink:href="#DejaVuSans-20" x="281.355469"/>
      <use xlink:href="#DejaVuSans-67" x="313.142578"/>
      <use xlink:href="#DejaVuSans-65" x="376.619141"/>
      <use xlink:href="#DejaVuSans-6e" x="438.142578"/>
      <use xlink:href="#DejaVuSans-6f" x="501.521484"/>
      <use xlink:href="#DejaVuSans-6d" x="562.703125"/>
      <use xlink:href="#DejaVuSans-65" x="660.115234"/>
      <use xlink:href="#DejaVuSans-20" x="721.638672"/>
      <use xlink:href="#DejaVuSans-64" x="753.425781"/>
      <use xlink:href="#DejaVuSans-65" x="816.902344"/>
      <use xlink:href="#DejaVuSans-6c" x="878.425781"/>
      <use xlink:href="#DejaVuSans-65" x="906.208984"/>
      <use xlink:href="#DejaVuSans-74" x="967.732422"/>
      <use xlink:href="#DejaVuSans-69" x="1006.941406"/>
      <use xlink:href="#DejaVuSans-6f" x="1034.724609"/>
      <use xlink:href="#DejaVuSans-6e" x="1095.90625"/>
      <use xlink:href="#DejaVuSans-2c" x="1159.285156"/>
      <use xlink:href="#DejaVuSans-20" x="1191.072266"/>
      <use xlink:href="#DejaVuSans-46" x="1222.859375"/>
      <use xlink:href="#DejaVuSans-61" x="1271.253906"/>
      <use xlink:href="#DejaVuSans-74" x="1332.533203"/>
      <use xlink:href="#DejaVuSans-74" x="1371.742188"/>
      <use xlink:href="#DejaVuSans-79" x="1410.951172"/>
      <use xlink:href="#DejaVuSans-20" x="1470.130859"/>
      <use xlink:href="#DejaVuSans-41" x="1501.917969"/>
      <use xlink:href="#DejaVuSans-63" x="1568.576172"/>
      <use xlink:href="#DejaVuSans-69" x="1623.556641"/>
      <use xlink:href="#DejaVuSans-64" x="1651.339844"/>
     </g>
    </g>
    <g id="patch_49">
     <path d="M 1191.158805 111.867188 
L 1211.158805 111.867188 
L 1211.158805 104.867188 
L 1191.158805 104.867188 
z
" style="fill: #e377c2; stroke: #e377c2; stroke-linejoin: miter"/>
    </g>
    <g id="text_17">
     <!-- NRPS BGC-14 related, Large genome deletion -->
     <g transform="translate(1219.158805 111.867188)scale(0.1 -0.1)">
      <defs>
       <path id="DejaVuSans-4e" d="M 628 4666 
L 1478 4666 
L 3547 763 
L 3547 4666 
L 4159 4666 
L 4159 0 
L 3309 0 
L 1241 3903 
L 1241 0 
L 628 0 
L 628 4666 
z
" transform="scale(0.015625)"/>
       <path id="DejaVuSans-50" d="M 1259 4147 
L 1259 2394 
L 2053 2394 
Q 2494 2394 2734 2622 
Q 2975 2850 2975 3272 
Q 2975 3691 2734 3919 
Q 2494 4147 2053 4147 
L 1259 4147 
z
M 628 4666 
L 2053 4666 
Q 2838 4666 3239 4311 
Q 3641 3956 3641 3272 
Q 3641 2581 3239 2228 
Q 2838 1875 2053 1875 
L 1259 1875 
L 1259 0 
L 628 0 
L 628 4666 
z
" transform="scale(0.015625)"/>
       <path id="DejaVuSans-42" d="M 1259 2228 
L 1259 519 
L 2272 519 
Q 2781 519 3026 730 
Q 3272 941 3272 1375 
Q 3272 1813 3026 2020 
Q 2781 2228 2272 2228 
L 1259 2228 
z
M 1259 4147 
L 1259 2741 
L 2194 2741 
Q 2656 2741 2882 2914 
Q 3109 3088 3109 3444 
Q 3109 3797 2882 3972 
Q 2656 4147 2194 4147 
L 1259 4147 
z
M 628 4666 
L 2241 4666 
Q 2963 4666 3353 4366 
Q 3744 4066 3744 3513 
Q 3744 3084 3544 2831 
Q 3344 2578 2956 2516 
Q 3422 2416 3680 2098 
Q 3938 1781 3938 1306 
Q 3938 681 3513 340 
Q 3088 0 2303 0 
L 628 0 
L 628 4666 
z
" transform="scale(0.015625)"/>
       <path id="DejaVuSans-47" d="M 3809 666 
L 3809 1919 
L 2778 1919 
L 2778 2438 
L 4434 2438 
L 4434 434 
Q 4069 175 3628 42 
Q 3188 -91 2688 -91 
Q 1594 -91 976 548 
Q 359 1188 359 2328 
Q 359 3472 976 4111 
Q 1594 4750 2688 4750 
Q 3144 4750 3555 4637 
Q 3966 4525 4313 4306 
L 4313 3634 
Q 3963 3931 3569 4081 
Q 3175 4231 2741 4231 
Q 1884 4231 1454 3753 
Q 1025 3275 1025 2328 
Q 1025 1384 1454 906 
Q 1884 428 2741 428 
Q 3075 428 3337 486 
Q 3600 544 3809 666 
z
" transform="scale(0.015625)"/>
      </defs>
      <use xlink:href="#DejaVuSans-4e"/>
      <use xlink:href="#DejaVuSans-52" x="74.804688"/>
      <use xlink:href="#DejaVuSans-50" x="144.287109"/>
      <use xlink:href="#DejaVuSans-53" x="204.589844"/>
      <use xlink:href="#DejaVuSans-20" x="268.066406"/>
      <use xlink:href="#DejaVuSans-42" x="299.853516"/>
      <use xlink:href="#DejaVuSans-47" x="366.707031"/>
      <use xlink:href="#DejaVuSans-43" x="444.197266"/>
      <use xlink:href="#DejaVuSans-2d" x="514.021484"/>
      <use xlink:href="#DejaVuSans-31" x="550.105469"/>
      <use xlink:href="#DejaVuSans-34" x="613.728516"/>
      <use xlink:href="#DejaVuSans-20" x="677.351562"/>
      <use xlink:href="#DejaVuSans-72" x="709.138672"/>
      <use xlink:href="#DejaVuSans-65" x="748.001953"/>
      <use xlink:href="#DejaVuSans-6c" x="809.525391"/>
      <use xlink:href="#DejaVuSans-61" x="837.308594"/>
      <use xlink:href="#DejaVuSans-74" x="898.587891"/>
      <use xlink:href="#DejaVuSans-65" x="937.796875"/>
      <use xlink:href="#DejaVuSans-64" x="999.320312"/>
      <use xlink:href="#DejaVuSans-2c" x="1062.796875"/>
      <use xlink:href="#DejaVuSans-20" x="1094.583984"/>
      <use xlink:href="#DejaVuSans-4c" x="1126.371094"/>
      <use xlink:href="#DejaVuSans-61" x="1182.083984"/>
      <use xlink:href="#DejaVuSans-72" x="1243.363281"/>
      <use xlink:href="#DejaVuSans-67" x="1282.726562"/>
      <use xlink:href="#DejaVuSans-65" x="1346.203125"/>
      <use xlink:href="#DejaVuSans-20" x="1407.726562"/>
      <use xlink:href="#DejaVuSans-67" x="1439.513672"/>
      <use xlink:href="#DejaVuSans-65" x="1502.990234"/>
      <use xlink:href="#DejaVuSans-6e" x="1564.513672"/>
      <use xlink:href="#DejaVuSans-6f" x="1627.892578"/>
      <use xlink:href="#DejaVuSans-6d" x="1689.074219"/>
      <use xlink:href="#DejaVuSans-65" x="1786.486328"/>
      <use xlink:href="#DejaVuSans-20" x="1848.009766"/>
      <use xlink:href="#DejaVuSans-64" x="1879.796875"/>
      <use xlink:href="#DejaVuSans-65" x="1943.273438"/>
      <use xlink:href="#DejaVuSans-6c" x="2004.796875"/>
      <use xlink:href="#DejaVuSans-65" x="2032.580078"/>
      <use xlink:href="#DejaVuSans-74" x="2094.103516"/>
      <use xlink:href="#DejaVuSans-69" x="2133.3125"/>
      <use xlink:href="#DejaVuSans-6f" x="2161.095703"/>
      <use xlink:href="#DejaVuSans-6e" x="2222.277344"/>
     </g>
    </g>
   </g>
  </g>
 </g>
 <defs>
  <clipPath id="p02aa7df753">
   <rect x="10.358805" y="7.2" width="1116" height="121.968"/>
  </clipPath>
 </defs>
</svg>
