<?xml version="1.0" encoding="utf-8" standalone="no"?>
<!DOCTYPE svg PUBLIC "-//W3C//DTD SVG 1.1//EN"
  "http://www.w3.org/Graphics/SVG/1.1/DTD/svg11.dtd">
<svg xmlns:xlink="http://www.w3.org/1999/xlink" width="580.223479pt" height="361.629375pt" viewBox="0 0 580.223479 361.629375" xmlns="http://www.w3.org/2000/svg" version="1.1">
 <metadata>
  <rdf:RDF xmlns:dc="http://purl.org/dc/elements/1.1/" xmlns:cc="http://creativecommons.org/ns#" xmlns:rdf="http://www.w3.org/1999/02/22-rdf-syntax-ns#">
   <cc:Work>
    <dc:type rdf:resource="http://purl.org/dc/dcmitype/StillImage"/>
    <dc:date>2023-12-07T13:37:09.167429</dc:date>
    <dc:format>image/svg+xml</dc:format>
    <dc:creator>
     <cc:Agent>
      <dc:title>Matplotlib v3.5.3, https://matplotlib.org/</dc:title>
     </cc:Agent>
    </dc:creator>
   </cc:Work>
  </rdf:RDF>
 </metadata>
 <defs>
  <style type="text/css">*{stroke-linejoin: round; stroke-linecap: butt}</style>
 </defs>
 <g id="figure_1">
  <g id="patch_1">
   <path d="M 0 361.629375 
L 580.223479 361.629375 
L 580.223479 -0 
L 0 -0 
L 0 361.629375 
z
" style="fill: none"/>
  </g>
  <g id="axes_1">
   <g id="matplotlib.axis_1"/>
   <g id="matplotlib.axis_2"/>
   <g id="patch_2">
    <path d="M 381.258577 188.109375 
C 381.258577 156.834999 370.232168 126.540188 350.129386 102.582626 
C 330.026604 78.625064 302.106756 62.505533 271.307508 57.074794 
L 248.202577 188.109375 
L 381.258577 188.109375 
z
" style="fill: #f77189; stroke: #ffffff; stroke-linejoin: miter"/>
   </g>
   <g id="patch_3">
    <path d="M 271.307508 57.074794 
C 242.746956 52.038799 213.30831 56.475961 187.50101 69.706593 
C 161.693709 82.937224 140.906386 104.249415 128.323262 130.378543 
L 248.202577 188.109375 
L 271.307508 57.074794 
z
" style="fill: #f77732; stroke: #ffffff; stroke-linejoin: miter"/>
   </g>
   <g id="patch_4">
    <path d="M 128.323262 130.378543 
C 117.701808 152.434221 113.370345 176.999172 115.807763 201.35748 
C 118.24518 225.715788 127.358213 248.935414 142.139319 268.44918 
L 248.202577 188.109375 
L 128.323262 130.378543 
z
" style="fill: #ce9032; stroke: #ffffff; stroke-linejoin: miter"/>
   </g>
   <g id="patch_5">
    <path d="M 142.139319 268.44918 
C 150.16677 279.046887 159.737442 288.381856 170.531985 296.142603 
C 181.326529 303.90335 193.223533 310.002587 205.826026 314.236799 
L 248.202577 188.109375 
L 142.139319 268.44918 
z
" style="fill: #b39b32; stroke: #ffffff; stroke-linejoin: miter"/>
   </g>
   <g id="patch_6">
    <path d="M 205.826026 314.236799 
C 212.118496 316.350956 218.560366 317.991257 225.097654 319.143957 
C 231.634942 320.296657 238.249336 320.958526 244.885408 321.124019 
L 248.202577 188.109375 
L 205.826026 314.236799 
z
" style="fill: #97a431; stroke: #ffffff; stroke-linejoin: miter"/>
   </g>
   <g id="patch_7">
    <path d="M 244.885408 321.124019 
C 251.521481 321.289512 258.160644 320.958165 264.747263 320.132754 
C 271.333881 319.307343 277.849506 317.99018 284.239536 316.192304 
L 248.202577 188.109375 
L 244.885408 321.124019 
z
" style="fill: #6cad31; stroke: #ffffff; stroke-linejoin: miter"/>
   </g>
   <g id="patch_8">
    <path d="M 284.239536 316.192304 
C 290.629567 314.394428 296.876104 312.120873 302.926803 309.390693 
C 308.977503 306.660513 314.815416 303.481355 320.391622 299.879858 
L 248.202577 188.109375 
L 284.239536 316.192304 
z
" style="fill: #32b166; stroke: #ffffff; stroke-linejoin: miter"/>
   </g>
   <g id="patch_9">
    <path d="M 320.391622 299.879858 
C 324.108131 297.479482 327.702605 294.895231 331.161645 292.136737 
C 334.620686 289.378244 337.93999 286.448941 341.107184 283.359746 
L 248.202577 188.109375 
L 320.391622 299.879858 
z
" style="fill: #34af8e; stroke: #ffffff; stroke-linejoin: miter"/>
   </g>
   <g id="patch_10">
    <path d="M 341.107184 283.359746 
C 342.690535 281.815388 344.235133 280.231791 345.739536 278.610429 
C 347.243939 276.989068 348.70768 275.330447 350.129395 273.636113 
L 248.202577 188.109375 
L 341.107184 283.359746 
z
" style="fill: #36ada4; stroke: #ffffff; stroke-linejoin: miter"/>
   </g>
   <g id="patch_11">
    <path d="M 350.129395 273.636113 
C 351.55111 271.941779 352.930356 270.212258 354.265848 268.449164 
C 355.60134 266.686069 356.892662 264.889949 358.138611 263.062477 
L 248.202577 188.109375 
L 350.129395 273.636113 
z
" style="fill: #37abb8; stroke: #ffffff; stroke-linejoin: miter"/>
   </g>
   <g id="patch_12">
    <path d="M 358.138611 263.062477 
C 359.38456 261.235005 360.584748 259.37675 361.738056 257.489445 
C 362.891364 255.60214 363.997434 253.68637 365.055234 251.743923 
L 248.202577 188.109375 
L 358.138611 263.062477 
z
" style="fill: #39a7d0; stroke: #ffffff; stroke-linejoin: miter"/>
   </g>
   <g id="patch_13">
    <path d="M 365.055234 251.743923 
C 366.113034 249.801476 367.122235 247.832955 368.081897 245.840196 
C 369.041559 243.847437 369.951384 241.831058 370.810522 239.792941 
L 248.202577 188.109375 
L 365.055234 251.743923 
z
" style="fill: #5a9ef4; stroke: #ffffff; stroke-linejoin: miter"/>
   </g>
   <g id="patch_14">
    <path d="M 370.810522 239.792941 
C 371.66966 237.754823 372.477845 235.695601 373.234324 233.617192 
C 373.990802 231.538784 374.695339 229.441836 375.347277 227.328304 
L 248.202577 188.109375 
L 370.810522 239.792941 
z
" style="fill: #a48cf4; stroke: #ffffff; stroke-linejoin: miter"/>
   </g>
   <g id="patch_15">
    <path d="M 375.347277 227.328304 
C 375.999215 225.214772 376.598352 223.085312 377.144129 220.941911 
C 377.689905 218.79851 378.182152 216.641833 378.620411 214.473891 
L 248.202577 188.109375 
L 375.347277 227.328304 
z
" style="fill: #d673f4; stroke: #ffffff; stroke-linejoin: miter"/>
   </g>
   <g id="patch_16">
    <path d="M 378.620411 214.473891 
C 379.058669 212.30595 379.442803 210.127417 379.772454 207.940325 
C 380.102105 205.753233 380.37717 203.558262 380.597394 201.357457 
L 248.202577 188.109375 
L 378.620411 214.473891 
z
" style="fill: #f561dd; stroke: #ffffff; stroke-linejoin: miter"/>
   </g>
   <g id="patch_17">
    <path d="M 380.597394 201.357457 
C 380.817617 199.156652 380.98293 196.950697 381.093179 194.741651 
C 381.203427 192.532604 381.258577 190.321152 381.258577 188.109356 
L 248.202577 188.109375 
L 380.597394 201.357457 
z
" style="fill: #f66ab5; stroke: #ffffff; stroke-linejoin: miter"/>
   </g>
   <g id="text_1">
    <!-- Uncharacterized -->
    <g style="fill: #262626" transform="translate(360.322067 96.873623)scale(0.11 -0.11)">
     <defs>
      <path id="ArialMT-55" d="M 3500 4581 
L 4106 4581 
L 4106 1934 
Q 4106 1244 3950 837 
Q 3794 431 3386 176 
Q 2978 -78 2316 -78 
Q 1672 -78 1262 144 
Q 853 366 678 786 
Q 503 1206 503 1934 
L 503 4581 
L 1109 4581 
L 1109 1938 
Q 1109 1341 1220 1058 
Q 1331 775 1601 622 
Q 1872 469 2263 469 
Q 2931 469 3215 772 
Q 3500 1075 3500 1938 
L 3500 4581 
z
" transform="scale(0.015625)"/>
      <path id="ArialMT-6e" d="M 422 0 
L 422 3319 
L 928 3319 
L 928 2847 
Q 1294 3394 1984 3394 
Q 2284 3394 2536 3286 
Q 2788 3178 2913 3003 
Q 3038 2828 3088 2588 
Q 3119 2431 3119 2041 
L 3119 0 
L 2556 0 
L 2556 2019 
Q 2556 2363 2490 2533 
Q 2425 2703 2258 2804 
Q 2091 2906 1866 2906 
Q 1506 2906 1245 2678 
Q 984 2450 984 1813 
L 984 0 
L 422 0 
z
" transform="scale(0.015625)"/>
      <path id="ArialMT-63" d="M 2588 1216 
L 3141 1144 
Q 3050 572 2676 248 
Q 2303 -75 1759 -75 
Q 1078 -75 664 370 
Q 250 816 250 1647 
Q 250 2184 428 2587 
Q 606 2991 970 3192 
Q 1334 3394 1763 3394 
Q 2303 3394 2647 3120 
Q 2991 2847 3088 2344 
L 2541 2259 
Q 2463 2594 2264 2762 
Q 2066 2931 1784 2931 
Q 1359 2931 1093 2626 
Q 828 2322 828 1663 
Q 828 994 1084 691 
Q 1341 388 1753 388 
Q 2084 388 2306 591 
Q 2528 794 2588 1216 
z
" transform="scale(0.015625)"/>
      <path id="ArialMT-68" d="M 422 0 
L 422 4581 
L 984 4581 
L 984 2938 
Q 1378 3394 1978 3394 
Q 2347 3394 2619 3248 
Q 2891 3103 3008 2847 
Q 3125 2591 3125 2103 
L 3125 0 
L 2563 0 
L 2563 2103 
Q 2563 2525 2380 2717 
Q 2197 2909 1863 2909 
Q 1613 2909 1392 2779 
Q 1172 2650 1078 2428 
Q 984 2206 984 1816 
L 984 0 
L 422 0 
z
" transform="scale(0.015625)"/>
      <path id="ArialMT-61" d="M 2588 409 
Q 2275 144 1986 34 
Q 1697 -75 1366 -75 
Q 819 -75 525 192 
Q 231 459 231 875 
Q 231 1119 342 1320 
Q 453 1522 633 1644 
Q 813 1766 1038 1828 
Q 1203 1872 1538 1913 
Q 2219 1994 2541 2106 
Q 2544 2222 2544 2253 
Q 2544 2597 2384 2738 
Q 2169 2928 1744 2928 
Q 1347 2928 1158 2789 
Q 969 2650 878 2297 
L 328 2372 
Q 403 2725 575 2942 
Q 747 3159 1072 3276 
Q 1397 3394 1825 3394 
Q 2250 3394 2515 3294 
Q 2781 3194 2906 3042 
Q 3031 2891 3081 2659 
Q 3109 2516 3109 2141 
L 3109 1391 
Q 3109 606 3145 398 
Q 3181 191 3288 0 
L 2700 0 
Q 2613 175 2588 409 
z
M 2541 1666 
Q 2234 1541 1622 1453 
Q 1275 1403 1131 1340 
Q 988 1278 909 1158 
Q 831 1038 831 891 
Q 831 666 1001 516 
Q 1172 366 1500 366 
Q 1825 366 2078 508 
Q 2331 650 2450 897 
Q 2541 1088 2541 1459 
L 2541 1666 
z
" transform="scale(0.015625)"/>
      <path id="ArialMT-72" d="M 416 0 
L 416 3319 
L 922 3319 
L 922 2816 
Q 1116 3169 1280 3281 
Q 1444 3394 1641 3394 
Q 1925 3394 2219 3213 
L 2025 2691 
Q 1819 2813 1613 2813 
Q 1428 2813 1281 2702 
Q 1134 2591 1072 2394 
Q 978 2094 978 1738 
L 978 0 
L 416 0 
z
" transform="scale(0.015625)"/>
      <path id="ArialMT-74" d="M 1650 503 
L 1731 6 
Q 1494 -44 1306 -44 
Q 1000 -44 831 53 
Q 663 150 594 308 
Q 525 466 525 972 
L 525 2881 
L 113 2881 
L 113 3319 
L 525 3319 
L 525 4141 
L 1084 4478 
L 1084 3319 
L 1650 3319 
L 1650 2881 
L 1084 2881 
L 1084 941 
Q 1084 700 1114 631 
Q 1144 563 1211 522 
Q 1278 481 1403 481 
Q 1497 481 1650 503 
z
" transform="scale(0.015625)"/>
      <path id="ArialMT-65" d="M 2694 1069 
L 3275 997 
Q 3138 488 2766 206 
Q 2394 -75 1816 -75 
Q 1088 -75 661 373 
Q 234 822 234 1631 
Q 234 2469 665 2931 
Q 1097 3394 1784 3394 
Q 2450 3394 2872 2941 
Q 3294 2488 3294 1666 
Q 3294 1616 3291 1516 
L 816 1516 
Q 847 969 1125 678 
Q 1403 388 1819 388 
Q 2128 388 2347 550 
Q 2566 713 2694 1069 
z
M 847 1978 
L 2700 1978 
Q 2663 2397 2488 2606 
Q 2219 2931 1791 2931 
Q 1403 2931 1139 2672 
Q 875 2413 847 1978 
z
" transform="scale(0.015625)"/>
      <path id="ArialMT-69" d="M 425 3934 
L 425 4581 
L 988 4581 
L 988 3934 
L 425 3934 
z
M 425 0 
L 425 3319 
L 988 3319 
L 988 0 
L 425 0 
z
" transform="scale(0.015625)"/>
      <path id="ArialMT-7a" d="M 125 0 
L 125 456 
L 2238 2881 
Q 1878 2863 1603 2863 
L 250 2863 
L 250 3319 
L 2963 3319 
L 2963 2947 
L 1166 841 
L 819 456 
Q 1197 484 1528 484 
L 3063 484 
L 3063 0 
L 125 0 
z
" transform="scale(0.015625)"/>
      <path id="ArialMT-64" d="M 2575 0 
L 2575 419 
Q 2259 -75 1647 -75 
Q 1250 -75 917 144 
Q 584 363 401 755 
Q 219 1147 219 1656 
Q 219 2153 384 2558 
Q 550 2963 881 3178 
Q 1213 3394 1622 3394 
Q 1922 3394 2156 3267 
Q 2391 3141 2538 2938 
L 2538 4581 
L 3097 4581 
L 3097 0 
L 2575 0 
z
M 797 1656 
Q 797 1019 1065 703 
Q 1334 388 1700 388 
Q 2069 388 2326 689 
Q 2584 991 2584 1609 
Q 2584 2291 2321 2609 
Q 2059 2928 1675 2928 
Q 1300 2928 1048 2622 
Q 797 2316 797 1656 
z
" transform="scale(0.015625)"/>
     </defs>
     <use xlink:href="#ArialMT-55"/>
     <use xlink:href="#ArialMT-6e" x="72.216797"/>
     <use xlink:href="#ArialMT-63" x="127.832031"/>
     <use xlink:href="#ArialMT-68" x="177.832031"/>
     <use xlink:href="#ArialMT-61" x="233.447266"/>
     <use xlink:href="#ArialMT-72" x="289.0625"/>
     <use xlink:href="#ArialMT-61" x="322.363281"/>
     <use xlink:href="#ArialMT-63" x="377.978516"/>
     <use xlink:href="#ArialMT-74" x="427.978516"/>
     <use xlink:href="#ArialMT-65" x="455.761719"/>
     <use xlink:href="#ArialMT-72" x="511.376953"/>
     <use xlink:href="#ArialMT-69" x="544.677734"/>
     <use xlink:href="#ArialMT-7a" x="566.894531"/>
     <use xlink:href="#ArialMT-65" x="616.894531"/>
     <use xlink:href="#ArialMT-64" x="672.509766"/>
    </g>
   </g>
   <g id="text_2">
    <!-- Secondary Metabolism -->
    <g style="fill: #262626" transform="translate(69.552259 60.712565)scale(0.11 -0.11)">
     <defs>
      <path id="ArialMT-53" d="M 288 1472 
L 859 1522 
Q 900 1178 1048 958 
Q 1197 738 1509 602 
Q 1822 466 2213 466 
Q 2559 466 2825 569 
Q 3091 672 3220 851 
Q 3350 1031 3350 1244 
Q 3350 1459 3225 1620 
Q 3100 1781 2813 1891 
Q 2628 1963 1997 2114 
Q 1366 2266 1113 2400 
Q 784 2572 623 2826 
Q 463 3081 463 3397 
Q 463 3744 659 4045 
Q 856 4347 1234 4503 
Q 1613 4659 2075 4659 
Q 2584 4659 2973 4495 
Q 3363 4331 3572 4012 
Q 3781 3694 3797 3291 
L 3216 3247 
Q 3169 3681 2898 3903 
Q 2628 4125 2100 4125 
Q 1550 4125 1298 3923 
Q 1047 3722 1047 3438 
Q 1047 3191 1225 3031 
Q 1400 2872 2139 2705 
Q 2878 2538 3153 2413 
Q 3553 2228 3743 1945 
Q 3934 1663 3934 1294 
Q 3934 928 3725 604 
Q 3516 281 3123 101 
Q 2731 -78 2241 -78 
Q 1619 -78 1198 103 
Q 778 284 539 648 
Q 300 1013 288 1472 
z
" transform="scale(0.015625)"/>
      <path id="ArialMT-6f" d="M 213 1659 
Q 213 2581 725 3025 
Q 1153 3394 1769 3394 
Q 2453 3394 2887 2945 
Q 3322 2497 3322 1706 
Q 3322 1066 3130 698 
Q 2938 331 2570 128 
Q 2203 -75 1769 -75 
Q 1072 -75 642 372 
Q 213 819 213 1659 
z
M 791 1659 
Q 791 1022 1069 705 
Q 1347 388 1769 388 
Q 2188 388 2466 706 
Q 2744 1025 2744 1678 
Q 2744 2294 2464 2611 
Q 2184 2928 1769 2928 
Q 1347 2928 1069 2612 
Q 791 2297 791 1659 
z
" transform="scale(0.015625)"/>
      <path id="ArialMT-79" d="M 397 -1278 
L 334 -750 
Q 519 -800 656 -800 
Q 844 -800 956 -737 
Q 1069 -675 1141 -563 
Q 1194 -478 1313 -144 
Q 1328 -97 1363 -6 
L 103 3319 
L 709 3319 
L 1400 1397 
Q 1534 1031 1641 628 
Q 1738 1016 1872 1384 
L 2581 3319 
L 3144 3319 
L 1881 -56 
Q 1678 -603 1566 -809 
Q 1416 -1088 1222 -1217 
Q 1028 -1347 759 -1347 
Q 597 -1347 397 -1278 
z
" transform="scale(0.015625)"/>
      <path id="ArialMT-20" transform="scale(0.015625)"/>
      <path id="ArialMT-4d" d="M 475 0 
L 475 4581 
L 1388 4581 
L 2472 1338 
Q 2622 884 2691 659 
Q 2769 909 2934 1394 
L 4031 4581 
L 4847 4581 
L 4847 0 
L 4263 0 
L 4263 3834 
L 2931 0 
L 2384 0 
L 1059 3900 
L 1059 0 
L 475 0 
z
" transform="scale(0.015625)"/>
      <path id="ArialMT-62" d="M 941 0 
L 419 0 
L 419 4581 
L 981 4581 
L 981 2947 
Q 1338 3394 1891 3394 
Q 2197 3394 2470 3270 
Q 2744 3147 2920 2923 
Q 3097 2700 3197 2384 
Q 3297 2069 3297 1709 
Q 3297 856 2875 390 
Q 2453 -75 1863 -75 
Q 1275 -75 941 416 
L 941 0 
z
M 934 1684 
Q 934 1088 1097 822 
Q 1363 388 1816 388 
Q 2184 388 2453 708 
Q 2722 1028 2722 1663 
Q 2722 2313 2464 2622 
Q 2206 2931 1841 2931 
Q 1472 2931 1203 2611 
Q 934 2291 934 1684 
z
" transform="scale(0.015625)"/>
      <path id="ArialMT-6c" d="M 409 0 
L 409 4581 
L 972 4581 
L 972 0 
L 409 0 
z
" transform="scale(0.015625)"/>
      <path id="ArialMT-73" d="M 197 991 
L 753 1078 
Q 800 744 1014 566 
Q 1228 388 1613 388 
Q 2000 388 2187 545 
Q 2375 703 2375 916 
Q 2375 1106 2209 1216 
Q 2094 1291 1634 1406 
Q 1016 1563 777 1677 
Q 538 1791 414 1992 
Q 291 2194 291 2438 
Q 291 2659 392 2848 
Q 494 3038 669 3163 
Q 800 3259 1026 3326 
Q 1253 3394 1513 3394 
Q 1903 3394 2198 3281 
Q 2494 3169 2634 2976 
Q 2775 2784 2828 2463 
L 2278 2388 
Q 2241 2644 2061 2787 
Q 1881 2931 1553 2931 
Q 1166 2931 1000 2803 
Q 834 2675 834 2503 
Q 834 2394 903 2306 
Q 972 2216 1119 2156 
Q 1203 2125 1616 2013 
Q 2213 1853 2448 1751 
Q 2684 1650 2818 1456 
Q 2953 1263 2953 975 
Q 2953 694 2789 445 
Q 2625 197 2315 61 
Q 2006 -75 1616 -75 
Q 969 -75 630 194 
Q 291 463 197 991 
z
" transform="scale(0.015625)"/>
      <path id="ArialMT-6d" d="M 422 0 
L 422 3319 
L 925 3319 
L 925 2853 
Q 1081 3097 1340 3245 
Q 1600 3394 1931 3394 
Q 2300 3394 2536 3241 
Q 2772 3088 2869 2813 
Q 3263 3394 3894 3394 
Q 4388 3394 4653 3120 
Q 4919 2847 4919 2278 
L 4919 0 
L 4359 0 
L 4359 2091 
Q 4359 2428 4304 2576 
Q 4250 2725 4106 2815 
Q 3963 2906 3769 2906 
Q 3419 2906 3187 2673 
Q 2956 2441 2956 1928 
L 2956 0 
L 2394 0 
L 2394 2156 
Q 2394 2531 2256 2718 
Q 2119 2906 1806 2906 
Q 1569 2906 1367 2781 
Q 1166 2656 1075 2415 
Q 984 2175 984 1722 
L 984 0 
L 422 0 
z
" transform="scale(0.015625)"/>
     </defs>
     <use xlink:href="#ArialMT-53"/>
     <use xlink:href="#ArialMT-65" x="66.699219"/>
     <use xlink:href="#ArialMT-63" x="122.314453"/>
     <use xlink:href="#ArialMT-6f" x="172.314453"/>
     <use xlink:href="#ArialMT-6e" x="227.929688"/>
     <use xlink:href="#ArialMT-64" x="283.544922"/>
     <use xlink:href="#ArialMT-61" x="339.160156"/>
     <use xlink:href="#ArialMT-72" x="394.775391"/>
     <use xlink:href="#ArialMT-79" x="428.076172"/>
     <use xlink:href="#ArialMT-20" x="478.076172"/>
     <use xlink:href="#ArialMT-4d" x="505.859375"/>
     <use xlink:href="#ArialMT-65" x="589.160156"/>
     <use xlink:href="#ArialMT-74" x="644.775391"/>
     <use xlink:href="#ArialMT-61" x="672.558594"/>
     <use xlink:href="#ArialMT-62" x="728.173828"/>
     <use xlink:href="#ArialMT-6f" x="783.789062"/>
     <use xlink:href="#ArialMT-6c" x="839.404297"/>
     <use xlink:href="#ArialMT-69" x="861.621094"/>
     <use xlink:href="#ArialMT-73" x="883.837891"/>
     <use xlink:href="#ArialMT-6d" x="933.837891"/>
    </g>
   </g>
   <g id="text_3">
    <!-- Carbon Metabolism -->
    <g style="fill: #262626" transform="translate(7.2 205.525962)scale(0.11 -0.11)">
     <defs>
      <path id="ArialMT-43" d="M 3763 1606 
L 4369 1453 
Q 4178 706 3683 314 
Q 3188 -78 2472 -78 
Q 1731 -78 1267 223 
Q 803 525 561 1097 
Q 319 1669 319 2325 
Q 319 3041 592 3573 
Q 866 4106 1370 4382 
Q 1875 4659 2481 4659 
Q 3169 4659 3637 4309 
Q 4106 3959 4291 3325 
L 3694 3184 
Q 3534 3684 3231 3912 
Q 2928 4141 2469 4141 
Q 1941 4141 1586 3887 
Q 1231 3634 1087 3207 
Q 944 2781 944 2328 
Q 944 1744 1114 1308 
Q 1284 872 1643 656 
Q 2003 441 2422 441 
Q 2931 441 3284 734 
Q 3638 1028 3763 1606 
z
" transform="scale(0.015625)"/>
     </defs>
     <use xlink:href="#ArialMT-43"/>
     <use xlink:href="#ArialMT-61" x="72.216797"/>
     <use xlink:href="#ArialMT-72" x="127.832031"/>
     <use xlink:href="#ArialMT-62" x="161.132812"/>
     <use xlink:href="#ArialMT-6f" x="216.748047"/>
     <use xlink:href="#ArialMT-6e" x="272.363281"/>
     <use xlink:href="#ArialMT-20" x="327.978516"/>
     <use xlink:href="#ArialMT-4d" x="355.761719"/>
     <use xlink:href="#ArialMT-65" x="439.0625"/>
     <use xlink:href="#ArialMT-74" x="494.677734"/>
     <use xlink:href="#ArialMT-61" x="522.460938"/>
     <use xlink:href="#ArialMT-62" x="578.076172"/>
     <use xlink:href="#ArialMT-6f" x="633.691406"/>
     <use xlink:href="#ArialMT-6c" x="689.306641"/>
     <use xlink:href="#ArialMT-69" x="711.523438"/>
     <use xlink:href="#ArialMT-73" x="733.740234"/>
     <use xlink:href="#ArialMT-6d" x="783.740234"/>
    </g>
   </g>
   <g id="text_4">
    <!-- Amino Acid Metabolism -->
    <g style="fill: #262626" transform="translate(48.443989 309.789598)scale(0.11 -0.11)">
     <defs>
      <path id="ArialMT-41" d="M -9 0 
L 1750 4581 
L 2403 4581 
L 4278 0 
L 3588 0 
L 3053 1388 
L 1138 1388 
L 634 0 
L -9 0 
z
M 1313 1881 
L 2866 1881 
L 2388 3150 
Q 2169 3728 2063 4100 
Q 1975 3659 1816 3225 
L 1313 1881 
z
" transform="scale(0.015625)"/>
     </defs>
     <use xlink:href="#ArialMT-41"/>
     <use xlink:href="#ArialMT-6d" x="66.699219"/>
     <use xlink:href="#ArialMT-69" x="150"/>
     <use xlink:href="#ArialMT-6e" x="172.216797"/>
     <use xlink:href="#ArialMT-6f" x="227.832031"/>
     <use xlink:href="#ArialMT-20" x="283.447266"/>
     <use xlink:href="#ArialMT-41" x="305.730469"/>
     <use xlink:href="#ArialMT-63" x="372.429688"/>
     <use xlink:href="#ArialMT-69" x="422.429688"/>
     <use xlink:href="#ArialMT-64" x="444.646484"/>
     <use xlink:href="#ArialMT-20" x="500.261719"/>
     <use xlink:href="#ArialMT-4d" x="528.044922"/>
     <use xlink:href="#ArialMT-65" x="611.345703"/>
     <use xlink:href="#ArialMT-74" x="666.960938"/>
     <use xlink:href="#ArialMT-61" x="694.744141"/>
     <use xlink:href="#ArialMT-62" x="750.359375"/>
     <use xlink:href="#ArialMT-6f" x="805.974609"/>
     <use xlink:href="#ArialMT-6c" x="861.589844"/>
     <use xlink:href="#ArialMT-69" x="883.806641"/>
     <use xlink:href="#ArialMT-73" x="906.023438"/>
     <use xlink:href="#ArialMT-6d" x="956.023438"/>
    </g>
   </g>
   <g id="text_5">
    <!-- Membrane Transport -->
    <g style="fill: #262626" transform="translate(120.695131 335.091087)scale(0.11 -0.11)">
     <defs>
      <path id="ArialMT-54" d="M 1659 0 
L 1659 4041 
L 150 4041 
L 150 4581 
L 3781 4581 
L 3781 4041 
L 2266 4041 
L 2266 0 
L 1659 0 
z
" transform="scale(0.015625)"/>
      <path id="ArialMT-70" d="M 422 -1272 
L 422 3319 
L 934 3319 
L 934 2888 
Q 1116 3141 1344 3267 
Q 1572 3394 1897 3394 
Q 2322 3394 2647 3175 
Q 2972 2956 3137 2557 
Q 3303 2159 3303 1684 
Q 3303 1175 3120 767 
Q 2938 359 2589 142 
Q 2241 -75 1856 -75 
Q 1575 -75 1351 44 
Q 1128 163 984 344 
L 984 -1272 
L 422 -1272 
z
M 931 1641 
Q 931 1000 1190 694 
Q 1450 388 1819 388 
Q 2194 388 2461 705 
Q 2728 1022 2728 1688 
Q 2728 2322 2467 2637 
Q 2206 2953 1844 2953 
Q 1484 2953 1207 2617 
Q 931 2281 931 1641 
z
" transform="scale(0.015625)"/>
     </defs>
     <use xlink:href="#ArialMT-4d"/>
     <use xlink:href="#ArialMT-65" x="83.300781"/>
     <use xlink:href="#ArialMT-6d" x="138.916016"/>
     <use xlink:href="#ArialMT-62" x="222.216797"/>
     <use xlink:href="#ArialMT-72" x="277.832031"/>
     <use xlink:href="#ArialMT-61" x="311.132812"/>
     <use xlink:href="#ArialMT-6e" x="366.748047"/>
     <use xlink:href="#ArialMT-65" x="422.363281"/>
     <use xlink:href="#ArialMT-20" x="477.978516"/>
     <use xlink:href="#ArialMT-54" x="504.011719"/>
     <use xlink:href="#ArialMT-72" x="561.345703"/>
     <use xlink:href="#ArialMT-61" x="594.646484"/>
     <use xlink:href="#ArialMT-6e" x="650.261719"/>
     <use xlink:href="#ArialMT-73" x="705.876953"/>
     <use xlink:href="#ArialMT-70" x="755.876953"/>
     <use xlink:href="#ArialMT-6f" x="811.492188"/>
     <use xlink:href="#ArialMT-72" x="867.107422"/>
     <use xlink:href="#ArialMT-74" x="900.408203"/>
    </g>
   </g>
   <g id="text_6">
    <!-- Stress Response -->
    <g style="fill: #262626" transform="translate(266.401731 336.245795)scale(0.11 -0.11)">
     <defs>
      <path id="ArialMT-52" d="M 503 0 
L 503 4581 
L 2534 4581 
Q 3147 4581 3465 4457 
Q 3784 4334 3975 4021 
Q 4166 3709 4166 3331 
Q 4166 2844 3850 2509 
Q 3534 2175 2875 2084 
Q 3116 1969 3241 1856 
Q 3506 1613 3744 1247 
L 4541 0 
L 3778 0 
L 3172 953 
Q 2906 1366 2734 1584 
Q 2563 1803 2427 1890 
Q 2291 1978 2150 2013 
Q 2047 2034 1813 2034 
L 1109 2034 
L 1109 0 
L 503 0 
z
M 1109 2559 
L 2413 2559 
Q 2828 2559 3062 2645 
Q 3297 2731 3419 2920 
Q 3541 3109 3541 3331 
Q 3541 3656 3305 3865 
Q 3069 4075 2559 4075 
L 1109 4075 
L 1109 2559 
z
" transform="scale(0.015625)"/>
     </defs>
     <use xlink:href="#ArialMT-53"/>
     <use xlink:href="#ArialMT-74" x="66.699219"/>
     <use xlink:href="#ArialMT-72" x="94.482422"/>
     <use xlink:href="#ArialMT-65" x="127.783203"/>
     <use xlink:href="#ArialMT-73" x="183.398438"/>
     <use xlink:href="#ArialMT-73" x="233.398438"/>
     <use xlink:href="#ArialMT-20" x="283.398438"/>
     <use xlink:href="#ArialMT-52" x="311.181641"/>
     <use xlink:href="#ArialMT-65" x="383.398438"/>
     <use xlink:href="#ArialMT-73" x="439.013672"/>
     <use xlink:href="#ArialMT-70" x="489.013672"/>
     <use xlink:href="#ArialMT-6f" x="544.628906"/>
     <use xlink:href="#ArialMT-6e" x="600.244141"/>
     <use xlink:href="#ArialMT-73" x="655.859375"/>
     <use xlink:href="#ArialMT-65" x="705.859375"/>
    </g>
   </g>
   <g id="text_7">
    <!-- Metal Homeostasis -->
    <g style="fill: #262626" transform="translate(308.399226 324.362497)scale(0.11 -0.11)">
     <defs>
      <path id="ArialMT-48" d="M 513 0 
L 513 4581 
L 1119 4581 
L 1119 2700 
L 3500 2700 
L 3500 4581 
L 4106 4581 
L 4106 0 
L 3500 0 
L 3500 2159 
L 1119 2159 
L 1119 0 
L 513 0 
z
" transform="scale(0.015625)"/>
     </defs>
     <use xlink:href="#ArialMT-4d"/>
     <use xlink:href="#ArialMT-65" x="83.300781"/>
     <use xlink:href="#ArialMT-74" x="138.916016"/>
     <use xlink:href="#ArialMT-61" x="166.699219"/>
     <use xlink:href="#ArialMT-6c" x="222.314453"/>
     <use xlink:href="#ArialMT-20" x="244.53125"/>
     <use xlink:href="#ArialMT-48" x="272.314453"/>
     <use xlink:href="#ArialMT-6f" x="344.53125"/>
     <use xlink:href="#ArialMT-6d" x="400.146484"/>
     <use xlink:href="#ArialMT-65" x="483.447266"/>
     <use xlink:href="#ArialMT-6f" x="539.0625"/>
     <use xlink:href="#ArialMT-73" x="594.677734"/>
     <use xlink:href="#ArialMT-74" x="644.677734"/>
     <use xlink:href="#ArialMT-61" x="672.460938"/>
     <use xlink:href="#ArialMT-73" x="728.076172"/>
     <use xlink:href="#ArialMT-69" x="778.076172"/>
     <use xlink:href="#ArialMT-73" x="800.292969"/>
    </g>
   </g>
   <g id="text_8">
    <!-- Fatty Acid Metabolism -->
    <g style="fill: #262626" transform="translate(339.457552 305.318692)scale(0.11 -0.11)">
     <defs>
      <path id="ArialMT-46" d="M 525 0 
L 525 4581 
L 3616 4581 
L 3616 4041 
L 1131 4041 
L 1131 2622 
L 3281 2622 
L 3281 2081 
L 1131 2081 
L 1131 0 
L 525 0 
z
" transform="scale(0.015625)"/>
     </defs>
     <use xlink:href="#ArialMT-46"/>
     <use xlink:href="#ArialMT-61" x="61.083984"/>
     <use xlink:href="#ArialMT-74" x="116.699219"/>
     <use xlink:href="#ArialMT-74" x="144.482422"/>
     <use xlink:href="#ArialMT-79" x="172.265625"/>
     <use xlink:href="#ArialMT-20" x="222.265625"/>
     <use xlink:href="#ArialMT-41" x="244.548828"/>
     <use xlink:href="#ArialMT-63" x="311.248047"/>
     <use xlink:href="#ArialMT-69" x="361.248047"/>
     <use xlink:href="#ArialMT-64" x="383.464844"/>
     <use xlink:href="#ArialMT-20" x="439.080078"/>
     <use xlink:href="#ArialMT-4d" x="466.863281"/>
     <use xlink:href="#ArialMT-65" x="550.164062"/>
     <use xlink:href="#ArialMT-74" x="605.779297"/>
     <use xlink:href="#ArialMT-61" x="633.5625"/>
     <use xlink:href="#ArialMT-62" x="689.177734"/>
     <use xlink:href="#ArialMT-6f" x="744.792969"/>
     <use xlink:href="#ArialMT-6c" x="800.408203"/>
     <use xlink:href="#ArialMT-69" x="822.625"/>
     <use xlink:href="#ArialMT-73" x="844.841797"/>
     <use xlink:href="#ArialMT-6d" x="894.841797"/>
    </g>
   </g>
   <g id="text_9">
    <!-- Energy production and Conversion -->
    <g style="fill: #262626" transform="translate(355.493232 290.506785)scale(0.11 -0.11)">
     <defs>
      <path id="ArialMT-45" d="M 506 0 
L 506 4581 
L 3819 4581 
L 3819 4041 
L 1113 4041 
L 1113 2638 
L 3647 2638 
L 3647 2100 
L 1113 2100 
L 1113 541 
L 3925 541 
L 3925 0 
L 506 0 
z
" transform="scale(0.015625)"/>
      <path id="ArialMT-67" d="M 319 -275 
L 866 -356 
Q 900 -609 1056 -725 
Q 1266 -881 1628 -881 
Q 2019 -881 2231 -725 
Q 2444 -569 2519 -288 
Q 2563 -116 2559 434 
Q 2191 0 1641 0 
Q 956 0 581 494 
Q 206 988 206 1678 
Q 206 2153 378 2554 
Q 550 2956 876 3175 
Q 1203 3394 1644 3394 
Q 2231 3394 2613 2919 
L 2613 3319 
L 3131 3319 
L 3131 450 
Q 3131 -325 2973 -648 
Q 2816 -972 2473 -1159 
Q 2131 -1347 1631 -1347 
Q 1038 -1347 672 -1080 
Q 306 -813 319 -275 
z
M 784 1719 
Q 784 1066 1043 766 
Q 1303 466 1694 466 
Q 2081 466 2343 764 
Q 2606 1063 2606 1700 
Q 2606 2309 2336 2618 
Q 2066 2928 1684 2928 
Q 1309 2928 1046 2623 
Q 784 2319 784 1719 
z
" transform="scale(0.015625)"/>
      <path id="ArialMT-75" d="M 2597 0 
L 2597 488 
Q 2209 -75 1544 -75 
Q 1250 -75 995 37 
Q 741 150 617 320 
Q 494 491 444 738 
Q 409 903 409 1263 
L 409 3319 
L 972 3319 
L 972 1478 
Q 972 1038 1006 884 
Q 1059 663 1231 536 
Q 1403 409 1656 409 
Q 1909 409 2131 539 
Q 2353 669 2445 892 
Q 2538 1116 2538 1541 
L 2538 3319 
L 3100 3319 
L 3100 0 
L 2597 0 
z
" transform="scale(0.015625)"/>
      <path id="ArialMT-76" d="M 1344 0 
L 81 3319 
L 675 3319 
L 1388 1331 
Q 1503 1009 1600 663 
Q 1675 925 1809 1294 
L 2547 3319 
L 3125 3319 
L 1869 0 
L 1344 0 
z
" transform="scale(0.015625)"/>
     </defs>
     <use xlink:href="#ArialMT-45"/>
     <use xlink:href="#ArialMT-6e" x="66.699219"/>
     <use xlink:href="#ArialMT-65" x="122.314453"/>
     <use xlink:href="#ArialMT-72" x="177.929688"/>
     <use xlink:href="#ArialMT-67" x="211.230469"/>
     <use xlink:href="#ArialMT-79" x="266.845703"/>
     <use xlink:href="#ArialMT-20" x="316.845703"/>
     <use xlink:href="#ArialMT-70" x="344.628906"/>
     <use xlink:href="#ArialMT-72" x="400.244141"/>
     <use xlink:href="#ArialMT-6f" x="433.544922"/>
     <use xlink:href="#ArialMT-64" x="489.160156"/>
     <use xlink:href="#ArialMT-75" x="544.775391"/>
     <use xlink:href="#ArialMT-63" x="600.390625"/>
     <use xlink:href="#ArialMT-74" x="650.390625"/>
     <use xlink:href="#ArialMT-69" x="678.173828"/>
     <use xlink:href="#ArialMT-6f" x="700.390625"/>
     <use xlink:href="#ArialMT-6e" x="756.005859"/>
     <use xlink:href="#ArialMT-20" x="811.621094"/>
     <use xlink:href="#ArialMT-61" x="839.404297"/>
     <use xlink:href="#ArialMT-6e" x="895.019531"/>
     <use xlink:href="#ArialMT-64" x="950.634766"/>
     <use xlink:href="#ArialMT-20" x="1006.25"/>
     <use xlink:href="#ArialMT-43" x="1034.033203"/>
     <use xlink:href="#ArialMT-6f" x="1106.25"/>
     <use xlink:href="#ArialMT-6e" x="1161.865234"/>
     <use xlink:href="#ArialMT-76" x="1217.480469"/>
     <use xlink:href="#ArialMT-65" x="1267.480469"/>
     <use xlink:href="#ArialMT-72" x="1323.095703"/>
     <use xlink:href="#ArialMT-73" x="1356.396484"/>
     <use xlink:href="#ArialMT-69" x="1406.396484"/>
     <use xlink:href="#ArialMT-6f" x="1428.613281"/>
     <use xlink:href="#ArialMT-6e" x="1484.228516"/>
    </g>
   </g>
   <g id="text_10">
    <!-- Nitrogen Metabolism -->
    <g style="fill: #262626" transform="translate(364.872175 279.262361)scale(0.11 -0.11)">
     <defs>
      <path id="ArialMT-4e" d="M 488 0 
L 488 4581 
L 1109 4581 
L 3516 984 
L 3516 4581 
L 4097 4581 
L 4097 0 
L 3475 0 
L 1069 3600 
L 1069 0 
L 488 0 
z
" transform="scale(0.015625)"/>
     </defs>
     <use xlink:href="#ArialMT-4e"/>
     <use xlink:href="#ArialMT-69" x="72.216797"/>
     <use xlink:href="#ArialMT-74" x="94.433594"/>
     <use xlink:href="#ArialMT-72" x="122.216797"/>
     <use xlink:href="#ArialMT-6f" x="155.517578"/>
     <use xlink:href="#ArialMT-67" x="211.132812"/>
     <use xlink:href="#ArialMT-65" x="266.748047"/>
     <use xlink:href="#ArialMT-6e" x="322.363281"/>
     <use xlink:href="#ArialMT-20" x="377.978516"/>
     <use xlink:href="#ArialMT-4d" x="405.761719"/>
     <use xlink:href="#ArialMT-65" x="489.0625"/>
     <use xlink:href="#ArialMT-74" x="544.677734"/>
     <use xlink:href="#ArialMT-61" x="572.460938"/>
     <use xlink:href="#ArialMT-62" x="628.076172"/>
     <use xlink:href="#ArialMT-6f" x="683.691406"/>
     <use xlink:href="#ArialMT-6c" x="739.306641"/>
     <use xlink:href="#ArialMT-69" x="761.523438"/>
     <use xlink:href="#ArialMT-73" x="783.740234"/>
     <use xlink:href="#ArialMT-6d" x="833.740234"/>
    </g>
   </g>
   <g id="text_11">
    <!-- Cell wall/membrane/envelope biogenesis -->
    <g style="fill: #262626" transform="translate(373.091604 267.273702)scale(0.11 -0.11)">
     <defs>
      <path id="ArialMT-77" d="M 1034 0 
L 19 3319 
L 600 3319 
L 1128 1403 
L 1325 691 
Q 1338 744 1497 1375 
L 2025 3319 
L 2603 3319 
L 3100 1394 
L 3266 759 
L 3456 1400 
L 4025 3319 
L 4572 3319 
L 3534 0 
L 2950 0 
L 2422 1988 
L 2294 2553 
L 1622 0 
L 1034 0 
z
" transform="scale(0.015625)"/>
      <path id="ArialMT-2f" d="M 0 -78 
L 1328 4659 
L 1778 4659 
L 453 -78 
L 0 -78 
z
" transform="scale(0.015625)"/>
     </defs>
     <use xlink:href="#ArialMT-43"/>
     <use xlink:href="#ArialMT-65" x="72.216797"/>
     <use xlink:href="#ArialMT-6c" x="127.832031"/>
     <use xlink:href="#ArialMT-6c" x="150.048828"/>
     <use xlink:href="#ArialMT-20" x="172.265625"/>
     <use xlink:href="#ArialMT-77" x="200.048828"/>
     <use xlink:href="#ArialMT-61" x="272.265625"/>
     <use xlink:href="#ArialMT-6c" x="327.880859"/>
     <use xlink:href="#ArialMT-6c" x="350.097656"/>
     <use xlink:href="#ArialMT-2f" x="372.314453"/>
     <use xlink:href="#ArialMT-6d" x="400.097656"/>
     <use xlink:href="#ArialMT-65" x="483.398438"/>
     <use xlink:href="#ArialMT-6d" x="539.013672"/>
     <use xlink:href="#ArialMT-62" x="622.314453"/>
     <use xlink:href="#ArialMT-72" x="677.929688"/>
     <use xlink:href="#ArialMT-61" x="711.230469"/>
     <use xlink:href="#ArialMT-6e" x="766.845703"/>
     <use xlink:href="#ArialMT-65" x="822.460938"/>
     <use xlink:href="#ArialMT-2f" x="878.076172"/>
     <use xlink:href="#ArialMT-65" x="905.859375"/>
     <use xlink:href="#ArialMT-6e" x="961.474609"/>
     <use xlink:href="#ArialMT-76" x="1017.089844"/>
     <use xlink:href="#ArialMT-65" x="1067.089844"/>
     <use xlink:href="#ArialMT-6c" x="1122.705078"/>
     <use xlink:href="#ArialMT-6f" x="1144.921875"/>
     <use xlink:href="#ArialMT-70" x="1200.537109"/>
     <use xlink:href="#ArialMT-65" x="1256.152344"/>
     <use xlink:href="#ArialMT-20" x="1311.767578"/>
     <use xlink:href="#ArialMT-62" x="1339.550781"/>
     <use xlink:href="#ArialMT-69" x="1395.166016"/>
     <use xlink:href="#ArialMT-6f" x="1417.382812"/>
     <use xlink:href="#ArialMT-67" x="1472.998047"/>
     <use xlink:href="#ArialMT-65" x="1528.613281"/>
     <use xlink:href="#ArialMT-6e" x="1584.228516"/>
     <use xlink:href="#ArialMT-65" x="1639.84375"/>
     <use xlink:href="#ArialMT-73" x="1695.458984"/>
     <use xlink:href="#ArialMT-69" x="1745.458984"/>
     <use xlink:href="#ArialMT-73" x="1767.675781"/>
    </g>
   </g>
   <g id="text_12">
    <!-- Translation -->
    <g style="fill: #262626" transform="translate(380.069829 254.45695)scale(0.11 -0.11)">
     <use xlink:href="#ArialMT-54"/>
     <use xlink:href="#ArialMT-72" x="57.333984"/>
     <use xlink:href="#ArialMT-61" x="90.634766"/>
     <use xlink:href="#ArialMT-6e" x="146.25"/>
     <use xlink:href="#ArialMT-73" x="201.865234"/>
     <use xlink:href="#ArialMT-6c" x="251.865234"/>
     <use xlink:href="#ArialMT-61" x="274.082031"/>
     <use xlink:href="#ArialMT-74" x="329.697266"/>
     <use xlink:href="#ArialMT-69" x="357.480469"/>
     <use xlink:href="#ArialMT-6f" x="379.697266"/>
     <use xlink:href="#ArialMT-6e" x="435.3125"/>
    </g>
   </g>
   <g id="text_13">
    <!-- Development -->
    <g style="fill: #262626" transform="translate(385.737498 241.011646)scale(0.11 -0.11)">
     <defs>
      <path id="ArialMT-44" d="M 494 0 
L 494 4581 
L 2072 4581 
Q 2606 4581 2888 4516 
Q 3281 4425 3559 4188 
Q 3922 3881 4101 3404 
Q 4281 2928 4281 2316 
Q 4281 1794 4159 1391 
Q 4038 988 3847 723 
Q 3656 459 3429 307 
Q 3203 156 2883 78 
Q 2563 0 2147 0 
L 494 0 
z
M 1100 541 
L 2078 541 
Q 2531 541 2789 625 
Q 3047 709 3200 863 
Q 3416 1078 3536 1442 
Q 3656 1806 3656 2325 
Q 3656 3044 3420 3430 
Q 3184 3816 2847 3947 
Q 2603 4041 2063 4041 
L 1100 4041 
L 1100 541 
z
" transform="scale(0.015625)"/>
     </defs>
     <use xlink:href="#ArialMT-44"/>
     <use xlink:href="#ArialMT-65" x="72.216797"/>
     <use xlink:href="#ArialMT-76" x="127.832031"/>
     <use xlink:href="#ArialMT-65" x="177.832031"/>
     <use xlink:href="#ArialMT-6c" x="233.447266"/>
     <use xlink:href="#ArialMT-6f" x="255.664062"/>
     <use xlink:href="#ArialMT-70" x="311.279297"/>
     <use xlink:href="#ArialMT-6d" x="366.894531"/>
     <use xlink:href="#ArialMT-65" x="450.195312"/>
     <use xlink:href="#ArialMT-6e" x="505.810547"/>
     <use xlink:href="#ArialMT-74" x="561.425781"/>
    </g>
   </g>
   <g id="text_14">
    <!-- DNA Damage -->
    <g style="fill: #262626" transform="translate(390.038284 227.004383)scale(0.11 -0.11)">
     <use xlink:href="#ArialMT-44"/>
     <use xlink:href="#ArialMT-4e" x="72.216797"/>
     <use xlink:href="#ArialMT-41" x="144.433594"/>
     <use xlink:href="#ArialMT-20" x="205.632812"/>
     <use xlink:href="#ArialMT-44" x="233.416016"/>
     <use xlink:href="#ArialMT-61" x="305.632812"/>
     <use xlink:href="#ArialMT-6d" x="361.248047"/>
     <use xlink:href="#ArialMT-61" x="444.548828"/>
     <use xlink:href="#ArialMT-67" x="500.164062"/>
     <use xlink:href="#ArialMT-65" x="555.779297"/>
    </g>
   </g>
   <g id="text_15">
    <!-- Phosphate Metabolism -->
    <g style="fill: #262626" transform="translate(392.929442 212.767092)scale(0.11 -0.11)">
     <defs>
      <path id="ArialMT-50" d="M 494 0 
L 494 4581 
L 2222 4581 
Q 2678 4581 2919 4538 
Q 3256 4481 3484 4323 
Q 3713 4166 3852 3881 
Q 3991 3597 3991 3256 
Q 3991 2672 3619 2267 
Q 3247 1863 2275 1863 
L 1100 1863 
L 1100 0 
L 494 0 
z
M 1100 2403 
L 2284 2403 
Q 2872 2403 3119 2622 
Q 3366 2841 3366 3238 
Q 3366 3525 3220 3729 
Q 3075 3934 2838 4000 
Q 2684 4041 2272 4041 
L 1100 4041 
L 1100 2403 
z
" transform="scale(0.015625)"/>
     </defs>
     <use xlink:href="#ArialMT-50"/>
     <use xlink:href="#ArialMT-68" x="66.699219"/>
     <use xlink:href="#ArialMT-6f" x="122.314453"/>
     <use xlink:href="#ArialMT-73" x="177.929688"/>
     <use xlink:href="#ArialMT-70" x="227.929688"/>
     <use xlink:href="#ArialMT-68" x="283.544922"/>
     <use xlink:href="#ArialMT-61" x="339.160156"/>
     <use xlink:href="#ArialMT-74" x="394.775391"/>
     <use xlink:href="#ArialMT-65" x="422.558594"/>
     <use xlink:href="#ArialMT-20" x="478.173828"/>
     <use xlink:href="#ArialMT-4d" x="505.957031"/>
     <use xlink:href="#ArialMT-65" x="589.257812"/>
     <use xlink:href="#ArialMT-74" x="644.873047"/>
     <use xlink:href="#ArialMT-61" x="672.65625"/>
     <use xlink:href="#ArialMT-62" x="728.271484"/>
     <use xlink:href="#ArialMT-6f" x="783.886719"/>
     <use xlink:href="#ArialMT-6c" x="839.501953"/>
     <use xlink:href="#ArialMT-69" x="861.71875"/>
     <use xlink:href="#ArialMT-73" x="883.935547"/>
     <use xlink:href="#ArialMT-6d" x="933.935547"/>
    </g>
   </g>
   <g id="text_16">
    <!-- Energy Metabolism -->
    <g style="fill: #262626" transform="translate(394.382239 198.184097)scale(0.11 -0.11)">
     <use xlink:href="#ArialMT-45"/>
     <use xlink:href="#ArialMT-6e" x="66.699219"/>
     <use xlink:href="#ArialMT-65" x="122.314453"/>
     <use xlink:href="#ArialMT-72" x="177.929688"/>
     <use xlink:href="#ArialMT-67" x="211.230469"/>
     <use xlink:href="#ArialMT-79" x="266.845703"/>
     <use xlink:href="#ArialMT-20" x="316.845703"/>
     <use xlink:href="#ArialMT-4d" x="344.628906"/>
     <use xlink:href="#ArialMT-65" x="427.929688"/>
     <use xlink:href="#ArialMT-74" x="483.544922"/>
     <use xlink:href="#ArialMT-61" x="511.328125"/>
     <use xlink:href="#ArialMT-62" x="566.943359"/>
     <use xlink:href="#ArialMT-6f" x="622.558594"/>
     <use xlink:href="#ArialMT-6c" x="678.173828"/>
     <use xlink:href="#ArialMT-69" x="700.390625"/>
     <use xlink:href="#ArialMT-73" x="722.607422"/>
     <use xlink:href="#ArialMT-6d" x="772.607422"/>
    </g>
   </g>
   <g id="text_17">
    <!-- Distribution of Functions -->
    <g style="fill: #262626" transform="translate(183.844139 15.789375)scale(0.12 -0.12)">
     <defs>
      <path id="ArialMT-66" d="M 556 0 
L 556 2881 
L 59 2881 
L 59 3319 
L 556 3319 
L 556 3672 
Q 556 4006 616 4169 
Q 697 4388 901 4523 
Q 1106 4659 1475 4659 
Q 1713 4659 2000 4603 
L 1916 4113 
Q 1741 4144 1584 4144 
Q 1328 4144 1222 4034 
Q 1116 3925 1116 3625 
L 1116 3319 
L 1763 3319 
L 1763 2881 
L 1116 2881 
L 1116 0 
L 556 0 
z
" transform="scale(0.015625)"/>
     </defs>
     <use xlink:href="#ArialMT-44"/>
     <use xlink:href="#ArialMT-69" x="72.216797"/>
     <use xlink:href="#ArialMT-73" x="94.433594"/>
     <use xlink:href="#ArialMT-74" x="144.433594"/>
     <use xlink:href="#ArialMT-72" x="172.216797"/>
     <use xlink:href="#ArialMT-69" x="205.517578"/>
     <use xlink:href="#ArialMT-62" x="227.734375"/>
     <use xlink:href="#ArialMT-75" x="283.349609"/>
     <use xlink:href="#ArialMT-74" x="338.964844"/>
     <use xlink:href="#ArialMT-69" x="366.748047"/>
     <use xlink:href="#ArialMT-6f" x="388.964844"/>
     <use xlink:href="#ArialMT-6e" x="444.580078"/>
     <use xlink:href="#ArialMT-20" x="500.195312"/>
     <use xlink:href="#ArialMT-6f" x="527.978516"/>
     <use xlink:href="#ArialMT-66" x="583.59375"/>
     <use xlink:href="#ArialMT-20" x="611.376953"/>
     <use xlink:href="#ArialMT-46" x="639.160156"/>
     <use xlink:href="#ArialMT-75" x="700.244141"/>
     <use xlink:href="#ArialMT-6e" x="755.859375"/>
     <use xlink:href="#ArialMT-63" x="811.474609"/>
     <use xlink:href="#ArialMT-74" x="861.474609"/>
     <use xlink:href="#ArialMT-69" x="889.257812"/>
     <use xlink:href="#ArialMT-6f" x="911.474609"/>
     <use xlink:href="#ArialMT-6e" x="967.089844"/>
     <use xlink:href="#ArialMT-73" x="1022.705078"/>
    </g>
   </g>
  </g>
 </g>
</svg>
