<?xml version="1.0" encoding="utf-8" standalone="no"?>
<!DOCTYPE svg PUBLIC "-//W3C//DTD SVG 1.1//EN"
  "http://www.w3.org/Graphics/SVG/1.1/DTD/svg11.dtd">
<svg xmlns:xlink="http://www.w3.org/1999/xlink" width="420.8625pt" height="327.918437pt" viewBox="0 0 420.8625 327.918437" xmlns="http://www.w3.org/2000/svg" version="1.1">
 <metadata>
  <rdf:RDF xmlns:dc="http://purl.org/dc/elements/1.1/" xmlns:cc="http://creativecommons.org/ns#" xmlns:rdf="http://www.w3.org/1999/02/22-rdf-syntax-ns#">
   <cc:Work>
    <dc:type rdf:resource="http://purl.org/dc/dcmitype/StillImage"/>
    <dc:date>2023-12-09T14:15:36.199478</dc:date>
    <dc:format>image/svg+xml</dc:format>
    <dc:creator>
     <cc:Agent>
      <dc:title>Matplotlib v3.5.3, https://matplotlib.org/</dc:title>
     </cc:Agent>
    </dc:creator>
   </cc:Work>
  </rdf:RDF>
 </metadata>
 <defs>
  <style type="text/css">*{stroke-linejoin: round; stroke-linecap: butt}</style>
 </defs>
 <g id="figure_1">
  <g id="patch_1">
   <path d="M 0 327.918437 
L 420.8625 327.918437 
L 420.8625 0 
L 0 0 
L 0 327.918437 
z
" style="fill: none"/>
  </g>
  <g id="axes_1">
   <g id="patch_2">
    <path d="M 54.4625 284.4 
L 333.4625 284.4 
L 333.4625 7.2 
L 54.4625 7.2 
L 54.4625 284.4 
z
" style="fill: none"/>
   </g>
   <g id="line2d_1">
    <path d="M 107.237804 284.4 
L 217.196964 7.2 
" clip-path="url(#pe9ec5c1efe)" style="fill: none; stroke-dasharray: 1.85,0.8; stroke-dashoffset: 0; stroke: #000000; stroke-width: 0.5"/>
   </g>
   <g id="line2d_2">
    <path d="M 143.471695 284.4 
L 253.430855 7.2 
" clip-path="url(#pe9ec5c1efe)" style="fill: none; stroke-dasharray: 1.85,0.8; stroke-dashoffset: 0; stroke: #808080; stroke-width: 0.5"/>
   </g>
   <g id="line2d_3">
    <path d="M 71.003912 284.4 
L 180.963072 7.2 
" clip-path="url(#pe9ec5c1efe)" style="fill: none; stroke-dasharray: 1.85,0.8; stroke-dashoffset: 0; stroke: #808080; stroke-width: 0.5"/>
   </g>
   <g id="matplotlib.axis_1">
    <g id="xtick_1">
     <g id="line2d_4">
      <defs>
       <path id="m942fa8c2b4" d="M 0 0 
L 0 2.5 
" style="stroke: #000000; stroke-width: 0.5"/>
      </defs>
      <g>
       <use xlink:href="#m942fa8c2b4" x="76.380639" y="284.4" style="stroke: #000000; stroke-width: 0.5"/>
      </g>
     </g>
     <g id="text_1">
      <!-- −20 -->
      <g transform="translate(64.506889 298.920937)scale(0.14 -0.14)">
       <defs>
        <path id="ArialMT-2212" d="M 3381 1997 
L 356 1997 
L 356 2522 
L 3381 2522 
L 3381 1997 
z
" transform="scale(0.015625)"/>
        <path id="ArialMT-32" d="M 3222 541 
L 3222 0 
L 194 0 
Q 188 203 259 391 
Q 375 700 629 1000 
Q 884 1300 1366 1694 
Q 2113 2306 2375 2664 
Q 2638 3022 2638 3341 
Q 2638 3675 2398 3904 
Q 2159 4134 1775 4134 
Q 1369 4134 1125 3890 
Q 881 3647 878 3216 
L 300 3275 
Q 359 3922 746 4261 
Q 1134 4600 1788 4600 
Q 2447 4600 2831 4234 
Q 3216 3869 3216 3328 
Q 3216 3053 3103 2787 
Q 2991 2522 2730 2228 
Q 2469 1934 1863 1422 
Q 1356 997 1212 845 
Q 1069 694 975 541 
L 3222 541 
z
" transform="scale(0.015625)"/>
        <path id="ArialMT-30" d="M 266 2259 
Q 266 3072 433 3567 
Q 600 4063 929 4331 
Q 1259 4600 1759 4600 
Q 2128 4600 2406 4451 
Q 2684 4303 2865 4023 
Q 3047 3744 3150 3342 
Q 3253 2941 3253 2259 
Q 3253 1453 3087 958 
Q 2922 463 2592 192 
Q 2263 -78 1759 -78 
Q 1097 -78 719 397 
Q 266 969 266 2259 
z
M 844 2259 
Q 844 1131 1108 757 
Q 1372 384 1759 384 
Q 2147 384 2411 759 
Q 2675 1134 2675 2259 
Q 2675 3391 2411 3762 
Q 2147 4134 1753 4134 
Q 1366 4134 1134 3806 
Q 844 3388 844 2259 
z
" transform="scale(0.015625)"/>
       </defs>
       <use xlink:href="#ArialMT-2212"/>
       <use xlink:href="#ArialMT-32" x="58.398438"/>
       <use xlink:href="#ArialMT-30" x="114.013672"/>
      </g>
     </g>
    </g>
    <g id="xtick_2">
     <g id="line2d_5">
      <g>
       <use xlink:href="#m942fa8c2b4" x="148.848422" y="284.4" style="stroke: #000000; stroke-width: 0.5"/>
      </g>
     </g>
     <g id="text_2">
      <!-- 0 -->
      <g transform="translate(144.955766 298.920937)scale(0.14 -0.14)">
       <use xlink:href="#ArialMT-30"/>
      </g>
     </g>
    </g>
    <g id="xtick_3">
     <g id="line2d_6">
      <g>
       <use xlink:href="#m942fa8c2b4" x="221.316205" y="284.4" style="stroke: #000000; stroke-width: 0.5"/>
      </g>
     </g>
     <g id="text_3">
      <!-- 20 -->
      <g transform="translate(213.530892 298.920937)scale(0.14 -0.14)">
       <use xlink:href="#ArialMT-32"/>
       <use xlink:href="#ArialMT-30" x="55.615234"/>
      </g>
     </g>
    </g>
    <g id="xtick_4">
     <g id="line2d_7">
      <g>
       <use xlink:href="#m942fa8c2b4" x="293.783988" y="284.4" style="stroke: #000000; stroke-width: 0.5"/>
      </g>
     </g>
     <g id="text_4">
      <!-- 40 -->
      <g transform="translate(285.998675 298.920937)scale(0.14 -0.14)">
       <defs>
        <path id="ArialMT-34" d="M 2069 0 
L 2069 1097 
L 81 1097 
L 81 1613 
L 2172 4581 
L 2631 4581 
L 2631 1613 
L 3250 1613 
L 3250 1097 
L 2631 1097 
L 2631 0 
L 2069 0 
z
M 2069 1613 
L 2069 3678 
L 634 1613 
L 2069 1613 
z
" transform="scale(0.015625)"/>
       </defs>
       <use xlink:href="#ArialMT-34"/>
       <use xlink:href="#ArialMT-30" x="55.615234"/>
      </g>
     </g>
    </g>
    <g id="text_5">
     <!-- Surugamide-1 Activity -->
     <g transform="translate(116.5975 317.350937)scale(0.16 -0.16)">
      <defs>
       <path id="ArialMT-53" d="M 288 1472 
L 859 1522 
Q 900 1178 1048 958 
Q 1197 738 1509 602 
Q 1822 466 2213 466 
Q 2559 466 2825 569 
Q 3091 672 3220 851 
Q 3350 1031 3350 1244 
Q 3350 1459 3225 1620 
Q 3100 1781 2813 1891 
Q 2628 1963 1997 2114 
Q 1366 2266 1113 2400 
Q 784 2572 623 2826 
Q 463 3081 463 3397 
Q 463 3744 659 4045 
Q 856 4347 1234 4503 
Q 1613 4659 2075 4659 
Q 2584 4659 2973 4495 
Q 3363 4331 3572 4012 
Q 3781 3694 3797 3291 
L 3216 3247 
Q 3169 3681 2898 3903 
Q 2628 4125 2100 4125 
Q 1550 4125 1298 3923 
Q 1047 3722 1047 3438 
Q 1047 3191 1225 3031 
Q 1400 2872 2139 2705 
Q 2878 2538 3153 2413 
Q 3553 2228 3743 1945 
Q 3934 1663 3934 1294 
Q 3934 928 3725 604 
Q 3516 281 3123 101 
Q 2731 -78 2241 -78 
Q 1619 -78 1198 103 
Q 778 284 539 648 
Q 300 1013 288 1472 
z
" transform="scale(0.015625)"/>
       <path id="ArialMT-75" d="M 2597 0 
L 2597 488 
Q 2209 -75 1544 -75 
Q 1250 -75 995 37 
Q 741 150 617 320 
Q 494 491 444 738 
Q 409 903 409 1263 
L 409 3319 
L 972 3319 
L 972 1478 
Q 972 1038 1006 884 
Q 1059 663 1231 536 
Q 1403 409 1656 409 
Q 1909 409 2131 539 
Q 2353 669 2445 892 
Q 2538 1116 2538 1541 
L 2538 3319 
L 3100 3319 
L 3100 0 
L 2597 0 
z
" transform="scale(0.015625)"/>
       <path id="ArialMT-72" d="M 416 0 
L 416 3319 
L 922 3319 
L 922 2816 
Q 1116 3169 1280 3281 
Q 1444 3394 1641 3394 
Q 1925 3394 2219 3213 
L 2025 2691 
Q 1819 2813 1613 2813 
Q 1428 2813 1281 2702 
Q 1134 2591 1072 2394 
Q 978 2094 978 1738 
L 978 0 
L 416 0 
z
" transform="scale(0.015625)"/>
       <path id="ArialMT-67" d="M 319 -275 
L 866 -356 
Q 900 -609 1056 -725 
Q 1266 -881 1628 -881 
Q 2019 -881 2231 -725 
Q 2444 -569 2519 -288 
Q 2563 -116 2559 434 
Q 2191 0 1641 0 
Q 956 0 581 494 
Q 206 988 206 1678 
Q 206 2153 378 2554 
Q 550 2956 876 3175 
Q 1203 3394 1644 3394 
Q 2231 3394 2613 2919 
L 2613 3319 
L 3131 3319 
L 3131 450 
Q 3131 -325 2973 -648 
Q 2816 -972 2473 -1159 
Q 2131 -1347 1631 -1347 
Q 1038 -1347 672 -1080 
Q 306 -813 319 -275 
z
M 784 1719 
Q 784 1066 1043 766 
Q 1303 466 1694 466 
Q 2081 466 2343 764 
Q 2606 1063 2606 1700 
Q 2606 2309 2336 2618 
Q 2066 2928 1684 2928 
Q 1309 2928 1046 2623 
Q 784 2319 784 1719 
z
" transform="scale(0.015625)"/>
       <path id="ArialMT-61" d="M 2588 409 
Q 2275 144 1986 34 
Q 1697 -75 1366 -75 
Q 819 -75 525 192 
Q 231 459 231 875 
Q 231 1119 342 1320 
Q 453 1522 633 1644 
Q 813 1766 1038 1828 
Q 1203 1872 1538 1913 
Q 2219 1994 2541 2106 
Q 2544 2222 2544 2253 
Q 2544 2597 2384 2738 
Q 2169 2928 1744 2928 
Q 1347 2928 1158 2789 
Q 969 2650 878 2297 
L 328 2372 
Q 403 2725 575 2942 
Q 747 3159 1072 3276 
Q 1397 3394 1825 3394 
Q 2250 3394 2515 3294 
Q 2781 3194 2906 3042 
Q 3031 2891 3081 2659 
Q 3109 2516 3109 2141 
L 3109 1391 
Q 3109 606 3145 398 
Q 3181 191 3288 0 
L 2700 0 
Q 2613 175 2588 409 
z
M 2541 1666 
Q 2234 1541 1622 1453 
Q 1275 1403 1131 1340 
Q 988 1278 909 1158 
Q 831 1038 831 891 
Q 831 666 1001 516 
Q 1172 366 1500 366 
Q 1825 366 2078 508 
Q 2331 650 2450 897 
Q 2541 1088 2541 1459 
L 2541 1666 
z
" transform="scale(0.015625)"/>
       <path id="ArialMT-6d" d="M 422 0 
L 422 3319 
L 925 3319 
L 925 2853 
Q 1081 3097 1340 3245 
Q 1600 3394 1931 3394 
Q 2300 3394 2536 3241 
Q 2772 3088 2869 2813 
Q 3263 3394 3894 3394 
Q 4388 3394 4653 3120 
Q 4919 2847 4919 2278 
L 4919 0 
L 4359 0 
L 4359 2091 
Q 4359 2428 4304 2576 
Q 4250 2725 4106 2815 
Q 3963 2906 3769 2906 
Q 3419 2906 3187 2673 
Q 2956 2441 2956 1928 
L 2956 0 
L 2394 0 
L 2394 2156 
Q 2394 2531 2256 2718 
Q 2119 2906 1806 2906 
Q 1569 2906 1367 2781 
Q 1166 2656 1075 2415 
Q 984 2175 984 1722 
L 984 0 
L 422 0 
z
" transform="scale(0.015625)"/>
       <path id="ArialMT-69" d="M 425 3934 
L 425 4581 
L 988 4581 
L 988 3934 
L 425 3934 
z
M 425 0 
L 425 3319 
L 988 3319 
L 988 0 
L 425 0 
z
" transform="scale(0.015625)"/>
       <path id="ArialMT-64" d="M 2575 0 
L 2575 419 
Q 2259 -75 1647 -75 
Q 1250 -75 917 144 
Q 584 363 401 755 
Q 219 1147 219 1656 
Q 219 2153 384 2558 
Q 550 2963 881 3178 
Q 1213 3394 1622 3394 
Q 1922 3394 2156 3267 
Q 2391 3141 2538 2938 
L 2538 4581 
L 3097 4581 
L 3097 0 
L 2575 0 
z
M 797 1656 
Q 797 1019 1065 703 
Q 1334 388 1700 388 
Q 2069 388 2326 689 
Q 2584 991 2584 1609 
Q 2584 2291 2321 2609 
Q 2059 2928 1675 2928 
Q 1300 2928 1048 2622 
Q 797 2316 797 1656 
z
" transform="scale(0.015625)"/>
       <path id="ArialMT-65" d="M 2694 1069 
L 3275 997 
Q 3138 488 2766 206 
Q 2394 -75 1816 -75 
Q 1088 -75 661 373 
Q 234 822 234 1631 
Q 234 2469 665 2931 
Q 1097 3394 1784 3394 
Q 2450 3394 2872 2941 
Q 3294 2488 3294 1666 
Q 3294 1616 3291 1516 
L 816 1516 
Q 847 969 1125 678 
Q 1403 388 1819 388 
Q 2128 388 2347 550 
Q 2566 713 2694 1069 
z
M 847 1978 
L 2700 1978 
Q 2663 2397 2488 2606 
Q 2219 2931 1791 2931 
Q 1403 2931 1139 2672 
Q 875 2413 847 1978 
z
" transform="scale(0.015625)"/>
       <path id="ArialMT-2d" d="M 203 1375 
L 203 1941 
L 1931 1941 
L 1931 1375 
L 203 1375 
z
" transform="scale(0.015625)"/>
       <path id="ArialMT-31" d="M 2384 0 
L 1822 0 
L 1822 3584 
Q 1619 3391 1289 3197 
Q 959 3003 697 2906 
L 697 3450 
Q 1169 3672 1522 3987 
Q 1875 4303 2022 4600 
L 2384 4600 
L 2384 0 
z
" transform="scale(0.015625)"/>
       <path id="ArialMT-20" transform="scale(0.015625)"/>
       <path id="ArialMT-41" d="M -9 0 
L 1750 4581 
L 2403 4581 
L 4278 0 
L 3588 0 
L 3053 1388 
L 1138 1388 
L 634 0 
L -9 0 
z
M 1313 1881 
L 2866 1881 
L 2388 3150 
Q 2169 3728 2063 4100 
Q 1975 3659 1816 3225 
L 1313 1881 
z
" transform="scale(0.015625)"/>
       <path id="ArialMT-63" d="M 2588 1216 
L 3141 1144 
Q 3050 572 2676 248 
Q 2303 -75 1759 -75 
Q 1078 -75 664 370 
Q 250 816 250 1647 
Q 250 2184 428 2587 
Q 606 2991 970 3192 
Q 1334 3394 1763 3394 
Q 2303 3394 2647 3120 
Q 2991 2847 3088 2344 
L 2541 2259 
Q 2463 2594 2264 2762 
Q 2066 2931 1784 2931 
Q 1359 2931 1093 2626 
Q 828 2322 828 1663 
Q 828 994 1084 691 
Q 1341 388 1753 388 
Q 2084 388 2306 591 
Q 2528 794 2588 1216 
z
" transform="scale(0.015625)"/>
       <path id="ArialMT-74" d="M 1650 503 
L 1731 6 
Q 1494 -44 1306 -44 
Q 1000 -44 831 53 
Q 663 150 594 308 
Q 525 466 525 972 
L 525 2881 
L 113 2881 
L 113 3319 
L 525 3319 
L 525 4141 
L 1084 4478 
L 1084 3319 
L 1650 3319 
L 1650 2881 
L 1084 2881 
L 1084 941 
Q 1084 700 1114 631 
Q 1144 563 1211 522 
Q 1278 481 1403 481 
Q 1497 481 1650 503 
z
" transform="scale(0.015625)"/>
       <path id="ArialMT-76" d="M 1344 0 
L 81 3319 
L 675 3319 
L 1388 1331 
Q 1503 1009 1600 663 
Q 1675 925 1809 1294 
L 2547 3319 
L 3125 3319 
L 1869 0 
L 1344 0 
z
" transform="scale(0.015625)"/>
       <path id="ArialMT-79" d="M 397 -1278 
L 334 -750 
Q 519 -800 656 -800 
Q 844 -800 956 -737 
Q 1069 -675 1141 -563 
Q 1194 -478 1313 -144 
Q 1328 -97 1363 -6 
L 103 3319 
L 709 3319 
L 1400 1397 
Q 1534 1031 1641 628 
Q 1738 1016 1872 1384 
L 2581 3319 
L 3144 3319 
L 1881 -56 
Q 1678 -603 1566 -809 
Q 1416 -1088 1222 -1217 
Q 1028 -1347 759 -1347 
Q 597 -1347 397 -1278 
z
" transform="scale(0.015625)"/>
      </defs>
      <use xlink:href="#ArialMT-53"/>
      <use xlink:href="#ArialMT-75" x="66.699219"/>
      <use xlink:href="#ArialMT-72" x="122.314453"/>
      <use xlink:href="#ArialMT-75" x="155.615234"/>
      <use xlink:href="#ArialMT-67" x="211.230469"/>
      <use xlink:href="#ArialMT-61" x="266.845703"/>
      <use xlink:href="#ArialMT-6d" x="322.460938"/>
      <use xlink:href="#ArialMT-69" x="405.761719"/>
      <use xlink:href="#ArialMT-64" x="427.978516"/>
      <use xlink:href="#ArialMT-65" x="483.59375"/>
      <use xlink:href="#ArialMT-2d" x="539.208984"/>
      <use xlink:href="#ArialMT-31" x="572.509766"/>
      <use xlink:href="#ArialMT-20" x="628.125"/>
      <use xlink:href="#ArialMT-41" x="650.408203"/>
      <use xlink:href="#ArialMT-63" x="717.107422"/>
      <use xlink:href="#ArialMT-74" x="767.107422"/>
      <use xlink:href="#ArialMT-69" x="794.890625"/>
      <use xlink:href="#ArialMT-76" x="817.107422"/>
      <use xlink:href="#ArialMT-69" x="867.107422"/>
      <use xlink:href="#ArialMT-74" x="889.324219"/>
      <use xlink:href="#ArialMT-79" x="917.107422"/>
     </g>
    </g>
   </g>
   <g id="matplotlib.axis_2">
    <g id="ytick_1">
     <g id="line2d_8">
      <defs>
       <path id="m9c6cd74524" d="M 0 0 
L -2.5 0 
" style="stroke: #000000; stroke-width: 0.5"/>
      </defs>
      <g>
       <use xlink:href="#m9c6cd74524" x="54.4625" y="270.845616" style="stroke: #000000; stroke-width: 0.5"/>
      </g>
     </g>
     <g id="text_6">
      <!-- −10 -->
      <g transform="translate(26.215 275.856085)scale(0.14 -0.14)">
       <use xlink:href="#ArialMT-2212"/>
       <use xlink:href="#ArialMT-31" x="58.398438"/>
       <use xlink:href="#ArialMT-30" x="114.013672"/>
      </g>
     </g>
    </g>
    <g id="ytick_2">
     <g id="line2d_9">
      <g>
       <use xlink:href="#m9c6cd74524" x="54.4625" y="225.173956" style="stroke: #000000; stroke-width: 0.5"/>
      </g>
     </g>
     <g id="text_7">
      <!-- −5 -->
      <g transform="translate(34.000313 230.184425)scale(0.14 -0.14)">
       <defs>
        <path id="ArialMT-35" d="M 266 1200 
L 856 1250 
Q 922 819 1161 601 
Q 1400 384 1738 384 
Q 2144 384 2425 690 
Q 2706 997 2706 1503 
Q 2706 1984 2436 2262 
Q 2166 2541 1728 2541 
Q 1456 2541 1237 2417 
Q 1019 2294 894 2097 
L 366 2166 
L 809 4519 
L 3088 4519 
L 3088 3981 
L 1259 3981 
L 1013 2750 
Q 1425 3038 1878 3038 
Q 2478 3038 2890 2622 
Q 3303 2206 3303 1553 
Q 3303 931 2941 478 
Q 2500 -78 1738 -78 
Q 1113 -78 717 272 
Q 322 622 266 1200 
z
" transform="scale(0.015625)"/>
       </defs>
       <use xlink:href="#ArialMT-2212"/>
       <use xlink:href="#ArialMT-35" x="58.398438"/>
      </g>
     </g>
    </g>
    <g id="ytick_3">
     <g id="line2d_10">
      <g>
       <use xlink:href="#m9c6cd74524" x="54.4625" y="179.502296" style="stroke: #000000; stroke-width: 0.5"/>
      </g>
     </g>
     <g id="text_8">
      <!-- 0 -->
      <g transform="translate(42.177188 184.512765)scale(0.14 -0.14)">
       <use xlink:href="#ArialMT-30"/>
      </g>
     </g>
    </g>
    <g id="ytick_4">
     <g id="line2d_11">
      <g>
       <use xlink:href="#m9c6cd74524" x="54.4625" y="133.830636" style="stroke: #000000; stroke-width: 0.5"/>
      </g>
     </g>
     <g id="text_9">
      <!-- 5 -->
      <g transform="translate(42.177188 138.841105)scale(0.14 -0.14)">
       <use xlink:href="#ArialMT-35"/>
      </g>
     </g>
    </g>
    <g id="ytick_5">
     <g id="line2d_12">
      <g>
       <use xlink:href="#m9c6cd74524" x="54.4625" y="88.158977" style="stroke: #000000; stroke-width: 0.5"/>
      </g>
     </g>
     <g id="text_10">
      <!-- 10 -->
      <g transform="translate(34.391875 93.169445)scale(0.14 -0.14)">
       <use xlink:href="#ArialMT-31"/>
       <use xlink:href="#ArialMT-30" x="55.615234"/>
      </g>
     </g>
    </g>
    <g id="ytick_6">
     <g id="line2d_13">
      <g>
       <use xlink:href="#m9c6cd74524" x="54.4625" y="42.487317" style="stroke: #000000; stroke-width: 0.5"/>
      </g>
     </g>
     <g id="text_11">
      <!-- 15 -->
      <g transform="translate(34.391875 47.497785)scale(0.14 -0.14)">
       <use xlink:href="#ArialMT-31"/>
       <use xlink:href="#ArialMT-35" x="55.615234"/>
      </g>
     </g>
    </g>
    <g id="text_12">
     <!-- Surugamide-2 Activity -->
     <g transform="translate(18.8475 223.165)rotate(-90)scale(0.16 -0.16)">
      <use xlink:href="#ArialMT-53"/>
      <use xlink:href="#ArialMT-75" x="66.699219"/>
      <use xlink:href="#ArialMT-72" x="122.314453"/>
      <use xlink:href="#ArialMT-75" x="155.615234"/>
      <use xlink:href="#ArialMT-67" x="211.230469"/>
      <use xlink:href="#ArialMT-61" x="266.845703"/>
      <use xlink:href="#ArialMT-6d" x="322.460938"/>
      <use xlink:href="#ArialMT-69" x="405.761719"/>
      <use xlink:href="#ArialMT-64" x="427.978516"/>
      <use xlink:href="#ArialMT-65" x="483.59375"/>
      <use xlink:href="#ArialMT-2d" x="539.208984"/>
      <use xlink:href="#ArialMT-32" x="572.509766"/>
      <use xlink:href="#ArialMT-20" x="628.125"/>
      <use xlink:href="#ArialMT-41" x="650.408203"/>
      <use xlink:href="#ArialMT-63" x="717.107422"/>
      <use xlink:href="#ArialMT-74" x="767.107422"/>
      <use xlink:href="#ArialMT-69" x="794.890625"/>
      <use xlink:href="#ArialMT-76" x="817.107422"/>
      <use xlink:href="#ArialMT-69" x="867.107422"/>
      <use xlink:href="#ArialMT-74" x="889.324219"/>
      <use xlink:href="#ArialMT-79" x="917.107422"/>
     </g>
    </g>
   </g>
   <g id="PathCollection_1">
    <defs>
     <path id="ma009fa522a" d="M 0 3.535534 
C 0.937635 3.535534 1.836992 3.163008 2.5 2.5 
C 3.163008 1.836992 3.535534 0.937635 3.535534 0 
C 3.535534 -0.937635 3.163008 -1.836992 2.5 -2.5 
C 1.836992 -3.163008 0.937635 -3.535534 0 -3.535534 
C -0.937635 -3.535534 -1.836992 -3.163008 -2.5 -2.5 
C -3.163008 -1.836992 -3.535534 -0.937635 -3.535534 0 
C -3.535534 0.937635 -3.163008 1.836992 -2.5 2.5 
C -1.836992 3.163008 -0.937635 3.535534 0 3.535534 
z
" style="stroke: #008000; stroke-width: 0.5"/>
    </defs>
    <g clip-path="url(#pe9ec5c1efe)">
     <use xlink:href="#ma009fa522a" x="141.340046" y="91.511709" style="fill: #008000; stroke: #008000; stroke-width: 0.5"/>
     <use xlink:href="#ma009fa522a" x="140.281269" y="84.290452" style="fill: #008000; stroke: #008000; stroke-width: 0.5"/>
     <use xlink:href="#ma009fa522a" x="134.299644" y="73.390178" style="fill: #008000; stroke: #008000; stroke-width: 0.5"/>
     <use xlink:href="#ma009fa522a" x="135.625179" y="73.231164" style="fill: #008000; stroke: #008000; stroke-width: 0.5"/>
    </g>
   </g>
   <g id="PathCollection_2">
    <defs>
     <path id="m73a1456a27" d="M 0 3.535534 
C 0.937635 3.535534 1.836992 3.163008 2.5 2.5 
C 3.163008 1.836992 3.535534 0.937635 3.535534 0 
C 3.535534 -0.937635 3.163008 -1.836992 2.5 -2.5 
C 1.836992 -3.163008 0.937635 -3.535534 0 -3.535534 
C -0.937635 -3.535534 -1.836992 -3.163008 -2.5 -2.5 
C -3.163008 -1.836992 -3.535534 -0.937635 -3.535534 0 
C -3.535534 0.937635 -3.163008 1.836992 -2.5 2.5 
C -1.836992 3.163008 -0.937635 3.535534 0 3.535534 
z
" style="stroke: #ffa500; stroke-width: 0.5"/>
    </defs>
    <g clip-path="url(#pe9ec5c1efe)">
     <use xlink:href="#m73a1456a27" x="228.172765" y="197.956067" style="fill: #ffa500; stroke: #ffa500; stroke-width: 0.5"/>
     <use xlink:href="#m73a1456a27" x="236.485671" y="195.123527" style="fill: #ffa500; stroke: #ffa500; stroke-width: 0.5"/>
     <use xlink:href="#m73a1456a27" x="220.800139" y="182.391195" style="fill: #ffa500; stroke: #ffa500; stroke-width: 0.5"/>
     <use xlink:href="#m73a1456a27" x="212.488347" y="212.781806" style="fill: #ffa500; stroke: #ffa500; stroke-width: 0.5"/>
     <use xlink:href="#m73a1456a27" x="101.728091" y="167.51892" style="fill: #ffa500; stroke: #ffa500; stroke-width: 0.5"/>
     <use xlink:href="#m73a1456a27" x="204.379358" y="163.263406" style="fill: #ffa500; stroke: #ffa500; stroke-width: 0.5"/>
     <use xlink:href="#m73a1456a27" x="228.050851" y="201.491277" style="fill: #ffa500; stroke: #ffa500; stroke-width: 0.5"/>
     <use xlink:href="#m73a1456a27" x="235.968431" y="168.292294" style="fill: #ffa500; stroke: #ffa500; stroke-width: 0.5"/>
     <use xlink:href="#m73a1456a27" x="257.057218" y="211.41047" style="fill: #ffa500; stroke: #ffa500; stroke-width: 0.5"/>
     <use xlink:href="#m73a1456a27" x="257.067468" y="163.895065" style="fill: #ffa500; stroke: #ffa500; stroke-width: 0.5"/>
     <use xlink:href="#m73a1456a27" x="253.915364" y="161.012754" style="fill: #ffa500; stroke: #ffa500; stroke-width: 0.5"/>
     <use xlink:href="#m73a1456a27" x="252.972961" y="162.465733" style="fill: #ffa500; stroke: #ffa500; stroke-width: 0.5"/>
     <use xlink:href="#m73a1456a27" x="262.861856" y="221.253386" style="fill: #ffa500; stroke: #ffa500; stroke-width: 0.5"/>
     <use xlink:href="#m73a1456a27" x="272.867834" y="205.696387" style="fill: #ffa500; stroke: #ffa500; stroke-width: 0.5"/>
     <use xlink:href="#m73a1456a27" x="268.758916" y="99.523167" style="fill: #ffa500; stroke: #ffa500; stroke-width: 0.5"/>
     <use xlink:href="#m73a1456a27" x="272.617688" y="89.34464" style="fill: #ffa500; stroke: #ffa500; stroke-width: 0.5"/>
     <use xlink:href="#m73a1456a27" x="231.655646" y="154.053879" style="fill: #ffa500; stroke: #ffa500; stroke-width: 0.5"/>
     <use xlink:href="#m73a1456a27" x="236.275042" y="120.388405" style="fill: #ffa500; stroke: #ffa500; stroke-width: 0.5"/>
     <use xlink:href="#m73a1456a27" x="248.982989" y="208.85268" style="fill: #ffa500; stroke: #ffa500; stroke-width: 0.5"/>
     <use xlink:href="#m73a1456a27" x="244.876083" y="204.906054" style="fill: #ffa500; stroke: #ffa500; stroke-width: 0.5"/>
     <use xlink:href="#m73a1456a27" x="253.785228" y="197.301122" style="fill: #ffa500; stroke: #ffa500; stroke-width: 0.5"/>
     <use xlink:href="#m73a1456a27" x="248.703833" y="182.319442" style="fill: #ffa500; stroke: #ffa500; stroke-width: 0.5"/>
     <use xlink:href="#m73a1456a27" x="215.158534" y="227.355768" style="fill: #ffa500; stroke: #ffa500; stroke-width: 0.5"/>
     <use xlink:href="#m73a1456a27" x="213.234791" y="231.371393" style="fill: #ffa500; stroke: #ffa500; stroke-width: 0.5"/>
     <use xlink:href="#m73a1456a27" x="241.256003" y="230.614261" style="fill: #ffa500; stroke: #ffa500; stroke-width: 0.5"/>
     <use xlink:href="#m73a1456a27" x="245.011225" y="256.933876" style="fill: #ffa500; stroke: #ffa500; stroke-width: 0.5"/>
     <use xlink:href="#m73a1456a27" x="184.494526" y="224.455426" style="fill: #ffa500; stroke: #ffa500; stroke-width: 0.5"/>
     <use xlink:href="#m73a1456a27" x="171.499895" y="221.053362" style="fill: #ffa500; stroke: #ffa500; stroke-width: 0.5"/>
     <use xlink:href="#m73a1456a27" x="255.891077" y="224.274802" style="fill: #ffa500; stroke: #ffa500; stroke-width: 0.5"/>
     <use xlink:href="#m73a1456a27" x="237.787961" y="235.689682" style="fill: #ffa500; stroke: #ffa500; stroke-width: 0.5"/>
     <use xlink:href="#m73a1456a27" x="228.636922" y="212.924971" style="fill: #ffa500; stroke: #ffa500; stroke-width: 0.5"/>
     <use xlink:href="#m73a1456a27" x="237.634724" y="175.248271" style="fill: #ffa500; stroke: #ffa500; stroke-width: 0.5"/>
    </g>
   </g>
   <g id="PathCollection_3">
    <defs>
     <path id="m81bc10fcce" d="M 0 3.535534 
C 0.937635 3.535534 1.836992 3.163008 2.5 2.5 
C 3.163008 1.836992 3.535534 0.937635 3.535534 0 
C 3.535534 -0.937635 3.163008 -1.836992 2.5 -2.5 
C 1.836992 -3.163008 0.937635 -3.535534 0 -3.535534 
C -0.937635 -3.535534 -1.836992 -3.163008 -2.5 -2.5 
C -3.163008 -1.836992 -3.535534 -0.937635 -3.535534 0 
C -3.535534 0.937635 -3.163008 1.836992 -2.5 2.5 
C -1.836992 3.163008 -0.937635 3.535534 0 3.535534 
z
" style="stroke: #a52a2a; stroke-width: 0.5"/>
    </defs>
    <g clip-path="url(#pe9ec5c1efe)">
     <use xlink:href="#m81bc10fcce" x="177.994104" y="206.750762" style="fill: #a52a2a; stroke: #a52a2a; stroke-width: 0.5"/>
     <use xlink:href="#m81bc10fcce" x="202.914643" y="235.571006" style="fill: #a52a2a; stroke: #a52a2a; stroke-width: 0.5"/>
     <use xlink:href="#m81bc10fcce" x="201.70417" y="239.300116" style="fill: #a52a2a; stroke: #a52a2a; stroke-width: 0.5"/>
     <use xlink:href="#m81bc10fcce" x="196.897014" y="227.917548" style="fill: #a52a2a; stroke: #a52a2a; stroke-width: 0.5"/>
     <use xlink:href="#m81bc10fcce" x="200.716691" y="238.348831" style="fill: #a52a2a; stroke: #a52a2a; stroke-width: 0.5"/>
     <use xlink:href="#m81bc10fcce" x="199.284031" y="232.862892" style="fill: #a52a2a; stroke: #a52a2a; stroke-width: 0.5"/>
     <use xlink:href="#m81bc10fcce" x="199.243089" y="232.67528" style="fill: #a52a2a; stroke: #a52a2a; stroke-width: 0.5"/>
     <use xlink:href="#m81bc10fcce" x="197.755709" y="226.679351" style="fill: #a52a2a; stroke: #a52a2a; stroke-width: 0.5"/>
     <use xlink:href="#m81bc10fcce" x="197.867463" y="224.909452" style="fill: #a52a2a; stroke: #a52a2a; stroke-width: 0.5"/>
     <use xlink:href="#m81bc10fcce" x="196.559931" y="220.228671" style="fill: #a52a2a; stroke: #a52a2a; stroke-width: 0.5"/>
     <use xlink:href="#m81bc10fcce" x="197.268386" y="233.970379" style="fill: #a52a2a; stroke: #a52a2a; stroke-width: 0.5"/>
     <use xlink:href="#m81bc10fcce" x="200.940747" y="237.964405" style="fill: #a52a2a; stroke: #a52a2a; stroke-width: 0.5"/>
     <use xlink:href="#m81bc10fcce" x="197.68418" y="231.58556" style="fill: #a52a2a; stroke: #a52a2a; stroke-width: 0.5"/>
    </g>
   </g>
   <g id="PathCollection_4">
    <defs>
     <path id="md16287f381" d="M 0 3.535534 
C 0.937635 3.535534 1.836992 3.163008 2.5 2.5 
C 3.163008 1.836992 3.535534 0.937635 3.535534 0 
C 3.535534 -0.937635 3.163008 -1.836992 2.5 -2.5 
C 1.836992 -3.163008 0.937635 -3.535534 0 -3.535534 
C -0.937635 -3.535534 -1.836992 -3.163008 -2.5 -2.5 
C -3.163008 -1.836992 -3.535534 -0.937635 -3.535534 0 
C -3.535534 0.937635 -3.163008 1.836992 -2.5 2.5 
C -1.836992 3.163008 -0.937635 3.535534 0 3.535534 
z
" style="stroke: #ffc0cb; stroke-width: 0.5"/>
    </defs>
    <g clip-path="url(#pe9ec5c1efe)">
     <use xlink:href="#md16287f381" x="296.33261" y="190.220792" style="fill: #ffc0cb; stroke: #ffc0cb; stroke-width: 0.5"/>
     <use xlink:href="#md16287f381" x="298.111695" y="164.728174" style="fill: #ffc0cb; stroke: #ffc0cb; stroke-width: 0.5"/>
     <use xlink:href="#md16287f381" x="304.343127" y="172.272969" style="fill: #ffc0cb; stroke: #ffc0cb; stroke-width: 0.5"/>
     <use xlink:href="#md16287f381" x="271.593671" y="198.102868" style="fill: #ffc0cb; stroke: #ffc0cb; stroke-width: 0.5"/>
     <use xlink:href="#md16287f381" x="266.633159" y="194.635715" style="fill: #ffc0cb; stroke: #ffc0cb; stroke-width: 0.5"/>
     <use xlink:href="#md16287f381" x="265.726324" y="188.711311" style="fill: #ffc0cb; stroke: #ffc0cb; stroke-width: 0.5"/>
     <use xlink:href="#md16287f381" x="288.862625" y="158.952715" style="fill: #ffc0cb; stroke: #ffc0cb; stroke-width: 0.5"/>
     <use xlink:href="#md16287f381" x="294.352309" y="161.535425" style="fill: #ffc0cb; stroke: #ffc0cb; stroke-width: 0.5"/>
     <use xlink:href="#md16287f381" x="291.864664" y="178.887859" style="fill: #ffc0cb; stroke: #ffc0cb; stroke-width: 0.5"/>
     <use xlink:href="#md16287f381" x="231.649488" y="191.676443" style="fill: #ffc0cb; stroke: #ffc0cb; stroke-width: 0.5"/>
     <use xlink:href="#md16287f381" x="222.2016" y="203.496656" style="fill: #ffc0cb; stroke: #ffc0cb; stroke-width: 0.5"/>
     <use xlink:href="#md16287f381" x="221.710843" y="223.427775" style="fill: #ffc0cb; stroke: #ffc0cb; stroke-width: 0.5"/>
     <use xlink:href="#md16287f381" x="300.908456" y="186.457075" style="fill: #ffc0cb; stroke: #ffc0cb; stroke-width: 0.5"/>
     <use xlink:href="#md16287f381" x="300.076238" y="191.412166" style="fill: #ffc0cb; stroke: #ffc0cb; stroke-width: 0.5"/>
     <use xlink:href="#md16287f381" x="289.062356" y="183.454091" style="fill: #ffc0cb; stroke: #ffc0cb; stroke-width: 0.5"/>
     <use xlink:href="#md16287f381" x="306.589463" y="191.488263" style="fill: #ffc0cb; stroke: #ffc0cb; stroke-width: 0.5"/>
     <use xlink:href="#md16287f381" x="308.156041" y="184.241162" style="fill: #ffc0cb; stroke: #ffc0cb; stroke-width: 0.5"/>
     <use xlink:href="#md16287f381" x="310.2125" y="169.753352" style="fill: #ffc0cb; stroke: #ffc0cb; stroke-width: 0.5"/>
    </g>
   </g>
   <g id="PathCollection_5">
    <defs>
     <path id="m2f55c35b87" d="M 0 3.535534 
C 0.937635 3.535534 1.836992 3.163008 2.5 2.5 
C 3.163008 1.836992 3.535534 0.937635 3.535534 0 
C 3.535534 -0.937635 3.163008 -1.836992 2.5 -2.5 
C 1.836992 -3.163008 0.937635 -3.535534 0 -3.535534 
C -0.937635 -3.535534 -1.836992 -3.163008 -2.5 -2.5 
C -3.163008 -1.836992 -3.535534 -0.937635 -3.535534 0 
C -3.535534 0.937635 -3.163008 1.836992 -2.5 2.5 
C -1.836992 3.163008 -0.937635 3.535534 0 3.535534 
z
" style="stroke: #ff0000; stroke-width: 0.5"/>
    </defs>
    <g clip-path="url(#pe9ec5c1efe)">
     <use xlink:href="#m2f55c35b87" x="154.950321" y="30.3" style="fill: #ff0000; stroke: #ff0000; stroke-width: 0.5"/>
     <use xlink:href="#m2f55c35b87" x="154.250735" y="71.195608" style="fill: #ff0000; stroke: #ff0000; stroke-width: 0.5"/>
     <use xlink:href="#m2f55c35b87" x="213.634909" y="141.634699" style="fill: #ff0000; stroke: #ff0000; stroke-width: 0.5"/>
     <use xlink:href="#m2f55c35b87" x="230.228312" y="261.3" style="fill: #ff0000; stroke: #ff0000; stroke-width: 0.5"/>
     <use xlink:href="#m2f55c35b87" x="272.684647" y="188.908538" style="fill: #ff0000; stroke: #ff0000; stroke-width: 0.5"/>
     <use xlink:href="#m2f55c35b87" x="212.761428" y="235.21415" style="fill: #ff0000; stroke: #ff0000; stroke-width: 0.5"/>
     <use xlink:href="#m2f55c35b87" x="261.728711" y="121.063993" style="fill: #ff0000; stroke: #ff0000; stroke-width: 0.5"/>
     <use xlink:href="#m2f55c35b87" x="261.44722" y="109.504908" style="fill: #ff0000; stroke: #ff0000; stroke-width: 0.5"/>
     <use xlink:href="#m2f55c35b87" x="212.474819" y="242.643827" style="fill: #ff0000; stroke: #ff0000; stroke-width: 0.5"/>
     <use xlink:href="#m2f55c35b87" x="223.107452" y="200.295247" style="fill: #ff0000; stroke: #ff0000; stroke-width: 0.5"/>
    </g>
   </g>
   <g id="PathCollection_6">
    <defs>
     <path id="m84fbff29ce" d="M 0 3.535534 
C 0.937635 3.535534 1.836992 3.163008 2.5 2.5 
C 3.163008 1.836992 3.535534 0.937635 3.535534 0 
C 3.535534 -0.937635 3.163008 -1.836992 2.5 -2.5 
C 1.836992 -3.163008 0.937635 -3.535534 0 -3.535534 
C -0.937635 -3.535534 -1.836992 -3.163008 -2.5 -2.5 
C -3.163008 -1.836992 -3.535534 -0.937635 -3.535534 0 
C -3.535534 0.937635 -3.163008 1.836992 -2.5 2.5 
C -1.836992 3.163008 -0.937635 3.535534 0 3.535534 
z
" style="stroke: #0000ff; stroke-width: 0.5"/>
    </defs>
    <g clip-path="url(#pe9ec5c1efe)">
     <use xlink:href="#m84fbff29ce" x="244.380953" y="168.859032" style="fill: #0000ff; stroke: #0000ff; stroke-width: 0.5"/>
     <use xlink:href="#m84fbff29ce" x="242.541328" y="165.766755" style="fill: #0000ff; stroke: #0000ff; stroke-width: 0.5"/>
    </g>
   </g>
   <g id="PathCollection_7">
    <defs>
     <path id="mf212509b79" d="M 0 3.535534 
C 0.937635 3.535534 1.836992 3.163008 2.5 2.5 
C 3.163008 1.836992 3.535534 0.937635 3.535534 0 
C 3.535534 -0.937635 3.163008 -1.836992 2.5 -2.5 
C 1.836992 -3.163008 0.937635 -3.535534 0 -3.535534 
C -0.937635 -3.535534 -1.836992 -3.163008 -2.5 -2.5 
C -3.163008 -1.836992 -3.535534 -0.937635 -3.535534 0 
C -3.535534 0.937635 -3.163008 1.836992 -2.5 2.5 
C -1.836992 3.163008 -0.937635 3.535534 0 3.535534 
z
" style="stroke: #000000; stroke-width: 0.5"/>
    </defs>
    <g clip-path="url(#pe9ec5c1efe)">
     <use xlink:href="#mf212509b79" x="82.683181" y="166.739231" style="stroke: #000000; stroke-width: 0.5"/>
     <use xlink:href="#mf212509b79" x="77.7125" y="157.312837" style="stroke: #000000; stroke-width: 0.5"/>
     <use xlink:href="#mf212509b79" x="113.591529" y="128.679814" style="stroke: #000000; stroke-width: 0.5"/>
     <use xlink:href="#mf212509b79" x="230.965355" y="205.798419" style="stroke: #000000; stroke-width: 0.5"/>
     <use xlink:href="#mf212509b79" x="227.594449" y="187.90647" style="stroke: #000000; stroke-width: 0.5"/>
     <use xlink:href="#mf212509b79" x="228.977423" y="220.607899" style="stroke: #000000; stroke-width: 0.5"/>
     <use xlink:href="#mf212509b79" x="231.799723" y="177.021401" style="stroke: #000000; stroke-width: 0.5"/>
    </g>
   </g>
   <g id="PathCollection_8">
    <defs>
     <path id="m99a4c15640" d="M 0 3.535534 
C 0.937635 3.535534 1.836992 3.163008 2.5 2.5 
C 3.163008 1.836992 3.535534 0.937635 3.535534 0 
C 3.535534 -0.937635 3.163008 -1.836992 2.5 -2.5 
C 1.836992 -3.163008 0.937635 -3.535534 0 -3.535534 
C -0.937635 -3.535534 -1.836992 -3.163008 -2.5 -2.5 
C -3.163008 -1.836992 -3.535534 -0.937635 -3.535534 0 
C -3.535534 0.937635 -3.163008 1.836992 -2.5 2.5 
C -1.836992 3.163008 -0.937635 3.535534 0 3.535534 
z
"/>
    </defs>
    <g clip-path="url(#pe9ec5c1efe)">
     <use xlink:href="#m99a4c15640" x="155.326026" y="167.265925" style="fill: #808080; fill-opacity: 0.7"/>
     <use xlink:href="#m99a4c15640" x="142.370818" y="191.738668" style="fill: #808080; fill-opacity: 0.7"/>
     <use xlink:href="#m99a4c15640" x="182.54793" y="149.935515" style="fill: #808080; fill-opacity: 0.7"/>
     <use xlink:href="#m99a4c15640" x="183.922222" y="154.707146" style="fill: #808080; fill-opacity: 0.7"/>
     <use xlink:href="#m99a4c15640" x="114.47819" y="175.83233" style="fill: #808080; fill-opacity: 0.7"/>
     <use xlink:href="#m99a4c15640" x="176.77014" y="166.526911" style="fill: #808080; fill-opacity: 0.7"/>
     <use xlink:href="#m99a4c15640" x="214.091037" y="58.87213" style="fill: #808080; fill-opacity: 0.7"/>
     <use xlink:href="#m99a4c15640" x="195.219961" y="97.474923" style="fill: #808080; fill-opacity: 0.7"/>
     <use xlink:href="#m99a4c15640" x="112.475633" y="216.336404" style="fill: #808080; fill-opacity: 0.7"/>
     <use xlink:href="#m99a4c15640" x="107.572869" y="210.091213" style="fill: #808080; fill-opacity: 0.7"/>
     <use xlink:href="#m99a4c15640" x="188.607212" y="150.578951" style="fill: #808080; fill-opacity: 0.7"/>
     <use xlink:href="#m99a4c15640" x="150.310498" y="153.168652" style="fill: #808080; fill-opacity: 0.7"/>
     <use xlink:href="#m99a4c15640" x="147.415823" y="98.503995" style="fill: #808080; fill-opacity: 0.7"/>
     <use xlink:href="#m99a4c15640" x="201.029688" y="138.709203" style="fill: #808080; fill-opacity: 0.7"/>
     <use xlink:href="#m99a4c15640" x="140.102338" y="122.883364" style="fill: #808080; fill-opacity: 0.7"/>
     <use xlink:href="#m99a4c15640" x="158.761742" y="157.937569" style="fill: #808080; fill-opacity: 0.7"/>
     <use xlink:href="#m99a4c15640" x="186.546737" y="126.465779" style="fill: #808080; fill-opacity: 0.7"/>
     <use xlink:href="#m99a4c15640" x="180.280467" y="148.824221" style="fill: #808080; fill-opacity: 0.7"/>
     <use xlink:href="#m99a4c15640" x="188.830086" y="147.899854" style="fill: #808080; fill-opacity: 0.7"/>
     <use xlink:href="#m99a4c15640" x="172.499122" y="158.445061" style="fill: #808080; fill-opacity: 0.7"/>
     <use xlink:href="#m99a4c15640" x="157.106948" y="149.586023" style="fill: #808080; fill-opacity: 0.7"/>
     <use xlink:href="#m99a4c15640" x="183.028561" y="153.620174" style="fill: #808080; fill-opacity: 0.7"/>
     <use xlink:href="#m99a4c15640" x="179.137806" y="146.673239" style="fill: #808080; fill-opacity: 0.7"/>
     <use xlink:href="#m99a4c15640" x="165.801191" y="184.148839" style="fill: #808080; fill-opacity: 0.7"/>
     <use xlink:href="#m99a4c15640" x="170.189067" y="169.520665" style="fill: #808080; fill-opacity: 0.7"/>
     <use xlink:href="#m99a4c15640" x="166.299559" y="185.476122" style="fill: #808080; fill-opacity: 0.7"/>
     <use xlink:href="#m99a4c15640" x="134.522068" y="178.51585" style="fill: #808080; fill-opacity: 0.7"/>
     <use xlink:href="#m99a4c15640" x="174.844489" y="174.437033" style="fill: #808080; fill-opacity: 0.7"/>
     <use xlink:href="#m99a4c15640" x="164.707838" y="194.990027" style="fill: #808080; fill-opacity: 0.7"/>
     <use xlink:href="#m99a4c15640" x="173.96355" y="201.724274" style="fill: #808080; fill-opacity: 0.7"/>
     <use xlink:href="#m99a4c15640" x="173.590969" y="202.571286" style="fill: #808080; fill-opacity: 0.7"/>
     <use xlink:href="#m99a4c15640" x="142.595712" y="214.161888" style="fill: #808080; fill-opacity: 0.7"/>
     <use xlink:href="#m99a4c15640" x="146.068567" y="223.46366" style="fill: #808080; fill-opacity: 0.7"/>
     <use xlink:href="#m99a4c15640" x="147.848089" y="222.705246" style="fill: #808080; fill-opacity: 0.7"/>
     <use xlink:href="#m99a4c15640" x="127.975477" y="241.513528" style="fill: #808080; fill-opacity: 0.7"/>
     <use xlink:href="#m99a4c15640" x="123.50581" y="237.956336" style="fill: #808080; fill-opacity: 0.7"/>
     <use xlink:href="#m99a4c15640" x="117.562289" y="204.363628" style="fill: #808080; fill-opacity: 0.7"/>
     <use xlink:href="#m99a4c15640" x="141.033018" y="231.523345" style="fill: #808080; fill-opacity: 0.7"/>
     <use xlink:href="#m99a4c15640" x="145.475332" y="245.052184" style="fill: #808080; fill-opacity: 0.7"/>
     <use xlink:href="#m99a4c15640" x="141.856497" y="237.854536" style="fill: #808080; fill-opacity: 0.7"/>
     <use xlink:href="#m99a4c15640" x="113.31962" y="225.251866" style="fill: #808080; fill-opacity: 0.7"/>
     <use xlink:href="#m99a4c15640" x="119.675026" y="206.72604" style="fill: #808080; fill-opacity: 0.7"/>
     <use xlink:href="#m99a4c15640" x="116.432007" y="216.670846" style="fill: #808080; fill-opacity: 0.7"/>
     <use xlink:href="#m99a4c15640" x="140.211664" y="249.042508" style="fill: #808080; fill-opacity: 0.7"/>
     <use xlink:href="#m99a4c15640" x="137.616462" y="236.336733" style="fill: #808080; fill-opacity: 0.7"/>
     <use xlink:href="#m99a4c15640" x="139.400445" y="233.512222" style="fill: #808080; fill-opacity: 0.7"/>
     <use xlink:href="#m99a4c15640" x="130.960596" y="248.289256" style="fill: #808080; fill-opacity: 0.7"/>
     <use xlink:href="#m99a4c15640" x="125.407289" y="244.37081" style="fill: #808080; fill-opacity: 0.7"/>
     <use xlink:href="#m99a4c15640" x="131.438725" y="250.33401" style="fill: #808080; fill-opacity: 0.7"/>
     <use xlink:href="#m99a4c15640" x="141.530659" y="249.941591" style="fill: #808080; fill-opacity: 0.7"/>
     <use xlink:href="#m99a4c15640" x="140.148265" y="245.69858" style="fill: #808080; fill-opacity: 0.7"/>
     <use xlink:href="#m99a4c15640" x="138.677957" y="236.133594" style="fill: #808080; fill-opacity: 0.7"/>
     <use xlink:href="#m99a4c15640" x="154.568055" y="239.624696" style="fill: #808080; fill-opacity: 0.7"/>
     <use xlink:href="#m99a4c15640" x="160.484482" y="226.874569" style="fill: #808080; fill-opacity: 0.7"/>
     <use xlink:href="#m99a4c15640" x="163.568215" y="221.981941" style="fill: #808080; fill-opacity: 0.7"/>
    </g>
   </g>
   <g id="PathCollection_9">
    <defs>
     <path id="m70137fc8dd" d="M 0 3.535534 
C 0.937635 3.535534 1.836992 3.163008 2.5 2.5 
C 3.163008 1.836992 3.535534 0.937635 3.535534 0 
C 3.535534 -0.937635 3.163008 -1.836992 2.5 -2.5 
C 1.836992 -3.163008 0.937635 -3.535534 0 -3.535534 
C -0.937635 -3.535534 -1.836992 -3.163008 -2.5 -2.5 
C -3.163008 -1.836992 -3.535534 -0.937635 -3.535534 0 
C -3.535534 0.937635 -3.163008 1.836992 -2.5 2.5 
C -1.836992 3.163008 -0.937635 3.535534 0 3.535534 
z
" style="stroke: #800080; stroke-width: 0.5"/>
    </defs>
    <g clip-path="url(#pe9ec5c1efe)">
     <use xlink:href="#m70137fc8dd" x="203.389417" y="153.297456" style="fill: #800080; stroke: #800080; stroke-width: 0.5"/>
    </g>
   </g>
   <g id="LineCollection_1">
    <path d="M 54.4625 179.502296 
L 333.4625 179.502296 
" clip-path="url(#pe9ec5c1efe)" style="fill: none; stroke: #808080; stroke-width: 0.5"/>
   </g>
   <g id="LineCollection_2">
    <path d="M 148.848422 284.4 
L 148.848422 7.2 
" clip-path="url(#pe9ec5c1efe)" style="fill: none; stroke: #808080; stroke-width: 0.5"/>
   </g>
   <g id="patch_3">
    <path d="M 54.4625 284.4 
L 54.4625 7.2 
" style="fill: none; stroke: #000000; stroke-width: 0.5; stroke-linejoin: miter; stroke-linecap: square"/>
   </g>
   <g id="patch_4">
    <path d="M 333.4625 284.4 
L 333.4625 7.2 
" style="fill: none; stroke: #000000; stroke-width: 0.5; stroke-linejoin: miter; stroke-linecap: square"/>
   </g>
   <g id="patch_5">
    <path d="M 54.4625 284.4 
L 333.4625 284.4 
" style="fill: none; stroke: #000000; stroke-width: 0.5; stroke-linejoin: miter; stroke-linecap: square"/>
   </g>
   <g id="patch_6">
    <path d="M 54.4625 7.2 
L 333.4625 7.2 
" style="fill: none; stroke: #000000; stroke-width: 0.5; stroke-linejoin: miter; stroke-linecap: square"/>
   </g>
   <g id="legend_1">
    <g id="patch_7">
     <path d="M 350.572812 92.345156 
L 412.2625 92.345156 
Q 413.6625 92.345156 413.6625 90.945156 
L 413.6625 12.1 
Q 413.6625 10.7 412.2625 10.7 
L 350.572812 10.7 
Q 349.172813 10.7 349.172813 12.1 
L 349.172813 90.945156 
Q 349.172813 92.345156 350.572812 92.345156 
z
" style="fill: #ffffff; opacity: 0.8; stroke: #cccccc; stroke-width: 0.5; stroke-linejoin: miter"/>
    </g>
    <g id="PathCollection_10">
     <g>
      <use xlink:href="#ma009fa522a" x="358.972813" y="16.672969" style="fill: #008000; stroke: #008000; stroke-width: 0.5"/>
     </g>
    </g>
    <g id="text_13">
     <!-- Azenta01 -->
     <g transform="translate(371.572813 18.510469)scale(0.07 -0.07)">
      <defs>
       <path id="ArialMT-7a" d="M 125 0 
L 125 456 
L 2238 2881 
Q 1878 2863 1603 2863 
L 250 2863 
L 250 3319 
L 2963 3319 
L 2963 2947 
L 1166 841 
L 819 456 
Q 1197 484 1528 484 
L 3063 484 
L 3063 0 
L 125 0 
z
" transform="scale(0.015625)"/>
       <path id="ArialMT-6e" d="M 422 0 
L 422 3319 
L 928 3319 
L 928 2847 
Q 1294 3394 1984 3394 
Q 2284 3394 2536 3286 
Q 2788 3178 2913 3003 
Q 3038 2828 3088 2588 
Q 3119 2431 3119 2041 
L 3119 0 
L 2556 0 
L 2556 2019 
Q 2556 2363 2490 2533 
Q 2425 2703 2258 2804 
Q 2091 2906 1866 2906 
Q 1506 2906 1245 2678 
Q 984 2450 984 1813 
L 984 0 
L 422 0 
z
" transform="scale(0.015625)"/>
      </defs>
      <use xlink:href="#ArialMT-41"/>
      <use xlink:href="#ArialMT-7a" x="66.699219"/>
      <use xlink:href="#ArialMT-65" x="116.699219"/>
      <use xlink:href="#ArialMT-6e" x="172.314453"/>
      <use xlink:href="#ArialMT-74" x="227.929688"/>
      <use xlink:href="#ArialMT-61" x="255.712891"/>
      <use xlink:href="#ArialMT-30" x="311.328125"/>
      <use xlink:href="#ArialMT-31" x="366.943359"/>
     </g>
    </g>
    <g id="PathCollection_11">
     <g>
      <use xlink:href="#m73a1456a27" x="358.972813" y="26.574687" style="fill: #ffa500; stroke: #ffa500; stroke-width: 0.5"/>
     </g>
    </g>
    <g id="text_14">
     <!-- C-source -->
     <g transform="translate(371.572813 28.412187)scale(0.07 -0.07)">
      <defs>
       <path id="ArialMT-43" d="M 3763 1606 
L 4369 1453 
Q 4178 706 3683 314 
Q 3188 -78 2472 -78 
Q 1731 -78 1267 223 
Q 803 525 561 1097 
Q 319 1669 319 2325 
Q 319 3041 592 3573 
Q 866 4106 1370 4382 
Q 1875 4659 2481 4659 
Q 3169 4659 3637 4309 
Q 4106 3959 4291 3325 
L 3694 3184 
Q 3534 3684 3231 3912 
Q 2928 4141 2469 4141 
Q 1941 4141 1586 3887 
Q 1231 3634 1087 3207 
Q 944 2781 944 2328 
Q 944 1744 1114 1308 
Q 1284 872 1643 656 
Q 2003 441 2422 441 
Q 2931 441 3284 734 
Q 3638 1028 3763 1606 
z
" transform="scale(0.015625)"/>
       <path id="ArialMT-73" d="M 197 991 
L 753 1078 
Q 800 744 1014 566 
Q 1228 388 1613 388 
Q 2000 388 2187 545 
Q 2375 703 2375 916 
Q 2375 1106 2209 1216 
Q 2094 1291 1634 1406 
Q 1016 1563 777 1677 
Q 538 1791 414 1992 
Q 291 2194 291 2438 
Q 291 2659 392 2848 
Q 494 3038 669 3163 
Q 800 3259 1026 3326 
Q 1253 3394 1513 3394 
Q 1903 3394 2198 3281 
Q 2494 3169 2634 2976 
Q 2775 2784 2828 2463 
L 2278 2388 
Q 2241 2644 2061 2787 
Q 1881 2931 1553 2931 
Q 1166 2931 1000 2803 
Q 834 2675 834 2503 
Q 834 2394 903 2306 
Q 972 2216 1119 2156 
Q 1203 2125 1616 2013 
Q 2213 1853 2448 1751 
Q 2684 1650 2818 1456 
Q 2953 1263 2953 975 
Q 2953 694 2789 445 
Q 2625 197 2315 61 
Q 2006 -75 1616 -75 
Q 969 -75 630 194 
Q 291 463 197 991 
z
" transform="scale(0.015625)"/>
       <path id="ArialMT-6f" d="M 213 1659 
Q 213 2581 725 3025 
Q 1153 3394 1769 3394 
Q 2453 3394 2887 2945 
Q 3322 2497 3322 1706 
Q 3322 1066 3130 698 
Q 2938 331 2570 128 
Q 2203 -75 1769 -75 
Q 1072 -75 642 372 
Q 213 819 213 1659 
z
M 791 1659 
Q 791 1022 1069 705 
Q 1347 388 1769 388 
Q 2188 388 2466 706 
Q 2744 1025 2744 1678 
Q 2744 2294 2464 2611 
Q 2184 2928 1769 2928 
Q 1347 2928 1069 2612 
Q 791 2297 791 1659 
z
" transform="scale(0.015625)"/>
      </defs>
      <use xlink:href="#ArialMT-43"/>
      <use xlink:href="#ArialMT-2d" x="72.216797"/>
      <use xlink:href="#ArialMT-73" x="105.517578"/>
      <use xlink:href="#ArialMT-6f" x="155.517578"/>
      <use xlink:href="#ArialMT-75" x="211.132812"/>
      <use xlink:href="#ArialMT-72" x="266.748047"/>
      <use xlink:href="#ArialMT-63" x="300.048828"/>
      <use xlink:href="#ArialMT-65" x="350.048828"/>
     </g>
    </g>
    <g id="PathCollection_12">
     <g>
      <use xlink:href="#m81bc10fcce" x="358.972813" y="36.476406" style="fill: #a52a2a; stroke: #a52a2a; stroke-width: 0.5"/>
     </g>
    </g>
    <g id="text_15">
     <!-- Nybomycin -->
     <g transform="translate(371.572813 38.313906)scale(0.07 -0.07)">
      <defs>
       <path id="ArialMT-4e" d="M 488 0 
L 488 4581 
L 1109 4581 
L 3516 984 
L 3516 4581 
L 4097 4581 
L 4097 0 
L 3475 0 
L 1069 3600 
L 1069 0 
L 488 0 
z
" transform="scale(0.015625)"/>
       <path id="ArialMT-62" d="M 941 0 
L 419 0 
L 419 4581 
L 981 4581 
L 981 2947 
Q 1338 3394 1891 3394 
Q 2197 3394 2470 3270 
Q 2744 3147 2920 2923 
Q 3097 2700 3197 2384 
Q 3297 2069 3297 1709 
Q 3297 856 2875 390 
Q 2453 -75 1863 -75 
Q 1275 -75 941 416 
L 941 0 
z
M 934 1684 
Q 934 1088 1097 822 
Q 1363 388 1816 388 
Q 2184 388 2453 708 
Q 2722 1028 2722 1663 
Q 2722 2313 2464 2622 
Q 2206 2931 1841 2931 
Q 1472 2931 1203 2611 
Q 934 2291 934 1684 
z
" transform="scale(0.015625)"/>
      </defs>
      <use xlink:href="#ArialMT-4e"/>
      <use xlink:href="#ArialMT-79" x="72.216797"/>
      <use xlink:href="#ArialMT-62" x="122.216797"/>
      <use xlink:href="#ArialMT-6f" x="177.832031"/>
      <use xlink:href="#ArialMT-6d" x="233.447266"/>
      <use xlink:href="#ArialMT-79" x="316.748047"/>
      <use xlink:href="#ArialMT-63" x="366.748047"/>
      <use xlink:href="#ArialMT-69" x="416.748047"/>
      <use xlink:href="#ArialMT-6e" x="438.964844"/>
     </g>
    </g>
    <g id="PathCollection_13">
     <g>
      <use xlink:href="#md16287f381" x="358.972813" y="46.460156" style="fill: #ffc0cb; stroke: #ffc0cb; stroke-width: 0.5"/>
     </g>
    </g>
    <g id="text_16">
     <!-- Pamamycin -->
     <g transform="translate(371.572813 48.297656)scale(0.07 -0.07)">
      <defs>
       <path id="ArialMT-50" d="M 494 0 
L 494 4581 
L 2222 4581 
Q 2678 4581 2919 4538 
Q 3256 4481 3484 4323 
Q 3713 4166 3852 3881 
Q 3991 3597 3991 3256 
Q 3991 2672 3619 2267 
Q 3247 1863 2275 1863 
L 1100 1863 
L 1100 0 
L 494 0 
z
M 1100 2403 
L 2284 2403 
Q 2872 2403 3119 2622 
Q 3366 2841 3366 3238 
Q 3366 3525 3220 3729 
Q 3075 3934 2838 4000 
Q 2684 4041 2272 4041 
L 1100 4041 
L 1100 2403 
z
" transform="scale(0.015625)"/>
      </defs>
      <use xlink:href="#ArialMT-50"/>
      <use xlink:href="#ArialMT-61" x="66.699219"/>
      <use xlink:href="#ArialMT-6d" x="122.314453"/>
      <use xlink:href="#ArialMT-61" x="205.615234"/>
      <use xlink:href="#ArialMT-6d" x="261.230469"/>
      <use xlink:href="#ArialMT-79" x="344.53125"/>
      <use xlink:href="#ArialMT-63" x="394.53125"/>
      <use xlink:href="#ArialMT-69" x="444.53125"/>
      <use xlink:href="#ArialMT-6e" x="466.748047"/>
     </g>
    </g>
    <g id="PathCollection_14">
     <g>
      <use xlink:href="#m2f55c35b87" x="358.972813" y="56.529219" style="fill: #ff0000; stroke: #ff0000; stroke-width: 0.5"/>
     </g>
    </g>
    <g id="text_17">
     <!-- Salinity -->
     <g transform="translate(371.572813 58.366719)scale(0.07 -0.07)">
      <defs>
       <path id="ArialMT-6c" d="M 409 0 
L 409 4581 
L 972 4581 
L 972 0 
L 409 0 
z
" transform="scale(0.015625)"/>
      </defs>
      <use xlink:href="#ArialMT-53"/>
      <use xlink:href="#ArialMT-61" x="66.699219"/>
      <use xlink:href="#ArialMT-6c" x="122.314453"/>
      <use xlink:href="#ArialMT-69" x="144.53125"/>
      <use xlink:href="#ArialMT-6e" x="166.748047"/>
      <use xlink:href="#ArialMT-69" x="222.363281"/>
      <use xlink:href="#ArialMT-74" x="244.580078"/>
      <use xlink:href="#ArialMT-79" x="272.363281"/>
     </g>
    </g>
    <g id="PathCollection_15">
     <g>
      <use xlink:href="#m84fbff29ce" x="358.972813" y="66.512969" style="fill: #0000ff; stroke: #0000ff; stroke-width: 0.5"/>
     </g>
    </g>
    <g id="text_18">
     <!-- Temperature -->
     <g transform="translate(371.572813 68.350469)scale(0.07 -0.07)">
      <defs>
       <path id="ArialMT-54" d="M 1659 0 
L 1659 4041 
L 150 4041 
L 150 4581 
L 3781 4581 
L 3781 4041 
L 2266 4041 
L 2266 0 
L 1659 0 
z
" transform="scale(0.015625)"/>
       <path id="ArialMT-70" d="M 422 -1272 
L 422 3319 
L 934 3319 
L 934 2888 
Q 1116 3141 1344 3267 
Q 1572 3394 1897 3394 
Q 2322 3394 2647 3175 
Q 2972 2956 3137 2557 
Q 3303 2159 3303 1684 
Q 3303 1175 3120 767 
Q 2938 359 2589 142 
Q 2241 -75 1856 -75 
Q 1575 -75 1351 44 
Q 1128 163 984 344 
L 984 -1272 
L 422 -1272 
z
M 931 1641 
Q 931 1000 1190 694 
Q 1450 388 1819 388 
Q 2194 388 2461 705 
Q 2728 1022 2728 1688 
Q 2728 2322 2467 2637 
Q 2206 2953 1844 2953 
Q 1484 2953 1207 2617 
Q 931 2281 931 1641 
z
" transform="scale(0.015625)"/>
      </defs>
      <use xlink:href="#ArialMT-54"/>
      <use xlink:href="#ArialMT-65" x="49.958984"/>
      <use xlink:href="#ArialMT-6d" x="105.574219"/>
      <use xlink:href="#ArialMT-70" x="188.875"/>
      <use xlink:href="#ArialMT-65" x="244.490234"/>
      <use xlink:href="#ArialMT-72" x="300.105469"/>
      <use xlink:href="#ArialMT-61" x="333.40625"/>
      <use xlink:href="#ArialMT-74" x="389.021484"/>
      <use xlink:href="#ArialMT-75" x="416.804688"/>
      <use xlink:href="#ArialMT-72" x="472.419922"/>
      <use xlink:href="#ArialMT-65" x="505.720703"/>
     </g>
    </g>
    <g id="PathCollection_16">
     <g>
      <use xlink:href="#mf212509b79" x="358.972813" y="76.414687" style="stroke: #000000; stroke-width: 0.5"/>
     </g>
    </g>
    <g id="text_19">
     <!-- Time course -->
     <g transform="translate(371.572813 78.252187)scale(0.07 -0.07)">
      <use xlink:href="#ArialMT-54"/>
      <use xlink:href="#ArialMT-69" x="57.333984"/>
      <use xlink:href="#ArialMT-6d" x="79.550781"/>
      <use xlink:href="#ArialMT-65" x="162.851562"/>
      <use xlink:href="#ArialMT-20" x="218.466797"/>
      <use xlink:href="#ArialMT-63" x="246.25"/>
      <use xlink:href="#ArialMT-6f" x="296.25"/>
      <use xlink:href="#ArialMT-75" x="351.865234"/>
      <use xlink:href="#ArialMT-72" x="407.480469"/>
      <use xlink:href="#ArialMT-73" x="440.78125"/>
      <use xlink:href="#ArialMT-65" x="490.78125"/>
     </g>
    </g>
    <g id="PathCollection_17">
     <g>
      <use xlink:href="#m70137fc8dd" x="358.972813" y="86.316406" style="fill: #800080; stroke: #800080; stroke-width: 0.5"/>
     </g>
    </g>
    <g id="text_20">
     <!-- pH -->
     <g transform="translate(371.572813 88.153906)scale(0.07 -0.07)">
      <defs>
       <path id="ArialMT-48" d="M 513 0 
L 513 4581 
L 1119 4581 
L 1119 2700 
L 3500 2700 
L 3500 4581 
L 4106 4581 
L 4106 0 
L 3500 0 
L 3500 2159 
L 1119 2159 
L 1119 0 
L 513 0 
z
" transform="scale(0.015625)"/>
      </defs>
      <use xlink:href="#ArialMT-70"/>
      <use xlink:href="#ArialMT-48" x="55.615234"/>
     </g>
    </g>
   </g>
  </g>
 </g>
 <defs>
  <clipPath id="pe9ec5c1efe">
   <rect x="54.4625" y="7.2" width="279" height="277.2"/>
  </clipPath>
 </defs>
</svg>
