<?xml version="1.0" encoding="utf-8" standalone="no"?>
<!DOCTYPE svg PUBLIC "-//W3C//DTD SVG 1.1//EN"
  "http://www.w3.org/Graphics/SVG/1.1/DTD/svg11.dtd">
<svg xmlns:xlink="http://www.w3.org/1999/xlink" width="277.960094pt" height="208.631986pt" viewBox="0 0 277.960094 208.631986" xmlns="http://www.w3.org/2000/svg" version="1.1">
 <metadata>
  <rdf:RDF xmlns:dc="http://purl.org/dc/elements/1.1/" xmlns:cc="http://creativecommons.org/ns#" xmlns:rdf="http://www.w3.org/1999/02/22-rdf-syntax-ns#">
   <cc:Work>
    <dc:type rdf:resource="http://purl.org/dc/dcmitype/StillImage"/>
    <dc:date>2023-12-12T09:39:59.324636</dc:date>
    <dc:format>image/svg+xml</dc:format>
    <dc:creator>
     <cc:Agent>
      <dc:title>Matplotlib v3.5.3, https://matplotlib.org/</dc:title>
     </cc:Agent>
    </dc:creator>
   </cc:Work>
  </rdf:RDF>
 </metadata>
 <defs>
  <style type="text/css">*{stroke-linejoin: round; stroke-linecap: butt}</style>
 </defs>
 <g id="figure_1">
  <g id="patch_1">
   <path d="M 0 208.631986 
L 277.960094 208.631986 
L 277.960094 -0 
L 0 -0 
L 0 208.631986 
z
" style="fill: none"/>
  </g>
  <g id="axes_1">
   <g id="patch_2">
    <path d="M 31.508125 181.814173 
L 218.240408 181.814173 
L 218.240408 7.2 
L 31.508125 7.2 
L 31.508125 181.814173 
z
" style="fill: none"/>
   </g>
   <g id="line2d_1">
    <path d="M 31.508125 78.698939 
L 185.150681 7.2 
" clip-path="url(#pd7f987a15c)" style="fill: none; stroke-dasharray: 1.85,0.8; stroke-dashoffset: 0; stroke: #000000; stroke-width: 0.5"/>
   </g>
   <g id="line2d_2">
    <path d="M 31.508125 99.754869 
L 218.240408 12.857329 
" clip-path="url(#pd7f987a15c)" style="fill: none; stroke-dasharray: 1.85,0.8; stroke-dashoffset: 0; stroke: #808080; stroke-width: 0.5"/>
   </g>
   <g id="line2d_3">
    <path d="M 31.508125 57.64301 
L 139.90404 7.2 
" clip-path="url(#pd7f987a15c)" style="fill: none; stroke-dasharray: 1.85,0.8; stroke-dashoffset: 0; stroke: #808080; stroke-width: 0.5"/>
   </g>
   <g id="matplotlib.axis_1">
    <g id="xtick_1">
     <g id="line2d_4">
      <defs>
       <path id="m5ab319765a" d="M 0 0 
L 0 2.5 
" style="stroke: #000000; stroke-width: 0.5"/>
      </defs>
      <g>
       <use xlink:href="#m5ab319765a" x="46.059739" y="181.814173" style="stroke: #000000; stroke-width: 0.5"/>
      </g>
     </g>
     <g id="text_1">
      <text style="font: 6px 'sans-serif'; text-anchor: middle" x="46.059739" y="190.608861" transform="rotate(-0, 46.059739, 190.608861)">−15</text>
     </g>
    </g>
    <g id="xtick_2">
     <g id="line2d_5">
      <g>
       <use xlink:href="#m5ab319765a" x="68.68306" y="181.814173" style="stroke: #000000; stroke-width: 0.5"/>
      </g>
     </g>
     <g id="text_2">
      <text style="font: 6px 'sans-serif'; text-anchor: middle" x="68.68306" y="190.608861" transform="rotate(-0, 68.68306, 190.608861)">−10</text>
     </g>
    </g>
    <g id="xtick_3">
     <g id="line2d_6">
      <g>
       <use xlink:href="#m5ab319765a" x="91.30638" y="181.814173" style="stroke: #000000; stroke-width: 0.5"/>
      </g>
     </g>
     <g id="text_3">
      <text style="font: 6px 'sans-serif'; text-anchor: middle" x="91.30638" y="190.608861" transform="rotate(-0, 91.30638, 190.608861)">−5</text>
     </g>
    </g>
    <g id="xtick_4">
     <g id="line2d_7">
      <g>
       <use xlink:href="#m5ab319765a" x="113.929701" y="181.814173" style="stroke: #000000; stroke-width: 0.5"/>
      </g>
     </g>
     <g id="text_4">
      <text style="font: 6px 'sans-serif'; text-anchor: middle" x="113.929701" y="190.608861" transform="rotate(-0, 113.929701, 190.608861)">0</text>
     </g>
    </g>
    <g id="xtick_5">
     <g id="line2d_8">
      <g>
       <use xlink:href="#m5ab319765a" x="136.553022" y="181.814173" style="stroke: #000000; stroke-width: 0.5"/>
      </g>
     </g>
     <g id="text_5">
      <text style="font: 6px 'sans-serif'; text-anchor: middle" x="136.553022" y="190.608861" transform="rotate(-0, 136.553022, 190.608861)">5</text>
     </g>
    </g>
    <g id="xtick_6">
     <g id="line2d_9">
      <g>
       <use xlink:href="#m5ab319765a" x="159.176342" y="181.814173" style="stroke: #000000; stroke-width: 0.5"/>
      </g>
     </g>
     <g id="text_6">
      <text style="font: 6px 'sans-serif'; text-anchor: middle" x="159.176342" y="190.608861" transform="rotate(-0, 159.176342, 190.608861)">10</text>
     </g>
    </g>
    <g id="xtick_7">
     <g id="line2d_10">
      <g>
       <use xlink:href="#m5ab319765a" x="181.799663" y="181.814173" style="stroke: #000000; stroke-width: 0.5"/>
      </g>
     </g>
     <g id="text_7">
      <text style="font: 6px 'sans-serif'; text-anchor: middle" x="181.799663" y="190.608861" transform="rotate(-0, 181.799663, 190.608861)">15</text>
     </g>
    </g>
    <g id="xtick_8">
     <g id="line2d_11">
      <g>
       <use xlink:href="#m5ab319765a" x="204.422983" y="181.814173" style="stroke: #000000; stroke-width: 0.5"/>
      </g>
     </g>
     <g id="text_8">
      <text style="font: 6px 'sans-serif'; text-anchor: middle" x="204.422983" y="190.608861" transform="rotate(-0, 204.422983, 190.608861)">20</text>
     </g>
    </g>
    <g id="text_9">
     <text style="font: 6px 'sans-serif'; text-anchor: middle" x="124.874267" y="200.169173" transform="rotate(-0, 124.874267, 200.169173)">Cyclofaulknamycin-1 Activity</text>
    </g>
   </g>
   <g id="matplotlib.axis_2">
    <g id="ytick_1">
     <g id="line2d_12">
      <defs>
       <path id="me401f6c2cc" d="M 0 0 
L -2.5 0 
" style="stroke: #000000; stroke-width: 0.5"/>
      </defs>
      <g>
       <use xlink:href="#me401f6c2cc" x="31.508125" y="166.678899" style="stroke: #000000; stroke-width: 0.5"/>
      </g>
     </g>
     <g id="text_10">
      <text style="font: 6px 'sans-serif'; text-anchor: end" x="27.008125" y="168.826243" transform="rotate(-0, 27.008125, 168.826243)">−60</text>
     </g>
    </g>
    <g id="ytick_2">
     <g id="line2d_13">
      <g>
       <use xlink:href="#me401f6c2cc" x="31.508125" y="145.622969" style="stroke: #000000; stroke-width: 0.5"/>
      </g>
     </g>
     <g id="text_11">
      <text style="font: 6px 'sans-serif'; text-anchor: end" x="27.008125" y="147.770313" transform="rotate(-0, 27.008125, 147.770313)">−50</text>
     </g>
    </g>
    <g id="ytick_3">
     <g id="line2d_14">
      <g>
       <use xlink:href="#me401f6c2cc" x="31.508125" y="124.56704" style="stroke: #000000; stroke-width: 0.5"/>
      </g>
     </g>
     <g id="text_12">
      <text style="font: 6px 'sans-serif'; text-anchor: end" x="27.008125" y="126.714383" transform="rotate(-0, 27.008125, 126.714383)">−40</text>
     </g>
    </g>
    <g id="ytick_4">
     <g id="line2d_15">
      <g>
       <use xlink:href="#me401f6c2cc" x="31.508125" y="103.51111" style="stroke: #000000; stroke-width: 0.5"/>
      </g>
     </g>
     <g id="text_13">
      <text style="font: 6px 'sans-serif'; text-anchor: end" x="27.008125" y="105.658454" transform="rotate(-0, 27.008125, 105.658454)">−30</text>
     </g>
    </g>
    <g id="ytick_5">
     <g id="line2d_16">
      <g>
       <use xlink:href="#me401f6c2cc" x="31.508125" y="82.45518" style="stroke: #000000; stroke-width: 0.5"/>
      </g>
     </g>
     <g id="text_14">
      <text style="font: 6px 'sans-serif'; text-anchor: end" x="27.008125" y="84.602524" transform="rotate(-0, 27.008125, 84.602524)">−20</text>
     </g>
    </g>
    <g id="ytick_6">
     <g id="line2d_17">
      <g>
       <use xlink:href="#me401f6c2cc" x="31.508125" y="61.39925" style="stroke: #000000; stroke-width: 0.5"/>
      </g>
     </g>
     <g id="text_15">
      <text style="font: 6px 'sans-serif'; text-anchor: end" x="27.008125" y="63.546594" transform="rotate(-0, 27.008125, 63.546594)">−10</text>
     </g>
    </g>
    <g id="ytick_7">
     <g id="line2d_18">
      <g>
       <use xlink:href="#me401f6c2cc" x="31.508125" y="40.343321" style="stroke: #000000; stroke-width: 0.5"/>
      </g>
     </g>
     <g id="text_16">
      <text style="font: 6px 'sans-serif'; text-anchor: end" x="27.008125" y="42.490665" transform="rotate(-0, 27.008125, 42.490665)">0</text>
     </g>
    </g>
    <g id="ytick_8">
     <g id="line2d_19">
      <g>
       <use xlink:href="#me401f6c2cc" x="31.508125" y="19.287391" style="stroke: #000000; stroke-width: 0.5"/>
      </g>
     </g>
     <g id="text_17">
      <text style="font: 6px 'sans-serif'; text-anchor: end" x="27.008125" y="21.434735" transform="rotate(-0, 27.008125, 21.434735)">10</text>
     </g>
    </g>
    <g id="text_18">
     <text style="font: 6px 'sans-serif'; text-anchor: middle" x="11.567813" y="94.507087" transform="rotate(-90, 11.567813, 94.507087)">NRPS-1 Activity</text>
    </g>
   </g>
   <g id="PathCollection_1">
    <defs>
     <path id="m5f7099fa27" d="M 0 2.738613 
C 0.726289 2.738613 1.422928 2.450055 1.936492 1.936492 
C 2.450055 1.422928 2.738613 0.726289 2.738613 0 
C 2.738613 -0.726289 2.450055 -1.422928 1.936492 -1.936492 
C 1.422928 -2.450055 0.726289 -2.738613 0 -2.738613 
C -0.726289 -2.738613 -1.422928 -2.450055 -1.936492 -1.936492 
C -2.450055 -1.422928 -2.738613 -0.726289 -2.738613 0 
C -2.738613 0.726289 -2.450055 1.422928 -1.936492 1.936492 
C -1.422928 2.450055 -0.726289 2.738613 0 2.738613 
z
" style="stroke: #008000; stroke-width: 0.5"/>
    </defs>
    <g clip-path="url(#pd7f987a15c)">
     <use xlink:href="#m5f7099fa27" x="145.60045" y="54.684465" style="fill: #008000; stroke: #008000; stroke-width: 0.5"/>
     <use xlink:href="#m5f7099fa27" x="144.255171" y="54.784001" style="fill: #008000; stroke: #008000; stroke-width: 0.5"/>
     <use xlink:href="#m5f7099fa27" x="142.799693" y="55.609168" style="fill: #008000; stroke: #008000; stroke-width: 0.5"/>
     <use xlink:href="#m5f7099fa27" x="142.678075" y="54.562545" style="fill: #008000; stroke: #008000; stroke-width: 0.5"/>
    </g>
   </g>
   <g id="PathCollection_2">
    <defs>
     <path id="m8a89037945" d="M 0 2.738613 
C 0.726289 2.738613 1.422928 2.450055 1.936492 1.936492 
C 2.450055 1.422928 2.738613 0.726289 2.738613 0 
C 2.738613 -0.726289 2.450055 -1.422928 1.936492 -1.936492 
C 1.422928 -2.450055 0.726289 -2.738613 0 -2.738613 
C -0.726289 -2.738613 -1.422928 -2.450055 -1.936492 -1.936492 
C -2.450055 -1.422928 -2.738613 -0.726289 -2.738613 0 
C -2.738613 0.726289 -2.450055 1.422928 -1.936492 1.936492 
C -1.422928 2.450055 -0.726289 2.738613 0 2.738613 
z
" style="stroke: #ffa500; stroke-width: 0.5"/>
    </defs>
    <g clip-path="url(#pd7f987a15c)">
     <use xlink:href="#m8a89037945" x="185.860333" y="37.997412" style="fill: #ffa500; stroke: #ffa500; stroke-width: 0.5"/>
     <use xlink:href="#m8a89037945" x="188.369577" y="46.386696" style="fill: #ffa500; stroke: #ffa500; stroke-width: 0.5"/>
     <use xlink:href="#m8a89037945" x="113.3102" y="63.089" style="fill: #ffa500; stroke: #ffa500; stroke-width: 0.5"/>
     <use xlink:href="#m8a89037945" x="151.869939" y="49.606018" style="fill: #ffa500; stroke: #ffa500; stroke-width: 0.5"/>
     <use xlink:href="#m8a89037945" x="151.931955" y="50.294716" style="fill: #ffa500; stroke: #ffa500; stroke-width: 0.5"/>
     <use xlink:href="#m8a89037945" x="78.239974" y="33.216432" style="fill: #ffa500; stroke: #ffa500; stroke-width: 0.5"/>
     <use xlink:href="#m8a89037945" x="176.864542" y="41.712552" style="fill: #ffa500; stroke: #ffa500; stroke-width: 0.5"/>
    </g>
   </g>
   <g id="PathCollection_3">
    <defs>
     <path id="mbb27b1fccf" d="M 0 2.738613 
C 0.726289 2.738613 1.422928 2.450055 1.936492 1.936492 
C 2.450055 1.422928 2.738613 0.726289 2.738613 0 
C 2.738613 -0.726289 2.450055 -1.422928 1.936492 -1.936492 
C 1.422928 -2.450055 0.726289 -2.738613 0 -2.738613 
C -0.726289 -2.738613 -1.422928 -2.450055 -1.936492 -1.936492 
C -2.450055 -1.422928 -2.738613 -0.726289 -2.738613 0 
C -2.738613 0.726289 -2.450055 1.422928 -1.936492 1.936492 
C -1.422928 2.450055 -0.726289 2.738613 0 2.738613 
z
" style="stroke: #000000; stroke-width: 0.5"/>
    </defs>
    <g clip-path="url(#pd7f987a15c)">
     <use xlink:href="#mbb27b1fccf" x="63.084979" y="153.845992" style="stroke: #000000; stroke-width: 0.5"/>
     <use xlink:href="#mbb27b1fccf" x="61.685518" y="155.507821" style="stroke: #000000; stroke-width: 0.5"/>
     <use xlink:href="#mbb27b1fccf" x="60.205811" y="155.909578" style="stroke: #000000; stroke-width: 0.5"/>
     <use xlink:href="#mbb27b1fccf" x="47.069149" y="154.839502" style="stroke: #000000; stroke-width: 0.5"/>
     <use xlink:href="#mbb27b1fccf" x="47.660233" y="154.139612" style="stroke: #000000; stroke-width: 0.5"/>
     <use xlink:href="#mbb27b1fccf" x="49.642027" y="152.984905" style="stroke: #000000; stroke-width: 0.5"/>
     <use xlink:href="#mbb27b1fccf" x="66.338397" y="164.701257" style="stroke: #000000; stroke-width: 0.5"/>
     <use xlink:href="#mbb27b1fccf" x="67.802324" y="158.351875" style="stroke: #000000; stroke-width: 0.5"/>
     <use xlink:href="#mbb27b1fccf" x="62.459428" y="166.990633" style="stroke: #000000; stroke-width: 0.5"/>
     <use xlink:href="#mbb27b1fccf" x="56.120978" y="144.352324" style="stroke: #000000; stroke-width: 0.5"/>
     <use xlink:href="#mbb27b1fccf" x="54.493708" y="139.457487" style="stroke: #000000; stroke-width: 0.5"/>
     <use xlink:href="#mbb27b1fccf" x="59.598307" y="130.294623" style="stroke: #000000; stroke-width: 0.5"/>
     <use xlink:href="#mbb27b1fccf" x="53.113953" y="153.909743" style="stroke: #000000; stroke-width: 0.5"/>
     <use xlink:href="#mbb27b1fccf" x="50.454384" y="155.080182" style="stroke: #000000; stroke-width: 0.5"/>
     <use xlink:href="#mbb27b1fccf" x="48.856522" y="152.779135" style="stroke: #000000; stroke-width: 0.5"/>
     <use xlink:href="#mbb27b1fccf" x="67.882418" y="161.049418" style="stroke: #000000; stroke-width: 0.5"/>
     <use xlink:href="#mbb27b1fccf" x="65.905593" y="162.700291" style="stroke: #000000; stroke-width: 0.5"/>
     <use xlink:href="#mbb27b1fccf" x="66.320468" y="161.590904" style="stroke: #000000; stroke-width: 0.5"/>
     <use xlink:href="#mbb27b1fccf" x="51.533947" y="139.274173" style="stroke: #000000; stroke-width: 0.5"/>
     <use xlink:href="#mbb27b1fccf" x="54.726047" y="131.158154" style="stroke: #000000; stroke-width: 0.5"/>
     <use xlink:href="#mbb27b1fccf" x="50.663215" y="136.632947" style="stroke: #000000; stroke-width: 0.5"/>
     <use xlink:href="#mbb27b1fccf" x="50.711531" y="155.359085" style="stroke: #000000; stroke-width: 0.5"/>
     <use xlink:href="#mbb27b1fccf" x="51.365488" y="152.23914" style="stroke: #000000; stroke-width: 0.5"/>
     <use xlink:href="#mbb27b1fccf" x="53.70596" y="151.30359" style="stroke: #000000; stroke-width: 0.5"/>
     <use xlink:href="#mbb27b1fccf" x="66.466233" y="161.459947" style="stroke: #000000; stroke-width: 0.5"/>
     <use xlink:href="#mbb27b1fccf" x="65.12377" y="164.463346" style="stroke: #000000; stroke-width: 0.5"/>
     <use xlink:href="#mbb27b1fccf" x="62.298711" y="167.262992" style="stroke: #000000; stroke-width: 0.5"/>
     <use xlink:href="#mbb27b1fccf" x="52.336466" y="149.826506" style="stroke: #000000; stroke-width: 0.5"/>
     <use xlink:href="#mbb27b1fccf" x="48.632217" y="158.376186" style="stroke: #000000; stroke-width: 0.5"/>
     <use xlink:href="#mbb27b1fccf" x="57.5791" y="145.229714" style="stroke: #000000; stroke-width: 0.5"/>
     <use xlink:href="#mbb27b1fccf" x="51.54186" y="152.806702" style="stroke: #000000; stroke-width: 0.5"/>
     <use xlink:href="#mbb27b1fccf" x="53.208361" y="152.2725" style="stroke: #000000; stroke-width: 0.5"/>
     <use xlink:href="#mbb27b1fccf" x="51.036546" y="152.871961" style="stroke: #000000; stroke-width: 0.5"/>
     <use xlink:href="#mbb27b1fccf" x="68.063969" y="158.09424" style="stroke: #000000; stroke-width: 0.5"/>
     <use xlink:href="#mbb27b1fccf" x="70.524778" y="156.354144" style="stroke: #000000; stroke-width: 0.5"/>
     <use xlink:href="#mbb27b1fccf" x="68.295011" y="161.190954" style="stroke: #000000; stroke-width: 0.5"/>
     <use xlink:href="#mbb27b1fccf" x="47.518718" y="152.714929" style="stroke: #000000; stroke-width: 0.5"/>
     <use xlink:href="#mbb27b1fccf" x="48.111308" y="157.38461" style="stroke: #000000; stroke-width: 0.5"/>
     <use xlink:href="#mbb27b1fccf" x="47.851062" y="152.101308" style="stroke: #000000; stroke-width: 0.5"/>
    </g>
   </g>
   <g id="PathCollection_4">
    <defs>
     <path id="m9f588e419f" d="M 0 2.738613 
C 0.726289 2.738613 1.422928 2.450055 1.936492 1.936492 
C 2.450055 1.422928 2.738613 0.726289 2.738613 0 
C 2.738613 -0.726289 2.450055 -1.422928 1.936492 -1.936492 
C 1.422928 -2.450055 0.726289 -2.738613 0 -2.738613 
C -0.726289 -2.738613 -1.422928 -2.450055 -1.936492 -1.936492 
C -2.450055 -1.422928 -2.738613 -0.726289 -2.738613 0 
C -2.738613 0.726289 -2.450055 1.422928 -1.936492 1.936492 
C -1.422928 2.450055 -0.726289 2.738613 0 2.738613 
z
" style="stroke: #a52a2a; stroke-width: 0.5"/>
    </defs>
    <g clip-path="url(#pd7f987a15c)">
     <use xlink:href="#m9f588e419f" x="105.919369" y="21.751181" style="fill: #a52a2a; stroke: #a52a2a; stroke-width: 0.5"/>
     <use xlink:href="#m9f588e419f" x="106.20609" y="22.386283" style="fill: #a52a2a; stroke: #a52a2a; stroke-width: 0.5"/>
    </g>
   </g>
   <g id="PathCollection_5">
    <defs>
     <path id="mef39cabd36" d="M 0 2.738613 
C 0.726289 2.738613 1.422928 2.450055 1.936492 1.936492 
C 2.450055 1.422928 2.738613 0.726289 2.738613 0 
C 2.738613 -0.726289 2.450055 -1.422928 1.936492 -1.936492 
C 1.422928 -2.450055 0.726289 -2.738613 0 -2.738613 
C -0.726289 -2.738613 -1.422928 -2.450055 -1.936492 -1.936492 
C -2.450055 -1.422928 -2.738613 -0.726289 -2.738613 0 
C -2.738613 0.726289 -2.450055 1.422928 -1.936492 1.936492 
C -1.422928 2.450055 -0.726289 2.738613 0 2.738613 
z
" style="stroke: #ff0000; stroke-width: 0.5"/>
    </defs>
    <g clip-path="url(#pd7f987a15c)">
     <use xlink:href="#mef39cabd36" x="156.246302" y="47.580271" style="fill: #ff0000; stroke: #ff0000; stroke-width: 0.5"/>
     <use xlink:href="#mef39cabd36" x="160.056178" y="44.22656" style="fill: #ff0000; stroke: #ff0000; stroke-width: 0.5"/>
     <use xlink:href="#mef39cabd36" x="196.613416" y="41.254102" style="fill: #ff0000; stroke: #ff0000; stroke-width: 0.5"/>
     <use xlink:href="#mef39cabd36" x="202.679385" y="44.481258" style="fill: #ff0000; stroke: #ff0000; stroke-width: 0.5"/>
     <use xlink:href="#mef39cabd36" x="135.10267" y="55.455243" style="fill: #ff0000; stroke: #ff0000; stroke-width: 0.5"/>
    </g>
   </g>
   <g id="PathCollection_6">
    <defs>
     <path id="mc6a8261bc2" d="M 0 2.738613 
C 0.726289 2.738613 1.422928 2.450055 1.936492 1.936492 
C 2.450055 1.422928 2.738613 0.726289 2.738613 0 
C 2.738613 -0.726289 2.450055 -1.422928 1.936492 -1.936492 
C 1.422928 -2.450055 0.726289 -2.738613 0 -2.738613 
C -0.726289 -2.738613 -1.422928 -2.450055 -1.936492 -1.936492 
C -2.450055 -1.422928 -2.738613 -0.726289 -2.738613 0 
C -2.738613 0.726289 -2.450055 1.422928 -1.936492 1.936492 
C -1.422928 2.450055 -0.726289 2.738613 0 2.738613 
z
" style="stroke: #0000ff; stroke-width: 0.5"/>
    </defs>
    <g clip-path="url(#pd7f987a15c)">
     <use xlink:href="#mc6a8261bc2" x="184.776091" y="36.453216" style="fill: #0000ff; stroke: #0000ff; stroke-width: 0.5"/>
     <use xlink:href="#mc6a8261bc2" x="170.992444" y="36.353998" style="fill: #0000ff; stroke: #0000ff; stroke-width: 0.5"/>
    </g>
   </g>
   <g id="PathCollection_7">
    <defs>
     <path id="mf52659a9fb" d="M 0 2.738613 
C 0.726289 2.738613 1.422928 2.450055 1.936492 1.936492 
C 2.450055 1.422928 2.738613 0.726289 2.738613 0 
C 2.738613 -0.726289 2.450055 -1.422928 1.936492 -1.936492 
C 1.422928 -2.450055 0.726289 -2.738613 0 -2.738613 
C -0.726289 -2.738613 -1.422928 -2.450055 -1.936492 -1.936492 
C -2.450055 -1.422928 -2.738613 -0.726289 -2.738613 0 
C -2.738613 0.726289 -2.450055 1.422928 -1.936492 1.936492 
C -1.422928 2.450055 -0.726289 2.738613 0 2.738613 
z
"/>
    </defs>
    <g clip-path="url(#pd7f987a15c)">
     <use xlink:href="#mf52659a9fb" x="103.214395" y="37.799516" style="fill: #808080; fill-opacity: 0.7"/>
     <use xlink:href="#mf52659a9fb" x="124.645007" y="42.887125" style="fill: #808080; fill-opacity: 0.7"/>
     <use xlink:href="#mf52659a9fb" x="137.986494" y="40.874932" style="fill: #808080; fill-opacity: 0.7"/>
     <use xlink:href="#mf52659a9fb" x="139.006954" y="39.942514" style="fill: #808080; fill-opacity: 0.7"/>
     <use xlink:href="#mf52659a9fb" x="112.665033" y="28.194285" style="fill: #808080; fill-opacity: 0.7"/>
     <use xlink:href="#mf52659a9fb" x="113.880537" y="29.095239" style="fill: #808080; fill-opacity: 0.7"/>
     <use xlink:href="#mf52659a9fb" x="115.786462" y="55.00677" style="fill: #808080; fill-opacity: 0.7"/>
     <use xlink:href="#mf52659a9fb" x="177.79314" y="30.184222" style="fill: #808080; fill-opacity: 0.7"/>
     <use xlink:href="#mf52659a9fb" x="154.314436" y="30.424942" style="fill: #808080; fill-opacity: 0.7"/>
     <use xlink:href="#mf52659a9fb" x="88.459822" y="34.965028" style="fill: #808080; fill-opacity: 0.7"/>
     <use xlink:href="#mf52659a9fb" x="88.165273" y="37.859268" style="fill: #808080; fill-opacity: 0.7"/>
     <use xlink:href="#mf52659a9fb" x="112.1109" y="38.989879" style="fill: #808080; fill-opacity: 0.7"/>
     <use xlink:href="#mf52659a9fb" x="102.26233" y="36.215664" style="fill: #808080; fill-opacity: 0.7"/>
     <use xlink:href="#mf52659a9fb" x="98.067547" y="34.723347" style="fill: #808080; fill-opacity: 0.7"/>
     <use xlink:href="#mf52659a9fb" x="98.568887" y="34.043421" style="fill: #808080; fill-opacity: 0.7"/>
     <use xlink:href="#mf52659a9fb" x="85.169417" y="35.264799" style="fill: #808080; fill-opacity: 0.7"/>
     <use xlink:href="#mf52659a9fb" x="93.210129" y="35.645777" style="fill: #808080; fill-opacity: 0.7"/>
     <use xlink:href="#mf52659a9fb" x="86.784059" y="36.892739" style="fill: #808080; fill-opacity: 0.7"/>
     <use xlink:href="#mf52659a9fb" x="87.721059" y="33.51136" style="fill: #808080; fill-opacity: 0.7"/>
     <use xlink:href="#mf52659a9fb" x="95.199788" y="37.460555" style="fill: #808080; fill-opacity: 0.7"/>
     <use xlink:href="#mf52659a9fb" x="98.488298" y="38.01522" style="fill: #808080; fill-opacity: 0.7"/>
     <use xlink:href="#mf52659a9fb" x="89.886886" y="31.573297" style="fill: #808080; fill-opacity: 0.7"/>
     <use xlink:href="#mf52659a9fb" x="76.798002" y="64.247284" style="fill: #808080; fill-opacity: 0.7"/>
     <use xlink:href="#mf52659a9fb" x="79.96266" y="60.788244" style="fill: #808080; fill-opacity: 0.7"/>
     <use xlink:href="#mf52659a9fb" x="127.816242" y="45.188826" style="fill: #808080; fill-opacity: 0.7"/>
     <use xlink:href="#mf52659a9fb" x="158.834668" y="40.01344" style="fill: #808080; fill-opacity: 0.7"/>
     <use xlink:href="#mf52659a9fb" x="122.971031" y="34.640806" style="fill: #808080; fill-opacity: 0.7"/>
     <use xlink:href="#mf52659a9fb" x="109.961734" y="39.370993" style="fill: #808080; fill-opacity: 0.7"/>
     <use xlink:href="#mf52659a9fb" x="97.0742" y="29.273605" style="fill: #808080; fill-opacity: 0.7"/>
     <use xlink:href="#mf52659a9fb" x="98.486539" y="27.612073" style="fill: #808080; fill-opacity: 0.7"/>
     <use xlink:href="#mf52659a9fb" x="148.856337" y="44.700438" style="fill: #808080; fill-opacity: 0.7"/>
     <use xlink:href="#mf52659a9fb" x="140.355783" y="47.758986" style="fill: #808080; fill-opacity: 0.7"/>
     <use xlink:href="#mf52659a9fb" x="124.691412" y="44.946139" style="fill: #808080; fill-opacity: 0.7"/>
     <use xlink:href="#mf52659a9fb" x="130.696255" y="40.92686" style="fill: #808080; fill-opacity: 0.7"/>
     <use xlink:href="#mf52659a9fb" x="146.746772" y="44.88788" style="fill: #808080; fill-opacity: 0.7"/>
     <use xlink:href="#mf52659a9fb" x="148.398952" y="43.42478" style="fill: #808080; fill-opacity: 0.7"/>
     <use xlink:href="#mf52659a9fb" x="103.251956" y="46.792537" style="fill: #808080; fill-opacity: 0.7"/>
     <use xlink:href="#mf52659a9fb" x="100.652962" y="32.924428" style="fill: #808080; fill-opacity: 0.7"/>
     <use xlink:href="#mf52659a9fb" x="110.680159" y="39.124356" style="fill: #808080; fill-opacity: 0.7"/>
     <use xlink:href="#mf52659a9fb" x="99.569679" y="39.688986" style="fill: #808080; fill-opacity: 0.7"/>
     <use xlink:href="#mf52659a9fb" x="114.679324" y="33.917762" style="fill: #808080; fill-opacity: 0.7"/>
     <use xlink:href="#mf52659a9fb" x="104.893723" y="31.912335" style="fill: #808080; fill-opacity: 0.7"/>
     <use xlink:href="#mf52659a9fb" x="80.663431" y="48.490073" style="fill: #808080; fill-opacity: 0.7"/>
     <use xlink:href="#mf52659a9fb" x="82.3351" y="45.934572" style="fill: #808080; fill-opacity: 0.7"/>
     <use xlink:href="#mf52659a9fb" x="73.636645" y="46.570666" style="fill: #808080; fill-opacity: 0.7"/>
     <use xlink:href="#mf52659a9fb" x="71.303639" y="48.22156" style="fill: #808080; fill-opacity: 0.7"/>
     <use xlink:href="#mf52659a9fb" x="69.608701" y="45.896291" style="fill: #808080; fill-opacity: 0.7"/>
     <use xlink:href="#mf52659a9fb" x="73.905145" y="49.235539" style="fill: #808080; fill-opacity: 0.7"/>
     <use xlink:href="#mf52659a9fb" x="89.400788" y="57.992376" style="fill: #808080; fill-opacity: 0.7"/>
     <use xlink:href="#mf52659a9fb" x="106.505821" y="61.395312" style="fill: #808080; fill-opacity: 0.7"/>
     <use xlink:href="#mf52659a9fb" x="89.79155" y="64.142708" style="fill: #808080; fill-opacity: 0.7"/>
     <use xlink:href="#mf52659a9fb" x="100.595095" y="51.185779" style="fill: #808080; fill-opacity: 0.7"/>
     <use xlink:href="#mf52659a9fb" x="102.694692" y="52.324036" style="fill: #808080; fill-opacity: 0.7"/>
     <use xlink:href="#mf52659a9fb" x="79.127842" y="42.097836" style="fill: #808080; fill-opacity: 0.7"/>
     <use xlink:href="#mf52659a9fb" x="92.094494" y="42.547632" style="fill: #808080; fill-opacity: 0.7"/>
     <use xlink:href="#mf52659a9fb" x="120.913877" y="37.384754" style="fill: #808080; fill-opacity: 0.7"/>
     <use xlink:href="#mf52659a9fb" x="114.603991" y="38.092279" style="fill: #808080; fill-opacity: 0.7"/>
     <use xlink:href="#mf52659a9fb" x="111.1668" y="36.186406" style="fill: #808080; fill-opacity: 0.7"/>
     <use xlink:href="#mf52659a9fb" x="86.021142" y="47.955046" style="fill: #808080; fill-opacity: 0.7"/>
     <use xlink:href="#mf52659a9fb" x="88.928381" y="48.133285" style="fill: #808080; fill-opacity: 0.7"/>
     <use xlink:href="#mf52659a9fb" x="93.861239" y="41.807136" style="fill: #808080; fill-opacity: 0.7"/>
     <use xlink:href="#mf52659a9fb" x="98.418994" y="37.662513" style="fill: #808080; fill-opacity: 0.7"/>
     <use xlink:href="#mf52659a9fb" x="95.977139" y="38.322672" style="fill: #808080; fill-opacity: 0.7"/>
     <use xlink:href="#mf52659a9fb" x="88.210042" y="33.203803" style="fill: #808080; fill-opacity: 0.7"/>
     <use xlink:href="#mf52659a9fb" x="120.708986" y="24.621283" style="fill: #808080; fill-opacity: 0.7"/>
     <use xlink:href="#mf52659a9fb" x="87.995482" y="37.058006" style="fill: #808080; fill-opacity: 0.7"/>
     <use xlink:href="#mf52659a9fb" x="112.439282" y="28.268506" style="fill: #808080; fill-opacity: 0.7"/>
     <use xlink:href="#mf52659a9fb" x="108.981701" y="24.529684" style="fill: #808080; fill-opacity: 0.7"/>
     <use xlink:href="#mf52659a9fb" x="103.592332" y="28.666296" style="fill: #808080; fill-opacity: 0.7"/>
     <use xlink:href="#mf52659a9fb" x="107.263434" y="32.008789" style="fill: #808080; fill-opacity: 0.7"/>
     <use xlink:href="#mf52659a9fb" x="102.610772" y="33.633849" style="fill: #808080; fill-opacity: 0.7"/>
     <use xlink:href="#mf52659a9fb" x="108.811016" y="34.658474" style="fill: #808080; fill-opacity: 0.7"/>
     <use xlink:href="#mf52659a9fb" x="108.023186" y="27.019413" style="fill: #808080; fill-opacity: 0.7"/>
     <use xlink:href="#mf52659a9fb" x="166.198987" y="36.058005" style="fill: #808080; fill-opacity: 0.7"/>
     <use xlink:href="#mf52659a9fb" x="164.925192" y="29.254477" style="fill: #808080; fill-opacity: 0.7"/>
     <use xlink:href="#mf52659a9fb" x="170.808135" y="22.423071" style="fill: #808080; fill-opacity: 0.7"/>
     <use xlink:href="#mf52659a9fb" x="127.549399" y="31.224702" style="fill: #808080; fill-opacity: 0.7"/>
     <use xlink:href="#mf52659a9fb" x="105.108515" y="31.388585" style="fill: #808080; fill-opacity: 0.7"/>
     <use xlink:href="#mf52659a9fb" x="107.404018" y="34.807364" style="fill: #808080; fill-opacity: 0.7"/>
     <use xlink:href="#mf52659a9fb" x="100.231182" y="32.871873" style="fill: #808080; fill-opacity: 0.7"/>
     <use xlink:href="#mf52659a9fb" x="95.492547" y="31.84956" style="fill: #808080; fill-opacity: 0.7"/>
     <use xlink:href="#mf52659a9fb" x="112.228737" y="27.544157" style="fill: #808080; fill-opacity: 0.7"/>
    </g>
   </g>
   <g id="PathCollection_8">
    <defs>
     <path id="m0d188df954" d="M 0 2.738613 
C 0.726289 2.738613 1.422928 2.450055 1.936492 1.936492 
C 2.450055 1.422928 2.738613 0.726289 2.738613 0 
C 2.738613 -0.726289 2.450055 -1.422928 1.936492 -1.936492 
C 1.422928 -2.450055 0.726289 -2.738613 0 -2.738613 
C -0.726289 -2.738613 -1.422928 -2.450055 -1.936492 -1.936492 
C -2.450055 -1.422928 -2.738613 -0.726289 -2.738613 0 
C -2.738613 0.726289 -2.450055 1.422928 -1.936492 1.936492 
C -1.422928 2.450055 -0.726289 2.738613 0 2.738613 
z
" style="stroke: #800080; stroke-width: 0.5"/>
    </defs>
    <g clip-path="url(#pd7f987a15c)">
     <use xlink:href="#m0d188df954" x="166.22424" y="45.484776" style="fill: #800080; stroke: #800080; stroke-width: 0.5"/>
    </g>
   </g>
   <g id="LineCollection_1">
    <path d="M 31.508125 40.343321 
L 218.240408 40.343321 
" clip-path="url(#pd7f987a15c)" style="fill: none; stroke: #808080; stroke-width: 0.5"/>
   </g>
   <g id="LineCollection_2">
    <path d="M 113.929701 181.814173 
L 113.929701 7.2 
" clip-path="url(#pd7f987a15c)" style="fill: none; stroke: #808080; stroke-width: 0.5"/>
   </g>
   <g id="patch_3">
    <path d="M 31.508125 181.814173 
L 31.508125 7.2 
" style="fill: none; stroke: #000000; stroke-width: 0.5; stroke-linejoin: miter; stroke-linecap: square"/>
   </g>
   <g id="patch_4">
    <path d="M 218.240408 181.814173 
L 218.240408 7.2 
" style="fill: none; stroke: #000000; stroke-width: 0.5; stroke-linejoin: miter; stroke-linecap: square"/>
   </g>
   <g id="patch_5">
    <path d="M 31.508125 181.814173 
L 218.240408 181.814173 
" style="fill: none; stroke: #000000; stroke-width: 0.5; stroke-linejoin: miter; stroke-linecap: square"/>
   </g>
   <g id="patch_6">
    <path d="M 31.508125 7.2 
L 218.240408 7.2 
" style="fill: none; stroke: #000000; stroke-width: 0.5; stroke-linejoin: miter; stroke-linecap: square"/>
   </g>
   <g id="text_19">
    <text style="font: 6px 'sans-serif'; text-anchor: start" x="103.251956" y="46.792537" transform="rotate(-0, 103.251956, 46.792537)">165-ISP22</text>
   </g>
   <g id="text_20">
    <text style="font: 6px 'sans-serif'; text-anchor: start" x="100.652962" y="32.924428" transform="rotate(-0, 100.652962, 32.924428)">167-ISP22</text>
   </g>
   <g id="text_21">
    <text style="font: 6px 'sans-serif'; text-anchor: start" x="110.680159" y="39.124356" transform="rotate(-0, 110.680159, 39.124356)">170-ISP23</text>
   </g>
   <g id="text_22">
    <text style="font: 6px 'sans-serif'; text-anchor: start" x="99.569679" y="39.688986" transform="rotate(-0, 99.569679, 39.688986)">171-ISP23</text>
   </g>
   <g id="text_23">
    <text style="font: 6px 'sans-serif'; text-anchor: start" x="156.246302" y="47.580271" transform="rotate(-0, 156.246302, 47.580271)">594-ISP25NaCl</text>
   </g>
   <g id="text_24">
    <text style="font: 6px 'sans-serif'; text-anchor: start" x="160.056178" y="44.22656" transform="rotate(-0, 160.056178, 44.22656)">595-ISP25NaCl</text>
   </g>
   <g id="text_25">
    <text style="font: 6px 'sans-serif'; text-anchor: start" x="114.679324" y="33.917762" transform="rotate(-0, 114.679324, 33.917762)">599-ISP27NaCl</text>
   </g>
   <g id="text_26">
    <text style="font: 6px 'sans-serif'; text-anchor: start" x="104.893723" y="31.912335" transform="rotate(-0, 104.893723, 31.912335)">601-ISP27NaCl</text>
   </g>
   <g id="text_27">
    <text style="font: 6px 'sans-serif'; text-anchor: start" x="80.663431" y="48.490073" transform="rotate(-0, 80.663431, 48.490073)">173-MSG1</text>
   </g>
   <g id="text_28">
    <text style="font: 6px 'sans-serif'; text-anchor: start" x="82.3351" y="45.934572" transform="rotate(-0, 82.3351, 45.934572)">174-MSG1</text>
   </g>
   <g id="text_29">
    <text style="font: 6px 'sans-serif'; text-anchor: start" x="73.636645" y="46.570666" transform="rotate(-0, 73.636645, 46.570666)">179-MSG2</text>
   </g>
   <g id="text_30">
    <text style="font: 6px 'sans-serif'; text-anchor: start" x="71.303639" y="48.22156" transform="rotate(-0, 71.303639, 48.22156)">180-MSG2</text>
   </g>
   <g id="text_31">
    <text style="font: 6px 'sans-serif'; text-anchor: start" x="69.608701" y="45.896291" transform="rotate(-0, 69.608701, 45.896291)">182-MSG3</text>
   </g>
   <g id="text_32">
    <text style="font: 6px 'sans-serif'; text-anchor: start" x="73.905145" y="49.235539" transform="rotate(-0, 73.905145, 49.235539)">184-MSG3</text>
   </g>
   <g id="text_33">
    <text style="font: 6px 'sans-serif'; text-anchor: start" x="89.400788" y="57.992376" transform="rotate(-0, 89.400788, 57.992376)">301-MSG5</text>
   </g>
   <g id="text_34">
    <text style="font: 6px 'sans-serif'; text-anchor: start" x="106.505821" y="61.395312" transform="rotate(-0, 106.505821, 61.395312)">303-MSG5</text>
   </g>
   <g id="text_35">
    <text style="font: 6px 'sans-serif'; text-anchor: start" x="196.613416" y="41.254102" transform="rotate(-0, 196.613416, 41.254102)">596-MSG5NaCl</text>
   </g>
   <g id="text_36">
    <text style="font: 6px 'sans-serif'; text-anchor: start" x="202.679385" y="44.481258" transform="rotate(-0, 202.679385, 44.481258)">598-MSG5NaCl</text>
   </g>
   <g id="text_37">
    <text style="font: 6px 'sans-serif'; text-anchor: start" x="89.79155" y="64.142708" transform="rotate(-0, 89.79155, 64.142708)">325-MSG7</text>
   </g>
   <g id="text_38">
    <text style="font: 6px 'sans-serif'; text-anchor: start" x="135.10267" y="55.455243" transform="rotate(-0, 135.10267, 55.455243)">326-MSG7</text>
   </g>
   <g id="text_39">
    <text style="font: 6px 'sans-serif'; text-anchor: start" x="79.127842" y="42.097836" transform="rotate(-0, 79.127842, 42.097836)">353-24hISP2</text>
   </g>
   <g id="text_40">
    <text style="font: 6px 'sans-serif'; text-anchor: start" x="92.094494" y="42.547632" transform="rotate(-0, 92.094494, 42.547632)">354-24hISP2</text>
   </g>
   <g id="text_41">
    <text style="font: 6px 'sans-serif'; text-anchor: start" x="120.913877" y="37.384754" transform="rotate(-0, 120.913877, 37.384754)">358-24hMSG</text>
   </g>
   <g id="text_42">
    <text style="font: 6px 'sans-serif'; text-anchor: start" x="114.603991" y="38.092279" transform="rotate(-0, 114.603991, 38.092279)">359-24hMSG</text>
   </g>
   <g id="text_43">
    <text style="font: 6px 'sans-serif'; text-anchor: start" x="111.1668" y="36.186406" transform="rotate(-0, 111.1668, 36.186406)">360-24hMSG</text>
   </g>
   <g id="text_44">
    <text style="font: 6px 'sans-serif'; text-anchor: start" x="86.021142" y="47.955046" transform="rotate(-0, 86.021142, 47.955046)">365-48hISP2</text>
   </g>
   <g id="text_45">
    <text style="font: 6px 'sans-serif'; text-anchor: start" x="88.928381" y="48.133285" transform="rotate(-0, 88.928381, 48.133285)">366-48hISP2</text>
   </g>
   <g id="text_46">
    <text style="font: 6px 'sans-serif'; text-anchor: start" x="93.861239" y="41.807136" transform="rotate(-0, 93.861239, 41.807136)">370-48hMSG</text>
   </g>
   <g id="text_47">
    <text style="font: 6px 'sans-serif'; text-anchor: start" x="98.418994" y="37.662513" transform="rotate(-0, 98.418994, 37.662513)">371-48hMSG</text>
   </g>
   <g id="text_48">
    <text style="font: 6px 'sans-serif'; text-anchor: start" x="95.977139" y="38.322672" transform="rotate(-0, 95.977139, 38.322672)">372-48hMSG</text>
   </g>
   <g id="text_49">
    <text style="font: 6px 'sans-serif'; text-anchor: start" x="88.210042" y="33.203803" transform="rotate(-0, 88.210042, 33.203803)">382-72hMSG</text>
   </g>
   <g id="text_50">
    <text style="font: 6px 'sans-serif'; text-anchor: start" x="120.708986" y="24.621283" transform="rotate(-0, 120.708986, 24.621283)">383-72hMSG</text>
   </g>
   <g id="text_51">
    <text style="font: 6px 'sans-serif'; text-anchor: start" x="87.995482" y="37.058006" transform="rotate(-0, 87.995482, 37.058006)">384-72hMSG</text>
   </g>
   <g id="legend_1">
    <g id="patch_7">
     <path d="M 207.670406 82.443438 
L 269.360094 82.443438 
Q 270.760094 82.443438 270.760094 81.043438 
L 270.760094 12.1 
Q 270.760094 10.7 269.360094 10.7 
L 207.670406 10.7 
Q 206.270406 10.7 206.270406 12.1 
L 206.270406 81.043438 
Q 206.270406 82.443438 207.670406 82.443438 
z
" style="fill: #ffffff; opacity: 0.8; stroke: #cccccc; stroke-width: 0.5; stroke-linejoin: miter"/>
    </g>
    <g id="PathCollection_9">
     <g>
      <use xlink:href="#m5f7099fa27" x="216.070406" y="16.672969" style="fill: #008000; stroke: #008000; stroke-width: 0.5"/>
     </g>
    </g>
    <g id="text_52">
     <text style="font: 7px 'sans-serif'; text-anchor: start" x="228.670406" y="18.510469" transform="rotate(-0, 228.670406, 18.510469)">Azenta01</text>
    </g>
    <g id="PathCollection_10">
     <g>
      <use xlink:href="#m8a89037945" x="216.070406" y="26.574688" style="fill: #ffa500; stroke: #ffa500; stroke-width: 0.5"/>
     </g>
    </g>
    <g id="text_53">
     <text style="font: 7px 'sans-serif'; text-anchor: start" x="228.670406" y="28.412188" transform="rotate(-0, 228.670406, 28.412188)">C-source</text>
    </g>
    <g id="PathCollection_11">
     <g>
      <use xlink:href="#mbb27b1fccf" x="216.070406" y="36.476406" style="stroke: #000000; stroke-width: 0.5"/>
     </g>
    </g>
    <g id="text_54">
     <text style="font: 7px 'sans-serif'; text-anchor: start" x="228.670406" y="38.313906" transform="rotate(-0, 228.670406, 38.313906)">Nybomycin</text>
    </g>
    <g id="PathCollection_12">
     <g>
      <use xlink:href="#m9f588e419f" x="216.070406" y="46.460156" style="fill: #a52a2a; stroke: #a52a2a; stroke-width: 0.5"/>
     </g>
    </g>
    <g id="text_55">
     <text style="font: 7px 'sans-serif'; text-anchor: start" x="228.670406" y="48.297656" transform="rotate(-0, 228.670406, 48.297656)">Pamamycin</text>
    </g>
    <g id="PathCollection_13">
     <g>
      <use xlink:href="#mef39cabd36" x="216.070406" y="56.529219" style="fill: #ff0000; stroke: #ff0000; stroke-width: 0.5"/>
     </g>
    </g>
    <g id="text_56">
     <text style="font: 7px 'sans-serif'; text-anchor: start" x="228.670406" y="58.366719" transform="rotate(-0, 228.670406, 58.366719)">Salinity</text>
    </g>
    <g id="PathCollection_14">
     <g>
      <use xlink:href="#mc6a8261bc2" x="216.070406" y="66.512969" style="fill: #0000ff; stroke: #0000ff; stroke-width: 0.5"/>
     </g>
    </g>
    <g id="text_57">
     <text style="font: 7px 'sans-serif'; text-anchor: start" x="228.670406" y="68.350469" transform="rotate(-0, 228.670406, 68.350469)">Temperature</text>
    </g>
    <g id="PathCollection_15">
     <g>
      <use xlink:href="#m0d188df954" x="216.070406" y="76.414688" style="fill: #800080; stroke: #800080; stroke-width: 0.5"/>
     </g>
    </g>
    <g id="text_58">
     <text style="font: 7px 'sans-serif'; text-anchor: start" x="228.670406" y="78.252188" transform="rotate(-0, 228.670406, 78.252188)">pH</text>
    </g>
   </g>
  </g>
 </g>
 <defs>
  <clipPath id="pd7f987a15c">
   <rect x="31.508125" y="7.2" width="186.732283" height="174.614173"/>
  </clipPath>
 </defs>
</svg>
