<?xml version="1.0" encoding="utf-8" standalone="no"?>
<!DOCTYPE svg PUBLIC "-//W3C//DTD SVG 1.1//EN"
  "http://www.w3.org/Graphics/SVG/1.1/DTD/svg11.dtd">
<svg xmlns:xlink="http://www.w3.org/1999/xlink" width="473.961889pt" height="133.532509pt" viewBox="0 0 473.961889 133.532509" xmlns="http://www.w3.org/2000/svg" version="1.1">
 <metadata>
  <rdf:RDF xmlns:dc="http://purl.org/dc/elements/1.1/" xmlns:cc="http://creativecommons.org/ns#" xmlns:rdf="http://www.w3.org/1999/02/22-rdf-syntax-ns#">
   <cc:Work>
    <dc:type rdf:resource="http://purl.org/dc/dcmitype/StillImage"/>
    <dc:date>2023-12-13T12:10:39.489056</dc:date>
    <dc:format>image/svg+xml</dc:format>
    <dc:creator>
     <cc:Agent>
      <dc:title>Matplotlib v3.5.3, https://matplotlib.org/</dc:title>
     </cc:Agent>
    </dc:creator>
   </cc:Work>
  </rdf:RDF>
 </metadata>
 <defs>
  <style type="text/css">*{stroke-linejoin: round; stroke-linecap: butt}</style>
 </defs>
 <g id="figure_1">
  <g id="patch_1">
   <path d="M 0 133.532509 
L 473.961889 133.532509 
L 473.961889 0 
L 0 0 
L 0 133.532509 
z
" style="fill: none"/>
  </g>
  <g id="axes_1">
   <g id="patch_2">
    <path d="M 37.781125 79.982597 
L 231.217007 79.982597 
L 231.217007 17.494688 
L 37.781125 17.494688 
L 37.781125 79.982597 
z
" style="fill: none"/>
   </g>
   <g id="matplotlib.axis_1"/>
   <g id="matplotlib.axis_2">
    <g id="ytick_1">
     <g id="line2d_1">
      <defs>
       <path id="mdab121a5fb" d="M 0 0 
L -2.5 0 
" style="stroke: #000000; stroke-width: 0.5"/>
      </defs>
      <g>
       <use xlink:href="#mdab121a5fb" x="37.781125" y="68.290488" style="stroke: #000000; stroke-width: 0.5"/>
      </g>
     </g>
     <g id="text_1">
      <text style="font: 6px 'sans-serif'; text-anchor: end" x="33.281125" y="70.437832" transform="rotate(-0, 33.281125, 70.437832)">−30</text>
     </g>
    </g>
    <g id="ytick_2">
     <g id="line2d_2">
      <g>
       <use xlink:href="#mdab121a5fb" x="37.781125" y="55.695134" style="stroke: #000000; stroke-width: 0.5"/>
      </g>
     </g>
     <g id="text_2">
      <text style="font: 6px 'sans-serif'; text-anchor: end" x="33.281125" y="57.842477" transform="rotate(-0, 33.281125, 57.842477)">−20</text>
     </g>
    </g>
    <g id="ytick_3">
     <g id="line2d_3">
      <g>
       <use xlink:href="#mdab121a5fb" x="37.781125" y="43.099779" style="stroke: #000000; stroke-width: 0.5"/>
      </g>
     </g>
     <g id="text_3">
      <text style="font: 6px 'sans-serif'; text-anchor: end" x="33.281125" y="45.247123" transform="rotate(-0, 33.281125, 45.247123)">−10</text>
     </g>
    </g>
    <g id="ytick_4">
     <g id="line2d_4">
      <g>
       <use xlink:href="#mdab121a5fb" x="37.781125" y="30.504424" style="stroke: #000000; stroke-width: 0.5"/>
      </g>
     </g>
     <g id="text_4">
      <text style="font: 6px 'sans-serif'; text-anchor: end" x="33.281125" y="32.651768" transform="rotate(-0, 33.281125, 32.651768)">0</text>
     </g>
    </g>
    <g id="ytick_5">
     <g id="line2d_5">
      <g>
       <use xlink:href="#mdab121a5fb" x="37.781125" y="17.909069" style="stroke: #000000; stroke-width: 0.5"/>
      </g>
     </g>
     <g id="text_5">
      <text style="font: 6px 'sans-serif'; text-anchor: end" x="33.281125" y="20.056413" transform="rotate(-0, 33.281125, 20.056413)">10</text>
     </g>
    </g>
    <g id="text_6">
     <text style="font: 6px 'sans-serif'" transform="translate(11.494688 68.74583)rotate(-90)">UC-5 iModulon</text>
     <text style="font: 6px 'sans-serif'" transform="translate(17.840812 58.239736)rotate(-90)">Activity</text>
    </g>
   </g>
   <g id="patch_3">
    <path d="M 48.527563 30.504424 
L 55.691855 30.504424 
L 55.691855 60.70803 
L 48.527563 60.70803 
z
" clip-path="url(#pb7720c34be)" style="fill: #1f77b4"/>
   </g>
   <g id="patch_4">
    <path d="M 55.691855 30.504424 
L 62.856147 30.504424 
L 62.856147 62.953577 
L 55.691855 62.953577 
z
" clip-path="url(#pb7720c34be)" style="fill: #1f77b4"/>
   </g>
   <g id="patch_5">
    <path d="M 62.856147 30.504424 
L 70.020439 30.504424 
L 70.020439 60.627603 
L 62.856147 60.627603 
z
" clip-path="url(#pb7720c34be)" style="fill: #1f77b4"/>
   </g>
   <g id="patch_6">
    <path d="M 70.020439 30.504424 
L 77.184731 30.504424 
L 77.184731 61.229501 
L 70.020439 61.229501 
z
" clip-path="url(#pb7720c34be)" style="fill: #1f77b4"/>
   </g>
   <g id="patch_7">
    <path d="M 77.184731 30.504424 
L 84.349022 30.504424 
L 84.349022 63.832695 
L 77.184731 63.832695 
z
" clip-path="url(#pb7720c34be)" style="fill: #1f77b4"/>
   </g>
   <g id="patch_8">
    <path d="M 84.349022 30.504424 
L 91.513314 30.504424 
L 91.513314 59.202798 
L 84.349022 59.202798 
z
" clip-path="url(#pb7720c34be)" style="fill: #1f77b4"/>
   </g>
   <g id="patch_9">
    <path d="M 91.513314 30.504424 
L 98.677606 30.504424 
L 98.677606 63.066035 
L 91.513314 63.066035 
z
" clip-path="url(#pb7720c34be)" style="fill: #1f77b4"/>
   </g>
   <g id="patch_10">
    <path d="M 98.677606 30.504424 
L 105.841898 30.504424 
L 105.841898 62.966936 
L 98.677606 62.966936 
z
" clip-path="url(#pb7720c34be)" style="fill: #1f77b4"/>
   </g>
   <g id="patch_11">
    <path d="M 105.841898 30.504424 
L 113.00619 30.504424 
L 113.00619 61.182993 
L 105.841898 61.182993 
z
" clip-path="url(#pb7720c34be)" style="fill: #1f77b4"/>
   </g>
   <g id="patch_12">
    <path d="M 113.00619 30.504424 
L 120.170482 30.504424 
L 120.170482 64.177997 
L 113.00619 64.177997 
z
" clip-path="url(#pb7720c34be)" style="fill: #1f77b4"/>
   </g>
   <g id="patch_13">
    <path d="M 120.170482 30.504424 
L 127.334774 30.504424 
L 127.334774 64.101171 
L 120.170482 64.101171 
z
" clip-path="url(#pb7720c34be)" style="fill: #1f77b4"/>
   </g>
   <g id="patch_14">
    <path d="M 127.334774 30.504424 
L 134.499066 30.504424 
L 134.499066 60.585398 
L 127.334774 60.585398 
z
" clip-path="url(#pb7720c34be)" style="fill: #1f77b4"/>
   </g>
   <g id="patch_15">
    <path d="M 134.499066 30.504424 
L 141.663358 30.504424 
L 141.663358 63.165426 
L 134.499066 63.165426 
z
" clip-path="url(#pb7720c34be)" style="fill: #1f77b4"/>
   </g>
   <g id="patch_16">
    <path d="M 141.663358 30.504424 
L 148.82765 30.504424 
L 148.82765 70.901353 
L 141.663358 70.901353 
z
" clip-path="url(#pb7720c34be)" style="fill: #1f77b4"/>
   </g>
   <g id="patch_17">
    <path d="M 148.82765 30.504424 
L 155.991942 30.504424 
L 155.991942 68.70819 
L 148.82765 68.70819 
z
" clip-path="url(#pb7720c34be)" style="fill: #1f77b4"/>
   </g>
   <g id="patch_18">
    <path d="M 155.991942 30.504424 
L 163.156234 30.504424 
L 163.156234 65.299094 
L 155.991942 65.299094 
z
" clip-path="url(#pb7720c34be)" style="fill: #1f77b4"/>
   </g>
   <g id="patch_19">
    <path d="M 163.156234 30.504424 
L 170.320526 30.504424 
L 170.320526 63.615896 
L 163.156234 63.615896 
z
" clip-path="url(#pb7720c34be)" style="fill: #1f77b4"/>
   </g>
   <g id="patch_20">
    <path d="M 170.320526 30.504424 
L 177.484817 30.504424 
L 177.484817 70.152062 
L 170.320526 70.152062 
z
" clip-path="url(#pb7720c34be)" style="fill: #1f77b4"/>
   </g>
   <g id="patch_21">
    <path d="M 177.484817 30.504424 
L 184.649109 30.504424 
L 184.649109 65.864547 
L 177.484817 65.864547 
z
" clip-path="url(#pb7720c34be)" style="fill: #1f77b4"/>
   </g>
   <g id="patch_22">
    <path d="M 184.649109 30.504424 
L 191.813401 30.504424 
L 191.813401 25.148559 
L 184.649109 25.148559 
z
" clip-path="url(#pb7720c34be)" style="fill: #1f77b4"/>
   </g>
   <g id="patch_23">
    <path d="M 191.813401 30.504424 
L 198.977693 30.504424 
L 198.977693 30.867963 
L 191.813401 30.867963 
z
" clip-path="url(#pb7720c34be)" style="fill: #1f77b4"/>
   </g>
   <g id="patch_24">
    <path d="M 198.977693 30.504424 
L 206.141985 30.504424 
L 206.141985 23.952122 
L 198.977693 23.952122 
z
" clip-path="url(#pb7720c34be)" style="fill: #1f77b4"/>
   </g>
   <g id="patch_25">
    <path d="M 206.141985 30.504424 
L 213.306277 30.504424 
L 213.306277 28.156125 
L 206.141985 28.156125 
z
" clip-path="url(#pb7720c34be)" style="fill: #1f77b4"/>
   </g>
   <g id="patch_26">
    <path d="M 213.306277 30.504424 
L 220.470569 30.504424 
L 220.470569 37.90061 
L 213.306277 37.90061 
z
" clip-path="url(#pb7720c34be)" style="fill: #1f77b4"/>
   </g>
   <g id="PathCollection_1">
    <defs>
     <path id="m838759e7a9" d="M 0 1.581139 
C 0.419323 1.581139 0.821528 1.41454 1.118034 1.118034 
C 1.41454 0.821528 1.581139 0.419323 1.581139 0 
C 1.581139 -0.419323 1.41454 -0.821528 1.118034 -1.118034 
C 0.821528 -1.41454 0.419323 -1.581139 0 -1.581139 
C -0.419323 -1.581139 -0.821528 -1.41454 -1.118034 -1.118034 
C -1.41454 -0.821528 -1.581139 -0.419323 -1.581139 0 
C -1.581139 0.419323 -1.41454 0.821528 -1.118034 1.118034 
C -0.821528 1.41454 -0.419323 1.581139 0 1.581139 
z
" style="stroke: #000000; stroke-width: 0.5"/>
    </defs>
    <g clip-path="url(#pb7720c34be)">
     <use xlink:href="#m838759e7a9" x="52.109709" y="60.216155" style="stroke: #000000; stroke-width: 0.5"/>
     <use xlink:href="#m838759e7a9" x="52.109709" y="61.029751" style="stroke: #000000; stroke-width: 0.5"/>
     <use xlink:href="#m838759e7a9" x="52.109709" y="60.878184" style="stroke: #000000; stroke-width: 0.5"/>
     <use xlink:href="#m838759e7a9" x="59.274001" y="62.695228" style="stroke: #000000; stroke-width: 0.5"/>
     <use xlink:href="#m838759e7a9" x="59.274001" y="63.432594" style="stroke: #000000; stroke-width: 0.5"/>
     <use xlink:href="#m838759e7a9" x="59.274001" y="62.73291" style="stroke: #000000; stroke-width: 0.5"/>
     <use xlink:href="#m838759e7a9" x="66.438293" y="62.153809" style="stroke: #000000; stroke-width: 0.5"/>
     <use xlink:href="#m838759e7a9" x="66.438293" y="60.754965" style="stroke: #000000; stroke-width: 0.5"/>
     <use xlink:href="#m838759e7a9" x="66.438293" y="58.974034" style="stroke: #000000; stroke-width: 0.5"/>
     <use xlink:href="#m838759e7a9" x="73.602585" y="61.377977" style="stroke: #000000; stroke-width: 0.5"/>
     <use xlink:href="#m838759e7a9" x="73.602585" y="61.463569" style="stroke: #000000; stroke-width: 0.5"/>
     <use xlink:href="#m838759e7a9" x="73.602585" y="60.846956" style="stroke: #000000; stroke-width: 0.5"/>
     <use xlink:href="#m838759e7a9" x="80.766877" y="65.186202" style="stroke: #000000; stroke-width: 0.5"/>
     <use xlink:href="#m838759e7a9" x="80.766877" y="62.761166" style="stroke: #000000; stroke-width: 0.5"/>
     <use xlink:href="#m838759e7a9" x="80.766877" y="63.550717" style="stroke: #000000; stroke-width: 0.5"/>
     <use xlink:href="#m838759e7a9" x="87.931168" y="60.506813" style="stroke: #000000; stroke-width: 0.5"/>
     <use xlink:href="#m838759e7a9" x="87.931168" y="59.200947" style="stroke: #000000; stroke-width: 0.5"/>
     <use xlink:href="#m838759e7a9" x="87.931168" y="57.900635" style="stroke: #000000; stroke-width: 0.5"/>
     <use xlink:href="#m838759e7a9" x="95.09546" y="60.681715" style="stroke: #000000; stroke-width: 0.5"/>
     <use xlink:href="#m838759e7a9" x="95.09546" y="66.787646" style="stroke: #000000; stroke-width: 0.5"/>
     <use xlink:href="#m838759e7a9" x="95.09546" y="61.728745" style="stroke: #000000; stroke-width: 0.5"/>
     <use xlink:href="#m838759e7a9" x="102.259752" y="62.10371" style="stroke: #000000; stroke-width: 0.5"/>
     <use xlink:href="#m838759e7a9" x="102.259752" y="62.486106" style="stroke: #000000; stroke-width: 0.5"/>
     <use xlink:href="#m838759e7a9" x="102.259752" y="64.310993" style="stroke: #000000; stroke-width: 0.5"/>
     <use xlink:href="#m838759e7a9" x="109.424044" y="61.246313" style="stroke: #000000; stroke-width: 0.5"/>
     <use xlink:href="#m838759e7a9" x="109.424044" y="60.957923" style="stroke: #000000; stroke-width: 0.5"/>
     <use xlink:href="#m838759e7a9" x="109.424044" y="61.344745" style="stroke: #000000; stroke-width: 0.5"/>
     <use xlink:href="#m838759e7a9" x="116.588336" y="64.630772" style="stroke: #000000; stroke-width: 0.5"/>
     <use xlink:href="#m838759e7a9" x="116.588336" y="64.794205" style="stroke: #000000; stroke-width: 0.5"/>
     <use xlink:href="#m838759e7a9" x="116.588336" y="63.109015" style="stroke: #000000; stroke-width: 0.5"/>
     <use xlink:href="#m838759e7a9" x="123.752628" y="65.58423" style="stroke: #000000; stroke-width: 0.5"/>
     <use xlink:href="#m838759e7a9" x="123.752628" y="62.585406" style="stroke: #000000; stroke-width: 0.5"/>
     <use xlink:href="#m838759e7a9" x="123.752628" y="64.133877" style="stroke: #000000; stroke-width: 0.5"/>
     <use xlink:href="#m838759e7a9" x="130.91692" y="60.32923" style="stroke: #000000; stroke-width: 0.5"/>
     <use xlink:href="#m838759e7a9" x="130.91692" y="62.317303" style="stroke: #000000; stroke-width: 0.5"/>
     <use xlink:href="#m838759e7a9" x="130.91692" y="59.109661" style="stroke: #000000; stroke-width: 0.5"/>
     <use xlink:href="#m838759e7a9" x="138.081212" y="63.266058" style="stroke: #000000; stroke-width: 0.5"/>
     <use xlink:href="#m838759e7a9" x="138.081212" y="63.089301" style="stroke: #000000; stroke-width: 0.5"/>
     <use xlink:href="#m838759e7a9" x="138.081212" y="63.140919" style="stroke: #000000; stroke-width: 0.5"/>
     <use xlink:href="#m838759e7a9" x="145.245504" y="70.728428" style="stroke: #000000; stroke-width: 0.5"/>
     <use xlink:href="#m838759e7a9" x="145.245504" y="74.775271" style="stroke: #000000; stroke-width: 0.5"/>
     <use xlink:href="#m838759e7a9" x="145.245504" y="67.200361" style="stroke: #000000; stroke-width: 0.5"/>
     <use xlink:href="#m838759e7a9" x="152.409796" y="67.830439" style="stroke: #000000; stroke-width: 0.5"/>
     <use xlink:href="#m838759e7a9" x="152.409796" y="71.953073" style="stroke: #000000; stroke-width: 0.5"/>
     <use xlink:href="#m838759e7a9" x="152.409796" y="66.341057" style="stroke: #000000; stroke-width: 0.5"/>
     <use xlink:href="#m838759e7a9" x="159.574088" y="65.296104" style="stroke: #000000; stroke-width: 0.5"/>
     <use xlink:href="#m838759e7a9" x="159.574088" y="65.450983" style="stroke: #000000; stroke-width: 0.5"/>
     <use xlink:href="#m838759e7a9" x="159.574088" y="65.150195" style="stroke: #000000; stroke-width: 0.5"/>
     <use xlink:href="#m838759e7a9" x="166.73838" y="66.657989" style="stroke: #000000; stroke-width: 0.5"/>
     <use xlink:href="#m838759e7a9" x="166.73838" y="59.741426" style="stroke: #000000; stroke-width: 0.5"/>
     <use xlink:href="#m838759e7a9" x="166.73838" y="64.448274" style="stroke: #000000; stroke-width: 0.5"/>
     <use xlink:href="#m838759e7a9" x="173.902672" y="71.446788" style="stroke: #000000; stroke-width: 0.5"/>
     <use xlink:href="#m838759e7a9" x="173.902672" y="71.642628" style="stroke: #000000; stroke-width: 0.5"/>
     <use xlink:href="#m838759e7a9" x="173.902672" y="67.366769" style="stroke: #000000; stroke-width: 0.5"/>
     <use xlink:href="#m838759e7a9" x="181.066963" y="60.297047" style="stroke: #000000; stroke-width: 0.5"/>
     <use xlink:href="#m838759e7a9" x="181.066963" y="67.173081" style="stroke: #000000; stroke-width: 0.5"/>
     <use xlink:href="#m838759e7a9" x="181.066963" y="70.123513" style="stroke: #000000; stroke-width: 0.5"/>
     <use xlink:href="#m838759e7a9" x="188.231255" y="25.525327" style="stroke: #000000; stroke-width: 0.5"/>
     <use xlink:href="#m838759e7a9" x="188.231255" y="24.771791" style="stroke: #000000; stroke-width: 0.5"/>
     <use xlink:href="#m838759e7a9" x="195.395547" y="31.421355" style="stroke: #000000; stroke-width: 0.5"/>
     <use xlink:href="#m838759e7a9" x="195.395547" y="31.350709" style="stroke: #000000; stroke-width: 0.5"/>
     <use xlink:href="#m838759e7a9" x="195.395547" y="29.831825" style="stroke: #000000; stroke-width: 0.5"/>
     <use xlink:href="#m838759e7a9" x="202.559839" y="22.702013" style="stroke: #000000; stroke-width: 0.5"/>
     <use xlink:href="#m838759e7a9" x="202.559839" y="25.20223" style="stroke: #000000; stroke-width: 0.5"/>
     <use xlink:href="#m838759e7a9" x="209.724131" y="29.342828" style="stroke: #000000; stroke-width: 0.5"/>
     <use xlink:href="#m838759e7a9" x="209.724131" y="26.539581" style="stroke: #000000; stroke-width: 0.5"/>
     <use xlink:href="#m838759e7a9" x="209.724131" y="28.585967" style="stroke: #000000; stroke-width: 0.5"/>
     <use xlink:href="#m838759e7a9" x="216.888423" y="38.090017" style="stroke: #000000; stroke-width: 0.5"/>
     <use xlink:href="#m838759e7a9" x="216.888423" y="41.7044" style="stroke: #000000; stroke-width: 0.5"/>
     <use xlink:href="#m838759e7a9" x="216.888423" y="33.907412" style="stroke: #000000; stroke-width: 0.5"/>
    </g>
   </g>
   <g id="LineCollection_1">
    <path d="M 48.527563 79.982597 
L 48.527563 17.494688 
" clip-path="url(#pb7720c34be)" style="fill: none; stroke: #d3d3d3"/>
    <path d="M 141.663358 79.982597 
L 141.663358 17.494688 
" clip-path="url(#pb7720c34be)" style="fill: none; stroke: #d3d3d3"/>
    <path d="M 184.649109 79.982597 
L 184.649109 17.494688 
" clip-path="url(#pb7720c34be)" style="fill: none; stroke: #d3d3d3"/>
    <path d="M 220.470569 79.982597 
L 220.470569 17.494688 
" clip-path="url(#pb7720c34be)" style="fill: none; stroke: #d3d3d3"/>
   </g>
   <g id="LineCollection_2">
    <path d="M 37.781125 30.504424 
L 231.217007 30.504424 
" clip-path="url(#pb7720c34be)" style="fill: none; stroke: #000000"/>
   </g>
   <g id="patch_27">
    <path d="M 37.781125 79.982597 
L 37.781125 17.494688 
" style="fill: none; stroke: #000000; stroke-width: 0.5; stroke-linejoin: miter; stroke-linecap: square"/>
   </g>
   <g id="patch_28">
    <path d="M 231.217007 79.982597 
L 231.217007 17.494688 
" style="fill: none; stroke: #000000; stroke-width: 0.5; stroke-linejoin: miter; stroke-linecap: square"/>
   </g>
   <g id="patch_29">
    <path d="M 37.781125 79.982597 
L 231.217007 79.982597 
" style="fill: none; stroke: #000000; stroke-width: 0.5; stroke-linejoin: miter; stroke-linecap: square"/>
   </g>
   <g id="patch_30">
    <path d="M 37.781125 17.494688 
L 231.217007 17.494688 
" style="fill: none; stroke: #000000; stroke-width: 0.5; stroke-linejoin: miter; stroke-linecap: square"/>
   </g>
   <g id="text_7">
    <text style="font: 10px 'sans-serif'" transform="translate(65.800664 121.264543)rotate(-45)">Nybomycin</text>
   </g>
   <g id="text_8">
    <text style="font: 10px 'sans-serif'" transform="translate(131.897006 123.228974)rotate(-45)">Pamamycin</text>
   </g>
   <g id="text_9">
    <text style="font: 10px 'sans-serif'" transform="translate(169.685314 124.927135)rotate(-45)">Time course</text>
   </g>
   <g id="text_10">
    <text style="font: 6px 'sans-serif'; text-anchor: middle" x="134.499066" y="11.494688" transform="rotate(-0, 134.499066, 11.494688)">UC-5</text>
   </g>
  </g>
  <g id="axes_2">
   <g id="patch_31">
    <path d="M 273.326007 79.982597 
L 466.761889 79.982597 
L 466.761889 17.494688 
L 273.326007 17.494688 
L 273.326007 79.982597 
z
" style="fill: none"/>
   </g>
   <g id="matplotlib.axis_3"/>
   <g id="matplotlib.axis_4">
    <g id="ytick_6">
     <g id="line2d_6">
      <g>
       <use xlink:href="#mdab121a5fb" x="273.326007" y="75.796014" style="stroke: #000000; stroke-width: 0.5"/>
      </g>
     </g>
     <g id="text_11">
      <text style="font: 6px 'sans-serif'; text-anchor: end" x="268.826007" y="77.943357" transform="rotate(-0, 268.826007, 77.943357)">−20</text>
     </g>
    </g>
    <g id="ytick_7">
     <g id="line2d_7">
      <g>
       <use xlink:href="#mdab121a5fb" x="273.326007" y="55.45025" style="stroke: #000000; stroke-width: 0.5"/>
      </g>
     </g>
     <g id="text_12">
      <text style="font: 6px 'sans-serif'; text-anchor: end" x="268.826007" y="57.597594" transform="rotate(-0, 268.826007, 57.597594)">−10</text>
     </g>
    </g>
    <g id="ytick_8">
     <g id="line2d_8">
      <g>
       <use xlink:href="#mdab121a5fb" x="273.326007" y="35.104486" style="stroke: #000000; stroke-width: 0.5"/>
      </g>
     </g>
     <g id="text_13">
      <text style="font: 6px 'sans-serif'; text-anchor: end" x="268.826007" y="37.25183" transform="rotate(-0, 268.826007, 37.25183)">0</text>
     </g>
    </g>
    <g id="text_14">
     <text style="font: 6px 'sans-serif'" transform="translate(247.039569 70.414111)rotate(-90)">UC-10 iModulon</text>
     <text style="font: 6px 'sans-serif'" transform="translate(253.385694 58.239736)rotate(-90)">Activity</text>
    </g>
   </g>
   <g id="patch_32">
    <path d="M 284.072445 35.104486 
L 291.236737 35.104486 
L 291.236737 48.481874 
L 284.072445 48.481874 
z
" clip-path="url(#p9e5a1d02e1)" style="fill: #1f77b4"/>
   </g>
   <g id="patch_33">
    <path d="M 291.236737 35.104486 
L 298.401029 35.104486 
L 298.401029 47.250153 
L 291.236737 47.250153 
z
" clip-path="url(#p9e5a1d02e1)" style="fill: #1f77b4"/>
   </g>
   <g id="patch_34">
    <path d="M 298.401029 35.104486 
L 305.565321 35.104486 
L 305.565321 45.246055 
L 298.401029 45.246055 
z
" clip-path="url(#p9e5a1d02e1)" style="fill: #1f77b4"/>
   </g>
   <g id="patch_35">
    <path d="M 305.565321 35.104486 
L 312.729612 35.104486 
L 312.729612 46.642392 
L 305.565321 46.642392 
z
" clip-path="url(#p9e5a1d02e1)" style="fill: #1f77b4"/>
   </g>
   <g id="patch_36">
    <path d="M 312.729612 35.104486 
L 319.893904 35.104486 
L 319.893904 44.468974 
L 312.729612 44.468974 
z
" clip-path="url(#p9e5a1d02e1)" style="fill: #1f77b4"/>
   </g>
   <g id="patch_37">
    <path d="M 319.893904 35.104486 
L 327.058196 35.104486 
L 327.058196 46.600539 
L 319.893904 46.600539 
z
" clip-path="url(#p9e5a1d02e1)" style="fill: #1f77b4"/>
   </g>
   <g id="patch_38">
    <path d="M 327.058196 35.104486 
L 334.222488 35.104486 
L 334.222488 41.328273 
L 327.058196 41.328273 
z
" clip-path="url(#p9e5a1d02e1)" style="fill: #1f77b4"/>
   </g>
   <g id="patch_39">
    <path d="M 334.222488 35.104486 
L 341.38678 35.104486 
L 341.38678 44.778465 
L 334.222488 44.778465 
z
" clip-path="url(#p9e5a1d02e1)" style="fill: #1f77b4"/>
   </g>
   <g id="patch_40">
    <path d="M 341.38678 35.104486 
L 348.551072 35.104486 
L 348.551072 44.508911 
L 341.38678 44.508911 
z
" clip-path="url(#p9e5a1d02e1)" style="fill: #1f77b4"/>
   </g>
   <g id="patch_41">
    <path d="M 348.551072 35.104486 
L 355.715364 35.104486 
L 355.715364 45.173119 
L 348.551072 45.173119 
z
" clip-path="url(#p9e5a1d02e1)" style="fill: #1f77b4"/>
   </g>
   <g id="patch_42">
    <path d="M 355.715364 35.104486 
L 362.879656 35.104486 
L 362.879656 47.174229 
L 355.715364 47.174229 
z
" clip-path="url(#p9e5a1d02e1)" style="fill: #1f77b4"/>
   </g>
   <g id="patch_43">
    <path d="M 362.879656 35.104486 
L 370.043948 35.104486 
L 370.043948 46.728502 
L 362.879656 46.728502 
z
" clip-path="url(#p9e5a1d02e1)" style="fill: #1f77b4"/>
   </g>
   <g id="patch_44">
    <path d="M 370.043948 35.104486 
L 377.20824 35.104486 
L 377.20824 46.709855 
L 370.043948 46.709855 
z
" clip-path="url(#p9e5a1d02e1)" style="fill: #1f77b4"/>
   </g>
   <g id="patch_45">
    <path d="M 377.20824 35.104486 
L 384.372532 35.104486 
L 384.372532 56.153483 
L 377.20824 56.153483 
z
" clip-path="url(#p9e5a1d02e1)" style="fill: #1f77b4"/>
   </g>
   <g id="patch_46">
    <path d="M 384.372532 35.104486 
L 391.536824 35.104486 
L 391.536824 67.198991 
L 384.372532 67.198991 
z
" clip-path="url(#p9e5a1d02e1)" style="fill: #1f77b4"/>
   </g>
   <g id="patch_47">
    <path d="M 391.536824 35.104486 
L 398.701116 35.104486 
L 398.701116 60.51642 
L 391.536824 60.51642 
z
" clip-path="url(#p9e5a1d02e1)" style="fill: #1f77b4"/>
   </g>
   <g id="patch_48">
    <path d="M 398.701116 35.104486 
L 405.865407 35.104486 
L 405.865407 64.779085 
L 398.701116 64.779085 
z
" clip-path="url(#p9e5a1d02e1)" style="fill: #1f77b4"/>
   </g>
   <g id="patch_49">
    <path d="M 405.865407 35.104486 
L 413.029699 35.104486 
L 413.029699 62.488339 
L 405.865407 62.488339 
z
" clip-path="url(#p9e5a1d02e1)" style="fill: #1f77b4"/>
   </g>
   <g id="patch_50">
    <path d="M 413.029699 35.104486 
L 420.193991 35.104486 
L 420.193991 59.699967 
L 413.029699 59.699967 
z
" clip-path="url(#p9e5a1d02e1)" style="fill: #1f77b4"/>
   </g>
   <g id="patch_51">
    <path d="M 420.193991 35.104486 
L 427.358283 35.104486 
L 427.358283 34.944839 
L 420.193991 34.944839 
z
" clip-path="url(#p9e5a1d02e1)" style="fill: #1f77b4"/>
   </g>
   <g id="patch_52">
    <path d="M 427.358283 35.104486 
L 434.522575 35.104486 
L 434.522575 33.054637 
L 427.358283 33.054637 
z
" clip-path="url(#p9e5a1d02e1)" style="fill: #1f77b4"/>
   </g>
   <g id="patch_53">
    <path d="M 434.522575 35.104486 
L 441.686867 35.104486 
L 441.686867 25.215133 
L 434.522575 25.215133 
z
" clip-path="url(#p9e5a1d02e1)" style="fill: #1f77b4"/>
   </g>
   <g id="patch_54">
    <path d="M 441.686867 35.104486 
L 448.851159 35.104486 
L 448.851159 30.252839 
L 441.686867 30.252839 
z
" clip-path="url(#p9e5a1d02e1)" style="fill: #1f77b4"/>
   </g>
   <g id="patch_55">
    <path d="M 448.851159 35.104486 
L 456.015451 35.104486 
L 456.015451 27.797429 
L 448.851159 27.797429 
z
" clip-path="url(#p9e5a1d02e1)" style="fill: #1f77b4"/>
   </g>
   <g id="PathCollection_2">
    <g clip-path="url(#p9e5a1d02e1)">
     <use xlink:href="#m838759e7a9" x="287.654591" y="46.549747" style="stroke: #000000; stroke-width: 0.5"/>
     <use xlink:href="#m838759e7a9" x="287.654591" y="46.894991" style="stroke: #000000; stroke-width: 0.5"/>
     <use xlink:href="#m838759e7a9" x="287.654591" y="52.000884" style="stroke: #000000; stroke-width: 0.5"/>
     <use xlink:href="#m838759e7a9" x="294.818883" y="45.144516" style="stroke: #000000; stroke-width: 0.5"/>
     <use xlink:href="#m838759e7a9" x="294.818883" y="48.011984" style="stroke: #000000; stroke-width: 0.5"/>
     <use xlink:href="#m838759e7a9" x="294.818883" y="48.593958" style="stroke: #000000; stroke-width: 0.5"/>
     <use xlink:href="#m838759e7a9" x="301.983175" y="44.935386" style="stroke: #000000; stroke-width: 0.5"/>
     <use xlink:href="#m838759e7a9" x="301.983175" y="47.430334" style="stroke: #000000; stroke-width: 0.5"/>
     <use xlink:href="#m838759e7a9" x="301.983175" y="43.372444" style="stroke: #000000; stroke-width: 0.5"/>
     <use xlink:href="#m838759e7a9" x="309.147466" y="51.848418" style="stroke: #000000; stroke-width: 0.5"/>
     <use xlink:href="#m838759e7a9" x="309.147466" y="45.030173" style="stroke: #000000; stroke-width: 0.5"/>
     <use xlink:href="#m838759e7a9" x="309.147466" y="43.048586" style="stroke: #000000; stroke-width: 0.5"/>
     <use xlink:href="#m838759e7a9" x="316.311758" y="40.805926" style="stroke: #000000; stroke-width: 0.5"/>
     <use xlink:href="#m838759e7a9" x="316.311758" y="44.746508" style="stroke: #000000; stroke-width: 0.5"/>
     <use xlink:href="#m838759e7a9" x="316.311758" y="47.854486" style="stroke: #000000; stroke-width: 0.5"/>
     <use xlink:href="#m838759e7a9" x="323.47605" y="47.961957" style="stroke: #000000; stroke-width: 0.5"/>
     <use xlink:href="#m838759e7a9" x="323.47605" y="46.489957" style="stroke: #000000; stroke-width: 0.5"/>
     <use xlink:href="#m838759e7a9" x="323.47605" y="45.349703" style="stroke: #000000; stroke-width: 0.5"/>
     <use xlink:href="#m838759e7a9" x="330.640342" y="38.574288" style="stroke: #000000; stroke-width: 0.5"/>
     <use xlink:href="#m838759e7a9" x="330.640342" y="45.627433" style="stroke: #000000; stroke-width: 0.5"/>
     <use xlink:href="#m838759e7a9" x="330.640342" y="39.783097" style="stroke: #000000; stroke-width: 0.5"/>
     <use xlink:href="#m838759e7a9" x="337.804634" y="41.525789" style="stroke: #000000; stroke-width: 0.5"/>
     <use xlink:href="#m838759e7a9" x="337.804634" y="42.987925" style="stroke: #000000; stroke-width: 0.5"/>
     <use xlink:href="#m838759e7a9" x="337.804634" y="49.821682" style="stroke: #000000; stroke-width: 0.5"/>
     <use xlink:href="#m838759e7a9" x="344.968926" y="45.808681" style="stroke: #000000; stroke-width: 0.5"/>
     <use xlink:href="#m838759e7a9" x="344.968926" y="43.737979" style="stroke: #000000; stroke-width: 0.5"/>
     <use xlink:href="#m838759e7a9" x="344.968926" y="43.980072" style="stroke: #000000; stroke-width: 0.5"/>
     <use xlink:href="#m838759e7a9" x="352.133218" y="43.216221" style="stroke: #000000; stroke-width: 0.5"/>
     <use xlink:href="#m838759e7a9" x="352.133218" y="40.970357" style="stroke: #000000; stroke-width: 0.5"/>
     <use xlink:href="#m838759e7a9" x="352.133218" y="51.332779" style="stroke: #000000; stroke-width: 0.5"/>
     <use xlink:href="#m838759e7a9" x="359.29751" y="49.72645" style="stroke: #000000; stroke-width: 0.5"/>
     <use xlink:href="#m838759e7a9" x="359.29751" y="46.295056" style="stroke: #000000; stroke-width: 0.5"/>
     <use xlink:href="#m838759e7a9" x="359.29751" y="45.501181" style="stroke: #000000; stroke-width: 0.5"/>
     <use xlink:href="#m838759e7a9" x="366.461802" y="46.57371" style="stroke: #000000; stroke-width: 0.5"/>
     <use xlink:href="#m838759e7a9" x="366.461802" y="50.606048" style="stroke: #000000; stroke-width: 0.5"/>
     <use xlink:href="#m838759e7a9" x="366.461802" y="43.005748" style="stroke: #000000; stroke-width: 0.5"/>
     <use xlink:href="#m838759e7a9" x="373.626094" y="48.152878" style="stroke: #000000; stroke-width: 0.5"/>
     <use xlink:href="#m838759e7a9" x="373.626094" y="47.226306" style="stroke: #000000; stroke-width: 0.5"/>
     <use xlink:href="#m838759e7a9" x="373.626094" y="44.75038" style="stroke: #000000; stroke-width: 0.5"/>
     <use xlink:href="#m838759e7a9" x="380.790386" y="58.101916" style="stroke: #000000; stroke-width: 0.5"/>
     <use xlink:href="#m838759e7a9" x="380.790386" y="43.656729" style="stroke: #000000; stroke-width: 0.5"/>
     <use xlink:href="#m838759e7a9" x="380.790386" y="66.701805" style="stroke: #000000; stroke-width: 0.5"/>
     <use xlink:href="#m838759e7a9" x="387.954678" y="71.485353" style="stroke: #000000; stroke-width: 0.5"/>
     <use xlink:href="#m838759e7a9" x="387.954678" y="61.296362" style="stroke: #000000; stroke-width: 0.5"/>
     <use xlink:href="#m838759e7a9" x="387.954678" y="68.815259" style="stroke: #000000; stroke-width: 0.5"/>
     <use xlink:href="#m838759e7a9" x="395.11897" y="74.775271" style="stroke: #000000; stroke-width: 0.5"/>
     <use xlink:href="#m838759e7a9" x="395.11897" y="60.06069" style="stroke: #000000; stroke-width: 0.5"/>
     <use xlink:href="#m838759e7a9" x="395.11897" y="46.7133" style="stroke: #000000; stroke-width: 0.5"/>
     <use xlink:href="#m838759e7a9" x="402.283261" y="56.641841" style="stroke: #000000; stroke-width: 0.5"/>
     <use xlink:href="#m838759e7a9" x="402.283261" y="67.462793" style="stroke: #000000; stroke-width: 0.5"/>
     <use xlink:href="#m838759e7a9" x="402.283261" y="70.232621" style="stroke: #000000; stroke-width: 0.5"/>
     <use xlink:href="#m838759e7a9" x="409.447553" y="55.561104" style="stroke: #000000; stroke-width: 0.5"/>
     <use xlink:href="#m838759e7a9" x="409.447553" y="63.484435" style="stroke: #000000; stroke-width: 0.5"/>
     <use xlink:href="#m838759e7a9" x="409.447553" y="68.419477" style="stroke: #000000; stroke-width: 0.5"/>
     <use xlink:href="#m838759e7a9" x="416.611845" y="72.502711" style="stroke: #000000; stroke-width: 0.5"/>
     <use xlink:href="#m838759e7a9" x="416.611845" y="62.434608" style="stroke: #000000; stroke-width: 0.5"/>
     <use xlink:href="#m838759e7a9" x="416.611845" y="44.162581" style="stroke: #000000; stroke-width: 0.5"/>
     <use xlink:href="#m838759e7a9" x="423.776137" y="33.289276" style="stroke: #000000; stroke-width: 0.5"/>
     <use xlink:href="#m838759e7a9" x="423.776137" y="36.600402" style="stroke: #000000; stroke-width: 0.5"/>
     <use xlink:href="#m838759e7a9" x="430.940429" y="31.643029" style="stroke: #000000; stroke-width: 0.5"/>
     <use xlink:href="#m838759e7a9" x="430.940429" y="33.477823" style="stroke: #000000; stroke-width: 0.5"/>
     <use xlink:href="#m838759e7a9" x="430.940429" y="34.04306" style="stroke: #000000; stroke-width: 0.5"/>
     <use xlink:href="#m838759e7a9" x="438.104721" y="27.728252" style="stroke: #000000; stroke-width: 0.5"/>
     <use xlink:href="#m838759e7a9" x="438.104721" y="22.702013" style="stroke: #000000; stroke-width: 0.5"/>
     <use xlink:href="#m838759e7a9" x="445.269013" y="30.682146" style="stroke: #000000; stroke-width: 0.5"/>
     <use xlink:href="#m838759e7a9" x="445.269013" y="29.725332" style="stroke: #000000; stroke-width: 0.5"/>
     <use xlink:href="#m838759e7a9" x="445.269013" y="30.351038" style="stroke: #000000; stroke-width: 0.5"/>
     <use xlink:href="#m838759e7a9" x="452.433305" y="26.953805" style="stroke: #000000; stroke-width: 0.5"/>
     <use xlink:href="#m838759e7a9" x="452.433305" y="27.215061" style="stroke: #000000; stroke-width: 0.5"/>
     <use xlink:href="#m838759e7a9" x="452.433305" y="29.223422" style="stroke: #000000; stroke-width: 0.5"/>
    </g>
   </g>
   <g id="LineCollection_3">
    <path d="M 284.072445 79.982597 
L 284.072445 17.494688 
" clip-path="url(#p9e5a1d02e1)" style="fill: none; stroke: #d3d3d3"/>
    <path d="M 377.20824 79.982597 
L 377.20824 17.494688 
" clip-path="url(#p9e5a1d02e1)" style="fill: none; stroke: #d3d3d3"/>
    <path d="M 420.193991 79.982597 
L 420.193991 17.494688 
" clip-path="url(#p9e5a1d02e1)" style="fill: none; stroke: #d3d3d3"/>
    <path d="M 456.015451 79.982597 
L 456.015451 17.494688 
" clip-path="url(#p9e5a1d02e1)" style="fill: none; stroke: #d3d3d3"/>
   </g>
   <g id="LineCollection_4">
    <path d="M 273.326007 35.104486 
L 466.761889 35.104486 
" clip-path="url(#p9e5a1d02e1)" style="fill: none; stroke: #000000"/>
   </g>
   <g id="patch_56">
    <path d="M 273.326007 79.982597 
L 273.326007 17.494688 
" style="fill: none; stroke: #000000; stroke-width: 0.5; stroke-linejoin: miter; stroke-linecap: square"/>
   </g>
   <g id="patch_57">
    <path d="M 466.761889 79.982597 
L 466.761889 17.494688 
" style="fill: none; stroke: #000000; stroke-width: 0.5; stroke-linejoin: miter; stroke-linecap: square"/>
   </g>
   <g id="patch_58">
    <path d="M 273.326007 79.982597 
L 466.761889 79.982597 
" style="fill: none; stroke: #000000; stroke-width: 0.5; stroke-linejoin: miter; stroke-linecap: square"/>
   </g>
   <g id="patch_59">
    <path d="M 273.326007 17.494688 
L 466.761889 17.494688 
" style="fill: none; stroke: #000000; stroke-width: 0.5; stroke-linejoin: miter; stroke-linecap: square"/>
   </g>
   <g id="text_15">
    <text style="font: 10px 'sans-serif'" transform="translate(301.345546 121.264543)rotate(-45)">Nybomycin</text>
   </g>
   <g id="text_16">
    <text style="font: 10px 'sans-serif'" transform="translate(367.441888 123.228974)rotate(-45)">Pamamycin</text>
   </g>
   <g id="text_17">
    <text style="font: 10px 'sans-serif'" transform="translate(405.230196 124.927135)rotate(-45)">Time course</text>
   </g>
   <g id="text_18">
    <text style="font: 6px 'sans-serif'; text-anchor: middle" x="370.043948" y="11.494688" transform="rotate(-0, 370.043948, 11.494688)">UC-10</text>
   </g>
  </g>
 </g>
 <defs>
  <clipPath id="pb7720c34be">
   <rect x="37.781125" y="17.494688" width="193.435882" height="62.487909"/>
  </clipPath>
  <clipPath id="p9e5a1d02e1">
   <rect x="273.326007" y="17.494688" width="193.435882" height="62.487909"/>
  </clipPath>
 </defs>
</svg>
