<?xml version="1.0" encoding="utf-8" standalone="no"?>
<!DOCTYPE svg PUBLIC "-//W3C//DTD SVG 1.1//EN"
  "http://www.w3.org/Graphics/SVG/1.1/DTD/svg11.dtd">
<svg xmlns:xlink="http://www.w3.org/1999/xlink" width="305.24661pt" height="150.954231pt" viewBox="0 0 305.24661 150.954231" xmlns="http://www.w3.org/2000/svg" version="1.1">
 <metadata>
  <rdf:RDF xmlns:dc="http://purl.org/dc/elements/1.1/" xmlns:cc="http://creativecommons.org/ns#" xmlns:rdf="http://www.w3.org/1999/02/22-rdf-syntax-ns#">
   <cc:Work>
    <dc:type rdf:resource="http://purl.org/dc/dcmitype/StillImage"/>
    <dc:date>2024-06-24T12:39:28.902709</dc:date>
    <dc:format>image/svg+xml</dc:format>
    <dc:creator>
     <cc:Agent>
      <dc:title>Matplotlib v3.5.3, https://matplotlib.org/</dc:title>
     </cc:Agent>
    </dc:creator>
   </cc:Work>
  </rdf:RDF>
 </metadata>
 <defs>
  <style type="text/css">*{stroke-linejoin: round; stroke-linecap: butt}</style>
 </defs>
 <g id="figure_1">
  <g id="patch_1">
   <path d="M 0 150.954231 
L 305.24661 150.954231 
L 305.24661 0 
L 0 0 
L 0 150.954231 
z
" style="fill: none"/>
  </g>
  <g id="axes_1">
   <g id="patch_2">
    <path d="M 37.924563 94.507087 
L 169.735586 94.507087 
L 169.735586 7.2 
L 37.924563 7.2 
L 37.924563 94.507087 
z
" style="fill: none"/>
   </g>
   <g id="matplotlib.axis_1"/>
   <g id="matplotlib.axis_2">
    <g id="ytick_1">
     <g id="line2d_1">
      <defs>
       <path id="m167435b830" d="M 0 0 
L -2.5 0 
" style="stroke: #000000; stroke-width: 0.5"/>
      </defs>
      <g>
       <use xlink:href="#m167435b830" x="37.924563" y="91.810982" style="stroke: #000000; stroke-width: 0.5"/>
      </g>
     </g>
     <g id="text_1">
      <!-- −30 -->
      <g transform="translate(23.247062 93.958326)scale(0.06 -0.06)">
       <defs>
        <path id="ArialMT-2212" d="M 3381 1997 
L 356 1997 
L 356 2522 
L 3381 2522 
L 3381 1997 
z
" transform="scale(0.015625)"/>
        <path id="ArialMT-33" d="M 269 1209 
L 831 1284 
Q 928 806 1161 595 
Q 1394 384 1728 384 
Q 2125 384 2398 659 
Q 2672 934 2672 1341 
Q 2672 1728 2419 1979 
Q 2166 2231 1775 2231 
Q 1616 2231 1378 2169 
L 1441 2663 
Q 1497 2656 1531 2656 
Q 1891 2656 2178 2843 
Q 2466 3031 2466 3422 
Q 2466 3731 2256 3934 
Q 2047 4138 1716 4138 
Q 1388 4138 1169 3931 
Q 950 3725 888 3313 
L 325 3413 
Q 428 3978 793 4289 
Q 1159 4600 1703 4600 
Q 2078 4600 2393 4439 
Q 2709 4278 2876 4000 
Q 3044 3722 3044 3409 
Q 3044 3113 2884 2869 
Q 2725 2625 2413 2481 
Q 2819 2388 3044 2092 
Q 3269 1797 3269 1353 
Q 3269 753 2831 336 
Q 2394 -81 1725 -81 
Q 1122 -81 723 278 
Q 325 638 269 1209 
z
" transform="scale(0.015625)"/>
        <path id="ArialMT-30" d="M 266 2259 
Q 266 3072 433 3567 
Q 600 4063 929 4331 
Q 1259 4600 1759 4600 
Q 2128 4600 2406 4451 
Q 2684 4303 2865 4023 
Q 3047 3744 3150 3342 
Q 3253 2941 3253 2259 
Q 3253 1453 3087 958 
Q 2922 463 2592 192 
Q 2263 -78 1759 -78 
Q 1097 -78 719 397 
Q 266 969 266 2259 
z
M 844 2259 
Q 844 1131 1108 757 
Q 1372 384 1759 384 
Q 2147 384 2411 759 
Q 2675 1134 2675 2259 
Q 2675 3391 2411 3762 
Q 2147 4134 1753 4134 
Q 1366 4134 1134 3806 
Q 844 3388 844 2259 
z
" transform="scale(0.015625)"/>
       </defs>
       <use xlink:href="#ArialMT-2212"/>
       <use xlink:href="#ArialMT-33" x="58.398438"/>
       <use xlink:href="#ArialMT-30" x="114.013672"/>
      </g>
     </g>
    </g>
    <g id="ytick_2">
     <g id="line2d_2">
      <g>
       <use xlink:href="#m167435b830" x="37.924563" y="69.333902" style="stroke: #000000; stroke-width: 0.5"/>
      </g>
     </g>
     <g id="text_2">
      <!-- −20 -->
      <g transform="translate(23.247062 71.481246)scale(0.06 -0.06)">
       <defs>
        <path id="ArialMT-32" d="M 3222 541 
L 3222 0 
L 194 0 
Q 188 203 259 391 
Q 375 700 629 1000 
Q 884 1300 1366 1694 
Q 2113 2306 2375 2664 
Q 2638 3022 2638 3341 
Q 2638 3675 2398 3904 
Q 2159 4134 1775 4134 
Q 1369 4134 1125 3890 
Q 881 3647 878 3216 
L 300 3275 
Q 359 3922 746 4261 
Q 1134 4600 1788 4600 
Q 2447 4600 2831 4234 
Q 3216 3869 3216 3328 
Q 3216 3053 3103 2787 
Q 2991 2522 2730 2228 
Q 2469 1934 1863 1422 
Q 1356 997 1212 845 
Q 1069 694 975 541 
L 3222 541 
z
" transform="scale(0.015625)"/>
       </defs>
       <use xlink:href="#ArialMT-2212"/>
       <use xlink:href="#ArialMT-32" x="58.398438"/>
       <use xlink:href="#ArialMT-30" x="114.013672"/>
      </g>
     </g>
    </g>
    <g id="ytick_3">
     <g id="line2d_3">
      <g>
       <use xlink:href="#m167435b830" x="37.924563" y="46.856823" style="stroke: #000000; stroke-width: 0.5"/>
      </g>
     </g>
     <g id="text_3">
      <!-- −10 -->
      <g transform="translate(23.247062 49.004166)scale(0.06 -0.06)">
       <defs>
        <path id="ArialMT-31" d="M 2384 0 
L 1822 0 
L 1822 3584 
Q 1619 3391 1289 3197 
Q 959 3003 697 2906 
L 697 3450 
Q 1169 3672 1522 3987 
Q 1875 4303 2022 4600 
L 2384 4600 
L 2384 0 
z
" transform="scale(0.015625)"/>
       </defs>
       <use xlink:href="#ArialMT-2212"/>
       <use xlink:href="#ArialMT-31" x="58.398438"/>
       <use xlink:href="#ArialMT-30" x="114.013672"/>
      </g>
     </g>
    </g>
    <g id="ytick_4">
     <g id="line2d_4">
      <g>
       <use xlink:href="#m167435b830" x="37.924563" y="24.379743" style="stroke: #000000; stroke-width: 0.5"/>
      </g>
     </g>
     <g id="text_4">
      <!-- 0 -->
      <g transform="translate(30.088 26.527087)scale(0.06 -0.06)">
       <use xlink:href="#ArialMT-30"/>
      </g>
     </g>
    </g>
    <g id="text_5">
     <!-- Minimycin/dudomycin iModulon -->
     <g transform="translate(11.567812 92.534793)rotate(-90)scale(0.06 -0.06)">
      <defs>
       <path id="ArialMT-4d" d="M 475 0 
L 475 4581 
L 1388 4581 
L 2472 1338 
Q 2622 884 2691 659 
Q 2769 909 2934 1394 
L 4031 4581 
L 4847 4581 
L 4847 0 
L 4263 0 
L 4263 3834 
L 2931 0 
L 2384 0 
L 1059 3900 
L 1059 0 
L 475 0 
z
" transform="scale(0.015625)"/>
       <path id="ArialMT-69" d="M 425 3934 
L 425 4581 
L 988 4581 
L 988 3934 
L 425 3934 
z
M 425 0 
L 425 3319 
L 988 3319 
L 988 0 
L 425 0 
z
" transform="scale(0.015625)"/>
       <path id="ArialMT-6e" d="M 422 0 
L 422 3319 
L 928 3319 
L 928 2847 
Q 1294 3394 1984 3394 
Q 2284 3394 2536 3286 
Q 2788 3178 2913 3003 
Q 3038 2828 3088 2588 
Q 3119 2431 3119 2041 
L 3119 0 
L 2556 0 
L 2556 2019 
Q 2556 2363 2490 2533 
Q 2425 2703 2258 2804 
Q 2091 2906 1866 2906 
Q 1506 2906 1245 2678 
Q 984 2450 984 1813 
L 984 0 
L 422 0 
z
" transform="scale(0.015625)"/>
       <path id="ArialMT-6d" d="M 422 0 
L 422 3319 
L 925 3319 
L 925 2853 
Q 1081 3097 1340 3245 
Q 1600 3394 1931 3394 
Q 2300 3394 2536 3241 
Q 2772 3088 2869 2813 
Q 3263 3394 3894 3394 
Q 4388 3394 4653 3120 
Q 4919 2847 4919 2278 
L 4919 0 
L 4359 0 
L 4359 2091 
Q 4359 2428 4304 2576 
Q 4250 2725 4106 2815 
Q 3963 2906 3769 2906 
Q 3419 2906 3187 2673 
Q 2956 2441 2956 1928 
L 2956 0 
L 2394 0 
L 2394 2156 
Q 2394 2531 2256 2718 
Q 2119 2906 1806 2906 
Q 1569 2906 1367 2781 
Q 1166 2656 1075 2415 
Q 984 2175 984 1722 
L 984 0 
L 422 0 
z
" transform="scale(0.015625)"/>
       <path id="ArialMT-79" d="M 397 -1278 
L 334 -750 
Q 519 -800 656 -800 
Q 844 -800 956 -737 
Q 1069 -675 1141 -563 
Q 1194 -478 1313 -144 
Q 1328 -97 1363 -6 
L 103 3319 
L 709 3319 
L 1400 1397 
Q 1534 1031 1641 628 
Q 1738 1016 1872 1384 
L 2581 3319 
L 3144 3319 
L 1881 -56 
Q 1678 -603 1566 -809 
Q 1416 -1088 1222 -1217 
Q 1028 -1347 759 -1347 
Q 597 -1347 397 -1278 
z
" transform="scale(0.015625)"/>
       <path id="ArialMT-63" d="M 2588 1216 
L 3141 1144 
Q 3050 572 2676 248 
Q 2303 -75 1759 -75 
Q 1078 -75 664 370 
Q 250 816 250 1647 
Q 250 2184 428 2587 
Q 606 2991 970 3192 
Q 1334 3394 1763 3394 
Q 2303 3394 2647 3120 
Q 2991 2847 3088 2344 
L 2541 2259 
Q 2463 2594 2264 2762 
Q 2066 2931 1784 2931 
Q 1359 2931 1093 2626 
Q 828 2322 828 1663 
Q 828 994 1084 691 
Q 1341 388 1753 388 
Q 2084 388 2306 591 
Q 2528 794 2588 1216 
z
" transform="scale(0.015625)"/>
       <path id="ArialMT-2f" d="M 0 -78 
L 1328 4659 
L 1778 4659 
L 453 -78 
L 0 -78 
z
" transform="scale(0.015625)"/>
       <path id="ArialMT-64" d="M 2575 0 
L 2575 419 
Q 2259 -75 1647 -75 
Q 1250 -75 917 144 
Q 584 363 401 755 
Q 219 1147 219 1656 
Q 219 2153 384 2558 
Q 550 2963 881 3178 
Q 1213 3394 1622 3394 
Q 1922 3394 2156 3267 
Q 2391 3141 2538 2938 
L 2538 4581 
L 3097 4581 
L 3097 0 
L 2575 0 
z
M 797 1656 
Q 797 1019 1065 703 
Q 1334 388 1700 388 
Q 2069 388 2326 689 
Q 2584 991 2584 1609 
Q 2584 2291 2321 2609 
Q 2059 2928 1675 2928 
Q 1300 2928 1048 2622 
Q 797 2316 797 1656 
z
" transform="scale(0.015625)"/>
       <path id="ArialMT-75" d="M 2597 0 
L 2597 488 
Q 2209 -75 1544 -75 
Q 1250 -75 995 37 
Q 741 150 617 320 
Q 494 491 444 738 
Q 409 903 409 1263 
L 409 3319 
L 972 3319 
L 972 1478 
Q 972 1038 1006 884 
Q 1059 663 1231 536 
Q 1403 409 1656 409 
Q 1909 409 2131 539 
Q 2353 669 2445 892 
Q 2538 1116 2538 1541 
L 2538 3319 
L 3100 3319 
L 3100 0 
L 2597 0 
z
" transform="scale(0.015625)"/>
       <path id="ArialMT-6f" d="M 213 1659 
Q 213 2581 725 3025 
Q 1153 3394 1769 3394 
Q 2453 3394 2887 2945 
Q 3322 2497 3322 1706 
Q 3322 1066 3130 698 
Q 2938 331 2570 128 
Q 2203 -75 1769 -75 
Q 1072 -75 642 372 
Q 213 819 213 1659 
z
M 791 1659 
Q 791 1022 1069 705 
Q 1347 388 1769 388 
Q 2188 388 2466 706 
Q 2744 1025 2744 1678 
Q 2744 2294 2464 2611 
Q 2184 2928 1769 2928 
Q 1347 2928 1069 2612 
Q 791 2297 791 1659 
z
" transform="scale(0.015625)"/>
       <path id="ArialMT-20" transform="scale(0.015625)"/>
       <path id="ArialMT-6c" d="M 409 0 
L 409 4581 
L 972 4581 
L 972 0 
L 409 0 
z
" transform="scale(0.015625)"/>
      </defs>
      <use xlink:href="#ArialMT-4d"/>
      <use xlink:href="#ArialMT-69" x="83.300781"/>
      <use xlink:href="#ArialMT-6e" x="105.517578"/>
      <use xlink:href="#ArialMT-69" x="161.132812"/>
      <use xlink:href="#ArialMT-6d" x="183.349609"/>
      <use xlink:href="#ArialMT-79" x="266.650391"/>
      <use xlink:href="#ArialMT-63" x="316.650391"/>
      <use xlink:href="#ArialMT-69" x="366.650391"/>
      <use xlink:href="#ArialMT-6e" x="388.867188"/>
      <use xlink:href="#ArialMT-2f" x="444.482422"/>
      <use xlink:href="#ArialMT-64" x="472.265625"/>
      <use xlink:href="#ArialMT-75" x="527.880859"/>
      <use xlink:href="#ArialMT-64" x="583.496094"/>
      <use xlink:href="#ArialMT-6f" x="639.111328"/>
      <use xlink:href="#ArialMT-6d" x="694.726562"/>
      <use xlink:href="#ArialMT-79" x="778.027344"/>
      <use xlink:href="#ArialMT-63" x="828.027344"/>
      <use xlink:href="#ArialMT-69" x="878.027344"/>
      <use xlink:href="#ArialMT-6e" x="900.244141"/>
      <use xlink:href="#ArialMT-20" x="955.859375"/>
      <use xlink:href="#ArialMT-69" x="983.642578"/>
      <use xlink:href="#ArialMT-4d" x="1005.859375"/>
      <use xlink:href="#ArialMT-6f" x="1089.160156"/>
      <use xlink:href="#ArialMT-64" x="1144.775391"/>
      <use xlink:href="#ArialMT-75" x="1200.390625"/>
      <use xlink:href="#ArialMT-6c" x="1256.005859"/>
      <use xlink:href="#ArialMT-6f" x="1278.222656"/>
      <use xlink:href="#ArialMT-6e" x="1333.837891"/>
     </g>
     <!-- Activity -->
     <g transform="translate(17.98425 60.354637)rotate(-90)scale(0.06 -0.06)">
      <defs>
       <path id="ArialMT-41" d="M -9 0 
L 1750 4581 
L 2403 4581 
L 4278 0 
L 3588 0 
L 3053 1388 
L 1138 1388 
L 634 0 
L -9 0 
z
M 1313 1881 
L 2866 1881 
L 2388 3150 
Q 2169 3728 2063 4100 
Q 1975 3659 1816 3225 
L 1313 1881 
z
" transform="scale(0.015625)"/>
       <path id="ArialMT-74" d="M 1650 503 
L 1731 6 
Q 1494 -44 1306 -44 
Q 1000 -44 831 53 
Q 663 150 594 308 
Q 525 466 525 972 
L 525 2881 
L 113 2881 
L 113 3319 
L 525 3319 
L 525 4141 
L 1084 4478 
L 1084 3319 
L 1650 3319 
L 1650 2881 
L 1084 2881 
L 1084 941 
Q 1084 700 1114 631 
Q 1144 563 1211 522 
Q 1278 481 1403 481 
Q 1497 481 1650 503 
z
" transform="scale(0.015625)"/>
       <path id="ArialMT-76" d="M 1344 0 
L 81 3319 
L 675 3319 
L 1388 1331 
Q 1503 1009 1600 663 
Q 1675 925 1809 1294 
L 2547 3319 
L 3125 3319 
L 1869 0 
L 1344 0 
z
" transform="scale(0.015625)"/>
      </defs>
      <use xlink:href="#ArialMT-41"/>
      <use xlink:href="#ArialMT-63" x="66.699219"/>
      <use xlink:href="#ArialMT-74" x="116.699219"/>
      <use xlink:href="#ArialMT-69" x="144.482422"/>
      <use xlink:href="#ArialMT-76" x="166.699219"/>
      <use xlink:href="#ArialMT-69" x="216.699219"/>
      <use xlink:href="#ArialMT-74" x="238.916016"/>
      <use xlink:href="#ArialMT-79" x="266.699219"/>
     </g>
    </g>
   </g>
   <g id="patch_3">
    <path d="M 53.133527 24.379743 
L 63.272836 24.379743 
L 63.272836 24.379743 
L 53.133527 24.379743 
z
" clip-path="url(#p8a5b45bf12)" style="fill: #d62728"/>
   </g>
   <g id="patch_4">
    <path d="M 63.272836 24.379743 
L 73.412146 24.379743 
L 73.412146 18.059008 
L 63.272836 18.059008 
z
" clip-path="url(#p8a5b45bf12)" style="fill: #ff7f0e"/>
   </g>
   <g id="patch_5">
    <path d="M 73.412146 24.379743 
L 83.551455 24.379743 
L 83.551455 27.462781 
L 73.412146 27.462781 
z
" clip-path="url(#p8a5b45bf12)" style="fill: #2ca02c"/>
   </g>
   <g id="patch_6">
    <path d="M 83.551455 24.379743 
L 93.690765 24.379743 
L 93.690765 26.905076 
L 83.551455 26.905076 
z
" clip-path="url(#p8a5b45bf12)" style="fill: #9467bd"/>
   </g>
   <g id="patch_7">
    <path d="M 93.690765 24.379743 
L 103.830074 24.379743 
L 103.830074 18.04661 
L 93.690765 18.04661 
z
" clip-path="url(#p8a5b45bf12)" style="fill: #8c564b"/>
   </g>
   <g id="patch_8">
    <path d="M 103.830074 24.379743 
L 113.969384 24.379743 
L 113.969384 53.712837 
L 103.830074 53.712837 
z
" clip-path="url(#p8a5b45bf12)" style="fill: #e377c2"/>
   </g>
   <g id="patch_9">
    <path d="M 113.969384 24.379743 
L 124.108693 24.379743 
L 124.108693 52.139586 
L 113.969384 52.139586 
z
" clip-path="url(#p8a5b45bf12)" style="fill: #7f7f7f"/>
   </g>
   <g id="patch_10">
    <path d="M 124.108693 24.379743 
L 134.248003 24.379743 
L 134.248003 53.024745 
L 124.108693 53.024745 
z
" clip-path="url(#p8a5b45bf12)" style="fill: #bcbd22"/>
   </g>
   <g id="patch_11">
    <path d="M 134.248003 24.379743 
L 144.387312 24.379743 
L 144.387312 74.763829 
L 134.248003 74.763829 
z
" clip-path="url(#p8a5b45bf12)" style="fill: #17becf"/>
   </g>
   <g id="patch_12">
    <path d="M 144.387312 24.379743 
L 154.526622 24.379743 
L 154.526622 74.941009 
L 144.387312 74.941009 
z
" clip-path="url(#p8a5b45bf12)" style="fill: #d62728"/>
   </g>
   <g id="PathCollection_1">
    <defs>
     <path id="m402a7e5351" d="M 0 1.581139 
C 0.419323 1.581139 0.821528 1.41454 1.118034 1.118034 
C 1.41454 0.821528 1.581139 0.419323 1.581139 0 
C 1.581139 -0.419323 1.41454 -0.821528 1.118034 -1.118034 
C 0.821528 -1.41454 0.419323 -1.581139 0 -1.581139 
C -0.419323 -1.581139 -0.821528 -1.41454 -1.118034 -1.118034 
C -1.41454 -0.821528 -1.581139 -0.419323 -1.581139 0 
C -1.581139 0.419323 -1.41454 0.821528 -1.118034 1.118034 
C -0.821528 1.41454 -0.419323 1.581139 0 1.581139 
z
" style="stroke: #000000; stroke-width: 0.5"/>
    </defs>
    <g clip-path="url(#p8a5b45bf12)">
     <use xlink:href="#m402a7e5351" x="58.203182" y="16.187732" style="stroke: #000000; stroke-width: 0.5"/>
     <use xlink:href="#m402a7e5351" x="58.203182" y="32.571753" style="stroke: #000000; stroke-width: 0.5"/>
     <use xlink:href="#m402a7e5351" x="68.342491" y="17.220686" style="stroke: #000000; stroke-width: 0.5"/>
     <use xlink:href="#m402a7e5351" x="68.342491" y="18.89733" style="stroke: #000000; stroke-width: 0.5"/>
     <use xlink:href="#m402a7e5351" x="78.481801" y="26.83028" style="stroke: #000000; stroke-width: 0.5"/>
     <use xlink:href="#m402a7e5351" x="78.481801" y="28.095282" style="stroke: #000000; stroke-width: 0.5"/>
     <use xlink:href="#m402a7e5351" x="88.62111" y="30.94191" style="stroke: #000000; stroke-width: 0.5"/>
     <use xlink:href="#m402a7e5351" x="88.62111" y="22.868242" style="stroke: #000000; stroke-width: 0.5"/>
     <use xlink:href="#m402a7e5351" x="98.76042" y="21.61763" style="stroke: #000000; stroke-width: 0.5"/>
     <use xlink:href="#m402a7e5351" x="98.76042" y="14.475591" style="stroke: #000000; stroke-width: 0.5"/>
     <use xlink:href="#m402a7e5351" x="108.899729" y="59.708694" style="stroke: #000000; stroke-width: 0.5"/>
     <use xlink:href="#m402a7e5351" x="108.899729" y="47.716979" style="stroke: #000000; stroke-width: 0.5"/>
     <use xlink:href="#m402a7e5351" x="119.039039" y="52.950212" style="stroke: #000000; stroke-width: 0.5"/>
     <use xlink:href="#m402a7e5351" x="119.039039" y="51.32896" style="stroke: #000000; stroke-width: 0.5"/>
     <use xlink:href="#m402a7e5351" x="129.178348" y="47.176553" style="stroke: #000000; stroke-width: 0.5"/>
     <use xlink:href="#m402a7e5351" x="129.178348" y="58.872937" style="stroke: #000000; stroke-width: 0.5"/>
     <use xlink:href="#m402a7e5351" x="139.317658" y="87.231496" style="stroke: #000000; stroke-width: 0.5"/>
     <use xlink:href="#m402a7e5351" x="139.317658" y="64.84289" style="stroke: #000000; stroke-width: 0.5"/>
     <use xlink:href="#m402a7e5351" x="139.317658" y="72.217101" style="stroke: #000000; stroke-width: 0.5"/>
     <use xlink:href="#m402a7e5351" x="149.456967" y="83.363545" style="stroke: #000000; stroke-width: 0.5"/>
     <use xlink:href="#m402a7e5351" x="149.456967" y="66.518473" style="stroke: #000000; stroke-width: 0.5"/>
    </g>
   </g>
   <g id="LineCollection_1">
    <path d="M 53.133527 94.507087 
L 53.133527 7.2 
" clip-path="url(#p8a5b45bf12)" style="fill: none; stroke: #d3d3d3"/>
    <path d="M 63.272836 94.507087 
L 63.272836 7.2 
" clip-path="url(#p8a5b45bf12)" style="fill: none; stroke: #d3d3d3"/>
    <path d="M 103.830074 94.507087 
L 103.830074 7.2 
" clip-path="url(#p8a5b45bf12)" style="fill: none; stroke: #d3d3d3"/>
    <path d="M 154.526622 94.507087 
L 154.526622 7.2 
" clip-path="url(#p8a5b45bf12)" style="fill: none; stroke: #d3d3d3"/>
   </g>
   <g id="LineCollection_2">
    <path d="M 37.924563 24.379743 
L 169.735586 24.379743 
" clip-path="url(#p8a5b45bf12)" style="fill: none; stroke: #000000"/>
   </g>
   <g id="patch_13">
    <path d="M 37.924563 94.507087 
L 37.924563 7.2 
" style="fill: none; stroke: #000000; stroke-width: 0.5; stroke-linejoin: miter; stroke-linecap: square"/>
   </g>
   <g id="patch_14">
    <path d="M 169.735586 94.507087 
L 169.735586 7.2 
" style="fill: none; stroke: #000000; stroke-width: 0.5; stroke-linejoin: miter; stroke-linecap: square"/>
   </g>
   <g id="patch_15">
    <path d="M 37.924563 94.507087 
L 169.735586 94.507087 
" style="fill: none; stroke: #000000; stroke-width: 0.5; stroke-linejoin: miter; stroke-linecap: square"/>
   </g>
   <g id="patch_16">
    <path d="M 37.924563 7.2 
L 169.735586 7.2 
" style="fill: none; stroke: #000000; stroke-width: 0.5; stroke-linejoin: miter; stroke-linecap: square"/>
   </g>
   <g id="text_6">
    <!-- Control -->
    <g transform="translate(44.143971 124.107711)rotate(-45)scale(0.1 -0.1)">
     <defs>
      <path id="ArialMT-43" d="M 3763 1606 
L 4369 1453 
Q 4178 706 3683 314 
Q 3188 -78 2472 -78 
Q 1731 -78 1267 223 
Q 803 525 561 1097 
Q 319 1669 319 2325 
Q 319 3041 592 3573 
Q 866 4106 1370 4382 
Q 1875 4659 2481 4659 
Q 3169 4659 3637 4309 
Q 4106 3959 4291 3325 
L 3694 3184 
Q 3534 3684 3231 3912 
Q 2928 4141 2469 4141 
Q 1941 4141 1586 3887 
Q 1231 3634 1087 3207 
Q 944 2781 944 2328 
Q 944 1744 1114 1308 
Q 1284 872 1643 656 
Q 2003 441 2422 441 
Q 2931 441 3284 734 
Q 3638 1028 3763 1606 
z
" transform="scale(0.015625)"/>
      <path id="ArialMT-72" d="M 416 0 
L 416 3319 
L 922 3319 
L 922 2816 
Q 1116 3169 1280 3281 
Q 1444 3394 1641 3394 
Q 1925 3394 2219 3213 
L 2025 2691 
Q 1819 2813 1613 2813 
Q 1428 2813 1281 2702 
Q 1134 2591 1072 2394 
Q 978 2094 978 1738 
L 978 0 
L 416 0 
z
" transform="scale(0.015625)"/>
     </defs>
     <use xlink:href="#ArialMT-43"/>
     <use xlink:href="#ArialMT-6f" x="72.216797"/>
     <use xlink:href="#ArialMT-6e" x="127.832031"/>
     <use xlink:href="#ArialMT-74" x="183.447266"/>
     <use xlink:href="#ArialMT-72" x="211.230469"/>
     <use xlink:href="#ArialMT-6f" x="244.53125"/>
     <use xlink:href="#ArialMT-6c" x="300.146484"/>
    </g>
   </g>
   <g id="text_7">
    <!-- Salinity ISP2 -->
    <g transform="translate(52.113991 141.48928)rotate(-45)scale(0.1 -0.1)">
     <defs>
      <path id="ArialMT-53" d="M 288 1472 
L 859 1522 
Q 900 1178 1048 958 
Q 1197 738 1509 602 
Q 1822 466 2213 466 
Q 2559 466 2825 569 
Q 3091 672 3220 851 
Q 3350 1031 3350 1244 
Q 3350 1459 3225 1620 
Q 3100 1781 2813 1891 
Q 2628 1963 1997 2114 
Q 1366 2266 1113 2400 
Q 784 2572 623 2826 
Q 463 3081 463 3397 
Q 463 3744 659 4045 
Q 856 4347 1234 4503 
Q 1613 4659 2075 4659 
Q 2584 4659 2973 4495 
Q 3363 4331 3572 4012 
Q 3781 3694 3797 3291 
L 3216 3247 
Q 3169 3681 2898 3903 
Q 2628 4125 2100 4125 
Q 1550 4125 1298 3923 
Q 1047 3722 1047 3438 
Q 1047 3191 1225 3031 
Q 1400 2872 2139 2705 
Q 2878 2538 3153 2413 
Q 3553 2228 3743 1945 
Q 3934 1663 3934 1294 
Q 3934 928 3725 604 
Q 3516 281 3123 101 
Q 2731 -78 2241 -78 
Q 1619 -78 1198 103 
Q 778 284 539 648 
Q 300 1013 288 1472 
z
" transform="scale(0.015625)"/>
      <path id="ArialMT-61" d="M 2588 409 
Q 2275 144 1986 34 
Q 1697 -75 1366 -75 
Q 819 -75 525 192 
Q 231 459 231 875 
Q 231 1119 342 1320 
Q 453 1522 633 1644 
Q 813 1766 1038 1828 
Q 1203 1872 1538 1913 
Q 2219 1994 2541 2106 
Q 2544 2222 2544 2253 
Q 2544 2597 2384 2738 
Q 2169 2928 1744 2928 
Q 1347 2928 1158 2789 
Q 969 2650 878 2297 
L 328 2372 
Q 403 2725 575 2942 
Q 747 3159 1072 3276 
Q 1397 3394 1825 3394 
Q 2250 3394 2515 3294 
Q 2781 3194 2906 3042 
Q 3031 2891 3081 2659 
Q 3109 2516 3109 2141 
L 3109 1391 
Q 3109 606 3145 398 
Q 3181 191 3288 0 
L 2700 0 
Q 2613 175 2588 409 
z
M 2541 1666 
Q 2234 1541 1622 1453 
Q 1275 1403 1131 1340 
Q 988 1278 909 1158 
Q 831 1038 831 891 
Q 831 666 1001 516 
Q 1172 366 1500 366 
Q 1825 366 2078 508 
Q 2331 650 2450 897 
Q 2541 1088 2541 1459 
L 2541 1666 
z
" transform="scale(0.015625)"/>
      <path id="ArialMT-49" d="M 597 0 
L 597 4581 
L 1203 4581 
L 1203 0 
L 597 0 
z
" transform="scale(0.015625)"/>
      <path id="ArialMT-50" d="M 494 0 
L 494 4581 
L 2222 4581 
Q 2678 4581 2919 4538 
Q 3256 4481 3484 4323 
Q 3713 4166 3852 3881 
Q 3991 3597 3991 3256 
Q 3991 2672 3619 2267 
Q 3247 1863 2275 1863 
L 1100 1863 
L 1100 0 
L 494 0 
z
M 1100 2403 
L 2284 2403 
Q 2872 2403 3119 2622 
Q 3366 2841 3366 3238 
Q 3366 3525 3220 3729 
Q 3075 3934 2838 4000 
Q 2684 4041 2272 4041 
L 1100 4041 
L 1100 2403 
z
" transform="scale(0.015625)"/>
     </defs>
     <use xlink:href="#ArialMT-53"/>
     <use xlink:href="#ArialMT-61" x="66.699219"/>
     <use xlink:href="#ArialMT-6c" x="122.314453"/>
     <use xlink:href="#ArialMT-69" x="144.53125"/>
     <use xlink:href="#ArialMT-6e" x="166.748047"/>
     <use xlink:href="#ArialMT-69" x="222.363281"/>
     <use xlink:href="#ArialMT-74" x="244.580078"/>
     <use xlink:href="#ArialMT-79" x="272.363281"/>
     <use xlink:href="#ArialMT-20" x="322.363281"/>
     <use xlink:href="#ArialMT-49" x="350.146484"/>
     <use xlink:href="#ArialMT-53" x="377.929688"/>
     <use xlink:href="#ArialMT-50" x="444.628906"/>
     <use xlink:href="#ArialMT-32" x="511.328125"/>
    </g>
   </g>
   <g id="text_8">
    <!-- Salinity MSG -->
    <g transform="translate(96.964171 142.265992)rotate(-45)scale(0.1 -0.1)">
     <defs>
      <path id="ArialMT-47" d="M 2638 1797 
L 2638 2334 
L 4578 2338 
L 4578 638 
Q 4131 281 3656 101 
Q 3181 -78 2681 -78 
Q 2006 -78 1454 211 
Q 903 500 622 1047 
Q 341 1594 341 2269 
Q 341 2938 620 3517 
Q 900 4097 1425 4378 
Q 1950 4659 2634 4659 
Q 3131 4659 3532 4498 
Q 3934 4338 4162 4050 
Q 4391 3763 4509 3300 
L 3963 3150 
Q 3859 3500 3706 3700 
Q 3553 3900 3268 4020 
Q 2984 4141 2638 4141 
Q 2222 4141 1919 4014 
Q 1616 3888 1430 3681 
Q 1244 3475 1141 3228 
Q 966 2803 966 2306 
Q 966 1694 1177 1281 
Q 1388 869 1791 669 
Q 2194 469 2647 469 
Q 3041 469 3416 620 
Q 3791 772 3984 944 
L 3984 1797 
L 2638 1797 
z
" transform="scale(0.015625)"/>
     </defs>
     <use xlink:href="#ArialMT-53"/>
     <use xlink:href="#ArialMT-61" x="66.699219"/>
     <use xlink:href="#ArialMT-6c" x="122.314453"/>
     <use xlink:href="#ArialMT-69" x="144.53125"/>
     <use xlink:href="#ArialMT-6e" x="166.748047"/>
     <use xlink:href="#ArialMT-69" x="222.363281"/>
     <use xlink:href="#ArialMT-74" x="244.580078"/>
     <use xlink:href="#ArialMT-79" x="272.363281"/>
     <use xlink:href="#ArialMT-20" x="322.363281"/>
     <use xlink:href="#ArialMT-4d" x="350.146484"/>
     <use xlink:href="#ArialMT-53" x="433.447266"/>
     <use xlink:href="#ArialMT-47" x="500.146484"/>
    </g>
   </g>
   <g id="legend_1">
    <g id="patch_17">
     <path d="M 182.062078 113.323281 
L 296.64661 113.323281 
Q 298.04661 113.323281 298.04661 111.923281 
L 298.04661 12.1 
Q 298.04661 10.7 296.64661 10.7 
L 182.062078 10.7 
Q 180.662078 10.7 180.662078 12.1 
L 180.662078 111.923281 
Q 180.662078 113.323281 182.062078 113.323281 
z
" style="fill: #ffffff; opacity: 0.8; stroke: #cccccc; stroke-width: 0.5; stroke-linejoin: miter"/>
    </g>
    <g id="patch_18">
     <path d="M 183.462078 18.510469 
L 197.462078 18.510469 
L 197.462078 13.610469 
L 183.462078 13.610469 
z
" style="fill: #d62728"/>
    </g>
    <g id="text_9">
     <!-- Control - control -->
     <g transform="translate(203.062078 18.510469)scale(0.07 -0.07)">
      <defs>
       <path id="ArialMT-2d" d="M 203 1375 
L 203 1941 
L 1931 1941 
L 1931 1375 
L 203 1375 
z
" transform="scale(0.015625)"/>
      </defs>
      <use xlink:href="#ArialMT-43"/>
      <use xlink:href="#ArialMT-6f" x="72.216797"/>
      <use xlink:href="#ArialMT-6e" x="127.832031"/>
      <use xlink:href="#ArialMT-74" x="183.447266"/>
      <use xlink:href="#ArialMT-72" x="211.230469"/>
      <use xlink:href="#ArialMT-6f" x="244.53125"/>
      <use xlink:href="#ArialMT-6c" x="300.146484"/>
      <use xlink:href="#ArialMT-20" x="322.363281"/>
      <use xlink:href="#ArialMT-2d" x="350.146484"/>
      <use xlink:href="#ArialMT-20" x="383.447266"/>
      <use xlink:href="#ArialMT-63" x="411.230469"/>
      <use xlink:href="#ArialMT-6f" x="461.230469"/>
      <use xlink:href="#ArialMT-6e" x="516.845703"/>
      <use xlink:href="#ArialMT-74" x="572.460938"/>
      <use xlink:href="#ArialMT-72" x="600.244141"/>
      <use xlink:href="#ArialMT-6f" x="633.544922"/>
      <use xlink:href="#ArialMT-6c" x="689.160156"/>
     </g>
    </g>
    <g id="patch_19">
     <path d="M 183.462078 28.4975 
L 197.462078 28.4975 
L 197.462078 23.5975 
L 183.462078 23.5975 
z
" style="fill: #ff7f0e"/>
    </g>
    <g id="text_10">
     <!-- Salinity ISP2 - ISP2 2% NaCl -->
     <g transform="translate(203.062078 28.4975)scale(0.07 -0.07)">
      <defs>
       <path id="ArialMT-25" d="M 372 3481 
Q 372 3972 619 4315 
Q 866 4659 1334 4659 
Q 1766 4659 2048 4351 
Q 2331 4044 2331 3447 
Q 2331 2866 2045 2552 
Q 1759 2238 1341 2238 
Q 925 2238 648 2547 
Q 372 2856 372 3481 
z
M 1350 4272 
Q 1141 4272 1002 4090 
Q 863 3909 863 3425 
Q 863 2984 1003 2804 
Q 1144 2625 1350 2625 
Q 1563 2625 1702 2806 
Q 1841 2988 1841 3469 
Q 1841 3913 1700 4092 
Q 1559 4272 1350 4272 
z
M 1353 -169 
L 3859 4659 
L 4316 4659 
L 1819 -169 
L 1353 -169 
z
M 3334 1075 
Q 3334 1569 3581 1911 
Q 3828 2253 4300 2253 
Q 4731 2253 5014 1945 
Q 5297 1638 5297 1041 
Q 5297 459 5011 145 
Q 4725 -169 4303 -169 
Q 3888 -169 3611 142 
Q 3334 453 3334 1075 
z
M 4316 1866 
Q 4103 1866 3964 1684 
Q 3825 1503 3825 1019 
Q 3825 581 3965 400 
Q 4106 219 4313 219 
Q 4528 219 4667 400 
Q 4806 581 4806 1063 
Q 4806 1506 4665 1686 
Q 4525 1866 4316 1866 
z
" transform="scale(0.015625)"/>
       <path id="ArialMT-4e" d="M 488 0 
L 488 4581 
L 1109 4581 
L 3516 984 
L 3516 4581 
L 4097 4581 
L 4097 0 
L 3475 0 
L 1069 3600 
L 1069 0 
L 488 0 
z
" transform="scale(0.015625)"/>
      </defs>
      <use xlink:href="#ArialMT-53"/>
      <use xlink:href="#ArialMT-61" x="66.699219"/>
      <use xlink:href="#ArialMT-6c" x="122.314453"/>
      <use xlink:href="#ArialMT-69" x="144.53125"/>
      <use xlink:href="#ArialMT-6e" x="166.748047"/>
      <use xlink:href="#ArialMT-69" x="222.363281"/>
      <use xlink:href="#ArialMT-74" x="244.580078"/>
      <use xlink:href="#ArialMT-79" x="272.363281"/>
      <use xlink:href="#ArialMT-20" x="322.363281"/>
      <use xlink:href="#ArialMT-49" x="350.146484"/>
      <use xlink:href="#ArialMT-53" x="377.929688"/>
      <use xlink:href="#ArialMT-50" x="444.628906"/>
      <use xlink:href="#ArialMT-32" x="511.328125"/>
      <use xlink:href="#ArialMT-20" x="566.943359"/>
      <use xlink:href="#ArialMT-2d" x="594.726562"/>
      <use xlink:href="#ArialMT-20" x="628.027344"/>
      <use xlink:href="#ArialMT-49" x="655.810547"/>
      <use xlink:href="#ArialMT-53" x="683.59375"/>
      <use xlink:href="#ArialMT-50" x="750.292969"/>
      <use xlink:href="#ArialMT-32" x="816.992188"/>
      <use xlink:href="#ArialMT-20" x="872.607422"/>
      <use xlink:href="#ArialMT-32" x="900.390625"/>
      <use xlink:href="#ArialMT-25" x="956.005859"/>
      <use xlink:href="#ArialMT-20" x="1044.921875"/>
      <use xlink:href="#ArialMT-4e" x="1072.705078"/>
      <use xlink:href="#ArialMT-61" x="1144.921875"/>
      <use xlink:href="#ArialMT-43" x="1200.537109"/>
      <use xlink:href="#ArialMT-6c" x="1272.753906"/>
     </g>
    </g>
    <g id="patch_20">
     <path d="M 183.462078 38.566563 
L 197.462078 38.566563 
L 197.462078 33.666563 
L 183.462078 33.666563 
z
" style="fill: #2ca02c"/>
    </g>
    <g id="text_11">
     <!-- Salinity ISP2 - ISP2 3% NaCl -->
     <g transform="translate(203.062078 38.566563)scale(0.07 -0.07)">
      <use xlink:href="#ArialMT-53"/>
      <use xlink:href="#ArialMT-61" x="66.699219"/>
      <use xlink:href="#ArialMT-6c" x="122.314453"/>
      <use xlink:href="#ArialMT-69" x="144.53125"/>
      <use xlink:href="#ArialMT-6e" x="166.748047"/>
      <use xlink:href="#ArialMT-69" x="222.363281"/>
      <use xlink:href="#ArialMT-74" x="244.580078"/>
      <use xlink:href="#ArialMT-79" x="272.363281"/>
      <use xlink:href="#ArialMT-20" x="322.363281"/>
      <use xlink:href="#ArialMT-49" x="350.146484"/>
      <use xlink:href="#ArialMT-53" x="377.929688"/>
      <use xlink:href="#ArialMT-50" x="444.628906"/>
      <use xlink:href="#ArialMT-32" x="511.328125"/>
      <use xlink:href="#ArialMT-20" x="566.943359"/>
      <use xlink:href="#ArialMT-2d" x="594.726562"/>
      <use xlink:href="#ArialMT-20" x="628.027344"/>
      <use xlink:href="#ArialMT-49" x="655.810547"/>
      <use xlink:href="#ArialMT-53" x="683.59375"/>
      <use xlink:href="#ArialMT-50" x="750.292969"/>
      <use xlink:href="#ArialMT-32" x="816.992188"/>
      <use xlink:href="#ArialMT-20" x="872.607422"/>
      <use xlink:href="#ArialMT-33" x="900.390625"/>
      <use xlink:href="#ArialMT-25" x="956.005859"/>
      <use xlink:href="#ArialMT-20" x="1044.921875"/>
      <use xlink:href="#ArialMT-4e" x="1072.705078"/>
      <use xlink:href="#ArialMT-61" x="1144.921875"/>
      <use xlink:href="#ArialMT-43" x="1200.537109"/>
      <use xlink:href="#ArialMT-6c" x="1272.753906"/>
     </g>
    </g>
    <g id="patch_21">
     <path d="M 183.462078 48.635625 
L 197.462078 48.635625 
L 197.462078 43.735625 
L 183.462078 43.735625 
z
" style="fill: #9467bd"/>
    </g>
    <g id="text_12">
     <!-- Salinity ISP2 - ISP2 5% NaCl -->
     <g transform="translate(203.062078 48.635625)scale(0.07 -0.07)">
      <defs>
       <path id="ArialMT-35" d="M 266 1200 
L 856 1250 
Q 922 819 1161 601 
Q 1400 384 1738 384 
Q 2144 384 2425 690 
Q 2706 997 2706 1503 
Q 2706 1984 2436 2262 
Q 2166 2541 1728 2541 
Q 1456 2541 1237 2417 
Q 1019 2294 894 2097 
L 366 2166 
L 809 4519 
L 3088 4519 
L 3088 3981 
L 1259 3981 
L 1013 2750 
Q 1425 3038 1878 3038 
Q 2478 3038 2890 2622 
Q 3303 2206 3303 1553 
Q 3303 931 2941 478 
Q 2500 -78 1738 -78 
Q 1113 -78 717 272 
Q 322 622 266 1200 
z
" transform="scale(0.015625)"/>
      </defs>
      <use xlink:href="#ArialMT-53"/>
      <use xlink:href="#ArialMT-61" x="66.699219"/>
      <use xlink:href="#ArialMT-6c" x="122.314453"/>
      <use xlink:href="#ArialMT-69" x="144.53125"/>
      <use xlink:href="#ArialMT-6e" x="166.748047"/>
      <use xlink:href="#ArialMT-69" x="222.363281"/>
      <use xlink:href="#ArialMT-74" x="244.580078"/>
      <use xlink:href="#ArialMT-79" x="272.363281"/>
      <use xlink:href="#ArialMT-20" x="322.363281"/>
      <use xlink:href="#ArialMT-49" x="350.146484"/>
      <use xlink:href="#ArialMT-53" x="377.929688"/>
      <use xlink:href="#ArialMT-50" x="444.628906"/>
      <use xlink:href="#ArialMT-32" x="511.328125"/>
      <use xlink:href="#ArialMT-20" x="566.943359"/>
      <use xlink:href="#ArialMT-2d" x="594.726562"/>
      <use xlink:href="#ArialMT-20" x="628.027344"/>
      <use xlink:href="#ArialMT-49" x="655.810547"/>
      <use xlink:href="#ArialMT-53" x="683.59375"/>
      <use xlink:href="#ArialMT-50" x="750.292969"/>
      <use xlink:href="#ArialMT-32" x="816.992188"/>
      <use xlink:href="#ArialMT-20" x="872.607422"/>
      <use xlink:href="#ArialMT-35" x="900.390625"/>
      <use xlink:href="#ArialMT-25" x="956.005859"/>
      <use xlink:href="#ArialMT-20" x="1044.921875"/>
      <use xlink:href="#ArialMT-4e" x="1072.705078"/>
      <use xlink:href="#ArialMT-61" x="1144.921875"/>
      <use xlink:href="#ArialMT-43" x="1200.537109"/>
      <use xlink:href="#ArialMT-6c" x="1272.753906"/>
     </g>
    </g>
    <g id="patch_22">
     <path d="M 183.462078 58.704688 
L 197.462078 58.704688 
L 197.462078 53.804688 
L 183.462078 53.804688 
z
" style="fill: #8c564b"/>
    </g>
    <g id="text_13">
     <!-- Salinity ISP2 - ISP2 7% NaCl -->
     <g transform="translate(203.062078 58.704688)scale(0.07 -0.07)">
      <defs>
       <path id="ArialMT-37" d="M 303 3981 
L 303 4522 
L 3269 4522 
L 3269 4084 
Q 2831 3619 2401 2847 
Q 1972 2075 1738 1259 
Q 1569 684 1522 0 
L 944 0 
Q 953 541 1156 1306 
Q 1359 2072 1739 2783 
Q 2119 3494 2547 3981 
L 303 3981 
z
" transform="scale(0.015625)"/>
      </defs>
      <use xlink:href="#ArialMT-53"/>
      <use xlink:href="#ArialMT-61" x="66.699219"/>
      <use xlink:href="#ArialMT-6c" x="122.314453"/>
      <use xlink:href="#ArialMT-69" x="144.53125"/>
      <use xlink:href="#ArialMT-6e" x="166.748047"/>
      <use xlink:href="#ArialMT-69" x="222.363281"/>
      <use xlink:href="#ArialMT-74" x="244.580078"/>
      <use xlink:href="#ArialMT-79" x="272.363281"/>
      <use xlink:href="#ArialMT-20" x="322.363281"/>
      <use xlink:href="#ArialMT-49" x="350.146484"/>
      <use xlink:href="#ArialMT-53" x="377.929688"/>
      <use xlink:href="#ArialMT-50" x="444.628906"/>
      <use xlink:href="#ArialMT-32" x="511.328125"/>
      <use xlink:href="#ArialMT-20" x="566.943359"/>
      <use xlink:href="#ArialMT-2d" x="594.726562"/>
      <use xlink:href="#ArialMT-20" x="628.027344"/>
      <use xlink:href="#ArialMT-49" x="655.810547"/>
      <use xlink:href="#ArialMT-53" x="683.59375"/>
      <use xlink:href="#ArialMT-50" x="750.292969"/>
      <use xlink:href="#ArialMT-32" x="816.992188"/>
      <use xlink:href="#ArialMT-20" x="872.607422"/>
      <use xlink:href="#ArialMT-37" x="900.390625"/>
      <use xlink:href="#ArialMT-25" x="956.005859"/>
      <use xlink:href="#ArialMT-20" x="1044.921875"/>
      <use xlink:href="#ArialMT-4e" x="1072.705078"/>
      <use xlink:href="#ArialMT-61" x="1144.921875"/>
      <use xlink:href="#ArialMT-43" x="1200.537109"/>
      <use xlink:href="#ArialMT-6c" x="1272.753906"/>
     </g>
    </g>
    <g id="patch_23">
     <path d="M 183.462078 68.77375 
L 197.462078 68.77375 
L 197.462078 63.87375 
L 183.462078 63.87375 
z
" style="fill: #e377c2"/>
    </g>
    <g id="text_14">
     <!-- Salinity MSG - MSG 1%NaCl -->
     <g transform="translate(203.062078 68.77375)scale(0.07 -0.07)">
      <use xlink:href="#ArialMT-53"/>
      <use xlink:href="#ArialMT-61" x="66.699219"/>
      <use xlink:href="#ArialMT-6c" x="122.314453"/>
      <use xlink:href="#ArialMT-69" x="144.53125"/>
      <use xlink:href="#ArialMT-6e" x="166.748047"/>
      <use xlink:href="#ArialMT-69" x="222.363281"/>
      <use xlink:href="#ArialMT-74" x="244.580078"/>
      <use xlink:href="#ArialMT-79" x="272.363281"/>
      <use xlink:href="#ArialMT-20" x="322.363281"/>
      <use xlink:href="#ArialMT-4d" x="350.146484"/>
      <use xlink:href="#ArialMT-53" x="433.447266"/>
      <use xlink:href="#ArialMT-47" x="500.146484"/>
      <use xlink:href="#ArialMT-20" x="577.929688"/>
      <use xlink:href="#ArialMT-2d" x="605.712891"/>
      <use xlink:href="#ArialMT-20" x="639.013672"/>
      <use xlink:href="#ArialMT-4d" x="666.796875"/>
      <use xlink:href="#ArialMT-53" x="750.097656"/>
      <use xlink:href="#ArialMT-47" x="816.796875"/>
      <use xlink:href="#ArialMT-20" x="894.580078"/>
      <use xlink:href="#ArialMT-31" x="922.363281"/>
      <use xlink:href="#ArialMT-25" x="977.978516"/>
      <use xlink:href="#ArialMT-4e" x="1066.894531"/>
      <use xlink:href="#ArialMT-61" x="1139.111328"/>
      <use xlink:href="#ArialMT-43" x="1194.726562"/>
      <use xlink:href="#ArialMT-6c" x="1266.943359"/>
     </g>
    </g>
    <g id="patch_24">
     <path d="M 183.462078 78.842813 
L 197.462078 78.842813 
L 197.462078 73.942813 
L 183.462078 73.942813 
z
" style="fill: #7f7f7f"/>
    </g>
    <g id="text_15">
     <!-- Salinity MSG - MSG 2%NaCl -->
     <g transform="translate(203.062078 78.842813)scale(0.07 -0.07)">
      <use xlink:href="#ArialMT-53"/>
      <use xlink:href="#ArialMT-61" x="66.699219"/>
      <use xlink:href="#ArialMT-6c" x="122.314453"/>
      <use xlink:href="#ArialMT-69" x="144.53125"/>
      <use xlink:href="#ArialMT-6e" x="166.748047"/>
      <use xlink:href="#ArialMT-69" x="222.363281"/>
      <use xlink:href="#ArialMT-74" x="244.580078"/>
      <use xlink:href="#ArialMT-79" x="272.363281"/>
      <use xlink:href="#ArialMT-20" x="322.363281"/>
      <use xlink:href="#ArialMT-4d" x="350.146484"/>
      <use xlink:href="#ArialMT-53" x="433.447266"/>
      <use xlink:href="#ArialMT-47" x="500.146484"/>
      <use xlink:href="#ArialMT-20" x="577.929688"/>
      <use xlink:href="#ArialMT-2d" x="605.712891"/>
      <use xlink:href="#ArialMT-20" x="639.013672"/>
      <use xlink:href="#ArialMT-4d" x="666.796875"/>
      <use xlink:href="#ArialMT-53" x="750.097656"/>
      <use xlink:href="#ArialMT-47" x="816.796875"/>
      <use xlink:href="#ArialMT-20" x="894.580078"/>
      <use xlink:href="#ArialMT-32" x="922.363281"/>
      <use xlink:href="#ArialMT-25" x="977.978516"/>
      <use xlink:href="#ArialMT-4e" x="1066.894531"/>
      <use xlink:href="#ArialMT-61" x="1139.111328"/>
      <use xlink:href="#ArialMT-43" x="1194.726562"/>
      <use xlink:href="#ArialMT-6c" x="1266.943359"/>
     </g>
    </g>
    <g id="patch_25">
     <path d="M 183.462078 88.911875 
L 197.462078 88.911875 
L 197.462078 84.011875 
L 183.462078 84.011875 
z
" style="fill: #bcbd22"/>
    </g>
    <g id="text_16">
     <!-- Salinity MSG - MSG 3% NaCl -->
     <g transform="translate(203.062078 88.911875)scale(0.07 -0.07)">
      <use xlink:href="#ArialMT-53"/>
      <use xlink:href="#ArialMT-61" x="66.699219"/>
      <use xlink:href="#ArialMT-6c" x="122.314453"/>
      <use xlink:href="#ArialMT-69" x="144.53125"/>
      <use xlink:href="#ArialMT-6e" x="166.748047"/>
      <use xlink:href="#ArialMT-69" x="222.363281"/>
      <use xlink:href="#ArialMT-74" x="244.580078"/>
      <use xlink:href="#ArialMT-79" x="272.363281"/>
      <use xlink:href="#ArialMT-20" x="322.363281"/>
      <use xlink:href="#ArialMT-4d" x="350.146484"/>
      <use xlink:href="#ArialMT-53" x="433.447266"/>
      <use xlink:href="#ArialMT-47" x="500.146484"/>
      <use xlink:href="#ArialMT-20" x="577.929688"/>
      <use xlink:href="#ArialMT-2d" x="605.712891"/>
      <use xlink:href="#ArialMT-20" x="639.013672"/>
      <use xlink:href="#ArialMT-4d" x="666.796875"/>
      <use xlink:href="#ArialMT-53" x="750.097656"/>
      <use xlink:href="#ArialMT-47" x="816.796875"/>
      <use xlink:href="#ArialMT-20" x="894.580078"/>
      <use xlink:href="#ArialMT-33" x="922.363281"/>
      <use xlink:href="#ArialMT-25" x="977.978516"/>
      <use xlink:href="#ArialMT-20" x="1066.894531"/>
      <use xlink:href="#ArialMT-4e" x="1094.677734"/>
      <use xlink:href="#ArialMT-61" x="1166.894531"/>
      <use xlink:href="#ArialMT-43" x="1222.509766"/>
      <use xlink:href="#ArialMT-6c" x="1294.726562"/>
     </g>
    </g>
    <g id="patch_26">
     <path d="M 183.462078 98.980938 
L 197.462078 98.980938 
L 197.462078 94.080938 
L 183.462078 94.080938 
z
" style="fill: #17becf"/>
    </g>
    <g id="text_17">
     <!-- Salinity MSG - MSG 5% NaCl -->
     <g transform="translate(203.062078 98.980938)scale(0.07 -0.07)">
      <use xlink:href="#ArialMT-53"/>
      <use xlink:href="#ArialMT-61" x="66.699219"/>
      <use xlink:href="#ArialMT-6c" x="122.314453"/>
      <use xlink:href="#ArialMT-69" x="144.53125"/>
      <use xlink:href="#ArialMT-6e" x="166.748047"/>
      <use xlink:href="#ArialMT-69" x="222.363281"/>
      <use xlink:href="#ArialMT-74" x="244.580078"/>
      <use xlink:href="#ArialMT-79" x="272.363281"/>
      <use xlink:href="#ArialMT-20" x="322.363281"/>
      <use xlink:href="#ArialMT-4d" x="350.146484"/>
      <use xlink:href="#ArialMT-53" x="433.447266"/>
      <use xlink:href="#ArialMT-47" x="500.146484"/>
      <use xlink:href="#ArialMT-20" x="577.929688"/>
      <use xlink:href="#ArialMT-2d" x="605.712891"/>
      <use xlink:href="#ArialMT-20" x="639.013672"/>
      <use xlink:href="#ArialMT-4d" x="666.796875"/>
      <use xlink:href="#ArialMT-53" x="750.097656"/>
      <use xlink:href="#ArialMT-47" x="816.796875"/>
      <use xlink:href="#ArialMT-20" x="894.580078"/>
      <use xlink:href="#ArialMT-35" x="922.363281"/>
      <use xlink:href="#ArialMT-25" x="977.978516"/>
      <use xlink:href="#ArialMT-20" x="1066.894531"/>
      <use xlink:href="#ArialMT-4e" x="1094.677734"/>
      <use xlink:href="#ArialMT-61" x="1166.894531"/>
      <use xlink:href="#ArialMT-43" x="1222.509766"/>
      <use xlink:href="#ArialMT-6c" x="1294.726562"/>
     </g>
    </g>
    <g id="patch_27">
     <path d="M 183.462078 109.05 
L 197.462078 109.05 
L 197.462078 104.15 
L 183.462078 104.15 
z
" style="fill: #d62728"/>
    </g>
    <g id="text_18">
     <!-- Salinity MSG - MSG 7% NaCl -->
     <g transform="translate(203.062078 109.05)scale(0.07 -0.07)">
      <use xlink:href="#ArialMT-53"/>
      <use xlink:href="#ArialMT-61" x="66.699219"/>
      <use xlink:href="#ArialMT-6c" x="122.314453"/>
      <use xlink:href="#ArialMT-69" x="144.53125"/>
      <use xlink:href="#ArialMT-6e" x="166.748047"/>
      <use xlink:href="#ArialMT-69" x="222.363281"/>
      <use xlink:href="#ArialMT-74" x="244.580078"/>
      <use xlink:href="#ArialMT-79" x="272.363281"/>
      <use xlink:href="#ArialMT-20" x="322.363281"/>
      <use xlink:href="#ArialMT-4d" x="350.146484"/>
      <use xlink:href="#ArialMT-53" x="433.447266"/>
      <use xlink:href="#ArialMT-47" x="500.146484"/>
      <use xlink:href="#ArialMT-20" x="577.929688"/>
      <use xlink:href="#ArialMT-2d" x="605.712891"/>
      <use xlink:href="#ArialMT-20" x="639.013672"/>
      <use xlink:href="#ArialMT-4d" x="666.796875"/>
      <use xlink:href="#ArialMT-53" x="750.097656"/>
      <use xlink:href="#ArialMT-47" x="816.796875"/>
      <use xlink:href="#ArialMT-20" x="894.580078"/>
      <use xlink:href="#ArialMT-37" x="922.363281"/>
      <use xlink:href="#ArialMT-25" x="977.978516"/>
      <use xlink:href="#ArialMT-20" x="1066.894531"/>
      <use xlink:href="#ArialMT-4e" x="1094.677734"/>
      <use xlink:href="#ArialMT-61" x="1166.894531"/>
      <use xlink:href="#ArialMT-43" x="1222.509766"/>
      <use xlink:href="#ArialMT-6c" x="1294.726562"/>
     </g>
    </g>
   </g>
  </g>
 </g>
 <defs>
  <clipPath id="p8a5b45bf12">
   <rect x="37.924563" y="7.2" width="131.811024" height="87.307087"/>
  </clipPath>
 </defs>
</svg>
